G04 #@! TF.GenerationSoftware,KiCad,Pcbnew,(5.1.6)-1*
G04 #@! TF.CreationDate,2020-10-22T15:24:49+09:00*
G04 #@! TF.ProjectId,SawVCO,53617756-434f-42e6-9b69-6361645f7063,Ver. 1.0*
G04 #@! TF.SameCoordinates,Original*
G04 #@! TF.FileFunction,Soldermask,Top*
G04 #@! TF.FilePolarity,Negative*
%FSLAX46Y46*%
G04 Gerber Fmt 4.6, Leading zero omitted, Abs format (unit mm)*
G04 Created by KiCad (PCBNEW (5.1.6)-1) date 2020-10-22 15:24:49*
%MOMM*%
%LPD*%
G01*
G04 APERTURE LIST*
%ADD10C,1.440000*%
%ADD11O,1.700000X2.000000*%
%ADD12C,3.200000*%
%ADD13C,1.600000*%
%ADD14R,1.600000X1.600000*%
%ADD15O,1.600000X1.600000*%
%ADD16R,1.500000X1.500000*%
%ADD17C,1.500000*%
%ADD18O,1.700000X1.700000*%
%ADD19R,1.700000X1.700000*%
%ADD20O,1.950000X1.700000*%
%ADD21C,1.700000*%
%ADD22C,1.800000*%
%ADD23R,1.800000X1.800000*%
G04 APERTURE END LIST*
D10*
G04 #@! TO.C,RV1*
X149860000Y-119380000D03*
X149860000Y-116840000D03*
X149860000Y-114300000D03*
G04 #@! TD*
D11*
G04 #@! TO.C,J11*
X167600000Y-78740000D03*
G36*
G01*
X164250000Y-79490000D02*
X164250000Y-77990000D01*
G75*
G02*
X164500000Y-77740000I250000J0D01*
G01*
X165700000Y-77740000D01*
G75*
G02*
X165950000Y-77990000I0J-250000D01*
G01*
X165950000Y-79490000D01*
G75*
G02*
X165700000Y-79740000I-250000J0D01*
G01*
X164500000Y-79740000D01*
G75*
G02*
X164250000Y-79490000I0J250000D01*
G01*
G37*
G04 #@! TD*
D12*
G04 #@! TO.C,H4*
X190500000Y-124460000D03*
G04 #@! TD*
G04 #@! TO.C,H3*
X114300000Y-124460000D03*
G04 #@! TD*
G04 #@! TO.C,H2*
X190500000Y-73660000D03*
G04 #@! TD*
G04 #@! TO.C,H1*
X114300000Y-73660000D03*
G04 #@! TD*
D13*
G04 #@! TO.C,C1*
X162560000Y-102195000D03*
D14*
X162560000Y-99695000D03*
G04 #@! TD*
D15*
G04 #@! TO.C,R11*
X152400000Y-107315000D03*
D13*
X152400000Y-99695000D03*
G04 #@! TD*
D15*
G04 #@! TO.C,R2*
X167005000Y-107315000D03*
D13*
X167005000Y-99695000D03*
G04 #@! TD*
D15*
G04 #@! TO.C,R1*
X170180000Y-99695000D03*
D13*
X170180000Y-107315000D03*
G04 #@! TD*
D15*
G04 #@! TO.C,U1*
X177800000Y-96520000D03*
X170180000Y-88900000D03*
X175260000Y-96520000D03*
X172720000Y-88900000D03*
X172720000Y-96520000D03*
X175260000Y-88900000D03*
X170180000Y-96520000D03*
D14*
X177800000Y-88900000D03*
G04 #@! TD*
D13*
G04 #@! TO.C,C11*
X149225000Y-104695000D03*
X149225000Y-99695000D03*
G04 #@! TD*
G04 #@! TO.C,C10*
X146685000Y-88940000D03*
X146685000Y-91440000D03*
G04 #@! TD*
D15*
G04 #@! TO.C,R6*
X174625000Y-107315000D03*
D13*
X174625000Y-99695000D03*
G04 #@! TD*
D15*
G04 #@! TO.C,U2*
X157480000Y-96520000D03*
X149860000Y-88900000D03*
X154940000Y-96520000D03*
X152400000Y-88900000D03*
X152400000Y-96520000D03*
X154940000Y-88900000D03*
X149860000Y-96520000D03*
D14*
X157480000Y-88900000D03*
G04 #@! TD*
D15*
G04 #@! TO.C,R15*
X149860000Y-79375000D03*
D13*
X157480000Y-79375000D03*
G04 #@! TD*
D15*
G04 #@! TO.C,R14*
X139065000Y-102235000D03*
D13*
X146685000Y-102235000D03*
G04 #@! TD*
D15*
G04 #@! TO.C,R13*
X146685000Y-105410000D03*
D13*
X139065000Y-105410000D03*
G04 #@! TD*
D15*
G04 #@! TO.C,R12*
X146685000Y-99060000D03*
D13*
X139065000Y-99060000D03*
G04 #@! TD*
D15*
G04 #@! TO.C,R10*
X157480000Y-82550000D03*
D13*
X149860000Y-82550000D03*
G04 #@! TD*
D15*
G04 #@! TO.C,R9*
X155575000Y-107315000D03*
D13*
X155575000Y-99695000D03*
G04 #@! TD*
D15*
G04 #@! TO.C,R8*
X149860000Y-85725000D03*
D13*
X157480000Y-85725000D03*
G04 #@! TD*
D15*
G04 #@! TO.C,R7*
X146685000Y-108585000D03*
D13*
X139065000Y-108585000D03*
G04 #@! TD*
D15*
G04 #@! TO.C,R5*
X177800000Y-99695000D03*
D13*
X177800000Y-107315000D03*
G04 #@! TD*
D15*
G04 #@! TO.C,R4*
X127635000Y-86360000D03*
D13*
X120015000Y-86360000D03*
G04 #@! TD*
D15*
G04 #@! TO.C,R3*
X120015000Y-111760000D03*
D13*
X127635000Y-111760000D03*
G04 #@! TD*
D16*
G04 #@! TO.C,Q1*
X160020000Y-111760000D03*
D17*
X154940000Y-111760000D03*
X157480000Y-114300000D03*
G04 #@! TD*
D11*
G04 #@! TO.C,J10*
X124420000Y-79375000D03*
G36*
G01*
X121070000Y-80125000D02*
X121070000Y-78625000D01*
G75*
G02*
X121320000Y-78375000I250000J0D01*
G01*
X122520000Y-78375000D01*
G75*
G02*
X122770000Y-78625000I0J-250000D01*
G01*
X122770000Y-80125000D01*
G75*
G02*
X122520000Y-80375000I-250000J0D01*
G01*
X121320000Y-80375000D01*
G75*
G02*
X121070000Y-80125000I0J250000D01*
G01*
G37*
G04 #@! TD*
G04 #@! TO.C,J9*
X133945000Y-79375000D03*
G36*
G01*
X130595000Y-80125000D02*
X130595000Y-78625000D01*
G75*
G02*
X130845000Y-78375000I250000J0D01*
G01*
X132045000Y-78375000D01*
G75*
G02*
X132295000Y-78625000I0J-250000D01*
G01*
X132295000Y-80125000D01*
G75*
G02*
X132045000Y-80375000I-250000J0D01*
G01*
X130845000Y-80375000D01*
G75*
G02*
X130595000Y-80125000I0J250000D01*
G01*
G37*
G04 #@! TD*
G04 #@! TO.C,J8*
X143470000Y-79375000D03*
G36*
G01*
X140120000Y-80125000D02*
X140120000Y-78625000D01*
G75*
G02*
X140370000Y-78375000I250000J0D01*
G01*
X141570000Y-78375000D01*
G75*
G02*
X141820000Y-78625000I0J-250000D01*
G01*
X141820000Y-80125000D01*
G75*
G02*
X141570000Y-80375000I-250000J0D01*
G01*
X140370000Y-80375000D01*
G75*
G02*
X140120000Y-80125000I0J250000D01*
G01*
G37*
G04 #@! TD*
G04 #@! TO.C,J7*
X130850000Y-119380000D03*
G36*
G01*
X134200000Y-118630000D02*
X134200000Y-120130000D01*
G75*
G02*
X133950000Y-120380000I-250000J0D01*
G01*
X132750000Y-120380000D01*
G75*
G02*
X132500000Y-120130000I0J250000D01*
G01*
X132500000Y-118630000D01*
G75*
G02*
X132750000Y-118380000I250000J0D01*
G01*
X133950000Y-118380000D01*
G75*
G02*
X134200000Y-118630000I0J-250000D01*
G01*
G37*
G04 #@! TD*
D18*
G04 #@! TO.C,J6*
X120650000Y-118745000D03*
D19*
X123190000Y-118745000D03*
G04 #@! TD*
D11*
G04 #@! TO.C,J5*
X140375000Y-119380000D03*
G36*
G01*
X143725000Y-118630000D02*
X143725000Y-120130000D01*
G75*
G02*
X143475000Y-120380000I-250000J0D01*
G01*
X142275000Y-120380000D01*
G75*
G02*
X142025000Y-120130000I0J250000D01*
G01*
X142025000Y-118630000D01*
G75*
G02*
X142275000Y-118380000I250000J0D01*
G01*
X143475000Y-118380000D01*
G75*
G02*
X143725000Y-118630000I0J-250000D01*
G01*
G37*
G04 #@! TD*
G04 #@! TO.C,J4*
X170220000Y-119380000D03*
G36*
G01*
X173570000Y-118630000D02*
X173570000Y-120130000D01*
G75*
G02*
X173320000Y-120380000I-250000J0D01*
G01*
X172120000Y-120380000D01*
G75*
G02*
X171870000Y-120130000I0J250000D01*
G01*
X171870000Y-118630000D01*
G75*
G02*
X172120000Y-118380000I250000J0D01*
G01*
X173320000Y-118380000D01*
G75*
G02*
X173570000Y-118630000I0J-250000D01*
G01*
G37*
G04 #@! TD*
D20*
G04 #@! TO.C,J3*
X132715000Y-96600000D03*
X132715000Y-99100000D03*
G36*
G01*
X133440000Y-102450000D02*
X131990000Y-102450000D01*
G75*
G02*
X131740000Y-102200000I0J250000D01*
G01*
X131740000Y-101000000D01*
G75*
G02*
X131990000Y-100750000I250000J0D01*
G01*
X133440000Y-100750000D01*
G75*
G02*
X133690000Y-101000000I0J-250000D01*
G01*
X133690000Y-102200000D01*
G75*
G02*
X133440000Y-102450000I-250000J0D01*
G01*
G37*
G04 #@! TD*
D11*
G04 #@! TO.C,J2*
X179745000Y-119380000D03*
G36*
G01*
X183095000Y-118630000D02*
X183095000Y-120130000D01*
G75*
G02*
X182845000Y-120380000I-250000J0D01*
G01*
X181645000Y-120380000D01*
G75*
G02*
X181395000Y-120130000I0J250000D01*
G01*
X181395000Y-118630000D01*
G75*
G02*
X181645000Y-118380000I250000J0D01*
G01*
X182845000Y-118380000D01*
G75*
G02*
X183095000Y-118630000I0J-250000D01*
G01*
G37*
G04 #@! TD*
D21*
G04 #@! TO.C,J1*
X125095000Y-104140000D03*
X125095000Y-101600000D03*
X125095000Y-99060000D03*
X125095000Y-96520000D03*
X125095000Y-93980000D03*
X122555000Y-104140000D03*
X122555000Y-101600000D03*
X122555000Y-99060000D03*
X122555000Y-96520000D03*
G36*
G01*
X121705000Y-94580000D02*
X121705000Y-93380000D01*
G75*
G02*
X121955000Y-93130000I250000J0D01*
G01*
X123155000Y-93130000D01*
G75*
G02*
X123405000Y-93380000I0J-250000D01*
G01*
X123405000Y-94580000D01*
G75*
G02*
X123155000Y-94830000I-250000J0D01*
G01*
X121955000Y-94830000D01*
G75*
G02*
X121705000Y-94580000I0J250000D01*
G01*
G37*
G04 #@! TD*
D22*
G04 #@! TO.C,D2*
X114935000Y-86360000D03*
D23*
X117475000Y-86360000D03*
G04 #@! TD*
D22*
G04 #@! TO.C,D1*
X117475000Y-111760000D03*
D23*
X114935000Y-111760000D03*
G04 #@! TD*
D13*
G04 #@! TO.C,C9*
X160655000Y-96480000D03*
X160655000Y-93980000D03*
G04 #@! TD*
G04 #@! TO.C,C8*
X159940000Y-119380000D03*
X154940000Y-119380000D03*
G04 #@! TD*
G04 #@! TO.C,C7*
X182285000Y-88900000D03*
D14*
X184785000Y-88900000D03*
G04 #@! TD*
D13*
G04 #@! TO.C,C6*
X182245000Y-107870000D03*
X182245000Y-102870000D03*
G04 #@! TD*
G04 #@! TO.C,C5*
X167005000Y-88940000D03*
X167005000Y-91440000D03*
G04 #@! TD*
G04 #@! TO.C,C4*
X180975000Y-96480000D03*
X180975000Y-93980000D03*
G04 #@! TD*
G04 #@! TO.C,C3*
X132715000Y-90130000D03*
D14*
X132715000Y-87630000D03*
G04 #@! TD*
D13*
G04 #@! TO.C,C2*
X132715000Y-110450000D03*
D14*
X132715000Y-107950000D03*
G04 #@! TD*
M02*
