G04 #@! TF.GenerationSoftware,KiCad,Pcbnew,(5.1.6)-1*
G04 #@! TF.CreationDate,2020-10-22T15:24:49+09:00*
G04 #@! TF.ProjectId,SawVCO,53617756-434f-42e6-9b69-6361645f7063,Ver. 1.0*
G04 #@! TF.SameCoordinates,Original*
G04 #@! TF.FileFunction,Copper,L1,Top*
G04 #@! TF.FilePolarity,Positive*
%FSLAX46Y46*%
G04 Gerber Fmt 4.6, Leading zero omitted, Abs format (unit mm)*
G04 Created by KiCad (PCBNEW (5.1.6)-1) date 2020-10-22 15:24:49*
%MOMM*%
%LPD*%
G01*
G04 APERTURE LIST*
G04 #@! TA.AperFunction,ComponentPad*
%ADD10C,1.440000*%
G04 #@! TD*
G04 #@! TA.AperFunction,ComponentPad*
%ADD11O,1.700000X2.000000*%
G04 #@! TD*
G04 #@! TA.AperFunction,ComponentPad*
%ADD12C,1.600000*%
G04 #@! TD*
G04 #@! TA.AperFunction,ComponentPad*
%ADD13R,1.600000X1.600000*%
G04 #@! TD*
G04 #@! TA.AperFunction,ComponentPad*
%ADD14O,1.600000X1.600000*%
G04 #@! TD*
G04 #@! TA.AperFunction,ComponentPad*
%ADD15R,1.500000X1.500000*%
G04 #@! TD*
G04 #@! TA.AperFunction,ComponentPad*
%ADD16C,1.500000*%
G04 #@! TD*
G04 #@! TA.AperFunction,ComponentPad*
%ADD17O,1.700000X1.700000*%
G04 #@! TD*
G04 #@! TA.AperFunction,ComponentPad*
%ADD18R,1.700000X1.700000*%
G04 #@! TD*
G04 #@! TA.AperFunction,ComponentPad*
%ADD19O,1.950000X1.700000*%
G04 #@! TD*
G04 #@! TA.AperFunction,ComponentPad*
%ADD20C,1.700000*%
G04 #@! TD*
G04 #@! TA.AperFunction,ComponentPad*
%ADD21C,1.800000*%
G04 #@! TD*
G04 #@! TA.AperFunction,ComponentPad*
%ADD22R,1.800000X1.800000*%
G04 #@! TD*
G04 #@! TA.AperFunction,Conductor*
%ADD23C,0.750000*%
G04 #@! TD*
G04 #@! TA.AperFunction,Conductor*
%ADD24C,0.254000*%
G04 #@! TD*
G04 APERTURE END LIST*
D10*
G04 #@! TO.P,RV1,3*
G04 #@! TO.N,Net-(J5-Pad1)*
X149860000Y-119380000D03*
G04 #@! TO.P,RV1,2*
G04 #@! TO.N,Net-(C8-Pad1)*
X149860000Y-116840000D03*
G04 #@! TO.P,RV1,1*
X149860000Y-114300000D03*
G04 #@! TD*
D11*
G04 #@! TO.P,J11,2*
G04 #@! TO.N,GND*
X167600000Y-78740000D03*
G04 #@! TO.P,J11,1*
G04 #@! TO.N,/+5V*
G04 #@! TA.AperFunction,ComponentPad*
G36*
G01*
X164250000Y-79490000D02*
X164250000Y-77990000D01*
G75*
G02*
X164500000Y-77740000I250000J0D01*
G01*
X165700000Y-77740000D01*
G75*
G02*
X165950000Y-77990000I0J-250000D01*
G01*
X165950000Y-79490000D01*
G75*
G02*
X165700000Y-79740000I-250000J0D01*
G01*
X164500000Y-79740000D01*
G75*
G02*
X164250000Y-79490000I0J250000D01*
G01*
G37*
G04 #@! TD.AperFunction*
G04 #@! TD*
D12*
G04 #@! TO.P,C1,2*
G04 #@! TO.N,GND*
X162560000Y-102195000D03*
D13*
G04 #@! TO.P,C1,1*
G04 #@! TO.N,Net-(C1-Pad1)*
X162560000Y-99695000D03*
G04 #@! TD*
D14*
G04 #@! TO.P,R11,2*
G04 #@! TO.N,GND*
X152400000Y-107315000D03*
D12*
G04 #@! TO.P,R11,1*
G04 #@! TO.N,Net-(R11-Pad1)*
X152400000Y-99695000D03*
G04 #@! TD*
D14*
G04 #@! TO.P,R2,2*
G04 #@! TO.N,GND*
X167005000Y-107315000D03*
D12*
G04 #@! TO.P,R2,1*
G04 #@! TO.N,Net-(C1-Pad1)*
X167005000Y-99695000D03*
G04 #@! TD*
D14*
G04 #@! TO.P,R1,2*
G04 #@! TO.N,Net-(C1-Pad1)*
X170180000Y-99695000D03*
D12*
G04 #@! TO.P,R1,1*
G04 #@! TO.N,+12V*
X170180000Y-107315000D03*
G04 #@! TD*
D14*
G04 #@! TO.P,U1,8*
G04 #@! TO.N,+12V*
X177800000Y-96520000D03*
G04 #@! TO.P,U1,4*
G04 #@! TO.N,-12V*
X170180000Y-88900000D03*
G04 #@! TO.P,U1,7*
G04 #@! TO.N,/+5V*
X175260000Y-96520000D03*
G04 #@! TO.P,U1,3*
G04 #@! TO.N,GND*
X172720000Y-88900000D03*
G04 #@! TO.P,U1,6*
G04 #@! TO.N,/+5V*
X172720000Y-96520000D03*
G04 #@! TO.P,U1,2*
G04 #@! TO.N,Net-(U1-Pad1)*
X175260000Y-88900000D03*
G04 #@! TO.P,U1,5*
G04 #@! TO.N,Net-(C1-Pad1)*
X170180000Y-96520000D03*
D13*
G04 #@! TO.P,U1,1*
G04 #@! TO.N,Net-(U1-Pad1)*
X177800000Y-88900000D03*
G04 #@! TD*
D12*
G04 #@! TO.P,C11,2*
G04 #@! TO.N,Net-(C11-Pad2)*
X149225000Y-104695000D03*
G04 #@! TO.P,C11,1*
G04 #@! TO.N,Net-(C11-Pad1)*
X149225000Y-99695000D03*
G04 #@! TD*
G04 #@! TO.P,C10,2*
G04 #@! TO.N,-12V*
X146685000Y-88940000D03*
G04 #@! TO.P,C10,1*
G04 #@! TO.N,GND*
X146685000Y-91440000D03*
G04 #@! TD*
D14*
G04 #@! TO.P,R6,2*
G04 #@! TO.N,Net-(J4-Pad1)*
X174625000Y-107315000D03*
D12*
G04 #@! TO.P,R6,1*
G04 #@! TO.N,/+5V*
X174625000Y-99695000D03*
G04 #@! TD*
D14*
G04 #@! TO.P,U2,8*
G04 #@! TO.N,+12V*
X157480000Y-96520000D03*
G04 #@! TO.P,U2,4*
G04 #@! TO.N,-12V*
X149860000Y-88900000D03*
G04 #@! TO.P,U2,7*
G04 #@! TO.N,Net-(C11-Pad2)*
X154940000Y-96520000D03*
G04 #@! TO.P,U2,3*
G04 #@! TO.N,Net-(J5-Pad1)*
X152400000Y-88900000D03*
G04 #@! TO.P,U2,6*
G04 #@! TO.N,Net-(R11-Pad1)*
X152400000Y-96520000D03*
G04 #@! TO.P,U2,2*
G04 #@! TO.N,Net-(R10-Pad1)*
X154940000Y-88900000D03*
G04 #@! TO.P,U2,5*
G04 #@! TO.N,Net-(C11-Pad1)*
X149860000Y-96520000D03*
D13*
G04 #@! TO.P,U2,1*
G04 #@! TO.N,Net-(R10-Pad2)*
X157480000Y-88900000D03*
G04 #@! TD*
D14*
G04 #@! TO.P,R15,2*
G04 #@! TO.N,Net-(J10-Pad1)*
X149860000Y-79375000D03*
D12*
G04 #@! TO.P,R15,1*
G04 #@! TO.N,Net-(R10-Pad2)*
X157480000Y-79375000D03*
G04 #@! TD*
D14*
G04 #@! TO.P,R14,2*
G04 #@! TO.N,Net-(R10-Pad2)*
X139065000Y-102235000D03*
D12*
G04 #@! TO.P,R14,1*
G04 #@! TO.N,Net-(C11-Pad1)*
X146685000Y-102235000D03*
G04 #@! TD*
D14*
G04 #@! TO.P,R13,2*
G04 #@! TO.N,Net-(C11-Pad1)*
X146685000Y-105410000D03*
D12*
G04 #@! TO.P,R13,1*
G04 #@! TO.N,/+5V*
X139065000Y-105410000D03*
G04 #@! TD*
D14*
G04 #@! TO.P,R12,2*
G04 #@! TO.N,Net-(R11-Pad1)*
X146685000Y-99060000D03*
D12*
G04 #@! TO.P,R12,1*
G04 #@! TO.N,Net-(J7-Pad1)*
X139065000Y-99060000D03*
G04 #@! TD*
D14*
G04 #@! TO.P,R10,2*
G04 #@! TO.N,Net-(R10-Pad2)*
X157480000Y-82550000D03*
D12*
G04 #@! TO.P,R10,1*
G04 #@! TO.N,Net-(R10-Pad1)*
X149860000Y-82550000D03*
G04 #@! TD*
D14*
G04 #@! TO.P,R9,2*
G04 #@! TO.N,Net-(Q1-Pad3)*
X155575000Y-107315000D03*
D12*
G04 #@! TO.P,R9,1*
G04 #@! TO.N,Net-(C11-Pad2)*
X155575000Y-99695000D03*
G04 #@! TD*
D14*
G04 #@! TO.P,R8,2*
G04 #@! TO.N,/+5V*
X149860000Y-85725000D03*
D12*
G04 #@! TO.P,R8,1*
G04 #@! TO.N,Net-(R10-Pad1)*
X157480000Y-85725000D03*
G04 #@! TD*
D14*
G04 #@! TO.P,R7,2*
G04 #@! TO.N,Net-(Q1-Pad3)*
X146685000Y-108585000D03*
D12*
G04 #@! TO.P,R7,1*
G04 #@! TO.N,/+5V*
X139065000Y-108585000D03*
G04 #@! TD*
D14*
G04 #@! TO.P,R5,2*
G04 #@! TO.N,Net-(C6-Pad1)*
X177800000Y-99695000D03*
D12*
G04 #@! TO.P,R5,1*
G04 #@! TO.N,Net-(J4-Pad1)*
X177800000Y-107315000D03*
G04 #@! TD*
D14*
G04 #@! TO.P,R4,2*
G04 #@! TO.N,-12V*
X127635000Y-86360000D03*
D12*
G04 #@! TO.P,R4,1*
G04 #@! TO.N,Net-(D2-Pad1)*
X120015000Y-86360000D03*
G04 #@! TD*
D14*
G04 #@! TO.P,R3,2*
G04 #@! TO.N,Net-(D1-Pad2)*
X120015000Y-111760000D03*
D12*
G04 #@! TO.P,R3,1*
G04 #@! TO.N,+12V*
X127635000Y-111760000D03*
G04 #@! TD*
D15*
G04 #@! TO.P,Q1,1*
G04 #@! TO.N,/+5V*
X160020000Y-111760000D03*
D16*
G04 #@! TO.P,Q1,3*
G04 #@! TO.N,Net-(Q1-Pad3)*
X154940000Y-111760000D03*
G04 #@! TO.P,Q1,2*
G04 #@! TO.N,Net-(C8-Pad1)*
X157480000Y-114300000D03*
G04 #@! TD*
D11*
G04 #@! TO.P,J10,2*
G04 #@! TO.N,GND*
X124420000Y-79375000D03*
G04 #@! TO.P,J10,1*
G04 #@! TO.N,Net-(J10-Pad1)*
G04 #@! TA.AperFunction,ComponentPad*
G36*
G01*
X121070000Y-80125000D02*
X121070000Y-78625000D01*
G75*
G02*
X121320000Y-78375000I250000J0D01*
G01*
X122520000Y-78375000D01*
G75*
G02*
X122770000Y-78625000I0J-250000D01*
G01*
X122770000Y-80125000D01*
G75*
G02*
X122520000Y-80375000I-250000J0D01*
G01*
X121320000Y-80375000D01*
G75*
G02*
X121070000Y-80125000I0J250000D01*
G01*
G37*
G04 #@! TD.AperFunction*
G04 #@! TD*
G04 #@! TO.P,J9,2*
G04 #@! TO.N,GND*
X133945000Y-79375000D03*
G04 #@! TO.P,J9,1*
G04 #@! TO.N,Net-(J10-Pad1)*
G04 #@! TA.AperFunction,ComponentPad*
G36*
G01*
X130595000Y-80125000D02*
X130595000Y-78625000D01*
G75*
G02*
X130845000Y-78375000I250000J0D01*
G01*
X132045000Y-78375000D01*
G75*
G02*
X132295000Y-78625000I0J-250000D01*
G01*
X132295000Y-80125000D01*
G75*
G02*
X132045000Y-80375000I-250000J0D01*
G01*
X130845000Y-80375000D01*
G75*
G02*
X130595000Y-80125000I0J250000D01*
G01*
G37*
G04 #@! TD.AperFunction*
G04 #@! TD*
G04 #@! TO.P,J8,2*
G04 #@! TO.N,GND*
X143470000Y-79375000D03*
G04 #@! TO.P,J8,1*
G04 #@! TO.N,Net-(J10-Pad1)*
G04 #@! TA.AperFunction,ComponentPad*
G36*
G01*
X140120000Y-80125000D02*
X140120000Y-78625000D01*
G75*
G02*
X140370000Y-78375000I250000J0D01*
G01*
X141570000Y-78375000D01*
G75*
G02*
X141820000Y-78625000I0J-250000D01*
G01*
X141820000Y-80125000D01*
G75*
G02*
X141570000Y-80375000I-250000J0D01*
G01*
X140370000Y-80375000D01*
G75*
G02*
X140120000Y-80125000I0J250000D01*
G01*
G37*
G04 #@! TD.AperFunction*
G04 #@! TD*
G04 #@! TO.P,J7,2*
G04 #@! TO.N,GND*
X130850000Y-119380000D03*
G04 #@! TO.P,J7,1*
G04 #@! TO.N,Net-(J7-Pad1)*
G04 #@! TA.AperFunction,ComponentPad*
G36*
G01*
X134200000Y-118630000D02*
X134200000Y-120130000D01*
G75*
G02*
X133950000Y-120380000I-250000J0D01*
G01*
X132750000Y-120380000D01*
G75*
G02*
X132500000Y-120130000I0J250000D01*
G01*
X132500000Y-118630000D01*
G75*
G02*
X132750000Y-118380000I250000J0D01*
G01*
X133950000Y-118380000D01*
G75*
G02*
X134200000Y-118630000I0J-250000D01*
G01*
G37*
G04 #@! TD.AperFunction*
G04 #@! TD*
D17*
G04 #@! TO.P,J6,2*
G04 #@! TO.N,GND*
X120650000Y-118745000D03*
D18*
G04 #@! TO.P,J6,1*
X123190000Y-118745000D03*
G04 #@! TD*
D11*
G04 #@! TO.P,J5,2*
G04 #@! TO.N,GND*
X140375000Y-119380000D03*
G04 #@! TO.P,J5,1*
G04 #@! TO.N,Net-(J5-Pad1)*
G04 #@! TA.AperFunction,ComponentPad*
G36*
G01*
X143725000Y-118630000D02*
X143725000Y-120130000D01*
G75*
G02*
X143475000Y-120380000I-250000J0D01*
G01*
X142275000Y-120380000D01*
G75*
G02*
X142025000Y-120130000I0J250000D01*
G01*
X142025000Y-118630000D01*
G75*
G02*
X142275000Y-118380000I250000J0D01*
G01*
X143475000Y-118380000D01*
G75*
G02*
X143725000Y-118630000I0J-250000D01*
G01*
G37*
G04 #@! TD.AperFunction*
G04 #@! TD*
G04 #@! TO.P,J4,2*
G04 #@! TO.N,GND*
X170220000Y-119380000D03*
G04 #@! TO.P,J4,1*
G04 #@! TO.N,Net-(J4-Pad1)*
G04 #@! TA.AperFunction,ComponentPad*
G36*
G01*
X173570000Y-118630000D02*
X173570000Y-120130000D01*
G75*
G02*
X173320000Y-120380000I-250000J0D01*
G01*
X172120000Y-120380000D01*
G75*
G02*
X171870000Y-120130000I0J250000D01*
G01*
X171870000Y-118630000D01*
G75*
G02*
X172120000Y-118380000I250000J0D01*
G01*
X173320000Y-118380000D01*
G75*
G02*
X173570000Y-118630000I0J-250000D01*
G01*
G37*
G04 #@! TD.AperFunction*
G04 #@! TD*
D19*
G04 #@! TO.P,J3,3*
G04 #@! TO.N,-12V*
X132715000Y-96600000D03*
G04 #@! TO.P,J3,2*
G04 #@! TO.N,GND*
X132715000Y-99100000D03*
G04 #@! TO.P,J3,1*
G04 #@! TO.N,+12V*
G04 #@! TA.AperFunction,ComponentPad*
G36*
G01*
X133440000Y-102450000D02*
X131990000Y-102450000D01*
G75*
G02*
X131740000Y-102200000I0J250000D01*
G01*
X131740000Y-101000000D01*
G75*
G02*
X131990000Y-100750000I250000J0D01*
G01*
X133440000Y-100750000D01*
G75*
G02*
X133690000Y-101000000I0J-250000D01*
G01*
X133690000Y-102200000D01*
G75*
G02*
X133440000Y-102450000I-250000J0D01*
G01*
G37*
G04 #@! TD.AperFunction*
G04 #@! TD*
D11*
G04 #@! TO.P,J2,2*
G04 #@! TO.N,GND*
X179745000Y-119380000D03*
G04 #@! TO.P,J2,1*
G04 #@! TO.N,Net-(C6-Pad2)*
G04 #@! TA.AperFunction,ComponentPad*
G36*
G01*
X183095000Y-118630000D02*
X183095000Y-120130000D01*
G75*
G02*
X182845000Y-120380000I-250000J0D01*
G01*
X181645000Y-120380000D01*
G75*
G02*
X181395000Y-120130000I0J250000D01*
G01*
X181395000Y-118630000D01*
G75*
G02*
X181645000Y-118380000I250000J0D01*
G01*
X182845000Y-118380000D01*
G75*
G02*
X183095000Y-118630000I0J-250000D01*
G01*
G37*
G04 #@! TD.AperFunction*
G04 #@! TD*
D20*
G04 #@! TO.P,J1,10*
G04 #@! TO.N,+12V*
X125095000Y-104140000D03*
G04 #@! TO.P,J1,8*
G04 #@! TO.N,GND*
X125095000Y-101600000D03*
G04 #@! TO.P,J1,6*
X125095000Y-99060000D03*
G04 #@! TO.P,J1,4*
X125095000Y-96520000D03*
G04 #@! TO.P,J1,2*
G04 #@! TO.N,-12V*
X125095000Y-93980000D03*
G04 #@! TO.P,J1,9*
G04 #@! TO.N,+12V*
X122555000Y-104140000D03*
G04 #@! TO.P,J1,7*
G04 #@! TO.N,GND*
X122555000Y-101600000D03*
G04 #@! TO.P,J1,5*
X122555000Y-99060000D03*
G04 #@! TO.P,J1,3*
X122555000Y-96520000D03*
G04 #@! TO.P,J1,1*
G04 #@! TO.N,-12V*
G04 #@! TA.AperFunction,ComponentPad*
G36*
G01*
X121705000Y-94580000D02*
X121705000Y-93380000D01*
G75*
G02*
X121955000Y-93130000I250000J0D01*
G01*
X123155000Y-93130000D01*
G75*
G02*
X123405000Y-93380000I0J-250000D01*
G01*
X123405000Y-94580000D01*
G75*
G02*
X123155000Y-94830000I-250000J0D01*
G01*
X121955000Y-94830000D01*
G75*
G02*
X121705000Y-94580000I0J250000D01*
G01*
G37*
G04 #@! TD.AperFunction*
G04 #@! TD*
D21*
G04 #@! TO.P,D2,2*
G04 #@! TO.N,GND*
X114935000Y-86360000D03*
D22*
G04 #@! TO.P,D2,1*
G04 #@! TO.N,Net-(D2-Pad1)*
X117475000Y-86360000D03*
G04 #@! TD*
D21*
G04 #@! TO.P,D1,2*
G04 #@! TO.N,Net-(D1-Pad2)*
X117475000Y-111760000D03*
D22*
G04 #@! TO.P,D1,1*
G04 #@! TO.N,GND*
X114935000Y-111760000D03*
G04 #@! TD*
D12*
G04 #@! TO.P,C9,2*
G04 #@! TO.N,+12V*
X160655000Y-96480000D03*
G04 #@! TO.P,C9,1*
G04 #@! TO.N,GND*
X160655000Y-93980000D03*
G04 #@! TD*
G04 #@! TO.P,C8,2*
G04 #@! TO.N,/+5V*
X159940000Y-119380000D03*
G04 #@! TO.P,C8,1*
G04 #@! TO.N,Net-(C8-Pad1)*
X154940000Y-119380000D03*
G04 #@! TD*
G04 #@! TO.P,C7,2*
G04 #@! TO.N,GND*
X182285000Y-88900000D03*
D13*
G04 #@! TO.P,C7,1*
G04 #@! TO.N,/+5V*
X184785000Y-88900000D03*
G04 #@! TD*
D12*
G04 #@! TO.P,C6,2*
G04 #@! TO.N,Net-(C6-Pad2)*
X182245000Y-107870000D03*
G04 #@! TO.P,C6,1*
G04 #@! TO.N,Net-(C6-Pad1)*
X182245000Y-102870000D03*
G04 #@! TD*
G04 #@! TO.P,C5,2*
G04 #@! TO.N,-12V*
X167005000Y-88940000D03*
G04 #@! TO.P,C5,1*
G04 #@! TO.N,GND*
X167005000Y-91440000D03*
G04 #@! TD*
G04 #@! TO.P,C4,2*
G04 #@! TO.N,+12V*
X180975000Y-96480000D03*
G04 #@! TO.P,C4,1*
G04 #@! TO.N,GND*
X180975000Y-93980000D03*
G04 #@! TD*
G04 #@! TO.P,C3,2*
G04 #@! TO.N,-12V*
X132715000Y-90130000D03*
D13*
G04 #@! TO.P,C3,1*
G04 #@! TO.N,GND*
X132715000Y-87630000D03*
G04 #@! TD*
D12*
G04 #@! TO.P,C2,2*
G04 #@! TO.N,GND*
X132715000Y-110450000D03*
D13*
G04 #@! TO.P,C2,1*
G04 #@! TO.N,+12V*
X132715000Y-107950000D03*
G04 #@! TD*
D23*
G04 #@! TO.N,Net-(C1-Pad1)*
X170180000Y-96520000D02*
X170180000Y-99695000D01*
X170180000Y-99695000D02*
X167005000Y-99695000D01*
X162560000Y-99695000D02*
X167005000Y-99695000D01*
G04 #@! TO.N,Net-(C6-Pad2)*
X182245000Y-107870000D02*
X182245000Y-119380000D01*
G04 #@! TO.N,Net-(C6-Pad1)*
X177800000Y-99695000D02*
X177800000Y-100965000D01*
X179705000Y-102870000D02*
X182245000Y-102870000D01*
X177800000Y-100965000D02*
X179705000Y-102870000D01*
G04 #@! TO.N,Net-(C8-Pad1)*
X154940000Y-119380000D02*
X156210000Y-119380000D01*
X157480000Y-118110000D02*
X157480000Y-114300000D01*
X156210000Y-119380000D02*
X157480000Y-118110000D01*
X149860000Y-114300000D02*
X149860000Y-116840000D01*
X154940000Y-119380000D02*
X153670000Y-119380000D01*
X153670000Y-119380000D02*
X151130000Y-116840000D01*
X151130000Y-116840000D02*
X149860000Y-116840000D01*
G04 #@! TO.N,Net-(C11-Pad2)*
X154940000Y-99060000D02*
X155575000Y-99695000D01*
X154940000Y-96520000D02*
X154940000Y-99060000D01*
X150356370Y-104695000D02*
X154940000Y-100111370D01*
X149225000Y-104695000D02*
X150356370Y-104695000D01*
X154940000Y-100111370D02*
X154940000Y-99695000D01*
G04 #@! TO.N,Net-(C11-Pad1)*
X149860000Y-99060000D02*
X149225000Y-99695000D01*
X149860000Y-96520000D02*
X149860000Y-99060000D01*
X149225000Y-99695000D02*
X146685000Y-102235000D01*
X146685000Y-102235000D02*
X146685000Y-105410000D01*
G04 #@! TO.N,Net-(J4-Pad1)*
X174625000Y-117475000D02*
X172720000Y-119380000D01*
X174625000Y-107315000D02*
X174625000Y-117475000D01*
X174625000Y-107315000D02*
X177800000Y-107315000D01*
G04 #@! TO.N,Net-(J5-Pad1)*
X142875000Y-119380000D02*
X149860000Y-119380000D01*
X145309999Y-95990001D02*
X152400000Y-88900000D01*
X142875000Y-119380000D02*
X142875000Y-114935000D01*
X145309999Y-112500001D02*
X145309999Y-95990001D01*
X142875000Y-114935000D02*
X145309999Y-112500001D01*
G04 #@! TO.N,Net-(J7-Pad1)*
X137689999Y-100435001D02*
X139065000Y-99060000D01*
X137689999Y-115040001D02*
X137689999Y-100435001D01*
X133350000Y-119380000D02*
X137689999Y-115040001D01*
G04 #@! TO.N,Net-(J10-Pad1)*
X121920000Y-78105000D02*
X121920000Y-79375000D01*
X122555000Y-77470000D02*
X121920000Y-78105000D01*
X131445000Y-78105000D02*
X130810000Y-77470000D01*
X132080000Y-77470000D02*
X131445000Y-78105000D01*
X147955000Y-77470000D02*
X141605000Y-77470000D01*
X149860000Y-79375000D02*
X147955000Y-77470000D01*
X141605000Y-77470000D02*
X140970000Y-78105000D01*
X130810000Y-77470000D02*
X122555000Y-77470000D01*
X140335000Y-77470000D02*
X132080000Y-77470000D01*
X140970000Y-78105000D02*
X140335000Y-77470000D01*
X131445000Y-79375000D02*
X131445000Y-78105000D01*
X140970000Y-79375000D02*
X140970000Y-78105000D01*
G04 #@! TO.N,Net-(Q1-Pad3)*
X155575000Y-111125000D02*
X154940000Y-111760000D01*
X155575000Y-107315000D02*
X155575000Y-111125000D01*
X149860000Y-111760000D02*
X146685000Y-108585000D01*
X154940000Y-111760000D02*
X149860000Y-111760000D01*
G04 #@! TO.N,Net-(R10-Pad1)*
X157480000Y-85725000D02*
X154940000Y-88265000D01*
X149860000Y-83185000D02*
X149860000Y-82550000D01*
X154940000Y-88265000D02*
X149860000Y-83185000D01*
G04 #@! TO.N,Net-(R10-Pad2)*
X158855001Y-83925001D02*
X157480000Y-82550000D01*
X158855001Y-87524999D02*
X158855001Y-83925001D01*
X157480000Y-88900000D02*
X158855001Y-87524999D01*
X155680001Y-80750001D02*
X157480000Y-82550000D01*
X140440001Y-89934997D02*
X149624997Y-80750001D01*
X140440001Y-100859999D02*
X140440001Y-89934997D01*
X149624997Y-80750001D02*
X155680001Y-80750001D01*
X139065000Y-102235000D02*
X140440001Y-100859999D01*
X156104999Y-80750001D02*
X155680001Y-80750001D01*
X157480000Y-79375000D02*
X156104999Y-80750001D01*
G04 #@! TO.N,Net-(R11-Pad1)*
X152400000Y-96520000D02*
X152400000Y-99695000D01*
X146685000Y-97659998D02*
X146685000Y-99060000D01*
X149199999Y-95144999D02*
X146685000Y-97659998D01*
X151024999Y-95144999D02*
X149199999Y-95144999D01*
X152400000Y-96520000D02*
X151024999Y-95144999D01*
G04 #@! TO.N,Net-(U1-Pad1)*
X177800000Y-88900000D02*
X175260000Y-88900000D01*
G04 #@! TD*
D24*
G04 #@! TO.N,GND*
G36*
X189075271Y-71923962D02*
G01*
X188763962Y-72235271D01*
X188519369Y-72601331D01*
X188350890Y-73008075D01*
X188265000Y-73439872D01*
X188265000Y-73880128D01*
X188350890Y-74311925D01*
X188519369Y-74718669D01*
X188763962Y-75084729D01*
X189075271Y-75396038D01*
X189441331Y-75640631D01*
X189848075Y-75809110D01*
X190279872Y-75895000D01*
X190720128Y-75895000D01*
X191151925Y-75809110D01*
X191558669Y-75640631D01*
X191924729Y-75396038D01*
X192236038Y-75084729D01*
X192355000Y-74906689D01*
X192355001Y-123213312D01*
X192236038Y-123035271D01*
X191924729Y-122723962D01*
X191558669Y-122479369D01*
X191151925Y-122310890D01*
X190720128Y-122225000D01*
X190279872Y-122225000D01*
X189848075Y-122310890D01*
X189441331Y-122479369D01*
X189075271Y-122723962D01*
X188763962Y-123035271D01*
X188519369Y-123401331D01*
X188350890Y-123808075D01*
X188265000Y-124239872D01*
X188265000Y-124680128D01*
X188350890Y-125111925D01*
X188519369Y-125518669D01*
X188763962Y-125884729D01*
X189075271Y-126196038D01*
X189253311Y-126315000D01*
X115546689Y-126315000D01*
X115724729Y-126196038D01*
X116036038Y-125884729D01*
X116280631Y-125518669D01*
X116449110Y-125111925D01*
X116535000Y-124680128D01*
X116535000Y-124239872D01*
X116449110Y-123808075D01*
X116280631Y-123401331D01*
X116036038Y-123035271D01*
X115724729Y-122723962D01*
X115358669Y-122479369D01*
X114951925Y-122310890D01*
X114520128Y-122225000D01*
X114079872Y-122225000D01*
X113648075Y-122310890D01*
X113241331Y-122479369D01*
X112875271Y-122723962D01*
X112563962Y-123035271D01*
X112445000Y-123213311D01*
X112445000Y-119101891D01*
X119208519Y-119101891D01*
X119305843Y-119376252D01*
X119454822Y-119626355D01*
X119649731Y-119842588D01*
X119883080Y-120016641D01*
X120145901Y-120141825D01*
X120293110Y-120186476D01*
X120523000Y-120065155D01*
X120523000Y-118872000D01*
X120777000Y-118872000D01*
X120777000Y-120065155D01*
X121006890Y-120186476D01*
X121154099Y-120141825D01*
X121416920Y-120016641D01*
X121650269Y-119842588D01*
X121726034Y-119758534D01*
X121750498Y-119839180D01*
X121809463Y-119949494D01*
X121888815Y-120046185D01*
X121985506Y-120125537D01*
X122095820Y-120184502D01*
X122215518Y-120220812D01*
X122340000Y-120233072D01*
X122904250Y-120230000D01*
X123063000Y-120071250D01*
X123063000Y-118872000D01*
X123317000Y-118872000D01*
X123317000Y-120071250D01*
X123475750Y-120230000D01*
X124040000Y-120233072D01*
X124164482Y-120220812D01*
X124284180Y-120184502D01*
X124394494Y-120125537D01*
X124491185Y-120046185D01*
X124570537Y-119949494D01*
X124629502Y-119839180D01*
X124659666Y-119739742D01*
X129378715Y-119739742D01*
X129447904Y-120022745D01*
X129570975Y-120286812D01*
X129743198Y-120521795D01*
X129957954Y-120718664D01*
X130206991Y-120869854D01*
X130480739Y-120969554D01*
X130493110Y-120971476D01*
X130723000Y-120850155D01*
X130723000Y-119507000D01*
X129522768Y-119507000D01*
X129378715Y-119739742D01*
X124659666Y-119739742D01*
X124665812Y-119719482D01*
X124678072Y-119595000D01*
X124675000Y-119030750D01*
X124664508Y-119020258D01*
X129378715Y-119020258D01*
X129522768Y-119253000D01*
X130723000Y-119253000D01*
X130723000Y-117909845D01*
X130493110Y-117788524D01*
X130480739Y-117790446D01*
X130206991Y-117890146D01*
X129957954Y-118041336D01*
X129743198Y-118238205D01*
X129570975Y-118473188D01*
X129447904Y-118737255D01*
X129378715Y-119020258D01*
X124664508Y-119020258D01*
X124516250Y-118872000D01*
X123317000Y-118872000D01*
X123063000Y-118872000D01*
X120777000Y-118872000D01*
X120523000Y-118872000D01*
X119329186Y-118872000D01*
X119208519Y-119101891D01*
X112445000Y-119101891D01*
X112445000Y-118388109D01*
X119208519Y-118388109D01*
X119329186Y-118618000D01*
X120523000Y-118618000D01*
X120523000Y-117424845D01*
X120777000Y-117424845D01*
X120777000Y-118618000D01*
X123063000Y-118618000D01*
X123063000Y-117418750D01*
X123317000Y-117418750D01*
X123317000Y-118618000D01*
X124516250Y-118618000D01*
X124675000Y-118459250D01*
X124678072Y-117895000D01*
X124665812Y-117770518D01*
X124629502Y-117650820D01*
X124570537Y-117540506D01*
X124491185Y-117443815D01*
X124394494Y-117364463D01*
X124284180Y-117305498D01*
X124164482Y-117269188D01*
X124040000Y-117256928D01*
X123475750Y-117260000D01*
X123317000Y-117418750D01*
X123063000Y-117418750D01*
X122904250Y-117260000D01*
X122340000Y-117256928D01*
X122215518Y-117269188D01*
X122095820Y-117305498D01*
X121985506Y-117364463D01*
X121888815Y-117443815D01*
X121809463Y-117540506D01*
X121750498Y-117650820D01*
X121726034Y-117731466D01*
X121650269Y-117647412D01*
X121416920Y-117473359D01*
X121154099Y-117348175D01*
X121006890Y-117303524D01*
X120777000Y-117424845D01*
X120523000Y-117424845D01*
X120293110Y-117303524D01*
X120145901Y-117348175D01*
X119883080Y-117473359D01*
X119649731Y-117647412D01*
X119454822Y-117863645D01*
X119305843Y-118113748D01*
X119208519Y-118388109D01*
X112445000Y-118388109D01*
X112445000Y-112660000D01*
X113396928Y-112660000D01*
X113409188Y-112784482D01*
X113445498Y-112904180D01*
X113504463Y-113014494D01*
X113583815Y-113111185D01*
X113680506Y-113190537D01*
X113790820Y-113249502D01*
X113910518Y-113285812D01*
X114035000Y-113298072D01*
X114649250Y-113295000D01*
X114808000Y-113136250D01*
X114808000Y-111887000D01*
X113558750Y-111887000D01*
X113400000Y-112045750D01*
X113396928Y-112660000D01*
X112445000Y-112660000D01*
X112445000Y-110860000D01*
X113396928Y-110860000D01*
X113400000Y-111474250D01*
X113558750Y-111633000D01*
X114808000Y-111633000D01*
X114808000Y-110383750D01*
X115062000Y-110383750D01*
X115062000Y-111633000D01*
X115082000Y-111633000D01*
X115082000Y-111887000D01*
X115062000Y-111887000D01*
X115062000Y-113136250D01*
X115220750Y-113295000D01*
X115835000Y-113298072D01*
X115959482Y-113285812D01*
X116079180Y-113249502D01*
X116189494Y-113190537D01*
X116286185Y-113111185D01*
X116365537Y-113014494D01*
X116424502Y-112904180D01*
X116430056Y-112885873D01*
X116496495Y-112952312D01*
X116747905Y-113120299D01*
X117027257Y-113236011D01*
X117323816Y-113295000D01*
X117626184Y-113295000D01*
X117922743Y-113236011D01*
X118202095Y-113120299D01*
X118453505Y-112952312D01*
X118667312Y-112738505D01*
X118805135Y-112532239D01*
X118900363Y-112674759D01*
X119100241Y-112874637D01*
X119335273Y-113031680D01*
X119596426Y-113139853D01*
X119873665Y-113195000D01*
X120156335Y-113195000D01*
X120433574Y-113139853D01*
X120694727Y-113031680D01*
X120929759Y-112874637D01*
X121129637Y-112674759D01*
X121286680Y-112439727D01*
X121394853Y-112178574D01*
X121450000Y-111901335D01*
X121450000Y-111618665D01*
X126200000Y-111618665D01*
X126200000Y-111901335D01*
X126255147Y-112178574D01*
X126363320Y-112439727D01*
X126520363Y-112674759D01*
X126720241Y-112874637D01*
X126955273Y-113031680D01*
X127216426Y-113139853D01*
X127493665Y-113195000D01*
X127776335Y-113195000D01*
X128053574Y-113139853D01*
X128314727Y-113031680D01*
X128549759Y-112874637D01*
X128749637Y-112674759D01*
X128906680Y-112439727D01*
X129014853Y-112178574D01*
X129070000Y-111901335D01*
X129070000Y-111618665D01*
X129034999Y-111442702D01*
X131901903Y-111442702D01*
X131973486Y-111686671D01*
X132228996Y-111807571D01*
X132503184Y-111876300D01*
X132785512Y-111890217D01*
X133065130Y-111848787D01*
X133331292Y-111753603D01*
X133456514Y-111686671D01*
X133528097Y-111442702D01*
X132715000Y-110629605D01*
X131901903Y-111442702D01*
X129034999Y-111442702D01*
X129014853Y-111341426D01*
X128906680Y-111080273D01*
X128749637Y-110845241D01*
X128549759Y-110645363D01*
X128362906Y-110520512D01*
X131274783Y-110520512D01*
X131316213Y-110800130D01*
X131411397Y-111066292D01*
X131478329Y-111191514D01*
X131722298Y-111263097D01*
X132535395Y-110450000D01*
X132894605Y-110450000D01*
X133707702Y-111263097D01*
X133951671Y-111191514D01*
X134072571Y-110936004D01*
X134141300Y-110661816D01*
X134155217Y-110379488D01*
X134113787Y-110099870D01*
X134018603Y-109833708D01*
X133951671Y-109708486D01*
X133707702Y-109636903D01*
X132894605Y-110450000D01*
X132535395Y-110450000D01*
X131722298Y-109636903D01*
X131478329Y-109708486D01*
X131357429Y-109963996D01*
X131288700Y-110238184D01*
X131274783Y-110520512D01*
X128362906Y-110520512D01*
X128314727Y-110488320D01*
X128053574Y-110380147D01*
X127776335Y-110325000D01*
X127493665Y-110325000D01*
X127216426Y-110380147D01*
X126955273Y-110488320D01*
X126720241Y-110645363D01*
X126520363Y-110845241D01*
X126363320Y-111080273D01*
X126255147Y-111341426D01*
X126200000Y-111618665D01*
X121450000Y-111618665D01*
X121394853Y-111341426D01*
X121286680Y-111080273D01*
X121129637Y-110845241D01*
X120929759Y-110645363D01*
X120694727Y-110488320D01*
X120433574Y-110380147D01*
X120156335Y-110325000D01*
X119873665Y-110325000D01*
X119596426Y-110380147D01*
X119335273Y-110488320D01*
X119100241Y-110645363D01*
X118900363Y-110845241D01*
X118805135Y-110987761D01*
X118667312Y-110781495D01*
X118453505Y-110567688D01*
X118202095Y-110399701D01*
X117922743Y-110283989D01*
X117626184Y-110225000D01*
X117323816Y-110225000D01*
X117027257Y-110283989D01*
X116747905Y-110399701D01*
X116496495Y-110567688D01*
X116430056Y-110634127D01*
X116424502Y-110615820D01*
X116365537Y-110505506D01*
X116286185Y-110408815D01*
X116189494Y-110329463D01*
X116079180Y-110270498D01*
X115959482Y-110234188D01*
X115835000Y-110221928D01*
X115220750Y-110225000D01*
X115062000Y-110383750D01*
X114808000Y-110383750D01*
X114649250Y-110225000D01*
X114035000Y-110221928D01*
X113910518Y-110234188D01*
X113790820Y-110270498D01*
X113680506Y-110329463D01*
X113583815Y-110408815D01*
X113504463Y-110505506D01*
X113445498Y-110615820D01*
X113409188Y-110735518D01*
X113396928Y-110860000D01*
X112445000Y-110860000D01*
X112445000Y-107150000D01*
X131276928Y-107150000D01*
X131276928Y-108750000D01*
X131289188Y-108874482D01*
X131325498Y-108994180D01*
X131384463Y-109104494D01*
X131463815Y-109201185D01*
X131560506Y-109280537D01*
X131670820Y-109339502D01*
X131790518Y-109375812D01*
X131915000Y-109388072D01*
X131922215Y-109388072D01*
X131901903Y-109457298D01*
X132715000Y-110270395D01*
X133528097Y-109457298D01*
X133507785Y-109388072D01*
X133515000Y-109388072D01*
X133639482Y-109375812D01*
X133759180Y-109339502D01*
X133869494Y-109280537D01*
X133966185Y-109201185D01*
X134045537Y-109104494D01*
X134104502Y-108994180D01*
X134140812Y-108874482D01*
X134153072Y-108750000D01*
X134153072Y-107150000D01*
X134140812Y-107025518D01*
X134104502Y-106905820D01*
X134045537Y-106795506D01*
X133966185Y-106698815D01*
X133869494Y-106619463D01*
X133759180Y-106560498D01*
X133639482Y-106524188D01*
X133515000Y-106511928D01*
X131915000Y-106511928D01*
X131790518Y-106524188D01*
X131670820Y-106560498D01*
X131560506Y-106619463D01*
X131463815Y-106698815D01*
X131384463Y-106795506D01*
X131325498Y-106905820D01*
X131289188Y-107025518D01*
X131276928Y-107150000D01*
X112445000Y-107150000D01*
X112445000Y-103993740D01*
X121070000Y-103993740D01*
X121070000Y-104286260D01*
X121127068Y-104573158D01*
X121239010Y-104843411D01*
X121401525Y-105086632D01*
X121608368Y-105293475D01*
X121851589Y-105455990D01*
X122121842Y-105567932D01*
X122408740Y-105625000D01*
X122701260Y-105625000D01*
X122988158Y-105567932D01*
X123258411Y-105455990D01*
X123501632Y-105293475D01*
X123708475Y-105086632D01*
X123825000Y-104912240D01*
X123941525Y-105086632D01*
X124148368Y-105293475D01*
X124391589Y-105455990D01*
X124661842Y-105567932D01*
X124948740Y-105625000D01*
X125241260Y-105625000D01*
X125528158Y-105567932D01*
X125798411Y-105455990D01*
X126041632Y-105293475D01*
X126248475Y-105086632D01*
X126410990Y-104843411D01*
X126522932Y-104573158D01*
X126580000Y-104286260D01*
X126580000Y-103993740D01*
X126522932Y-103706842D01*
X126410990Y-103436589D01*
X126248475Y-103193368D01*
X126041632Y-102986525D01*
X125868271Y-102870689D01*
X125943792Y-102628397D01*
X125095000Y-101779605D01*
X124246208Y-102628397D01*
X124321729Y-102870689D01*
X124148368Y-102986525D01*
X123941525Y-103193368D01*
X123825000Y-103367760D01*
X123708475Y-103193368D01*
X123501632Y-102986525D01*
X123328271Y-102870689D01*
X123403792Y-102628397D01*
X122555000Y-101779605D01*
X121706208Y-102628397D01*
X121781729Y-102870689D01*
X121608368Y-102986525D01*
X121401525Y-103193368D01*
X121239010Y-103436589D01*
X121127068Y-103706842D01*
X121070000Y-103993740D01*
X112445000Y-103993740D01*
X112445000Y-101668531D01*
X121064389Y-101668531D01*
X121106401Y-101958019D01*
X121204081Y-102233747D01*
X121277528Y-102371157D01*
X121526603Y-102448792D01*
X122375395Y-101600000D01*
X122734605Y-101600000D01*
X123583397Y-102448792D01*
X123825000Y-102373486D01*
X124066603Y-102448792D01*
X124915395Y-101600000D01*
X125274605Y-101600000D01*
X126123397Y-102448792D01*
X126372472Y-102371157D01*
X126498371Y-102107117D01*
X126570339Y-101823589D01*
X126585611Y-101531469D01*
X126543599Y-101241981D01*
X126457875Y-101000000D01*
X131101928Y-101000000D01*
X131101928Y-102200000D01*
X131118992Y-102373254D01*
X131169528Y-102539850D01*
X131251595Y-102693386D01*
X131362038Y-102827962D01*
X131496614Y-102938405D01*
X131650150Y-103020472D01*
X131816746Y-103071008D01*
X131990000Y-103088072D01*
X133440000Y-103088072D01*
X133613254Y-103071008D01*
X133779850Y-103020472D01*
X133933386Y-102938405D01*
X134067962Y-102827962D01*
X134178405Y-102693386D01*
X134260472Y-102539850D01*
X134311008Y-102373254D01*
X134328072Y-102200000D01*
X134328072Y-101000000D01*
X134311008Y-100826746D01*
X134260472Y-100660150D01*
X134178405Y-100506614D01*
X134067962Y-100372038D01*
X133933386Y-100261595D01*
X133828039Y-100205286D01*
X133849429Y-100189049D01*
X134042496Y-99971193D01*
X134189352Y-99719858D01*
X134281476Y-99456890D01*
X134160155Y-99227000D01*
X132842000Y-99227000D01*
X132842000Y-99247000D01*
X132588000Y-99247000D01*
X132588000Y-99227000D01*
X131269845Y-99227000D01*
X131148524Y-99456890D01*
X131240648Y-99719858D01*
X131387504Y-99971193D01*
X131580571Y-100189049D01*
X131601961Y-100205286D01*
X131496614Y-100261595D01*
X131362038Y-100372038D01*
X131251595Y-100506614D01*
X131169528Y-100660150D01*
X131118992Y-100826746D01*
X131101928Y-101000000D01*
X126457875Y-101000000D01*
X126445919Y-100966253D01*
X126372472Y-100828843D01*
X126123397Y-100751208D01*
X125274605Y-101600000D01*
X124915395Y-101600000D01*
X124066603Y-100751208D01*
X123825000Y-100826514D01*
X123583397Y-100751208D01*
X122734605Y-101600000D01*
X122375395Y-101600000D01*
X121526603Y-100751208D01*
X121277528Y-100828843D01*
X121151629Y-101092883D01*
X121079661Y-101376411D01*
X121064389Y-101668531D01*
X112445000Y-101668531D01*
X112445000Y-100088397D01*
X121706208Y-100088397D01*
X121781514Y-100330000D01*
X121706208Y-100571603D01*
X122555000Y-101420395D01*
X123403792Y-100571603D01*
X123328486Y-100330000D01*
X123403792Y-100088397D01*
X124246208Y-100088397D01*
X124321514Y-100330000D01*
X124246208Y-100571603D01*
X125095000Y-101420395D01*
X125943792Y-100571603D01*
X125868486Y-100330000D01*
X125943792Y-100088397D01*
X125095000Y-99239605D01*
X124246208Y-100088397D01*
X123403792Y-100088397D01*
X122555000Y-99239605D01*
X121706208Y-100088397D01*
X112445000Y-100088397D01*
X112445000Y-99128531D01*
X121064389Y-99128531D01*
X121106401Y-99418019D01*
X121204081Y-99693747D01*
X121277528Y-99831157D01*
X121526603Y-99908792D01*
X122375395Y-99060000D01*
X122734605Y-99060000D01*
X123583397Y-99908792D01*
X123825000Y-99833486D01*
X124066603Y-99908792D01*
X124915395Y-99060000D01*
X125274605Y-99060000D01*
X126123397Y-99908792D01*
X126372472Y-99831157D01*
X126498371Y-99567117D01*
X126570339Y-99283589D01*
X126585611Y-98991469D01*
X126543599Y-98701981D01*
X126445919Y-98426253D01*
X126372472Y-98288843D01*
X126123397Y-98211208D01*
X125274605Y-99060000D01*
X124915395Y-99060000D01*
X124066603Y-98211208D01*
X123825000Y-98286514D01*
X123583397Y-98211208D01*
X122734605Y-99060000D01*
X122375395Y-99060000D01*
X121526603Y-98211208D01*
X121277528Y-98288843D01*
X121151629Y-98552883D01*
X121079661Y-98836411D01*
X121064389Y-99128531D01*
X112445000Y-99128531D01*
X112445000Y-97548397D01*
X121706208Y-97548397D01*
X121781514Y-97790000D01*
X121706208Y-98031603D01*
X122555000Y-98880395D01*
X123403792Y-98031603D01*
X123328486Y-97790000D01*
X123403792Y-97548397D01*
X124246208Y-97548397D01*
X124321514Y-97790000D01*
X124246208Y-98031603D01*
X125095000Y-98880395D01*
X125943792Y-98031603D01*
X125868486Y-97790000D01*
X125943792Y-97548397D01*
X125095000Y-96699605D01*
X124246208Y-97548397D01*
X123403792Y-97548397D01*
X122555000Y-96699605D01*
X121706208Y-97548397D01*
X112445000Y-97548397D01*
X112445000Y-96588531D01*
X121064389Y-96588531D01*
X121106401Y-96878019D01*
X121204081Y-97153747D01*
X121277528Y-97291157D01*
X121526603Y-97368792D01*
X122375395Y-96520000D01*
X122734605Y-96520000D01*
X123583397Y-97368792D01*
X123825000Y-97293486D01*
X124066603Y-97368792D01*
X124915395Y-96520000D01*
X125274605Y-96520000D01*
X126123397Y-97368792D01*
X126372472Y-97291157D01*
X126498371Y-97027117D01*
X126570339Y-96743589D01*
X126577845Y-96600000D01*
X131097815Y-96600000D01*
X131126487Y-96891111D01*
X131211401Y-97171034D01*
X131349294Y-97429014D01*
X131534866Y-97655134D01*
X131760986Y-97840706D01*
X131786722Y-97854462D01*
X131580571Y-98010951D01*
X131387504Y-98228807D01*
X131240648Y-98480142D01*
X131148524Y-98743110D01*
X131269845Y-98973000D01*
X132588000Y-98973000D01*
X132588000Y-98953000D01*
X132842000Y-98953000D01*
X132842000Y-98973000D01*
X134160155Y-98973000D01*
X134281476Y-98743110D01*
X134189352Y-98480142D01*
X134042496Y-98228807D01*
X133849429Y-98010951D01*
X133643278Y-97854462D01*
X133669014Y-97840706D01*
X133895134Y-97655134D01*
X134080706Y-97429014D01*
X134218599Y-97171034D01*
X134303513Y-96891111D01*
X134332185Y-96600000D01*
X134303513Y-96308889D01*
X134218599Y-96028966D01*
X134080706Y-95770986D01*
X133895134Y-95544866D01*
X133669014Y-95359294D01*
X133411034Y-95221401D01*
X133131111Y-95136487D01*
X132912950Y-95115000D01*
X132517050Y-95115000D01*
X132298889Y-95136487D01*
X132018966Y-95221401D01*
X131760986Y-95359294D01*
X131534866Y-95544866D01*
X131349294Y-95770986D01*
X131211401Y-96028966D01*
X131126487Y-96308889D01*
X131097815Y-96600000D01*
X126577845Y-96600000D01*
X126585611Y-96451469D01*
X126543599Y-96161981D01*
X126445919Y-95886253D01*
X126372472Y-95748843D01*
X126123397Y-95671208D01*
X125274605Y-96520000D01*
X124915395Y-96520000D01*
X124066603Y-95671208D01*
X123825000Y-95746514D01*
X123583397Y-95671208D01*
X122734605Y-96520000D01*
X122375395Y-96520000D01*
X121526603Y-95671208D01*
X121277528Y-95748843D01*
X121151629Y-96012883D01*
X121079661Y-96296411D01*
X121064389Y-96588531D01*
X112445000Y-96588531D01*
X112445000Y-93380000D01*
X121066928Y-93380000D01*
X121066928Y-94580000D01*
X121083992Y-94753254D01*
X121134528Y-94919850D01*
X121216595Y-95073386D01*
X121327038Y-95207962D01*
X121461614Y-95318405D01*
X121615150Y-95400472D01*
X121724293Y-95433580D01*
X121706208Y-95491603D01*
X122555000Y-96340395D01*
X123403792Y-95491603D01*
X123385707Y-95433580D01*
X123494850Y-95400472D01*
X123648386Y-95318405D01*
X123782962Y-95207962D01*
X123893405Y-95073386D01*
X123961285Y-94946392D01*
X124148368Y-95133475D01*
X124321729Y-95249311D01*
X124246208Y-95491603D01*
X125095000Y-96340395D01*
X125943792Y-95491603D01*
X125868271Y-95249311D01*
X126041632Y-95133475D01*
X126248475Y-94926632D01*
X126410990Y-94683411D01*
X126522932Y-94413158D01*
X126580000Y-94126260D01*
X126580000Y-93833740D01*
X126522932Y-93546842D01*
X126410990Y-93276589D01*
X126248475Y-93033368D01*
X126041632Y-92826525D01*
X125798411Y-92664010D01*
X125528158Y-92552068D01*
X125241260Y-92495000D01*
X124948740Y-92495000D01*
X124661842Y-92552068D01*
X124391589Y-92664010D01*
X124148368Y-92826525D01*
X123961285Y-93013608D01*
X123893405Y-92886614D01*
X123782962Y-92752038D01*
X123648386Y-92641595D01*
X123494850Y-92559528D01*
X123328254Y-92508992D01*
X123155000Y-92491928D01*
X121955000Y-92491928D01*
X121781746Y-92508992D01*
X121615150Y-92559528D01*
X121461614Y-92641595D01*
X121327038Y-92752038D01*
X121216595Y-92886614D01*
X121134528Y-93040150D01*
X121083992Y-93206746D01*
X121066928Y-93380000D01*
X112445000Y-93380000D01*
X112445000Y-88430000D01*
X131276928Y-88430000D01*
X131289188Y-88554482D01*
X131325498Y-88674180D01*
X131384463Y-88784494D01*
X131463815Y-88881185D01*
X131560506Y-88960537D01*
X131670820Y-89019502D01*
X131766943Y-89048661D01*
X131600363Y-89215241D01*
X131443320Y-89450273D01*
X131335147Y-89711426D01*
X131280000Y-89988665D01*
X131280000Y-90271335D01*
X131335147Y-90548574D01*
X131443320Y-90809727D01*
X131600363Y-91044759D01*
X131800241Y-91244637D01*
X132035273Y-91401680D01*
X132296426Y-91509853D01*
X132573665Y-91565000D01*
X132856335Y-91565000D01*
X133133574Y-91509853D01*
X133394727Y-91401680D01*
X133629759Y-91244637D01*
X133829637Y-91044759D01*
X133986680Y-90809727D01*
X134094853Y-90548574D01*
X134150000Y-90271335D01*
X134150000Y-89988665D01*
X134094853Y-89711426D01*
X133986680Y-89450273D01*
X133829637Y-89215241D01*
X133663057Y-89048661D01*
X133759180Y-89019502D01*
X133869494Y-88960537D01*
X133966185Y-88881185D01*
X134045537Y-88784494D01*
X134104502Y-88674180D01*
X134140812Y-88554482D01*
X134153072Y-88430000D01*
X134150000Y-87915750D01*
X133991250Y-87757000D01*
X132842000Y-87757000D01*
X132842000Y-87777000D01*
X132588000Y-87777000D01*
X132588000Y-87757000D01*
X131438750Y-87757000D01*
X131280000Y-87915750D01*
X131276928Y-88430000D01*
X112445000Y-88430000D01*
X112445000Y-86426553D01*
X113394009Y-86426553D01*
X113436603Y-86725907D01*
X113536778Y-87011199D01*
X113616739Y-87160792D01*
X113870920Y-87244475D01*
X114755395Y-86360000D01*
X113870920Y-85475525D01*
X113616739Y-85559208D01*
X113485842Y-85831775D01*
X113410635Y-86124642D01*
X113394009Y-86426553D01*
X112445000Y-86426553D01*
X112445000Y-85295920D01*
X114050525Y-85295920D01*
X114935000Y-86180395D01*
X114949143Y-86166253D01*
X115128748Y-86345858D01*
X115114605Y-86360000D01*
X115128748Y-86374143D01*
X114949143Y-86553748D01*
X114935000Y-86539605D01*
X114050525Y-87424080D01*
X114134208Y-87678261D01*
X114406775Y-87809158D01*
X114699642Y-87884365D01*
X115001553Y-87900991D01*
X115300907Y-87858397D01*
X115586199Y-87758222D01*
X115735792Y-87678261D01*
X115819474Y-87424082D01*
X115935422Y-87540030D01*
X115982187Y-87493265D01*
X115985498Y-87504180D01*
X116044463Y-87614494D01*
X116123815Y-87711185D01*
X116220506Y-87790537D01*
X116330820Y-87849502D01*
X116450518Y-87885812D01*
X116575000Y-87898072D01*
X118375000Y-87898072D01*
X118499482Y-87885812D01*
X118619180Y-87849502D01*
X118729494Y-87790537D01*
X118826185Y-87711185D01*
X118905537Y-87614494D01*
X118964502Y-87504180D01*
X119000812Y-87384482D01*
X119001643Y-87376039D01*
X119100241Y-87474637D01*
X119335273Y-87631680D01*
X119596426Y-87739853D01*
X119873665Y-87795000D01*
X120156335Y-87795000D01*
X120433574Y-87739853D01*
X120694727Y-87631680D01*
X120929759Y-87474637D01*
X121129637Y-87274759D01*
X121286680Y-87039727D01*
X121394853Y-86778574D01*
X121450000Y-86501335D01*
X121450000Y-86218665D01*
X126200000Y-86218665D01*
X126200000Y-86501335D01*
X126255147Y-86778574D01*
X126363320Y-87039727D01*
X126520363Y-87274759D01*
X126720241Y-87474637D01*
X126955273Y-87631680D01*
X127216426Y-87739853D01*
X127493665Y-87795000D01*
X127776335Y-87795000D01*
X128053574Y-87739853D01*
X128314727Y-87631680D01*
X128549759Y-87474637D01*
X128749637Y-87274759D01*
X128906680Y-87039727D01*
X128993551Y-86830000D01*
X131276928Y-86830000D01*
X131280000Y-87344250D01*
X131438750Y-87503000D01*
X132588000Y-87503000D01*
X132588000Y-86353750D01*
X132842000Y-86353750D01*
X132842000Y-87503000D01*
X133991250Y-87503000D01*
X134150000Y-87344250D01*
X134153072Y-86830000D01*
X134140812Y-86705518D01*
X134104502Y-86585820D01*
X134045537Y-86475506D01*
X133966185Y-86378815D01*
X133869494Y-86299463D01*
X133759180Y-86240498D01*
X133639482Y-86204188D01*
X133515000Y-86191928D01*
X133000750Y-86195000D01*
X132842000Y-86353750D01*
X132588000Y-86353750D01*
X132429250Y-86195000D01*
X131915000Y-86191928D01*
X131790518Y-86204188D01*
X131670820Y-86240498D01*
X131560506Y-86299463D01*
X131463815Y-86378815D01*
X131384463Y-86475506D01*
X131325498Y-86585820D01*
X131289188Y-86705518D01*
X131276928Y-86830000D01*
X128993551Y-86830000D01*
X129014853Y-86778574D01*
X129070000Y-86501335D01*
X129070000Y-86218665D01*
X129014853Y-85941426D01*
X128906680Y-85680273D01*
X128749637Y-85445241D01*
X128549759Y-85245363D01*
X128314727Y-85088320D01*
X128053574Y-84980147D01*
X127776335Y-84925000D01*
X127493665Y-84925000D01*
X127216426Y-84980147D01*
X126955273Y-85088320D01*
X126720241Y-85245363D01*
X126520363Y-85445241D01*
X126363320Y-85680273D01*
X126255147Y-85941426D01*
X126200000Y-86218665D01*
X121450000Y-86218665D01*
X121394853Y-85941426D01*
X121286680Y-85680273D01*
X121129637Y-85445241D01*
X120929759Y-85245363D01*
X120694727Y-85088320D01*
X120433574Y-84980147D01*
X120156335Y-84925000D01*
X119873665Y-84925000D01*
X119596426Y-84980147D01*
X119335273Y-85088320D01*
X119100241Y-85245363D01*
X119001643Y-85343961D01*
X119000812Y-85335518D01*
X118964502Y-85215820D01*
X118905537Y-85105506D01*
X118826185Y-85008815D01*
X118729494Y-84929463D01*
X118619180Y-84870498D01*
X118499482Y-84834188D01*
X118375000Y-84821928D01*
X116575000Y-84821928D01*
X116450518Y-84834188D01*
X116330820Y-84870498D01*
X116220506Y-84929463D01*
X116123815Y-85008815D01*
X116044463Y-85105506D01*
X115985498Y-85215820D01*
X115982187Y-85226735D01*
X115935422Y-85179970D01*
X115819474Y-85295918D01*
X115735792Y-85041739D01*
X115463225Y-84910842D01*
X115170358Y-84835635D01*
X114868447Y-84819009D01*
X114569093Y-84861603D01*
X114283801Y-84961778D01*
X114134208Y-85041739D01*
X114050525Y-85295920D01*
X112445000Y-85295920D01*
X112445000Y-78625000D01*
X120431928Y-78625000D01*
X120431928Y-80125000D01*
X120448992Y-80298254D01*
X120499528Y-80464850D01*
X120581595Y-80618386D01*
X120692038Y-80752962D01*
X120826614Y-80863405D01*
X120980150Y-80945472D01*
X121146746Y-80996008D01*
X121320000Y-81013072D01*
X122520000Y-81013072D01*
X122693254Y-80996008D01*
X122859850Y-80945472D01*
X123013386Y-80863405D01*
X123147962Y-80752962D01*
X123258405Y-80618386D01*
X123312914Y-80516407D01*
X123313198Y-80516795D01*
X123527954Y-80713664D01*
X123776991Y-80864854D01*
X124050739Y-80964554D01*
X124063110Y-80966476D01*
X124293000Y-80845155D01*
X124293000Y-79502000D01*
X124547000Y-79502000D01*
X124547000Y-80845155D01*
X124776890Y-80966476D01*
X124789261Y-80964554D01*
X125063009Y-80864854D01*
X125312046Y-80713664D01*
X125526802Y-80516795D01*
X125699025Y-80281812D01*
X125822096Y-80017745D01*
X125891285Y-79734742D01*
X125747232Y-79502000D01*
X124547000Y-79502000D01*
X124293000Y-79502000D01*
X124273000Y-79502000D01*
X124273000Y-79248000D01*
X124293000Y-79248000D01*
X124293000Y-79228000D01*
X124547000Y-79228000D01*
X124547000Y-79248000D01*
X125747232Y-79248000D01*
X125891285Y-79015258D01*
X125822096Y-78732255D01*
X125704530Y-78480000D01*
X129971209Y-78480000D01*
X129956928Y-78625000D01*
X129956928Y-80125000D01*
X129973992Y-80298254D01*
X130024528Y-80464850D01*
X130106595Y-80618386D01*
X130217038Y-80752962D01*
X130351614Y-80863405D01*
X130505150Y-80945472D01*
X130671746Y-80996008D01*
X130845000Y-81013072D01*
X132045000Y-81013072D01*
X132218254Y-80996008D01*
X132384850Y-80945472D01*
X132538386Y-80863405D01*
X132672962Y-80752962D01*
X132783405Y-80618386D01*
X132837914Y-80516407D01*
X132838198Y-80516795D01*
X133052954Y-80713664D01*
X133301991Y-80864854D01*
X133575739Y-80964554D01*
X133588110Y-80966476D01*
X133818000Y-80845155D01*
X133818000Y-79502000D01*
X134072000Y-79502000D01*
X134072000Y-80845155D01*
X134301890Y-80966476D01*
X134314261Y-80964554D01*
X134588009Y-80864854D01*
X134837046Y-80713664D01*
X135051802Y-80516795D01*
X135224025Y-80281812D01*
X135347096Y-80017745D01*
X135416285Y-79734742D01*
X135272232Y-79502000D01*
X134072000Y-79502000D01*
X133818000Y-79502000D01*
X133798000Y-79502000D01*
X133798000Y-79248000D01*
X133818000Y-79248000D01*
X133818000Y-79228000D01*
X134072000Y-79228000D01*
X134072000Y-79248000D01*
X135272232Y-79248000D01*
X135416285Y-79015258D01*
X135347096Y-78732255D01*
X135229530Y-78480000D01*
X139496209Y-78480000D01*
X139481928Y-78625000D01*
X139481928Y-80125000D01*
X139498992Y-80298254D01*
X139549528Y-80464850D01*
X139631595Y-80618386D01*
X139742038Y-80752962D01*
X139876614Y-80863405D01*
X140030150Y-80945472D01*
X140196746Y-80996008D01*
X140370000Y-81013072D01*
X141570000Y-81013072D01*
X141743254Y-80996008D01*
X141909850Y-80945472D01*
X142063386Y-80863405D01*
X142197962Y-80752962D01*
X142308405Y-80618386D01*
X142362914Y-80516407D01*
X142363198Y-80516795D01*
X142577954Y-80713664D01*
X142826991Y-80864854D01*
X143100739Y-80964554D01*
X143113110Y-80966476D01*
X143343000Y-80845155D01*
X143343000Y-79502000D01*
X143597000Y-79502000D01*
X143597000Y-80845155D01*
X143826890Y-80966476D01*
X143839261Y-80964554D01*
X144113009Y-80864854D01*
X144362046Y-80713664D01*
X144576802Y-80516795D01*
X144749025Y-80281812D01*
X144872096Y-80017745D01*
X144941285Y-79734742D01*
X144797232Y-79502000D01*
X143597000Y-79502000D01*
X143343000Y-79502000D01*
X143323000Y-79502000D01*
X143323000Y-79248000D01*
X143343000Y-79248000D01*
X143343000Y-79228000D01*
X143597000Y-79228000D01*
X143597000Y-79248000D01*
X144797232Y-79248000D01*
X144941285Y-79015258D01*
X144872096Y-78732255D01*
X144754530Y-78480000D01*
X147536645Y-78480000D01*
X148425000Y-79368356D01*
X148425000Y-79516335D01*
X148480147Y-79793574D01*
X148588320Y-80054727D01*
X148709923Y-80236719D01*
X139760902Y-89185741D01*
X139722369Y-89217364D01*
X139690746Y-89255897D01*
X139690745Y-89255898D01*
X139596155Y-89371157D01*
X139502369Y-89546618D01*
X139444616Y-89737003D01*
X139425115Y-89934997D01*
X139430002Y-89984615D01*
X139430001Y-97669491D01*
X139206335Y-97625000D01*
X138923665Y-97625000D01*
X138646426Y-97680147D01*
X138385273Y-97788320D01*
X138150241Y-97945363D01*
X137950363Y-98145241D01*
X137793320Y-98380273D01*
X137685147Y-98641426D01*
X137630000Y-98918665D01*
X137630000Y-99066645D01*
X137010900Y-99685745D01*
X136972367Y-99717368D01*
X136940744Y-99755901D01*
X136940743Y-99755902D01*
X136846153Y-99871161D01*
X136752367Y-100046622D01*
X136694614Y-100237007D01*
X136675113Y-100435001D01*
X136680000Y-100484619D01*
X136679999Y-114621645D01*
X133559717Y-117741928D01*
X132750000Y-117741928D01*
X132576746Y-117758992D01*
X132410150Y-117809528D01*
X132256614Y-117891595D01*
X132122038Y-118002038D01*
X132011595Y-118136614D01*
X131957086Y-118238593D01*
X131956802Y-118238205D01*
X131742046Y-118041336D01*
X131493009Y-117890146D01*
X131219261Y-117790446D01*
X131206890Y-117788524D01*
X130977000Y-117909845D01*
X130977000Y-119253000D01*
X130997000Y-119253000D01*
X130997000Y-119507000D01*
X130977000Y-119507000D01*
X130977000Y-120850155D01*
X131206890Y-120971476D01*
X131219261Y-120969554D01*
X131493009Y-120869854D01*
X131742046Y-120718664D01*
X131956802Y-120521795D01*
X131957086Y-120521407D01*
X132011595Y-120623386D01*
X132122038Y-120757962D01*
X132256614Y-120868405D01*
X132410150Y-120950472D01*
X132576746Y-121001008D01*
X132750000Y-121018072D01*
X133950000Y-121018072D01*
X134123254Y-121001008D01*
X134289850Y-120950472D01*
X134443386Y-120868405D01*
X134577962Y-120757962D01*
X134688405Y-120623386D01*
X134770472Y-120469850D01*
X134821008Y-120303254D01*
X134838072Y-120130000D01*
X134838072Y-119739742D01*
X138903715Y-119739742D01*
X138972904Y-120022745D01*
X139095975Y-120286812D01*
X139268198Y-120521795D01*
X139482954Y-120718664D01*
X139731991Y-120869854D01*
X140005739Y-120969554D01*
X140018110Y-120971476D01*
X140248000Y-120850155D01*
X140248000Y-119507000D01*
X139047768Y-119507000D01*
X138903715Y-119739742D01*
X134838072Y-119739742D01*
X134838072Y-119320283D01*
X135138097Y-119020258D01*
X138903715Y-119020258D01*
X139047768Y-119253000D01*
X140248000Y-119253000D01*
X140248000Y-117909845D01*
X140018110Y-117788524D01*
X140005739Y-117790446D01*
X139731991Y-117890146D01*
X139482954Y-118041336D01*
X139268198Y-118238205D01*
X139095975Y-118473188D01*
X138972904Y-118737255D01*
X138903715Y-119020258D01*
X135138097Y-119020258D01*
X138369099Y-115789257D01*
X138407632Y-115757634D01*
X138533846Y-115603841D01*
X138627631Y-115428381D01*
X138685384Y-115237995D01*
X138699999Y-115089609D01*
X138699999Y-115089607D01*
X138704885Y-115040002D01*
X138699999Y-114990397D01*
X138699999Y-109975509D01*
X138923665Y-110020000D01*
X139206335Y-110020000D01*
X139483574Y-109964853D01*
X139744727Y-109856680D01*
X139979759Y-109699637D01*
X140179637Y-109499759D01*
X140336680Y-109264727D01*
X140444853Y-109003574D01*
X140500000Y-108726335D01*
X140500000Y-108443665D01*
X140444853Y-108166426D01*
X140336680Y-107905273D01*
X140179637Y-107670241D01*
X139979759Y-107470363D01*
X139744727Y-107313320D01*
X139483574Y-107205147D01*
X139206335Y-107150000D01*
X138923665Y-107150000D01*
X138699999Y-107194491D01*
X138699999Y-106800509D01*
X138923665Y-106845000D01*
X139206335Y-106845000D01*
X139483574Y-106789853D01*
X139744727Y-106681680D01*
X139979759Y-106524637D01*
X140179637Y-106324759D01*
X140336680Y-106089727D01*
X140444853Y-105828574D01*
X140500000Y-105551335D01*
X140500000Y-105268665D01*
X140444853Y-104991426D01*
X140336680Y-104730273D01*
X140179637Y-104495241D01*
X139979759Y-104295363D01*
X139744727Y-104138320D01*
X139483574Y-104030147D01*
X139206335Y-103975000D01*
X138923665Y-103975000D01*
X138699999Y-104019491D01*
X138699999Y-103625509D01*
X138923665Y-103670000D01*
X139206335Y-103670000D01*
X139483574Y-103614853D01*
X139744727Y-103506680D01*
X139979759Y-103349637D01*
X140179637Y-103149759D01*
X140336680Y-102914727D01*
X140444853Y-102653574D01*
X140500000Y-102376335D01*
X140500000Y-102228355D01*
X141119095Y-101609260D01*
X141157634Y-101577632D01*
X141283848Y-101423839D01*
X141377633Y-101248379D01*
X141435386Y-101057993D01*
X141450001Y-100909607D01*
X141450001Y-100909605D01*
X141454887Y-100860000D01*
X141450001Y-100810395D01*
X141450001Y-91510512D01*
X145244783Y-91510512D01*
X145286213Y-91790130D01*
X145381397Y-92056292D01*
X145448329Y-92181514D01*
X145692298Y-92253097D01*
X146505395Y-91440000D01*
X145692298Y-90626903D01*
X145448329Y-90698486D01*
X145327429Y-90953996D01*
X145258700Y-91228184D01*
X145244783Y-91510512D01*
X141450001Y-91510512D01*
X141450001Y-90353352D01*
X143004688Y-88798665D01*
X145250000Y-88798665D01*
X145250000Y-89081335D01*
X145305147Y-89358574D01*
X145413320Y-89619727D01*
X145570363Y-89854759D01*
X145770241Y-90054637D01*
X145970869Y-90188692D01*
X145943486Y-90203329D01*
X145871903Y-90447298D01*
X146685000Y-91260395D01*
X147498097Y-90447298D01*
X147426514Y-90203329D01*
X147397659Y-90189676D01*
X147599759Y-90054637D01*
X147799637Y-89854759D01*
X147956680Y-89619727D01*
X148064853Y-89358574D01*
X148120000Y-89081335D01*
X148120000Y-88798665D01*
X148064853Y-88521426D01*
X147956680Y-88260273D01*
X147799637Y-88025241D01*
X147599759Y-87825363D01*
X147364727Y-87668320D01*
X147103574Y-87560147D01*
X146826335Y-87505000D01*
X146543665Y-87505000D01*
X146266426Y-87560147D01*
X146005273Y-87668320D01*
X145770241Y-87825363D01*
X145570363Y-88025241D01*
X145413320Y-88260273D01*
X145305147Y-88521426D01*
X145250000Y-88798665D01*
X143004688Y-88798665D01*
X148584016Y-83219337D01*
X148588320Y-83229727D01*
X148745363Y-83464759D01*
X148945241Y-83664637D01*
X148985538Y-83691562D01*
X149016153Y-83748840D01*
X149142367Y-83902633D01*
X149180906Y-83934261D01*
X149566844Y-84320199D01*
X149441426Y-84345147D01*
X149180273Y-84453320D01*
X148945241Y-84610363D01*
X148745363Y-84810241D01*
X148588320Y-85045273D01*
X148480147Y-85306426D01*
X148425000Y-85583665D01*
X148425000Y-85866335D01*
X148480147Y-86143574D01*
X148588320Y-86404727D01*
X148745363Y-86639759D01*
X148945241Y-86839637D01*
X149180273Y-86996680D01*
X149441426Y-87104853D01*
X149718665Y-87160000D01*
X150001335Y-87160000D01*
X150278574Y-87104853D01*
X150539727Y-86996680D01*
X150774759Y-86839637D01*
X150974637Y-86639759D01*
X151131680Y-86404727D01*
X151239853Y-86143574D01*
X151264801Y-86018156D01*
X152753933Y-87507289D01*
X152541335Y-87465000D01*
X152258665Y-87465000D01*
X151981426Y-87520147D01*
X151720273Y-87628320D01*
X151485241Y-87785363D01*
X151285363Y-87985241D01*
X151130000Y-88217759D01*
X150974637Y-87985241D01*
X150774759Y-87785363D01*
X150539727Y-87628320D01*
X150278574Y-87520147D01*
X150001335Y-87465000D01*
X149718665Y-87465000D01*
X149441426Y-87520147D01*
X149180273Y-87628320D01*
X148945241Y-87785363D01*
X148745363Y-87985241D01*
X148588320Y-88220273D01*
X148480147Y-88481426D01*
X148425000Y-88758665D01*
X148425000Y-89041335D01*
X148480147Y-89318574D01*
X148588320Y-89579727D01*
X148745363Y-89814759D01*
X148945241Y-90014637D01*
X149180273Y-90171680D01*
X149441426Y-90279853D01*
X149566844Y-90304800D01*
X148074996Y-91796649D01*
X148111300Y-91651816D01*
X148125217Y-91369488D01*
X148083787Y-91089870D01*
X147988603Y-90823708D01*
X147921671Y-90698486D01*
X147677702Y-90626903D01*
X146864605Y-91440000D01*
X146878748Y-91454143D01*
X146699143Y-91633748D01*
X146685000Y-91619605D01*
X145871903Y-92432702D01*
X145943486Y-92676671D01*
X146198996Y-92797571D01*
X146473184Y-92866300D01*
X146755512Y-92880217D01*
X147032462Y-92839182D01*
X144630900Y-95240745D01*
X144592367Y-95272368D01*
X144560744Y-95310901D01*
X144560743Y-95310902D01*
X144466153Y-95426161D01*
X144372367Y-95601622D01*
X144314614Y-95792007D01*
X144295113Y-95990001D01*
X144300000Y-96039619D01*
X144299999Y-112081645D01*
X142195901Y-114185744D01*
X142157368Y-114217367D01*
X142125745Y-114255900D01*
X142125744Y-114255901D01*
X142031154Y-114371160D01*
X141937368Y-114546621D01*
X141879615Y-114737006D01*
X141860114Y-114935000D01*
X141865001Y-114984618D01*
X141865000Y-117847024D01*
X141781614Y-117891595D01*
X141647038Y-118002038D01*
X141536595Y-118136614D01*
X141482086Y-118238593D01*
X141481802Y-118238205D01*
X141267046Y-118041336D01*
X141018009Y-117890146D01*
X140744261Y-117790446D01*
X140731890Y-117788524D01*
X140502000Y-117909845D01*
X140502000Y-119253000D01*
X140522000Y-119253000D01*
X140522000Y-119507000D01*
X140502000Y-119507000D01*
X140502000Y-120850155D01*
X140731890Y-120971476D01*
X140744261Y-120969554D01*
X141018009Y-120869854D01*
X141267046Y-120718664D01*
X141481802Y-120521795D01*
X141482086Y-120521407D01*
X141536595Y-120623386D01*
X141647038Y-120757962D01*
X141781614Y-120868405D01*
X141935150Y-120950472D01*
X142101746Y-121001008D01*
X142275000Y-121018072D01*
X143475000Y-121018072D01*
X143648254Y-121001008D01*
X143814850Y-120950472D01*
X143968386Y-120868405D01*
X144102962Y-120757962D01*
X144213405Y-120623386D01*
X144295472Y-120469850D01*
X144319694Y-120390000D01*
X148953741Y-120390000D01*
X148996238Y-120432497D01*
X149218167Y-120580785D01*
X149464761Y-120682928D01*
X149726544Y-120735000D01*
X149993456Y-120735000D01*
X150255239Y-120682928D01*
X150501833Y-120580785D01*
X150723762Y-120432497D01*
X150912497Y-120243762D01*
X151060785Y-120021833D01*
X151162928Y-119775239D01*
X151215000Y-119513456D01*
X151215000Y-119246544D01*
X151162928Y-118984761D01*
X151060785Y-118738167D01*
X150912497Y-118516238D01*
X150723762Y-118327503D01*
X150501833Y-118179215D01*
X150334734Y-118110000D01*
X150501833Y-118040785D01*
X150723762Y-117892497D01*
X150738952Y-117877307D01*
X152920744Y-120059100D01*
X152952367Y-120097633D01*
X153106160Y-120223847D01*
X153281620Y-120317632D01*
X153472006Y-120375385D01*
X153620392Y-120390000D01*
X153620394Y-120390000D01*
X153669999Y-120394886D01*
X153719604Y-120390000D01*
X153920604Y-120390000D01*
X154025241Y-120494637D01*
X154260273Y-120651680D01*
X154521426Y-120759853D01*
X154798665Y-120815000D01*
X155081335Y-120815000D01*
X155358574Y-120759853D01*
X155619727Y-120651680D01*
X155854759Y-120494637D01*
X155959396Y-120390000D01*
X156160392Y-120390000D01*
X156210000Y-120394886D01*
X156407994Y-120375385D01*
X156407997Y-120375384D01*
X156598380Y-120317632D01*
X156773840Y-120223847D01*
X156927633Y-120097633D01*
X156959261Y-120059094D01*
X157779690Y-119238665D01*
X158505000Y-119238665D01*
X158505000Y-119521335D01*
X158560147Y-119798574D01*
X158668320Y-120059727D01*
X158825363Y-120294759D01*
X159025241Y-120494637D01*
X159260273Y-120651680D01*
X159521426Y-120759853D01*
X159798665Y-120815000D01*
X160081335Y-120815000D01*
X160358574Y-120759853D01*
X160619727Y-120651680D01*
X160854759Y-120494637D01*
X161054637Y-120294759D01*
X161211680Y-120059727D01*
X161319853Y-119798574D01*
X161331555Y-119739742D01*
X168748715Y-119739742D01*
X168817904Y-120022745D01*
X168940975Y-120286812D01*
X169113198Y-120521795D01*
X169327954Y-120718664D01*
X169576991Y-120869854D01*
X169850739Y-120969554D01*
X169863110Y-120971476D01*
X170093000Y-120850155D01*
X170093000Y-119507000D01*
X168892768Y-119507000D01*
X168748715Y-119739742D01*
X161331555Y-119739742D01*
X161375000Y-119521335D01*
X161375000Y-119238665D01*
X161331556Y-119020258D01*
X168748715Y-119020258D01*
X168892768Y-119253000D01*
X170093000Y-119253000D01*
X170093000Y-117909845D01*
X170347000Y-117909845D01*
X170347000Y-119253000D01*
X170367000Y-119253000D01*
X170367000Y-119507000D01*
X170347000Y-119507000D01*
X170347000Y-120850155D01*
X170576890Y-120971476D01*
X170589261Y-120969554D01*
X170863009Y-120869854D01*
X171112046Y-120718664D01*
X171326802Y-120521795D01*
X171327086Y-120521407D01*
X171381595Y-120623386D01*
X171492038Y-120757962D01*
X171626614Y-120868405D01*
X171780150Y-120950472D01*
X171946746Y-121001008D01*
X172120000Y-121018072D01*
X173320000Y-121018072D01*
X173493254Y-121001008D01*
X173659850Y-120950472D01*
X173813386Y-120868405D01*
X173947962Y-120757962D01*
X174058405Y-120623386D01*
X174140472Y-120469850D01*
X174191008Y-120303254D01*
X174208072Y-120130000D01*
X174208072Y-119739742D01*
X178273715Y-119739742D01*
X178342904Y-120022745D01*
X178465975Y-120286812D01*
X178638198Y-120521795D01*
X178852954Y-120718664D01*
X179101991Y-120869854D01*
X179375739Y-120969554D01*
X179388110Y-120971476D01*
X179618000Y-120850155D01*
X179618000Y-119507000D01*
X178417768Y-119507000D01*
X178273715Y-119739742D01*
X174208072Y-119739742D01*
X174208072Y-119320283D01*
X174508097Y-119020258D01*
X178273715Y-119020258D01*
X178417768Y-119253000D01*
X179618000Y-119253000D01*
X179618000Y-117909845D01*
X179872000Y-117909845D01*
X179872000Y-119253000D01*
X179892000Y-119253000D01*
X179892000Y-119507000D01*
X179872000Y-119507000D01*
X179872000Y-120850155D01*
X180101890Y-120971476D01*
X180114261Y-120969554D01*
X180388009Y-120869854D01*
X180637046Y-120718664D01*
X180851802Y-120521795D01*
X180852086Y-120521407D01*
X180906595Y-120623386D01*
X181017038Y-120757962D01*
X181151614Y-120868405D01*
X181305150Y-120950472D01*
X181471746Y-121001008D01*
X181645000Y-121018072D01*
X182845000Y-121018072D01*
X183018254Y-121001008D01*
X183184850Y-120950472D01*
X183338386Y-120868405D01*
X183472962Y-120757962D01*
X183583405Y-120623386D01*
X183665472Y-120469850D01*
X183716008Y-120303254D01*
X183733072Y-120130000D01*
X183733072Y-118630000D01*
X183716008Y-118456746D01*
X183665472Y-118290150D01*
X183583405Y-118136614D01*
X183472962Y-118002038D01*
X183338386Y-117891595D01*
X183255000Y-117847024D01*
X183255000Y-108889396D01*
X183359637Y-108784759D01*
X183516680Y-108549727D01*
X183624853Y-108288574D01*
X183680000Y-108011335D01*
X183680000Y-107728665D01*
X183624853Y-107451426D01*
X183516680Y-107190273D01*
X183359637Y-106955241D01*
X183159759Y-106755363D01*
X182924727Y-106598320D01*
X182663574Y-106490147D01*
X182386335Y-106435000D01*
X182103665Y-106435000D01*
X181826426Y-106490147D01*
X181565273Y-106598320D01*
X181330241Y-106755363D01*
X181130363Y-106955241D01*
X180973320Y-107190273D01*
X180865147Y-107451426D01*
X180810000Y-107728665D01*
X180810000Y-108011335D01*
X180865147Y-108288574D01*
X180973320Y-108549727D01*
X181130363Y-108784759D01*
X181235000Y-108889396D01*
X181235001Y-117847024D01*
X181151614Y-117891595D01*
X181017038Y-118002038D01*
X180906595Y-118136614D01*
X180852086Y-118238593D01*
X180851802Y-118238205D01*
X180637046Y-118041336D01*
X180388009Y-117890146D01*
X180114261Y-117790446D01*
X180101890Y-117788524D01*
X179872000Y-117909845D01*
X179618000Y-117909845D01*
X179388110Y-117788524D01*
X179375739Y-117790446D01*
X179101991Y-117890146D01*
X178852954Y-118041336D01*
X178638198Y-118238205D01*
X178465975Y-118473188D01*
X178342904Y-118737255D01*
X178273715Y-119020258D01*
X174508097Y-119020258D01*
X175304100Y-118224256D01*
X175342633Y-118192633D01*
X175468847Y-118038840D01*
X175562632Y-117863380D01*
X175585339Y-117788524D01*
X175620385Y-117672995D01*
X175639886Y-117475000D01*
X175635000Y-117425392D01*
X175635000Y-108334396D01*
X175644396Y-108325000D01*
X176780604Y-108325000D01*
X176885241Y-108429637D01*
X177120273Y-108586680D01*
X177381426Y-108694853D01*
X177658665Y-108750000D01*
X177941335Y-108750000D01*
X178218574Y-108694853D01*
X178479727Y-108586680D01*
X178714759Y-108429637D01*
X178914637Y-108229759D01*
X179071680Y-107994727D01*
X179179853Y-107733574D01*
X179235000Y-107456335D01*
X179235000Y-107173665D01*
X179179853Y-106896426D01*
X179071680Y-106635273D01*
X178914637Y-106400241D01*
X178714759Y-106200363D01*
X178479727Y-106043320D01*
X178218574Y-105935147D01*
X177941335Y-105880000D01*
X177658665Y-105880000D01*
X177381426Y-105935147D01*
X177120273Y-106043320D01*
X176885241Y-106200363D01*
X176780604Y-106305000D01*
X175644396Y-106305000D01*
X175539759Y-106200363D01*
X175304727Y-106043320D01*
X175043574Y-105935147D01*
X174766335Y-105880000D01*
X174483665Y-105880000D01*
X174206426Y-105935147D01*
X173945273Y-106043320D01*
X173710241Y-106200363D01*
X173510363Y-106400241D01*
X173353320Y-106635273D01*
X173245147Y-106896426D01*
X173190000Y-107173665D01*
X173190000Y-107456335D01*
X173245147Y-107733574D01*
X173353320Y-107994727D01*
X173510363Y-108229759D01*
X173615000Y-108334396D01*
X173615001Y-117056643D01*
X172929717Y-117741928D01*
X172120000Y-117741928D01*
X171946746Y-117758992D01*
X171780150Y-117809528D01*
X171626614Y-117891595D01*
X171492038Y-118002038D01*
X171381595Y-118136614D01*
X171327086Y-118238593D01*
X171326802Y-118238205D01*
X171112046Y-118041336D01*
X170863009Y-117890146D01*
X170589261Y-117790446D01*
X170576890Y-117788524D01*
X170347000Y-117909845D01*
X170093000Y-117909845D01*
X169863110Y-117788524D01*
X169850739Y-117790446D01*
X169576991Y-117890146D01*
X169327954Y-118041336D01*
X169113198Y-118238205D01*
X168940975Y-118473188D01*
X168817904Y-118737255D01*
X168748715Y-119020258D01*
X161331556Y-119020258D01*
X161319853Y-118961426D01*
X161211680Y-118700273D01*
X161054637Y-118465241D01*
X160854759Y-118265363D01*
X160619727Y-118108320D01*
X160358574Y-118000147D01*
X160081335Y-117945000D01*
X159798665Y-117945000D01*
X159521426Y-118000147D01*
X159260273Y-118108320D01*
X159025241Y-118265363D01*
X158825363Y-118465241D01*
X158668320Y-118700273D01*
X158560147Y-118961426D01*
X158505000Y-119238665D01*
X157779690Y-119238665D01*
X158159094Y-118859261D01*
X158197633Y-118827633D01*
X158323847Y-118673840D01*
X158417632Y-118498380D01*
X158475385Y-118307994D01*
X158490000Y-118159608D01*
X158490000Y-118159606D01*
X158494886Y-118110001D01*
X158490000Y-118060396D01*
X158490000Y-115248685D01*
X158555799Y-115182886D01*
X158707371Y-114956043D01*
X158811775Y-114703989D01*
X158865000Y-114436411D01*
X158865000Y-114163589D01*
X158811775Y-113896011D01*
X158707371Y-113643957D01*
X158555799Y-113417114D01*
X158362886Y-113224201D01*
X158136043Y-113072629D01*
X157883989Y-112968225D01*
X157616411Y-112915000D01*
X157343589Y-112915000D01*
X157076011Y-112968225D01*
X156823957Y-113072629D01*
X156597114Y-113224201D01*
X156404201Y-113417114D01*
X156252629Y-113643957D01*
X156148225Y-113896011D01*
X156095000Y-114163589D01*
X156095000Y-114436411D01*
X156148225Y-114703989D01*
X156252629Y-114956043D01*
X156404201Y-115182886D01*
X156470001Y-115248686D01*
X156470000Y-117691645D01*
X155875521Y-118286125D01*
X155854759Y-118265363D01*
X155619727Y-118108320D01*
X155358574Y-118000147D01*
X155081335Y-117945000D01*
X154798665Y-117945000D01*
X154521426Y-118000147D01*
X154260273Y-118108320D01*
X154025241Y-118265363D01*
X154004480Y-118286124D01*
X151879261Y-116160906D01*
X151847633Y-116122367D01*
X151693840Y-115996153D01*
X151518380Y-115902368D01*
X151327994Y-115844615D01*
X151179608Y-115830000D01*
X151130000Y-115825114D01*
X151080392Y-115830000D01*
X150870000Y-115830000D01*
X150870000Y-115206259D01*
X150912497Y-115163762D01*
X151060785Y-114941833D01*
X151162928Y-114695239D01*
X151215000Y-114433456D01*
X151215000Y-114166544D01*
X151162928Y-113904761D01*
X151060785Y-113658167D01*
X150912497Y-113436238D01*
X150723762Y-113247503D01*
X150501833Y-113099215D01*
X150255239Y-112997072D01*
X149993456Y-112945000D01*
X149726544Y-112945000D01*
X149464761Y-112997072D01*
X149218167Y-113099215D01*
X148996238Y-113247503D01*
X148807503Y-113436238D01*
X148659215Y-113658167D01*
X148557072Y-113904761D01*
X148505000Y-114166544D01*
X148505000Y-114433456D01*
X148557072Y-114695239D01*
X148659215Y-114941833D01*
X148807503Y-115163762D01*
X148850000Y-115206259D01*
X148850001Y-115933740D01*
X148807503Y-115976238D01*
X148659215Y-116198167D01*
X148557072Y-116444761D01*
X148505000Y-116706544D01*
X148505000Y-116973456D01*
X148557072Y-117235239D01*
X148659215Y-117481833D01*
X148807503Y-117703762D01*
X148996238Y-117892497D01*
X149218167Y-118040785D01*
X149385266Y-118110000D01*
X149218167Y-118179215D01*
X148996238Y-118327503D01*
X148953741Y-118370000D01*
X144319694Y-118370000D01*
X144295472Y-118290150D01*
X144213405Y-118136614D01*
X144102962Y-118002038D01*
X143968386Y-117891595D01*
X143885000Y-117847024D01*
X143885000Y-115353355D01*
X145989099Y-113249257D01*
X146027632Y-113217634D01*
X146153846Y-113063841D01*
X146247631Y-112888381D01*
X146263582Y-112835799D01*
X146305384Y-112697996D01*
X146324885Y-112500001D01*
X146319999Y-112450393D01*
X146319999Y-109975509D01*
X146543665Y-110020000D01*
X146691645Y-110020000D01*
X149110739Y-112439094D01*
X149142367Y-112477633D01*
X149296160Y-112603847D01*
X149471620Y-112697632D01*
X149662006Y-112755385D01*
X149810392Y-112770000D01*
X149810394Y-112770000D01*
X149859999Y-112774886D01*
X149909604Y-112770000D01*
X153991315Y-112770000D01*
X154057114Y-112835799D01*
X154283957Y-112987371D01*
X154536011Y-113091775D01*
X154803589Y-113145000D01*
X155076411Y-113145000D01*
X155343989Y-113091775D01*
X155596043Y-112987371D01*
X155822886Y-112835799D01*
X156015799Y-112642886D01*
X156167371Y-112416043D01*
X156271775Y-112163989D01*
X156325000Y-111896411D01*
X156325000Y-111803193D01*
X156418847Y-111688840D01*
X156512632Y-111513380D01*
X156555634Y-111371621D01*
X156570385Y-111322995D01*
X156589886Y-111125000D01*
X156585000Y-111075392D01*
X156585000Y-111010000D01*
X158631928Y-111010000D01*
X158631928Y-112510000D01*
X158644188Y-112634482D01*
X158680498Y-112754180D01*
X158739463Y-112864494D01*
X158818815Y-112961185D01*
X158915506Y-113040537D01*
X159025820Y-113099502D01*
X159145518Y-113135812D01*
X159270000Y-113148072D01*
X160770000Y-113148072D01*
X160894482Y-113135812D01*
X161014180Y-113099502D01*
X161124494Y-113040537D01*
X161221185Y-112961185D01*
X161300537Y-112864494D01*
X161359502Y-112754180D01*
X161395812Y-112634482D01*
X161408072Y-112510000D01*
X161408072Y-111010000D01*
X161395812Y-110885518D01*
X161359502Y-110765820D01*
X161300537Y-110655506D01*
X161221185Y-110558815D01*
X161124494Y-110479463D01*
X161014180Y-110420498D01*
X160894482Y-110384188D01*
X160770000Y-110371928D01*
X159270000Y-110371928D01*
X159145518Y-110384188D01*
X159025820Y-110420498D01*
X158915506Y-110479463D01*
X158818815Y-110558815D01*
X158739463Y-110655506D01*
X158680498Y-110765820D01*
X158644188Y-110885518D01*
X158631928Y-111010000D01*
X156585000Y-111010000D01*
X156585000Y-108334396D01*
X156689637Y-108229759D01*
X156846680Y-107994727D01*
X156954853Y-107733574D01*
X156968684Y-107664040D01*
X165613091Y-107664040D01*
X165707930Y-107928881D01*
X165852615Y-108170131D01*
X166041586Y-108378519D01*
X166267580Y-108546037D01*
X166521913Y-108666246D01*
X166655961Y-108706904D01*
X166878000Y-108584915D01*
X166878000Y-107442000D01*
X167132000Y-107442000D01*
X167132000Y-108584915D01*
X167354039Y-108706904D01*
X167488087Y-108666246D01*
X167742420Y-108546037D01*
X167968414Y-108378519D01*
X168157385Y-108170131D01*
X168302070Y-107928881D01*
X168396909Y-107664040D01*
X168275624Y-107442000D01*
X167132000Y-107442000D01*
X166878000Y-107442000D01*
X165734376Y-107442000D01*
X165613091Y-107664040D01*
X156968684Y-107664040D01*
X157010000Y-107456335D01*
X157010000Y-107173665D01*
X156968685Y-106965960D01*
X165613091Y-106965960D01*
X165734376Y-107188000D01*
X166878000Y-107188000D01*
X166878000Y-106045085D01*
X167132000Y-106045085D01*
X167132000Y-107188000D01*
X168275624Y-107188000D01*
X168283454Y-107173665D01*
X168745000Y-107173665D01*
X168745000Y-107456335D01*
X168800147Y-107733574D01*
X168908320Y-107994727D01*
X169065363Y-108229759D01*
X169265241Y-108429637D01*
X169500273Y-108586680D01*
X169761426Y-108694853D01*
X170038665Y-108750000D01*
X170321335Y-108750000D01*
X170598574Y-108694853D01*
X170859727Y-108586680D01*
X171094759Y-108429637D01*
X171294637Y-108229759D01*
X171451680Y-107994727D01*
X171559853Y-107733574D01*
X171615000Y-107456335D01*
X171615000Y-107173665D01*
X171559853Y-106896426D01*
X171451680Y-106635273D01*
X171294637Y-106400241D01*
X171094759Y-106200363D01*
X170859727Y-106043320D01*
X170598574Y-105935147D01*
X170321335Y-105880000D01*
X170038665Y-105880000D01*
X169761426Y-105935147D01*
X169500273Y-106043320D01*
X169265241Y-106200363D01*
X169065363Y-106400241D01*
X168908320Y-106635273D01*
X168800147Y-106896426D01*
X168745000Y-107173665D01*
X168283454Y-107173665D01*
X168396909Y-106965960D01*
X168302070Y-106701119D01*
X168157385Y-106459869D01*
X167968414Y-106251481D01*
X167742420Y-106083963D01*
X167488087Y-105963754D01*
X167354039Y-105923096D01*
X167132000Y-106045085D01*
X166878000Y-106045085D01*
X166655961Y-105923096D01*
X166521913Y-105963754D01*
X166267580Y-106083963D01*
X166041586Y-106251481D01*
X165852615Y-106459869D01*
X165707930Y-106701119D01*
X165613091Y-106965960D01*
X156968685Y-106965960D01*
X156954853Y-106896426D01*
X156846680Y-106635273D01*
X156689637Y-106400241D01*
X156489759Y-106200363D01*
X156254727Y-106043320D01*
X155993574Y-105935147D01*
X155716335Y-105880000D01*
X155433665Y-105880000D01*
X155156426Y-105935147D01*
X154895273Y-106043320D01*
X154660241Y-106200363D01*
X154460363Y-106400241D01*
X154303320Y-106635273D01*
X154195147Y-106896426D01*
X154140000Y-107173665D01*
X154140000Y-107456335D01*
X154195147Y-107733574D01*
X154303320Y-107994727D01*
X154460363Y-108229759D01*
X154565000Y-108334396D01*
X154565001Y-110422459D01*
X154536011Y-110428225D01*
X154283957Y-110532629D01*
X154057114Y-110684201D01*
X153991315Y-110750000D01*
X150278355Y-110750000D01*
X148120000Y-108591645D01*
X148120000Y-108443665D01*
X148064853Y-108166426D01*
X147956680Y-107905273D01*
X147799637Y-107670241D01*
X147793436Y-107664040D01*
X151008091Y-107664040D01*
X151102930Y-107928881D01*
X151247615Y-108170131D01*
X151436586Y-108378519D01*
X151662580Y-108546037D01*
X151916913Y-108666246D01*
X152050961Y-108706904D01*
X152273000Y-108584915D01*
X152273000Y-107442000D01*
X152527000Y-107442000D01*
X152527000Y-108584915D01*
X152749039Y-108706904D01*
X152883087Y-108666246D01*
X153137420Y-108546037D01*
X153363414Y-108378519D01*
X153552385Y-108170131D01*
X153697070Y-107928881D01*
X153791909Y-107664040D01*
X153670624Y-107442000D01*
X152527000Y-107442000D01*
X152273000Y-107442000D01*
X151129376Y-107442000D01*
X151008091Y-107664040D01*
X147793436Y-107664040D01*
X147599759Y-107470363D01*
X147364727Y-107313320D01*
X147103574Y-107205147D01*
X146826335Y-107150000D01*
X146543665Y-107150000D01*
X146319999Y-107194491D01*
X146319999Y-106965960D01*
X151008091Y-106965960D01*
X151129376Y-107188000D01*
X152273000Y-107188000D01*
X152273000Y-106045085D01*
X152527000Y-106045085D01*
X152527000Y-107188000D01*
X153670624Y-107188000D01*
X153791909Y-106965960D01*
X153697070Y-106701119D01*
X153552385Y-106459869D01*
X153363414Y-106251481D01*
X153137420Y-106083963D01*
X152883087Y-105963754D01*
X152749039Y-105923096D01*
X152527000Y-106045085D01*
X152273000Y-106045085D01*
X152050961Y-105923096D01*
X151916913Y-105963754D01*
X151662580Y-106083963D01*
X151436586Y-106251481D01*
X151247615Y-106459869D01*
X151102930Y-106701119D01*
X151008091Y-106965960D01*
X146319999Y-106965960D01*
X146319999Y-106800509D01*
X146543665Y-106845000D01*
X146826335Y-106845000D01*
X147103574Y-106789853D01*
X147364727Y-106681680D01*
X147599759Y-106524637D01*
X147799637Y-106324759D01*
X147956680Y-106089727D01*
X148064853Y-105828574D01*
X148108834Y-105607470D01*
X148110363Y-105609759D01*
X148310241Y-105809637D01*
X148545273Y-105966680D01*
X148806426Y-106074853D01*
X149083665Y-106130000D01*
X149366335Y-106130000D01*
X149643574Y-106074853D01*
X149904727Y-105966680D01*
X150139759Y-105809637D01*
X150244396Y-105705000D01*
X150306762Y-105705000D01*
X150356370Y-105709886D01*
X150554364Y-105690385D01*
X150744750Y-105632632D01*
X150920210Y-105538847D01*
X151074003Y-105412633D01*
X151105631Y-105374094D01*
X153292023Y-103187702D01*
X161746903Y-103187702D01*
X161818486Y-103431671D01*
X162073996Y-103552571D01*
X162348184Y-103621300D01*
X162630512Y-103635217D01*
X162910130Y-103593787D01*
X163176292Y-103498603D01*
X163301514Y-103431671D01*
X163373097Y-103187702D01*
X162560000Y-102374605D01*
X161746903Y-103187702D01*
X153292023Y-103187702D01*
X154214213Y-102265512D01*
X161119783Y-102265512D01*
X161161213Y-102545130D01*
X161256397Y-102811292D01*
X161323329Y-102936514D01*
X161567298Y-103008097D01*
X162380395Y-102195000D01*
X162739605Y-102195000D01*
X163552702Y-103008097D01*
X163796671Y-102936514D01*
X163917571Y-102681004D01*
X163986300Y-102406816D01*
X164000217Y-102124488D01*
X163958787Y-101844870D01*
X163863603Y-101578708D01*
X163796671Y-101453486D01*
X163552702Y-101381903D01*
X162739605Y-102195000D01*
X162380395Y-102195000D01*
X161567298Y-101381903D01*
X161323329Y-101453486D01*
X161202429Y-101708996D01*
X161133700Y-101983184D01*
X161119783Y-102265512D01*
X154214213Y-102265512D01*
X155363652Y-101116073D01*
X155433665Y-101130000D01*
X155716335Y-101130000D01*
X155993574Y-101074853D01*
X156254727Y-100966680D01*
X156489759Y-100809637D01*
X156689637Y-100609759D01*
X156846680Y-100374727D01*
X156954853Y-100113574D01*
X157010000Y-99836335D01*
X157010000Y-99553665D01*
X156954853Y-99276426D01*
X156846680Y-99015273D01*
X156766317Y-98895000D01*
X161121928Y-98895000D01*
X161121928Y-100495000D01*
X161134188Y-100619482D01*
X161170498Y-100739180D01*
X161229463Y-100849494D01*
X161308815Y-100946185D01*
X161405506Y-101025537D01*
X161515820Y-101084502D01*
X161635518Y-101120812D01*
X161760000Y-101133072D01*
X161767215Y-101133072D01*
X161746903Y-101202298D01*
X162560000Y-102015395D01*
X163373097Y-101202298D01*
X163352785Y-101133072D01*
X163360000Y-101133072D01*
X163484482Y-101120812D01*
X163604180Y-101084502D01*
X163714494Y-101025537D01*
X163811185Y-100946185D01*
X163890537Y-100849494D01*
X163949502Y-100739180D01*
X163959870Y-100705000D01*
X165985604Y-100705000D01*
X166090241Y-100809637D01*
X166325273Y-100966680D01*
X166586426Y-101074853D01*
X166863665Y-101130000D01*
X167146335Y-101130000D01*
X167423574Y-101074853D01*
X167684727Y-100966680D01*
X167919759Y-100809637D01*
X168024396Y-100705000D01*
X169160604Y-100705000D01*
X169265241Y-100809637D01*
X169500273Y-100966680D01*
X169761426Y-101074853D01*
X170038665Y-101130000D01*
X170321335Y-101130000D01*
X170598574Y-101074853D01*
X170859727Y-100966680D01*
X171094759Y-100809637D01*
X171294637Y-100609759D01*
X171451680Y-100374727D01*
X171559853Y-100113574D01*
X171615000Y-99836335D01*
X171615000Y-99553665D01*
X173190000Y-99553665D01*
X173190000Y-99836335D01*
X173245147Y-100113574D01*
X173353320Y-100374727D01*
X173510363Y-100609759D01*
X173710241Y-100809637D01*
X173945273Y-100966680D01*
X174206426Y-101074853D01*
X174483665Y-101130000D01*
X174766335Y-101130000D01*
X175043574Y-101074853D01*
X175304727Y-100966680D01*
X175539759Y-100809637D01*
X175739637Y-100609759D01*
X175896680Y-100374727D01*
X176004853Y-100113574D01*
X176060000Y-99836335D01*
X176060000Y-99553665D01*
X176365000Y-99553665D01*
X176365000Y-99836335D01*
X176420147Y-100113574D01*
X176528320Y-100374727D01*
X176685363Y-100609759D01*
X176790001Y-100714397D01*
X176790001Y-100915383D01*
X176785114Y-100965000D01*
X176804615Y-101162994D01*
X176862368Y-101353379D01*
X176935472Y-101490147D01*
X176956154Y-101528840D01*
X177082368Y-101682633D01*
X177120901Y-101714256D01*
X178955744Y-103549100D01*
X178987367Y-103587633D01*
X179141160Y-103713847D01*
X179316620Y-103807632D01*
X179507005Y-103865385D01*
X179705000Y-103884886D01*
X179754608Y-103880000D01*
X181225604Y-103880000D01*
X181330241Y-103984637D01*
X181565273Y-104141680D01*
X181826426Y-104249853D01*
X182103665Y-104305000D01*
X182386335Y-104305000D01*
X182663574Y-104249853D01*
X182924727Y-104141680D01*
X183159759Y-103984637D01*
X183359637Y-103784759D01*
X183516680Y-103549727D01*
X183624853Y-103288574D01*
X183680000Y-103011335D01*
X183680000Y-102728665D01*
X183624853Y-102451426D01*
X183516680Y-102190273D01*
X183359637Y-101955241D01*
X183159759Y-101755363D01*
X182924727Y-101598320D01*
X182663574Y-101490147D01*
X182386335Y-101435000D01*
X182103665Y-101435000D01*
X181826426Y-101490147D01*
X181565273Y-101598320D01*
X181330241Y-101755363D01*
X181225604Y-101860000D01*
X180123356Y-101860000D01*
X178893876Y-100630520D01*
X178914637Y-100609759D01*
X179071680Y-100374727D01*
X179179853Y-100113574D01*
X179235000Y-99836335D01*
X179235000Y-99553665D01*
X179179853Y-99276426D01*
X179071680Y-99015273D01*
X178914637Y-98780241D01*
X178714759Y-98580363D01*
X178479727Y-98423320D01*
X178218574Y-98315147D01*
X177941335Y-98260000D01*
X177658665Y-98260000D01*
X177381426Y-98315147D01*
X177120273Y-98423320D01*
X176885241Y-98580363D01*
X176685363Y-98780241D01*
X176528320Y-99015273D01*
X176420147Y-99276426D01*
X176365000Y-99553665D01*
X176060000Y-99553665D01*
X176004853Y-99276426D01*
X175896680Y-99015273D01*
X175739637Y-98780241D01*
X175539759Y-98580363D01*
X175304727Y-98423320D01*
X175043574Y-98315147D01*
X174766335Y-98260000D01*
X174483665Y-98260000D01*
X174206426Y-98315147D01*
X173945273Y-98423320D01*
X173710241Y-98580363D01*
X173510363Y-98780241D01*
X173353320Y-99015273D01*
X173245147Y-99276426D01*
X173190000Y-99553665D01*
X171615000Y-99553665D01*
X171559853Y-99276426D01*
X171451680Y-99015273D01*
X171294637Y-98780241D01*
X171190000Y-98675604D01*
X171190000Y-97539396D01*
X171294637Y-97434759D01*
X171450000Y-97202241D01*
X171605363Y-97434759D01*
X171805241Y-97634637D01*
X172040273Y-97791680D01*
X172301426Y-97899853D01*
X172578665Y-97955000D01*
X172861335Y-97955000D01*
X173138574Y-97899853D01*
X173399727Y-97791680D01*
X173634759Y-97634637D01*
X173834637Y-97434759D01*
X173990000Y-97202241D01*
X174145363Y-97434759D01*
X174345241Y-97634637D01*
X174580273Y-97791680D01*
X174841426Y-97899853D01*
X175118665Y-97955000D01*
X175401335Y-97955000D01*
X175678574Y-97899853D01*
X175939727Y-97791680D01*
X176174759Y-97634637D01*
X176374637Y-97434759D01*
X176530000Y-97202241D01*
X176685363Y-97434759D01*
X176885241Y-97634637D01*
X177120273Y-97791680D01*
X177381426Y-97899853D01*
X177658665Y-97955000D01*
X177941335Y-97955000D01*
X178218574Y-97899853D01*
X178479727Y-97791680D01*
X178714759Y-97634637D01*
X178914637Y-97434759D01*
X179071680Y-97199727D01*
X179179853Y-96938574D01*
X179235000Y-96661335D01*
X179235000Y-96378665D01*
X179227044Y-96338665D01*
X179540000Y-96338665D01*
X179540000Y-96621335D01*
X179595147Y-96898574D01*
X179703320Y-97159727D01*
X179860363Y-97394759D01*
X180060241Y-97594637D01*
X180295273Y-97751680D01*
X180556426Y-97859853D01*
X180833665Y-97915000D01*
X181116335Y-97915000D01*
X181393574Y-97859853D01*
X181654727Y-97751680D01*
X181889759Y-97594637D01*
X182089637Y-97394759D01*
X182246680Y-97159727D01*
X182354853Y-96898574D01*
X182410000Y-96621335D01*
X182410000Y-96338665D01*
X182354853Y-96061426D01*
X182246680Y-95800273D01*
X182089637Y-95565241D01*
X181889759Y-95365363D01*
X181689131Y-95231308D01*
X181716514Y-95216671D01*
X181788097Y-94972702D01*
X180975000Y-94159605D01*
X180161903Y-94972702D01*
X180233486Y-95216671D01*
X180262341Y-95230324D01*
X180060241Y-95365363D01*
X179860363Y-95565241D01*
X179703320Y-95800273D01*
X179595147Y-96061426D01*
X179540000Y-96338665D01*
X179227044Y-96338665D01*
X179179853Y-96101426D01*
X179071680Y-95840273D01*
X178914637Y-95605241D01*
X178714759Y-95405363D01*
X178479727Y-95248320D01*
X178218574Y-95140147D01*
X177941335Y-95085000D01*
X177658665Y-95085000D01*
X177381426Y-95140147D01*
X177120273Y-95248320D01*
X176885241Y-95405363D01*
X176685363Y-95605241D01*
X176530000Y-95837759D01*
X176374637Y-95605241D01*
X176174759Y-95405363D01*
X175939727Y-95248320D01*
X175678574Y-95140147D01*
X175401335Y-95085000D01*
X175118665Y-95085000D01*
X174841426Y-95140147D01*
X174580273Y-95248320D01*
X174345241Y-95405363D01*
X174145363Y-95605241D01*
X173990000Y-95837759D01*
X173834637Y-95605241D01*
X173634759Y-95405363D01*
X173399727Y-95248320D01*
X173138574Y-95140147D01*
X172861335Y-95085000D01*
X172578665Y-95085000D01*
X172301426Y-95140147D01*
X172040273Y-95248320D01*
X171805241Y-95405363D01*
X171605363Y-95605241D01*
X171450000Y-95837759D01*
X171294637Y-95605241D01*
X171094759Y-95405363D01*
X170859727Y-95248320D01*
X170598574Y-95140147D01*
X170321335Y-95085000D01*
X170038665Y-95085000D01*
X169761426Y-95140147D01*
X169500273Y-95248320D01*
X169265241Y-95405363D01*
X169065363Y-95605241D01*
X168908320Y-95840273D01*
X168800147Y-96101426D01*
X168745000Y-96378665D01*
X168745000Y-96661335D01*
X168800147Y-96938574D01*
X168908320Y-97199727D01*
X169065363Y-97434759D01*
X169170000Y-97539396D01*
X169170001Y-98675603D01*
X169160604Y-98685000D01*
X168024396Y-98685000D01*
X167919759Y-98580363D01*
X167684727Y-98423320D01*
X167423574Y-98315147D01*
X167146335Y-98260000D01*
X166863665Y-98260000D01*
X166586426Y-98315147D01*
X166325273Y-98423320D01*
X166090241Y-98580363D01*
X165985604Y-98685000D01*
X163959870Y-98685000D01*
X163949502Y-98650820D01*
X163890537Y-98540506D01*
X163811185Y-98443815D01*
X163714494Y-98364463D01*
X163604180Y-98305498D01*
X163484482Y-98269188D01*
X163360000Y-98256928D01*
X161760000Y-98256928D01*
X161635518Y-98269188D01*
X161515820Y-98305498D01*
X161405506Y-98364463D01*
X161308815Y-98443815D01*
X161229463Y-98540506D01*
X161170498Y-98650820D01*
X161134188Y-98770518D01*
X161121928Y-98895000D01*
X156766317Y-98895000D01*
X156689637Y-98780241D01*
X156489759Y-98580363D01*
X156254727Y-98423320D01*
X155993574Y-98315147D01*
X155950000Y-98306479D01*
X155950000Y-97539396D01*
X156054637Y-97434759D01*
X156210000Y-97202241D01*
X156365363Y-97434759D01*
X156565241Y-97634637D01*
X156800273Y-97791680D01*
X157061426Y-97899853D01*
X157338665Y-97955000D01*
X157621335Y-97955000D01*
X157898574Y-97899853D01*
X158159727Y-97791680D01*
X158394759Y-97634637D01*
X158594637Y-97434759D01*
X158751680Y-97199727D01*
X158859853Y-96938574D01*
X158915000Y-96661335D01*
X158915000Y-96378665D01*
X158907044Y-96338665D01*
X159220000Y-96338665D01*
X159220000Y-96621335D01*
X159275147Y-96898574D01*
X159383320Y-97159727D01*
X159540363Y-97394759D01*
X159740241Y-97594637D01*
X159975273Y-97751680D01*
X160236426Y-97859853D01*
X160513665Y-97915000D01*
X160796335Y-97915000D01*
X161073574Y-97859853D01*
X161334727Y-97751680D01*
X161569759Y-97594637D01*
X161769637Y-97394759D01*
X161926680Y-97159727D01*
X162034853Y-96898574D01*
X162090000Y-96621335D01*
X162090000Y-96338665D01*
X162034853Y-96061426D01*
X161926680Y-95800273D01*
X161769637Y-95565241D01*
X161569759Y-95365363D01*
X161369131Y-95231308D01*
X161396514Y-95216671D01*
X161468097Y-94972702D01*
X160655000Y-94159605D01*
X159841903Y-94972702D01*
X159913486Y-95216671D01*
X159942341Y-95230324D01*
X159740241Y-95365363D01*
X159540363Y-95565241D01*
X159383320Y-95800273D01*
X159275147Y-96061426D01*
X159220000Y-96338665D01*
X158907044Y-96338665D01*
X158859853Y-96101426D01*
X158751680Y-95840273D01*
X158594637Y-95605241D01*
X158394759Y-95405363D01*
X158159727Y-95248320D01*
X157898574Y-95140147D01*
X157621335Y-95085000D01*
X157338665Y-95085000D01*
X157061426Y-95140147D01*
X156800273Y-95248320D01*
X156565241Y-95405363D01*
X156365363Y-95605241D01*
X156210000Y-95837759D01*
X156054637Y-95605241D01*
X155854759Y-95405363D01*
X155619727Y-95248320D01*
X155358574Y-95140147D01*
X155081335Y-95085000D01*
X154798665Y-95085000D01*
X154521426Y-95140147D01*
X154260273Y-95248320D01*
X154025241Y-95405363D01*
X153825363Y-95605241D01*
X153670000Y-95837759D01*
X153514637Y-95605241D01*
X153314759Y-95405363D01*
X153079727Y-95248320D01*
X152818574Y-95140147D01*
X152541335Y-95085000D01*
X152393355Y-95085000D01*
X151774260Y-94465905D01*
X151742632Y-94427366D01*
X151588839Y-94301152D01*
X151413379Y-94207367D01*
X151222993Y-94149614D01*
X151074607Y-94134999D01*
X151024999Y-94130113D01*
X150975391Y-94134999D01*
X149249607Y-94134999D01*
X149199999Y-94130113D01*
X149002004Y-94149614D01*
X148811619Y-94207367D01*
X148636159Y-94301152D01*
X148482366Y-94427366D01*
X148450743Y-94465899D01*
X146319999Y-96596644D01*
X146319999Y-96408356D01*
X148677843Y-94050512D01*
X159214783Y-94050512D01*
X159256213Y-94330130D01*
X159351397Y-94596292D01*
X159418329Y-94721514D01*
X159662298Y-94793097D01*
X160475395Y-93980000D01*
X160834605Y-93980000D01*
X161647702Y-94793097D01*
X161891671Y-94721514D01*
X162012571Y-94466004D01*
X162081300Y-94191816D01*
X162088265Y-94050512D01*
X179534783Y-94050512D01*
X179576213Y-94330130D01*
X179671397Y-94596292D01*
X179738329Y-94721514D01*
X179982298Y-94793097D01*
X180795395Y-93980000D01*
X181154605Y-93980000D01*
X181967702Y-94793097D01*
X182211671Y-94721514D01*
X182332571Y-94466004D01*
X182401300Y-94191816D01*
X182415217Y-93909488D01*
X182373787Y-93629870D01*
X182278603Y-93363708D01*
X182211671Y-93238486D01*
X181967702Y-93166903D01*
X181154605Y-93980000D01*
X180795395Y-93980000D01*
X179982298Y-93166903D01*
X179738329Y-93238486D01*
X179617429Y-93493996D01*
X179548700Y-93768184D01*
X179534783Y-94050512D01*
X162088265Y-94050512D01*
X162095217Y-93909488D01*
X162053787Y-93629870D01*
X161958603Y-93363708D01*
X161891671Y-93238486D01*
X161647702Y-93166903D01*
X160834605Y-93980000D01*
X160475395Y-93980000D01*
X159662298Y-93166903D01*
X159418329Y-93238486D01*
X159297429Y-93493996D01*
X159228700Y-93768184D01*
X159214783Y-94050512D01*
X148677843Y-94050512D01*
X149741057Y-92987298D01*
X159841903Y-92987298D01*
X160655000Y-93800395D01*
X161468097Y-92987298D01*
X180161903Y-92987298D01*
X180975000Y-93800395D01*
X181788097Y-92987298D01*
X181716514Y-92743329D01*
X181461004Y-92622429D01*
X181186816Y-92553700D01*
X180904488Y-92539783D01*
X180624870Y-92581213D01*
X180358708Y-92676397D01*
X180233486Y-92743329D01*
X180161903Y-92987298D01*
X161468097Y-92987298D01*
X161396514Y-92743329D01*
X161141004Y-92622429D01*
X160866816Y-92553700D01*
X160584488Y-92539783D01*
X160304870Y-92581213D01*
X160038708Y-92676397D01*
X159913486Y-92743329D01*
X159841903Y-92987298D01*
X149741057Y-92987298D01*
X150295653Y-92432702D01*
X166191903Y-92432702D01*
X166263486Y-92676671D01*
X166518996Y-92797571D01*
X166793184Y-92866300D01*
X167075512Y-92880217D01*
X167355130Y-92838787D01*
X167621292Y-92743603D01*
X167746514Y-92676671D01*
X167818097Y-92432702D01*
X167005000Y-91619605D01*
X166191903Y-92432702D01*
X150295653Y-92432702D01*
X151217843Y-91510512D01*
X165564783Y-91510512D01*
X165606213Y-91790130D01*
X165701397Y-92056292D01*
X165768329Y-92181514D01*
X166012298Y-92253097D01*
X166825395Y-91440000D01*
X167184605Y-91440000D01*
X167997702Y-92253097D01*
X168241671Y-92181514D01*
X168362571Y-91926004D01*
X168431300Y-91651816D01*
X168445217Y-91369488D01*
X168403787Y-91089870D01*
X168308603Y-90823708D01*
X168241671Y-90698486D01*
X167997702Y-90626903D01*
X167184605Y-91440000D01*
X166825395Y-91440000D01*
X166012298Y-90626903D01*
X165768329Y-90698486D01*
X165647429Y-90953996D01*
X165578700Y-91228184D01*
X165564783Y-91510512D01*
X151217843Y-91510512D01*
X152393356Y-90335000D01*
X152541335Y-90335000D01*
X152818574Y-90279853D01*
X153079727Y-90171680D01*
X153314759Y-90014637D01*
X153514637Y-89814759D01*
X153670000Y-89582241D01*
X153825363Y-89814759D01*
X154025241Y-90014637D01*
X154260273Y-90171680D01*
X154521426Y-90279853D01*
X154798665Y-90335000D01*
X155081335Y-90335000D01*
X155358574Y-90279853D01*
X155619727Y-90171680D01*
X155854759Y-90014637D01*
X156053357Y-89816039D01*
X156054188Y-89824482D01*
X156090498Y-89944180D01*
X156149463Y-90054494D01*
X156228815Y-90151185D01*
X156325506Y-90230537D01*
X156435820Y-90289502D01*
X156555518Y-90325812D01*
X156680000Y-90338072D01*
X158280000Y-90338072D01*
X158404482Y-90325812D01*
X158524180Y-90289502D01*
X158634494Y-90230537D01*
X158731185Y-90151185D01*
X158810537Y-90054494D01*
X158869502Y-89944180D01*
X158905812Y-89824482D01*
X158918072Y-89700000D01*
X158918072Y-88890283D01*
X159009690Y-88798665D01*
X165570000Y-88798665D01*
X165570000Y-89081335D01*
X165625147Y-89358574D01*
X165733320Y-89619727D01*
X165890363Y-89854759D01*
X166090241Y-90054637D01*
X166290869Y-90188692D01*
X166263486Y-90203329D01*
X166191903Y-90447298D01*
X167005000Y-91260395D01*
X167818097Y-90447298D01*
X167746514Y-90203329D01*
X167717659Y-90189676D01*
X167919759Y-90054637D01*
X168119637Y-89854759D01*
X168276680Y-89619727D01*
X168384853Y-89358574D01*
X168440000Y-89081335D01*
X168440000Y-88798665D01*
X168432044Y-88758665D01*
X168745000Y-88758665D01*
X168745000Y-89041335D01*
X168800147Y-89318574D01*
X168908320Y-89579727D01*
X169065363Y-89814759D01*
X169265241Y-90014637D01*
X169500273Y-90171680D01*
X169761426Y-90279853D01*
X170038665Y-90335000D01*
X170321335Y-90335000D01*
X170598574Y-90279853D01*
X170859727Y-90171680D01*
X171094759Y-90014637D01*
X171294637Y-89814759D01*
X171451680Y-89579727D01*
X171456067Y-89569135D01*
X171567615Y-89755131D01*
X171756586Y-89963519D01*
X171982580Y-90131037D01*
X172236913Y-90251246D01*
X172370961Y-90291904D01*
X172593000Y-90169915D01*
X172593000Y-89027000D01*
X172573000Y-89027000D01*
X172573000Y-88773000D01*
X172593000Y-88773000D01*
X172593000Y-87630085D01*
X172847000Y-87630085D01*
X172847000Y-88773000D01*
X172867000Y-88773000D01*
X172867000Y-89027000D01*
X172847000Y-89027000D01*
X172847000Y-90169915D01*
X173069039Y-90291904D01*
X173203087Y-90251246D01*
X173457420Y-90131037D01*
X173683414Y-89963519D01*
X173872385Y-89755131D01*
X173983933Y-89569135D01*
X173988320Y-89579727D01*
X174145363Y-89814759D01*
X174345241Y-90014637D01*
X174580273Y-90171680D01*
X174841426Y-90279853D01*
X175118665Y-90335000D01*
X175401335Y-90335000D01*
X175678574Y-90279853D01*
X175939727Y-90171680D01*
X176174759Y-90014637D01*
X176279396Y-89910000D01*
X176400130Y-89910000D01*
X176410498Y-89944180D01*
X176469463Y-90054494D01*
X176548815Y-90151185D01*
X176645506Y-90230537D01*
X176755820Y-90289502D01*
X176875518Y-90325812D01*
X177000000Y-90338072D01*
X178600000Y-90338072D01*
X178724482Y-90325812D01*
X178844180Y-90289502D01*
X178954494Y-90230537D01*
X179051185Y-90151185D01*
X179130537Y-90054494D01*
X179189502Y-89944180D01*
X179205117Y-89892702D01*
X181471903Y-89892702D01*
X181543486Y-90136671D01*
X181798996Y-90257571D01*
X182073184Y-90326300D01*
X182355512Y-90340217D01*
X182635130Y-90298787D01*
X182901292Y-90203603D01*
X183026514Y-90136671D01*
X183098097Y-89892702D01*
X182285000Y-89079605D01*
X181471903Y-89892702D01*
X179205117Y-89892702D01*
X179225812Y-89824482D01*
X179238072Y-89700000D01*
X179238072Y-88970512D01*
X180844783Y-88970512D01*
X180886213Y-89250130D01*
X180981397Y-89516292D01*
X181048329Y-89641514D01*
X181292298Y-89713097D01*
X182105395Y-88900000D01*
X182464605Y-88900000D01*
X183277702Y-89713097D01*
X183346928Y-89692785D01*
X183346928Y-89700000D01*
X183359188Y-89824482D01*
X183395498Y-89944180D01*
X183454463Y-90054494D01*
X183533815Y-90151185D01*
X183630506Y-90230537D01*
X183740820Y-90289502D01*
X183860518Y-90325812D01*
X183985000Y-90338072D01*
X185585000Y-90338072D01*
X185709482Y-90325812D01*
X185829180Y-90289502D01*
X185939494Y-90230537D01*
X186036185Y-90151185D01*
X186115537Y-90054494D01*
X186174502Y-89944180D01*
X186210812Y-89824482D01*
X186223072Y-89700000D01*
X186223072Y-88100000D01*
X186210812Y-87975518D01*
X186174502Y-87855820D01*
X186115537Y-87745506D01*
X186036185Y-87648815D01*
X185939494Y-87569463D01*
X185829180Y-87510498D01*
X185709482Y-87474188D01*
X185585000Y-87461928D01*
X183985000Y-87461928D01*
X183860518Y-87474188D01*
X183740820Y-87510498D01*
X183630506Y-87569463D01*
X183533815Y-87648815D01*
X183454463Y-87745506D01*
X183395498Y-87855820D01*
X183359188Y-87975518D01*
X183346928Y-88100000D01*
X183346928Y-88107215D01*
X183277702Y-88086903D01*
X182464605Y-88900000D01*
X182105395Y-88900000D01*
X181292298Y-88086903D01*
X181048329Y-88158486D01*
X180927429Y-88413996D01*
X180858700Y-88688184D01*
X180844783Y-88970512D01*
X179238072Y-88970512D01*
X179238072Y-88100000D01*
X179225812Y-87975518D01*
X179205118Y-87907298D01*
X181471903Y-87907298D01*
X182285000Y-88720395D01*
X183098097Y-87907298D01*
X183026514Y-87663329D01*
X182771004Y-87542429D01*
X182496816Y-87473700D01*
X182214488Y-87459783D01*
X181934870Y-87501213D01*
X181668708Y-87596397D01*
X181543486Y-87663329D01*
X181471903Y-87907298D01*
X179205118Y-87907298D01*
X179189502Y-87855820D01*
X179130537Y-87745506D01*
X179051185Y-87648815D01*
X178954494Y-87569463D01*
X178844180Y-87510498D01*
X178724482Y-87474188D01*
X178600000Y-87461928D01*
X177000000Y-87461928D01*
X176875518Y-87474188D01*
X176755820Y-87510498D01*
X176645506Y-87569463D01*
X176548815Y-87648815D01*
X176469463Y-87745506D01*
X176410498Y-87855820D01*
X176400130Y-87890000D01*
X176279396Y-87890000D01*
X176174759Y-87785363D01*
X175939727Y-87628320D01*
X175678574Y-87520147D01*
X175401335Y-87465000D01*
X175118665Y-87465000D01*
X174841426Y-87520147D01*
X174580273Y-87628320D01*
X174345241Y-87785363D01*
X174145363Y-87985241D01*
X173988320Y-88220273D01*
X173983933Y-88230865D01*
X173872385Y-88044869D01*
X173683414Y-87836481D01*
X173457420Y-87668963D01*
X173203087Y-87548754D01*
X173069039Y-87508096D01*
X172847000Y-87630085D01*
X172593000Y-87630085D01*
X172370961Y-87508096D01*
X172236913Y-87548754D01*
X171982580Y-87668963D01*
X171756586Y-87836481D01*
X171567615Y-88044869D01*
X171456067Y-88230865D01*
X171451680Y-88220273D01*
X171294637Y-87985241D01*
X171094759Y-87785363D01*
X170859727Y-87628320D01*
X170598574Y-87520147D01*
X170321335Y-87465000D01*
X170038665Y-87465000D01*
X169761426Y-87520147D01*
X169500273Y-87628320D01*
X169265241Y-87785363D01*
X169065363Y-87985241D01*
X168908320Y-88220273D01*
X168800147Y-88481426D01*
X168745000Y-88758665D01*
X168432044Y-88758665D01*
X168384853Y-88521426D01*
X168276680Y-88260273D01*
X168119637Y-88025241D01*
X167919759Y-87825363D01*
X167684727Y-87668320D01*
X167423574Y-87560147D01*
X167146335Y-87505000D01*
X166863665Y-87505000D01*
X166586426Y-87560147D01*
X166325273Y-87668320D01*
X166090241Y-87825363D01*
X165890363Y-88025241D01*
X165733320Y-88260273D01*
X165625147Y-88521426D01*
X165570000Y-88798665D01*
X159009690Y-88798665D01*
X159534095Y-88274260D01*
X159572634Y-88242632D01*
X159698848Y-88088839D01*
X159792633Y-87913379D01*
X159850386Y-87722993D01*
X159865001Y-87574607D01*
X159865001Y-87574605D01*
X159869887Y-87525000D01*
X159865001Y-87475395D01*
X159865001Y-83974605D01*
X159869887Y-83925000D01*
X159865001Y-83875393D01*
X159850386Y-83727007D01*
X159792633Y-83536621D01*
X159698848Y-83361161D01*
X159572634Y-83207368D01*
X159534095Y-83175740D01*
X158915000Y-82556645D01*
X158915000Y-82408665D01*
X158859853Y-82131426D01*
X158751680Y-81870273D01*
X158594637Y-81635241D01*
X158394759Y-81435363D01*
X158159727Y-81278320D01*
X157898574Y-81170147D01*
X157621335Y-81115000D01*
X157473356Y-81115000D01*
X157320855Y-80962500D01*
X157473355Y-80810000D01*
X157621335Y-80810000D01*
X157898574Y-80754853D01*
X158159727Y-80646680D01*
X158394759Y-80489637D01*
X158594637Y-80289759D01*
X158751680Y-80054727D01*
X158859853Y-79793574D01*
X158915000Y-79516335D01*
X158915000Y-79233665D01*
X158859853Y-78956426D01*
X158751680Y-78695273D01*
X158594637Y-78460241D01*
X158394759Y-78260363D01*
X158159727Y-78103320D01*
X157898574Y-77995147D01*
X157872699Y-77990000D01*
X163611928Y-77990000D01*
X163611928Y-79490000D01*
X163628992Y-79663254D01*
X163679528Y-79829850D01*
X163761595Y-79983386D01*
X163872038Y-80117962D01*
X164006614Y-80228405D01*
X164160150Y-80310472D01*
X164326746Y-80361008D01*
X164500000Y-80378072D01*
X165700000Y-80378072D01*
X165873254Y-80361008D01*
X166039850Y-80310472D01*
X166193386Y-80228405D01*
X166327962Y-80117962D01*
X166438405Y-79983386D01*
X166492914Y-79881407D01*
X166493198Y-79881795D01*
X166707954Y-80078664D01*
X166956991Y-80229854D01*
X167230739Y-80329554D01*
X167243110Y-80331476D01*
X167473000Y-80210155D01*
X167473000Y-78867000D01*
X167727000Y-78867000D01*
X167727000Y-80210155D01*
X167956890Y-80331476D01*
X167969261Y-80329554D01*
X168243009Y-80229854D01*
X168492046Y-80078664D01*
X168706802Y-79881795D01*
X168879025Y-79646812D01*
X169002096Y-79382745D01*
X169071285Y-79099742D01*
X168927232Y-78867000D01*
X167727000Y-78867000D01*
X167473000Y-78867000D01*
X167453000Y-78867000D01*
X167453000Y-78613000D01*
X167473000Y-78613000D01*
X167473000Y-77269845D01*
X167727000Y-77269845D01*
X167727000Y-78613000D01*
X168927232Y-78613000D01*
X169071285Y-78380258D01*
X169002096Y-78097255D01*
X168879025Y-77833188D01*
X168706802Y-77598205D01*
X168492046Y-77401336D01*
X168243009Y-77250146D01*
X167969261Y-77150446D01*
X167956890Y-77148524D01*
X167727000Y-77269845D01*
X167473000Y-77269845D01*
X167243110Y-77148524D01*
X167230739Y-77150446D01*
X166956991Y-77250146D01*
X166707954Y-77401336D01*
X166493198Y-77598205D01*
X166492914Y-77598593D01*
X166438405Y-77496614D01*
X166327962Y-77362038D01*
X166193386Y-77251595D01*
X166039850Y-77169528D01*
X165873254Y-77118992D01*
X165700000Y-77101928D01*
X164500000Y-77101928D01*
X164326746Y-77118992D01*
X164160150Y-77169528D01*
X164006614Y-77251595D01*
X163872038Y-77362038D01*
X163761595Y-77496614D01*
X163679528Y-77650150D01*
X163628992Y-77816746D01*
X163611928Y-77990000D01*
X157872699Y-77990000D01*
X157621335Y-77940000D01*
X157338665Y-77940000D01*
X157061426Y-77995147D01*
X156800273Y-78103320D01*
X156565241Y-78260363D01*
X156365363Y-78460241D01*
X156208320Y-78695273D01*
X156100147Y-78956426D01*
X156045000Y-79233665D01*
X156045000Y-79381645D01*
X155690496Y-79736149D01*
X155680001Y-79735115D01*
X155630393Y-79740001D01*
X151250509Y-79740001D01*
X151295000Y-79516335D01*
X151295000Y-79233665D01*
X151239853Y-78956426D01*
X151131680Y-78695273D01*
X150974637Y-78460241D01*
X150774759Y-78260363D01*
X150539727Y-78103320D01*
X150278574Y-77995147D01*
X150001335Y-77940000D01*
X149853356Y-77940000D01*
X148704261Y-76790906D01*
X148672633Y-76752367D01*
X148518840Y-76626153D01*
X148343380Y-76532368D01*
X148152994Y-76474615D01*
X148004608Y-76460000D01*
X147955000Y-76455114D01*
X147905392Y-76460000D01*
X141654608Y-76460000D01*
X141605000Y-76455114D01*
X141407005Y-76474615D01*
X141216620Y-76532368D01*
X141041160Y-76626153D01*
X140970000Y-76684552D01*
X140898840Y-76626153D01*
X140723380Y-76532368D01*
X140532994Y-76474615D01*
X140384608Y-76460000D01*
X140335000Y-76455114D01*
X140285392Y-76460000D01*
X132129608Y-76460000D01*
X132080000Y-76455114D01*
X131882005Y-76474615D01*
X131691620Y-76532368D01*
X131516160Y-76626153D01*
X131445000Y-76684552D01*
X131373840Y-76626153D01*
X131198380Y-76532368D01*
X131007994Y-76474615D01*
X130859608Y-76460000D01*
X130810000Y-76455114D01*
X130760392Y-76460000D01*
X122604608Y-76460000D01*
X122555000Y-76455114D01*
X122357005Y-76474615D01*
X122166620Y-76532368D01*
X121991160Y-76626153D01*
X121837367Y-76752367D01*
X121805739Y-76790906D01*
X121240906Y-77355739D01*
X121202367Y-77387367D01*
X121076153Y-77541160D01*
X121008359Y-77667995D01*
X120982368Y-77716621D01*
X120950970Y-77820125D01*
X120826614Y-77886595D01*
X120692038Y-77997038D01*
X120581595Y-78131614D01*
X120499528Y-78285150D01*
X120448992Y-78451746D01*
X120431928Y-78625000D01*
X112445000Y-78625000D01*
X112445000Y-74906689D01*
X112563962Y-75084729D01*
X112875271Y-75396038D01*
X113241331Y-75640631D01*
X113648075Y-75809110D01*
X114079872Y-75895000D01*
X114520128Y-75895000D01*
X114951925Y-75809110D01*
X115358669Y-75640631D01*
X115724729Y-75396038D01*
X116036038Y-75084729D01*
X116280631Y-74718669D01*
X116449110Y-74311925D01*
X116535000Y-73880128D01*
X116535000Y-73439872D01*
X116449110Y-73008075D01*
X116280631Y-72601331D01*
X116036038Y-72235271D01*
X115724729Y-71923962D01*
X115546689Y-71805000D01*
X189253311Y-71805000D01*
X189075271Y-71923962D01*
G37*
X189075271Y-71923962D02*
X188763962Y-72235271D01*
X188519369Y-72601331D01*
X188350890Y-73008075D01*
X188265000Y-73439872D01*
X188265000Y-73880128D01*
X188350890Y-74311925D01*
X188519369Y-74718669D01*
X188763962Y-75084729D01*
X189075271Y-75396038D01*
X189441331Y-75640631D01*
X189848075Y-75809110D01*
X190279872Y-75895000D01*
X190720128Y-75895000D01*
X191151925Y-75809110D01*
X191558669Y-75640631D01*
X191924729Y-75396038D01*
X192236038Y-75084729D01*
X192355000Y-74906689D01*
X192355001Y-123213312D01*
X192236038Y-123035271D01*
X191924729Y-122723962D01*
X191558669Y-122479369D01*
X191151925Y-122310890D01*
X190720128Y-122225000D01*
X190279872Y-122225000D01*
X189848075Y-122310890D01*
X189441331Y-122479369D01*
X189075271Y-122723962D01*
X188763962Y-123035271D01*
X188519369Y-123401331D01*
X188350890Y-123808075D01*
X188265000Y-124239872D01*
X188265000Y-124680128D01*
X188350890Y-125111925D01*
X188519369Y-125518669D01*
X188763962Y-125884729D01*
X189075271Y-126196038D01*
X189253311Y-126315000D01*
X115546689Y-126315000D01*
X115724729Y-126196038D01*
X116036038Y-125884729D01*
X116280631Y-125518669D01*
X116449110Y-125111925D01*
X116535000Y-124680128D01*
X116535000Y-124239872D01*
X116449110Y-123808075D01*
X116280631Y-123401331D01*
X116036038Y-123035271D01*
X115724729Y-122723962D01*
X115358669Y-122479369D01*
X114951925Y-122310890D01*
X114520128Y-122225000D01*
X114079872Y-122225000D01*
X113648075Y-122310890D01*
X113241331Y-122479369D01*
X112875271Y-122723962D01*
X112563962Y-123035271D01*
X112445000Y-123213311D01*
X112445000Y-119101891D01*
X119208519Y-119101891D01*
X119305843Y-119376252D01*
X119454822Y-119626355D01*
X119649731Y-119842588D01*
X119883080Y-120016641D01*
X120145901Y-120141825D01*
X120293110Y-120186476D01*
X120523000Y-120065155D01*
X120523000Y-118872000D01*
X120777000Y-118872000D01*
X120777000Y-120065155D01*
X121006890Y-120186476D01*
X121154099Y-120141825D01*
X121416920Y-120016641D01*
X121650269Y-119842588D01*
X121726034Y-119758534D01*
X121750498Y-119839180D01*
X121809463Y-119949494D01*
X121888815Y-120046185D01*
X121985506Y-120125537D01*
X122095820Y-120184502D01*
X122215518Y-120220812D01*
X122340000Y-120233072D01*
X122904250Y-120230000D01*
X123063000Y-120071250D01*
X123063000Y-118872000D01*
X123317000Y-118872000D01*
X123317000Y-120071250D01*
X123475750Y-120230000D01*
X124040000Y-120233072D01*
X124164482Y-120220812D01*
X124284180Y-120184502D01*
X124394494Y-120125537D01*
X124491185Y-120046185D01*
X124570537Y-119949494D01*
X124629502Y-119839180D01*
X124659666Y-119739742D01*
X129378715Y-119739742D01*
X129447904Y-120022745D01*
X129570975Y-120286812D01*
X129743198Y-120521795D01*
X129957954Y-120718664D01*
X130206991Y-120869854D01*
X130480739Y-120969554D01*
X130493110Y-120971476D01*
X130723000Y-120850155D01*
X130723000Y-119507000D01*
X129522768Y-119507000D01*
X129378715Y-119739742D01*
X124659666Y-119739742D01*
X124665812Y-119719482D01*
X124678072Y-119595000D01*
X124675000Y-119030750D01*
X124664508Y-119020258D01*
X129378715Y-119020258D01*
X129522768Y-119253000D01*
X130723000Y-119253000D01*
X130723000Y-117909845D01*
X130493110Y-117788524D01*
X130480739Y-117790446D01*
X130206991Y-117890146D01*
X129957954Y-118041336D01*
X129743198Y-118238205D01*
X129570975Y-118473188D01*
X129447904Y-118737255D01*
X129378715Y-119020258D01*
X124664508Y-119020258D01*
X124516250Y-118872000D01*
X123317000Y-118872000D01*
X123063000Y-118872000D01*
X120777000Y-118872000D01*
X120523000Y-118872000D01*
X119329186Y-118872000D01*
X119208519Y-119101891D01*
X112445000Y-119101891D01*
X112445000Y-118388109D01*
X119208519Y-118388109D01*
X119329186Y-118618000D01*
X120523000Y-118618000D01*
X120523000Y-117424845D01*
X120777000Y-117424845D01*
X120777000Y-118618000D01*
X123063000Y-118618000D01*
X123063000Y-117418750D01*
X123317000Y-117418750D01*
X123317000Y-118618000D01*
X124516250Y-118618000D01*
X124675000Y-118459250D01*
X124678072Y-117895000D01*
X124665812Y-117770518D01*
X124629502Y-117650820D01*
X124570537Y-117540506D01*
X124491185Y-117443815D01*
X124394494Y-117364463D01*
X124284180Y-117305498D01*
X124164482Y-117269188D01*
X124040000Y-117256928D01*
X123475750Y-117260000D01*
X123317000Y-117418750D01*
X123063000Y-117418750D01*
X122904250Y-117260000D01*
X122340000Y-117256928D01*
X122215518Y-117269188D01*
X122095820Y-117305498D01*
X121985506Y-117364463D01*
X121888815Y-117443815D01*
X121809463Y-117540506D01*
X121750498Y-117650820D01*
X121726034Y-117731466D01*
X121650269Y-117647412D01*
X121416920Y-117473359D01*
X121154099Y-117348175D01*
X121006890Y-117303524D01*
X120777000Y-117424845D01*
X120523000Y-117424845D01*
X120293110Y-117303524D01*
X120145901Y-117348175D01*
X119883080Y-117473359D01*
X119649731Y-117647412D01*
X119454822Y-117863645D01*
X119305843Y-118113748D01*
X119208519Y-118388109D01*
X112445000Y-118388109D01*
X112445000Y-112660000D01*
X113396928Y-112660000D01*
X113409188Y-112784482D01*
X113445498Y-112904180D01*
X113504463Y-113014494D01*
X113583815Y-113111185D01*
X113680506Y-113190537D01*
X113790820Y-113249502D01*
X113910518Y-113285812D01*
X114035000Y-113298072D01*
X114649250Y-113295000D01*
X114808000Y-113136250D01*
X114808000Y-111887000D01*
X113558750Y-111887000D01*
X113400000Y-112045750D01*
X113396928Y-112660000D01*
X112445000Y-112660000D01*
X112445000Y-110860000D01*
X113396928Y-110860000D01*
X113400000Y-111474250D01*
X113558750Y-111633000D01*
X114808000Y-111633000D01*
X114808000Y-110383750D01*
X115062000Y-110383750D01*
X115062000Y-111633000D01*
X115082000Y-111633000D01*
X115082000Y-111887000D01*
X115062000Y-111887000D01*
X115062000Y-113136250D01*
X115220750Y-113295000D01*
X115835000Y-113298072D01*
X115959482Y-113285812D01*
X116079180Y-113249502D01*
X116189494Y-113190537D01*
X116286185Y-113111185D01*
X116365537Y-113014494D01*
X116424502Y-112904180D01*
X116430056Y-112885873D01*
X116496495Y-112952312D01*
X116747905Y-113120299D01*
X117027257Y-113236011D01*
X117323816Y-113295000D01*
X117626184Y-113295000D01*
X117922743Y-113236011D01*
X118202095Y-113120299D01*
X118453505Y-112952312D01*
X118667312Y-112738505D01*
X118805135Y-112532239D01*
X118900363Y-112674759D01*
X119100241Y-112874637D01*
X119335273Y-113031680D01*
X119596426Y-113139853D01*
X119873665Y-113195000D01*
X120156335Y-113195000D01*
X120433574Y-113139853D01*
X120694727Y-113031680D01*
X120929759Y-112874637D01*
X121129637Y-112674759D01*
X121286680Y-112439727D01*
X121394853Y-112178574D01*
X121450000Y-111901335D01*
X121450000Y-111618665D01*
X126200000Y-111618665D01*
X126200000Y-111901335D01*
X126255147Y-112178574D01*
X126363320Y-112439727D01*
X126520363Y-112674759D01*
X126720241Y-112874637D01*
X126955273Y-113031680D01*
X127216426Y-113139853D01*
X127493665Y-113195000D01*
X127776335Y-113195000D01*
X128053574Y-113139853D01*
X128314727Y-113031680D01*
X128549759Y-112874637D01*
X128749637Y-112674759D01*
X128906680Y-112439727D01*
X129014853Y-112178574D01*
X129070000Y-111901335D01*
X129070000Y-111618665D01*
X129034999Y-111442702D01*
X131901903Y-111442702D01*
X131973486Y-111686671D01*
X132228996Y-111807571D01*
X132503184Y-111876300D01*
X132785512Y-111890217D01*
X133065130Y-111848787D01*
X133331292Y-111753603D01*
X133456514Y-111686671D01*
X133528097Y-111442702D01*
X132715000Y-110629605D01*
X131901903Y-111442702D01*
X129034999Y-111442702D01*
X129014853Y-111341426D01*
X128906680Y-111080273D01*
X128749637Y-110845241D01*
X128549759Y-110645363D01*
X128362906Y-110520512D01*
X131274783Y-110520512D01*
X131316213Y-110800130D01*
X131411397Y-111066292D01*
X131478329Y-111191514D01*
X131722298Y-111263097D01*
X132535395Y-110450000D01*
X132894605Y-110450000D01*
X133707702Y-111263097D01*
X133951671Y-111191514D01*
X134072571Y-110936004D01*
X134141300Y-110661816D01*
X134155217Y-110379488D01*
X134113787Y-110099870D01*
X134018603Y-109833708D01*
X133951671Y-109708486D01*
X133707702Y-109636903D01*
X132894605Y-110450000D01*
X132535395Y-110450000D01*
X131722298Y-109636903D01*
X131478329Y-109708486D01*
X131357429Y-109963996D01*
X131288700Y-110238184D01*
X131274783Y-110520512D01*
X128362906Y-110520512D01*
X128314727Y-110488320D01*
X128053574Y-110380147D01*
X127776335Y-110325000D01*
X127493665Y-110325000D01*
X127216426Y-110380147D01*
X126955273Y-110488320D01*
X126720241Y-110645363D01*
X126520363Y-110845241D01*
X126363320Y-111080273D01*
X126255147Y-111341426D01*
X126200000Y-111618665D01*
X121450000Y-111618665D01*
X121394853Y-111341426D01*
X121286680Y-111080273D01*
X121129637Y-110845241D01*
X120929759Y-110645363D01*
X120694727Y-110488320D01*
X120433574Y-110380147D01*
X120156335Y-110325000D01*
X119873665Y-110325000D01*
X119596426Y-110380147D01*
X119335273Y-110488320D01*
X119100241Y-110645363D01*
X118900363Y-110845241D01*
X118805135Y-110987761D01*
X118667312Y-110781495D01*
X118453505Y-110567688D01*
X118202095Y-110399701D01*
X117922743Y-110283989D01*
X117626184Y-110225000D01*
X117323816Y-110225000D01*
X117027257Y-110283989D01*
X116747905Y-110399701D01*
X116496495Y-110567688D01*
X116430056Y-110634127D01*
X116424502Y-110615820D01*
X116365537Y-110505506D01*
X116286185Y-110408815D01*
X116189494Y-110329463D01*
X116079180Y-110270498D01*
X115959482Y-110234188D01*
X115835000Y-110221928D01*
X115220750Y-110225000D01*
X115062000Y-110383750D01*
X114808000Y-110383750D01*
X114649250Y-110225000D01*
X114035000Y-110221928D01*
X113910518Y-110234188D01*
X113790820Y-110270498D01*
X113680506Y-110329463D01*
X113583815Y-110408815D01*
X113504463Y-110505506D01*
X113445498Y-110615820D01*
X113409188Y-110735518D01*
X113396928Y-110860000D01*
X112445000Y-110860000D01*
X112445000Y-107150000D01*
X131276928Y-107150000D01*
X131276928Y-108750000D01*
X131289188Y-108874482D01*
X131325498Y-108994180D01*
X131384463Y-109104494D01*
X131463815Y-109201185D01*
X131560506Y-109280537D01*
X131670820Y-109339502D01*
X131790518Y-109375812D01*
X131915000Y-109388072D01*
X131922215Y-109388072D01*
X131901903Y-109457298D01*
X132715000Y-110270395D01*
X133528097Y-109457298D01*
X133507785Y-109388072D01*
X133515000Y-109388072D01*
X133639482Y-109375812D01*
X133759180Y-109339502D01*
X133869494Y-109280537D01*
X133966185Y-109201185D01*
X134045537Y-109104494D01*
X134104502Y-108994180D01*
X134140812Y-108874482D01*
X134153072Y-108750000D01*
X134153072Y-107150000D01*
X134140812Y-107025518D01*
X134104502Y-106905820D01*
X134045537Y-106795506D01*
X133966185Y-106698815D01*
X133869494Y-106619463D01*
X133759180Y-106560498D01*
X133639482Y-106524188D01*
X133515000Y-106511928D01*
X131915000Y-106511928D01*
X131790518Y-106524188D01*
X131670820Y-106560498D01*
X131560506Y-106619463D01*
X131463815Y-106698815D01*
X131384463Y-106795506D01*
X131325498Y-106905820D01*
X131289188Y-107025518D01*
X131276928Y-107150000D01*
X112445000Y-107150000D01*
X112445000Y-103993740D01*
X121070000Y-103993740D01*
X121070000Y-104286260D01*
X121127068Y-104573158D01*
X121239010Y-104843411D01*
X121401525Y-105086632D01*
X121608368Y-105293475D01*
X121851589Y-105455990D01*
X122121842Y-105567932D01*
X122408740Y-105625000D01*
X122701260Y-105625000D01*
X122988158Y-105567932D01*
X123258411Y-105455990D01*
X123501632Y-105293475D01*
X123708475Y-105086632D01*
X123825000Y-104912240D01*
X123941525Y-105086632D01*
X124148368Y-105293475D01*
X124391589Y-105455990D01*
X124661842Y-105567932D01*
X124948740Y-105625000D01*
X125241260Y-105625000D01*
X125528158Y-105567932D01*
X125798411Y-105455990D01*
X126041632Y-105293475D01*
X126248475Y-105086632D01*
X126410990Y-104843411D01*
X126522932Y-104573158D01*
X126580000Y-104286260D01*
X126580000Y-103993740D01*
X126522932Y-103706842D01*
X126410990Y-103436589D01*
X126248475Y-103193368D01*
X126041632Y-102986525D01*
X125868271Y-102870689D01*
X125943792Y-102628397D01*
X125095000Y-101779605D01*
X124246208Y-102628397D01*
X124321729Y-102870689D01*
X124148368Y-102986525D01*
X123941525Y-103193368D01*
X123825000Y-103367760D01*
X123708475Y-103193368D01*
X123501632Y-102986525D01*
X123328271Y-102870689D01*
X123403792Y-102628397D01*
X122555000Y-101779605D01*
X121706208Y-102628397D01*
X121781729Y-102870689D01*
X121608368Y-102986525D01*
X121401525Y-103193368D01*
X121239010Y-103436589D01*
X121127068Y-103706842D01*
X121070000Y-103993740D01*
X112445000Y-103993740D01*
X112445000Y-101668531D01*
X121064389Y-101668531D01*
X121106401Y-101958019D01*
X121204081Y-102233747D01*
X121277528Y-102371157D01*
X121526603Y-102448792D01*
X122375395Y-101600000D01*
X122734605Y-101600000D01*
X123583397Y-102448792D01*
X123825000Y-102373486D01*
X124066603Y-102448792D01*
X124915395Y-101600000D01*
X125274605Y-101600000D01*
X126123397Y-102448792D01*
X126372472Y-102371157D01*
X126498371Y-102107117D01*
X126570339Y-101823589D01*
X126585611Y-101531469D01*
X126543599Y-101241981D01*
X126457875Y-101000000D01*
X131101928Y-101000000D01*
X131101928Y-102200000D01*
X131118992Y-102373254D01*
X131169528Y-102539850D01*
X131251595Y-102693386D01*
X131362038Y-102827962D01*
X131496614Y-102938405D01*
X131650150Y-103020472D01*
X131816746Y-103071008D01*
X131990000Y-103088072D01*
X133440000Y-103088072D01*
X133613254Y-103071008D01*
X133779850Y-103020472D01*
X133933386Y-102938405D01*
X134067962Y-102827962D01*
X134178405Y-102693386D01*
X134260472Y-102539850D01*
X134311008Y-102373254D01*
X134328072Y-102200000D01*
X134328072Y-101000000D01*
X134311008Y-100826746D01*
X134260472Y-100660150D01*
X134178405Y-100506614D01*
X134067962Y-100372038D01*
X133933386Y-100261595D01*
X133828039Y-100205286D01*
X133849429Y-100189049D01*
X134042496Y-99971193D01*
X134189352Y-99719858D01*
X134281476Y-99456890D01*
X134160155Y-99227000D01*
X132842000Y-99227000D01*
X132842000Y-99247000D01*
X132588000Y-99247000D01*
X132588000Y-99227000D01*
X131269845Y-99227000D01*
X131148524Y-99456890D01*
X131240648Y-99719858D01*
X131387504Y-99971193D01*
X131580571Y-100189049D01*
X131601961Y-100205286D01*
X131496614Y-100261595D01*
X131362038Y-100372038D01*
X131251595Y-100506614D01*
X131169528Y-100660150D01*
X131118992Y-100826746D01*
X131101928Y-101000000D01*
X126457875Y-101000000D01*
X126445919Y-100966253D01*
X126372472Y-100828843D01*
X126123397Y-100751208D01*
X125274605Y-101600000D01*
X124915395Y-101600000D01*
X124066603Y-100751208D01*
X123825000Y-100826514D01*
X123583397Y-100751208D01*
X122734605Y-101600000D01*
X122375395Y-101600000D01*
X121526603Y-100751208D01*
X121277528Y-100828843D01*
X121151629Y-101092883D01*
X121079661Y-101376411D01*
X121064389Y-101668531D01*
X112445000Y-101668531D01*
X112445000Y-100088397D01*
X121706208Y-100088397D01*
X121781514Y-100330000D01*
X121706208Y-100571603D01*
X122555000Y-101420395D01*
X123403792Y-100571603D01*
X123328486Y-100330000D01*
X123403792Y-100088397D01*
X124246208Y-100088397D01*
X124321514Y-100330000D01*
X124246208Y-100571603D01*
X125095000Y-101420395D01*
X125943792Y-100571603D01*
X125868486Y-100330000D01*
X125943792Y-100088397D01*
X125095000Y-99239605D01*
X124246208Y-100088397D01*
X123403792Y-100088397D01*
X122555000Y-99239605D01*
X121706208Y-100088397D01*
X112445000Y-100088397D01*
X112445000Y-99128531D01*
X121064389Y-99128531D01*
X121106401Y-99418019D01*
X121204081Y-99693747D01*
X121277528Y-99831157D01*
X121526603Y-99908792D01*
X122375395Y-99060000D01*
X122734605Y-99060000D01*
X123583397Y-99908792D01*
X123825000Y-99833486D01*
X124066603Y-99908792D01*
X124915395Y-99060000D01*
X125274605Y-99060000D01*
X126123397Y-99908792D01*
X126372472Y-99831157D01*
X126498371Y-99567117D01*
X126570339Y-99283589D01*
X126585611Y-98991469D01*
X126543599Y-98701981D01*
X126445919Y-98426253D01*
X126372472Y-98288843D01*
X126123397Y-98211208D01*
X125274605Y-99060000D01*
X124915395Y-99060000D01*
X124066603Y-98211208D01*
X123825000Y-98286514D01*
X123583397Y-98211208D01*
X122734605Y-99060000D01*
X122375395Y-99060000D01*
X121526603Y-98211208D01*
X121277528Y-98288843D01*
X121151629Y-98552883D01*
X121079661Y-98836411D01*
X121064389Y-99128531D01*
X112445000Y-99128531D01*
X112445000Y-97548397D01*
X121706208Y-97548397D01*
X121781514Y-97790000D01*
X121706208Y-98031603D01*
X122555000Y-98880395D01*
X123403792Y-98031603D01*
X123328486Y-97790000D01*
X123403792Y-97548397D01*
X124246208Y-97548397D01*
X124321514Y-97790000D01*
X124246208Y-98031603D01*
X125095000Y-98880395D01*
X125943792Y-98031603D01*
X125868486Y-97790000D01*
X125943792Y-97548397D01*
X125095000Y-96699605D01*
X124246208Y-97548397D01*
X123403792Y-97548397D01*
X122555000Y-96699605D01*
X121706208Y-97548397D01*
X112445000Y-97548397D01*
X112445000Y-96588531D01*
X121064389Y-96588531D01*
X121106401Y-96878019D01*
X121204081Y-97153747D01*
X121277528Y-97291157D01*
X121526603Y-97368792D01*
X122375395Y-96520000D01*
X122734605Y-96520000D01*
X123583397Y-97368792D01*
X123825000Y-97293486D01*
X124066603Y-97368792D01*
X124915395Y-96520000D01*
X125274605Y-96520000D01*
X126123397Y-97368792D01*
X126372472Y-97291157D01*
X126498371Y-97027117D01*
X126570339Y-96743589D01*
X126577845Y-96600000D01*
X131097815Y-96600000D01*
X131126487Y-96891111D01*
X131211401Y-97171034D01*
X131349294Y-97429014D01*
X131534866Y-97655134D01*
X131760986Y-97840706D01*
X131786722Y-97854462D01*
X131580571Y-98010951D01*
X131387504Y-98228807D01*
X131240648Y-98480142D01*
X131148524Y-98743110D01*
X131269845Y-98973000D01*
X132588000Y-98973000D01*
X132588000Y-98953000D01*
X132842000Y-98953000D01*
X132842000Y-98973000D01*
X134160155Y-98973000D01*
X134281476Y-98743110D01*
X134189352Y-98480142D01*
X134042496Y-98228807D01*
X133849429Y-98010951D01*
X133643278Y-97854462D01*
X133669014Y-97840706D01*
X133895134Y-97655134D01*
X134080706Y-97429014D01*
X134218599Y-97171034D01*
X134303513Y-96891111D01*
X134332185Y-96600000D01*
X134303513Y-96308889D01*
X134218599Y-96028966D01*
X134080706Y-95770986D01*
X133895134Y-95544866D01*
X133669014Y-95359294D01*
X133411034Y-95221401D01*
X133131111Y-95136487D01*
X132912950Y-95115000D01*
X132517050Y-95115000D01*
X132298889Y-95136487D01*
X132018966Y-95221401D01*
X131760986Y-95359294D01*
X131534866Y-95544866D01*
X131349294Y-95770986D01*
X131211401Y-96028966D01*
X131126487Y-96308889D01*
X131097815Y-96600000D01*
X126577845Y-96600000D01*
X126585611Y-96451469D01*
X126543599Y-96161981D01*
X126445919Y-95886253D01*
X126372472Y-95748843D01*
X126123397Y-95671208D01*
X125274605Y-96520000D01*
X124915395Y-96520000D01*
X124066603Y-95671208D01*
X123825000Y-95746514D01*
X123583397Y-95671208D01*
X122734605Y-96520000D01*
X122375395Y-96520000D01*
X121526603Y-95671208D01*
X121277528Y-95748843D01*
X121151629Y-96012883D01*
X121079661Y-96296411D01*
X121064389Y-96588531D01*
X112445000Y-96588531D01*
X112445000Y-93380000D01*
X121066928Y-93380000D01*
X121066928Y-94580000D01*
X121083992Y-94753254D01*
X121134528Y-94919850D01*
X121216595Y-95073386D01*
X121327038Y-95207962D01*
X121461614Y-95318405D01*
X121615150Y-95400472D01*
X121724293Y-95433580D01*
X121706208Y-95491603D01*
X122555000Y-96340395D01*
X123403792Y-95491603D01*
X123385707Y-95433580D01*
X123494850Y-95400472D01*
X123648386Y-95318405D01*
X123782962Y-95207962D01*
X123893405Y-95073386D01*
X123961285Y-94946392D01*
X124148368Y-95133475D01*
X124321729Y-95249311D01*
X124246208Y-95491603D01*
X125095000Y-96340395D01*
X125943792Y-95491603D01*
X125868271Y-95249311D01*
X126041632Y-95133475D01*
X126248475Y-94926632D01*
X126410990Y-94683411D01*
X126522932Y-94413158D01*
X126580000Y-94126260D01*
X126580000Y-93833740D01*
X126522932Y-93546842D01*
X126410990Y-93276589D01*
X126248475Y-93033368D01*
X126041632Y-92826525D01*
X125798411Y-92664010D01*
X125528158Y-92552068D01*
X125241260Y-92495000D01*
X124948740Y-92495000D01*
X124661842Y-92552068D01*
X124391589Y-92664010D01*
X124148368Y-92826525D01*
X123961285Y-93013608D01*
X123893405Y-92886614D01*
X123782962Y-92752038D01*
X123648386Y-92641595D01*
X123494850Y-92559528D01*
X123328254Y-92508992D01*
X123155000Y-92491928D01*
X121955000Y-92491928D01*
X121781746Y-92508992D01*
X121615150Y-92559528D01*
X121461614Y-92641595D01*
X121327038Y-92752038D01*
X121216595Y-92886614D01*
X121134528Y-93040150D01*
X121083992Y-93206746D01*
X121066928Y-93380000D01*
X112445000Y-93380000D01*
X112445000Y-88430000D01*
X131276928Y-88430000D01*
X131289188Y-88554482D01*
X131325498Y-88674180D01*
X131384463Y-88784494D01*
X131463815Y-88881185D01*
X131560506Y-88960537D01*
X131670820Y-89019502D01*
X131766943Y-89048661D01*
X131600363Y-89215241D01*
X131443320Y-89450273D01*
X131335147Y-89711426D01*
X131280000Y-89988665D01*
X131280000Y-90271335D01*
X131335147Y-90548574D01*
X131443320Y-90809727D01*
X131600363Y-91044759D01*
X131800241Y-91244637D01*
X132035273Y-91401680D01*
X132296426Y-91509853D01*
X132573665Y-91565000D01*
X132856335Y-91565000D01*
X133133574Y-91509853D01*
X133394727Y-91401680D01*
X133629759Y-91244637D01*
X133829637Y-91044759D01*
X133986680Y-90809727D01*
X134094853Y-90548574D01*
X134150000Y-90271335D01*
X134150000Y-89988665D01*
X134094853Y-89711426D01*
X133986680Y-89450273D01*
X133829637Y-89215241D01*
X133663057Y-89048661D01*
X133759180Y-89019502D01*
X133869494Y-88960537D01*
X133966185Y-88881185D01*
X134045537Y-88784494D01*
X134104502Y-88674180D01*
X134140812Y-88554482D01*
X134153072Y-88430000D01*
X134150000Y-87915750D01*
X133991250Y-87757000D01*
X132842000Y-87757000D01*
X132842000Y-87777000D01*
X132588000Y-87777000D01*
X132588000Y-87757000D01*
X131438750Y-87757000D01*
X131280000Y-87915750D01*
X131276928Y-88430000D01*
X112445000Y-88430000D01*
X112445000Y-86426553D01*
X113394009Y-86426553D01*
X113436603Y-86725907D01*
X113536778Y-87011199D01*
X113616739Y-87160792D01*
X113870920Y-87244475D01*
X114755395Y-86360000D01*
X113870920Y-85475525D01*
X113616739Y-85559208D01*
X113485842Y-85831775D01*
X113410635Y-86124642D01*
X113394009Y-86426553D01*
X112445000Y-86426553D01*
X112445000Y-85295920D01*
X114050525Y-85295920D01*
X114935000Y-86180395D01*
X114949143Y-86166253D01*
X115128748Y-86345858D01*
X115114605Y-86360000D01*
X115128748Y-86374143D01*
X114949143Y-86553748D01*
X114935000Y-86539605D01*
X114050525Y-87424080D01*
X114134208Y-87678261D01*
X114406775Y-87809158D01*
X114699642Y-87884365D01*
X115001553Y-87900991D01*
X115300907Y-87858397D01*
X115586199Y-87758222D01*
X115735792Y-87678261D01*
X115819474Y-87424082D01*
X115935422Y-87540030D01*
X115982187Y-87493265D01*
X115985498Y-87504180D01*
X116044463Y-87614494D01*
X116123815Y-87711185D01*
X116220506Y-87790537D01*
X116330820Y-87849502D01*
X116450518Y-87885812D01*
X116575000Y-87898072D01*
X118375000Y-87898072D01*
X118499482Y-87885812D01*
X118619180Y-87849502D01*
X118729494Y-87790537D01*
X118826185Y-87711185D01*
X118905537Y-87614494D01*
X118964502Y-87504180D01*
X119000812Y-87384482D01*
X119001643Y-87376039D01*
X119100241Y-87474637D01*
X119335273Y-87631680D01*
X119596426Y-87739853D01*
X119873665Y-87795000D01*
X120156335Y-87795000D01*
X120433574Y-87739853D01*
X120694727Y-87631680D01*
X120929759Y-87474637D01*
X121129637Y-87274759D01*
X121286680Y-87039727D01*
X121394853Y-86778574D01*
X121450000Y-86501335D01*
X121450000Y-86218665D01*
X126200000Y-86218665D01*
X126200000Y-86501335D01*
X126255147Y-86778574D01*
X126363320Y-87039727D01*
X126520363Y-87274759D01*
X126720241Y-87474637D01*
X126955273Y-87631680D01*
X127216426Y-87739853D01*
X127493665Y-87795000D01*
X127776335Y-87795000D01*
X128053574Y-87739853D01*
X128314727Y-87631680D01*
X128549759Y-87474637D01*
X128749637Y-87274759D01*
X128906680Y-87039727D01*
X128993551Y-86830000D01*
X131276928Y-86830000D01*
X131280000Y-87344250D01*
X131438750Y-87503000D01*
X132588000Y-87503000D01*
X132588000Y-86353750D01*
X132842000Y-86353750D01*
X132842000Y-87503000D01*
X133991250Y-87503000D01*
X134150000Y-87344250D01*
X134153072Y-86830000D01*
X134140812Y-86705518D01*
X134104502Y-86585820D01*
X134045537Y-86475506D01*
X133966185Y-86378815D01*
X133869494Y-86299463D01*
X133759180Y-86240498D01*
X133639482Y-86204188D01*
X133515000Y-86191928D01*
X133000750Y-86195000D01*
X132842000Y-86353750D01*
X132588000Y-86353750D01*
X132429250Y-86195000D01*
X131915000Y-86191928D01*
X131790518Y-86204188D01*
X131670820Y-86240498D01*
X131560506Y-86299463D01*
X131463815Y-86378815D01*
X131384463Y-86475506D01*
X131325498Y-86585820D01*
X131289188Y-86705518D01*
X131276928Y-86830000D01*
X128993551Y-86830000D01*
X129014853Y-86778574D01*
X129070000Y-86501335D01*
X129070000Y-86218665D01*
X129014853Y-85941426D01*
X128906680Y-85680273D01*
X128749637Y-85445241D01*
X128549759Y-85245363D01*
X128314727Y-85088320D01*
X128053574Y-84980147D01*
X127776335Y-84925000D01*
X127493665Y-84925000D01*
X127216426Y-84980147D01*
X126955273Y-85088320D01*
X126720241Y-85245363D01*
X126520363Y-85445241D01*
X126363320Y-85680273D01*
X126255147Y-85941426D01*
X126200000Y-86218665D01*
X121450000Y-86218665D01*
X121394853Y-85941426D01*
X121286680Y-85680273D01*
X121129637Y-85445241D01*
X120929759Y-85245363D01*
X120694727Y-85088320D01*
X120433574Y-84980147D01*
X120156335Y-84925000D01*
X119873665Y-84925000D01*
X119596426Y-84980147D01*
X119335273Y-85088320D01*
X119100241Y-85245363D01*
X119001643Y-85343961D01*
X119000812Y-85335518D01*
X118964502Y-85215820D01*
X118905537Y-85105506D01*
X118826185Y-85008815D01*
X118729494Y-84929463D01*
X118619180Y-84870498D01*
X118499482Y-84834188D01*
X118375000Y-84821928D01*
X116575000Y-84821928D01*
X116450518Y-84834188D01*
X116330820Y-84870498D01*
X116220506Y-84929463D01*
X116123815Y-85008815D01*
X116044463Y-85105506D01*
X115985498Y-85215820D01*
X115982187Y-85226735D01*
X115935422Y-85179970D01*
X115819474Y-85295918D01*
X115735792Y-85041739D01*
X115463225Y-84910842D01*
X115170358Y-84835635D01*
X114868447Y-84819009D01*
X114569093Y-84861603D01*
X114283801Y-84961778D01*
X114134208Y-85041739D01*
X114050525Y-85295920D01*
X112445000Y-85295920D01*
X112445000Y-78625000D01*
X120431928Y-78625000D01*
X120431928Y-80125000D01*
X120448992Y-80298254D01*
X120499528Y-80464850D01*
X120581595Y-80618386D01*
X120692038Y-80752962D01*
X120826614Y-80863405D01*
X120980150Y-80945472D01*
X121146746Y-80996008D01*
X121320000Y-81013072D01*
X122520000Y-81013072D01*
X122693254Y-80996008D01*
X122859850Y-80945472D01*
X123013386Y-80863405D01*
X123147962Y-80752962D01*
X123258405Y-80618386D01*
X123312914Y-80516407D01*
X123313198Y-80516795D01*
X123527954Y-80713664D01*
X123776991Y-80864854D01*
X124050739Y-80964554D01*
X124063110Y-80966476D01*
X124293000Y-80845155D01*
X124293000Y-79502000D01*
X124547000Y-79502000D01*
X124547000Y-80845155D01*
X124776890Y-80966476D01*
X124789261Y-80964554D01*
X125063009Y-80864854D01*
X125312046Y-80713664D01*
X125526802Y-80516795D01*
X125699025Y-80281812D01*
X125822096Y-80017745D01*
X125891285Y-79734742D01*
X125747232Y-79502000D01*
X124547000Y-79502000D01*
X124293000Y-79502000D01*
X124273000Y-79502000D01*
X124273000Y-79248000D01*
X124293000Y-79248000D01*
X124293000Y-79228000D01*
X124547000Y-79228000D01*
X124547000Y-79248000D01*
X125747232Y-79248000D01*
X125891285Y-79015258D01*
X125822096Y-78732255D01*
X125704530Y-78480000D01*
X129971209Y-78480000D01*
X129956928Y-78625000D01*
X129956928Y-80125000D01*
X129973992Y-80298254D01*
X130024528Y-80464850D01*
X130106595Y-80618386D01*
X130217038Y-80752962D01*
X130351614Y-80863405D01*
X130505150Y-80945472D01*
X130671746Y-80996008D01*
X130845000Y-81013072D01*
X132045000Y-81013072D01*
X132218254Y-80996008D01*
X132384850Y-80945472D01*
X132538386Y-80863405D01*
X132672962Y-80752962D01*
X132783405Y-80618386D01*
X132837914Y-80516407D01*
X132838198Y-80516795D01*
X133052954Y-80713664D01*
X133301991Y-80864854D01*
X133575739Y-80964554D01*
X133588110Y-80966476D01*
X133818000Y-80845155D01*
X133818000Y-79502000D01*
X134072000Y-79502000D01*
X134072000Y-80845155D01*
X134301890Y-80966476D01*
X134314261Y-80964554D01*
X134588009Y-80864854D01*
X134837046Y-80713664D01*
X135051802Y-80516795D01*
X135224025Y-80281812D01*
X135347096Y-80017745D01*
X135416285Y-79734742D01*
X135272232Y-79502000D01*
X134072000Y-79502000D01*
X133818000Y-79502000D01*
X133798000Y-79502000D01*
X133798000Y-79248000D01*
X133818000Y-79248000D01*
X133818000Y-79228000D01*
X134072000Y-79228000D01*
X134072000Y-79248000D01*
X135272232Y-79248000D01*
X135416285Y-79015258D01*
X135347096Y-78732255D01*
X135229530Y-78480000D01*
X139496209Y-78480000D01*
X139481928Y-78625000D01*
X139481928Y-80125000D01*
X139498992Y-80298254D01*
X139549528Y-80464850D01*
X139631595Y-80618386D01*
X139742038Y-80752962D01*
X139876614Y-80863405D01*
X140030150Y-80945472D01*
X140196746Y-80996008D01*
X140370000Y-81013072D01*
X141570000Y-81013072D01*
X141743254Y-80996008D01*
X141909850Y-80945472D01*
X142063386Y-80863405D01*
X142197962Y-80752962D01*
X142308405Y-80618386D01*
X142362914Y-80516407D01*
X142363198Y-80516795D01*
X142577954Y-80713664D01*
X142826991Y-80864854D01*
X143100739Y-80964554D01*
X143113110Y-80966476D01*
X143343000Y-80845155D01*
X143343000Y-79502000D01*
X143597000Y-79502000D01*
X143597000Y-80845155D01*
X143826890Y-80966476D01*
X143839261Y-80964554D01*
X144113009Y-80864854D01*
X144362046Y-80713664D01*
X144576802Y-80516795D01*
X144749025Y-80281812D01*
X144872096Y-80017745D01*
X144941285Y-79734742D01*
X144797232Y-79502000D01*
X143597000Y-79502000D01*
X143343000Y-79502000D01*
X143323000Y-79502000D01*
X143323000Y-79248000D01*
X143343000Y-79248000D01*
X143343000Y-79228000D01*
X143597000Y-79228000D01*
X143597000Y-79248000D01*
X144797232Y-79248000D01*
X144941285Y-79015258D01*
X144872096Y-78732255D01*
X144754530Y-78480000D01*
X147536645Y-78480000D01*
X148425000Y-79368356D01*
X148425000Y-79516335D01*
X148480147Y-79793574D01*
X148588320Y-80054727D01*
X148709923Y-80236719D01*
X139760902Y-89185741D01*
X139722369Y-89217364D01*
X139690746Y-89255897D01*
X139690745Y-89255898D01*
X139596155Y-89371157D01*
X139502369Y-89546618D01*
X139444616Y-89737003D01*
X139425115Y-89934997D01*
X139430002Y-89984615D01*
X139430001Y-97669491D01*
X139206335Y-97625000D01*
X138923665Y-97625000D01*
X138646426Y-97680147D01*
X138385273Y-97788320D01*
X138150241Y-97945363D01*
X137950363Y-98145241D01*
X137793320Y-98380273D01*
X137685147Y-98641426D01*
X137630000Y-98918665D01*
X137630000Y-99066645D01*
X137010900Y-99685745D01*
X136972367Y-99717368D01*
X136940744Y-99755901D01*
X136940743Y-99755902D01*
X136846153Y-99871161D01*
X136752367Y-100046622D01*
X136694614Y-100237007D01*
X136675113Y-100435001D01*
X136680000Y-100484619D01*
X136679999Y-114621645D01*
X133559717Y-117741928D01*
X132750000Y-117741928D01*
X132576746Y-117758992D01*
X132410150Y-117809528D01*
X132256614Y-117891595D01*
X132122038Y-118002038D01*
X132011595Y-118136614D01*
X131957086Y-118238593D01*
X131956802Y-118238205D01*
X131742046Y-118041336D01*
X131493009Y-117890146D01*
X131219261Y-117790446D01*
X131206890Y-117788524D01*
X130977000Y-117909845D01*
X130977000Y-119253000D01*
X130997000Y-119253000D01*
X130997000Y-119507000D01*
X130977000Y-119507000D01*
X130977000Y-120850155D01*
X131206890Y-120971476D01*
X131219261Y-120969554D01*
X131493009Y-120869854D01*
X131742046Y-120718664D01*
X131956802Y-120521795D01*
X131957086Y-120521407D01*
X132011595Y-120623386D01*
X132122038Y-120757962D01*
X132256614Y-120868405D01*
X132410150Y-120950472D01*
X132576746Y-121001008D01*
X132750000Y-121018072D01*
X133950000Y-121018072D01*
X134123254Y-121001008D01*
X134289850Y-120950472D01*
X134443386Y-120868405D01*
X134577962Y-120757962D01*
X134688405Y-120623386D01*
X134770472Y-120469850D01*
X134821008Y-120303254D01*
X134838072Y-120130000D01*
X134838072Y-119739742D01*
X138903715Y-119739742D01*
X138972904Y-120022745D01*
X139095975Y-120286812D01*
X139268198Y-120521795D01*
X139482954Y-120718664D01*
X139731991Y-120869854D01*
X140005739Y-120969554D01*
X140018110Y-120971476D01*
X140248000Y-120850155D01*
X140248000Y-119507000D01*
X139047768Y-119507000D01*
X138903715Y-119739742D01*
X134838072Y-119739742D01*
X134838072Y-119320283D01*
X135138097Y-119020258D01*
X138903715Y-119020258D01*
X139047768Y-119253000D01*
X140248000Y-119253000D01*
X140248000Y-117909845D01*
X140018110Y-117788524D01*
X140005739Y-117790446D01*
X139731991Y-117890146D01*
X139482954Y-118041336D01*
X139268198Y-118238205D01*
X139095975Y-118473188D01*
X138972904Y-118737255D01*
X138903715Y-119020258D01*
X135138097Y-119020258D01*
X138369099Y-115789257D01*
X138407632Y-115757634D01*
X138533846Y-115603841D01*
X138627631Y-115428381D01*
X138685384Y-115237995D01*
X138699999Y-115089609D01*
X138699999Y-115089607D01*
X138704885Y-115040002D01*
X138699999Y-114990397D01*
X138699999Y-109975509D01*
X138923665Y-110020000D01*
X139206335Y-110020000D01*
X139483574Y-109964853D01*
X139744727Y-109856680D01*
X139979759Y-109699637D01*
X140179637Y-109499759D01*
X140336680Y-109264727D01*
X140444853Y-109003574D01*
X140500000Y-108726335D01*
X140500000Y-108443665D01*
X140444853Y-108166426D01*
X140336680Y-107905273D01*
X140179637Y-107670241D01*
X139979759Y-107470363D01*
X139744727Y-107313320D01*
X139483574Y-107205147D01*
X139206335Y-107150000D01*
X138923665Y-107150000D01*
X138699999Y-107194491D01*
X138699999Y-106800509D01*
X138923665Y-106845000D01*
X139206335Y-106845000D01*
X139483574Y-106789853D01*
X139744727Y-106681680D01*
X139979759Y-106524637D01*
X140179637Y-106324759D01*
X140336680Y-106089727D01*
X140444853Y-105828574D01*
X140500000Y-105551335D01*
X140500000Y-105268665D01*
X140444853Y-104991426D01*
X140336680Y-104730273D01*
X140179637Y-104495241D01*
X139979759Y-104295363D01*
X139744727Y-104138320D01*
X139483574Y-104030147D01*
X139206335Y-103975000D01*
X138923665Y-103975000D01*
X138699999Y-104019491D01*
X138699999Y-103625509D01*
X138923665Y-103670000D01*
X139206335Y-103670000D01*
X139483574Y-103614853D01*
X139744727Y-103506680D01*
X139979759Y-103349637D01*
X140179637Y-103149759D01*
X140336680Y-102914727D01*
X140444853Y-102653574D01*
X140500000Y-102376335D01*
X140500000Y-102228355D01*
X141119095Y-101609260D01*
X141157634Y-101577632D01*
X141283848Y-101423839D01*
X141377633Y-101248379D01*
X141435386Y-101057993D01*
X141450001Y-100909607D01*
X141450001Y-100909605D01*
X141454887Y-100860000D01*
X141450001Y-100810395D01*
X141450001Y-91510512D01*
X145244783Y-91510512D01*
X145286213Y-91790130D01*
X145381397Y-92056292D01*
X145448329Y-92181514D01*
X145692298Y-92253097D01*
X146505395Y-91440000D01*
X145692298Y-90626903D01*
X145448329Y-90698486D01*
X145327429Y-90953996D01*
X145258700Y-91228184D01*
X145244783Y-91510512D01*
X141450001Y-91510512D01*
X141450001Y-90353352D01*
X143004688Y-88798665D01*
X145250000Y-88798665D01*
X145250000Y-89081335D01*
X145305147Y-89358574D01*
X145413320Y-89619727D01*
X145570363Y-89854759D01*
X145770241Y-90054637D01*
X145970869Y-90188692D01*
X145943486Y-90203329D01*
X145871903Y-90447298D01*
X146685000Y-91260395D01*
X147498097Y-90447298D01*
X147426514Y-90203329D01*
X147397659Y-90189676D01*
X147599759Y-90054637D01*
X147799637Y-89854759D01*
X147956680Y-89619727D01*
X148064853Y-89358574D01*
X148120000Y-89081335D01*
X148120000Y-88798665D01*
X148064853Y-88521426D01*
X147956680Y-88260273D01*
X147799637Y-88025241D01*
X147599759Y-87825363D01*
X147364727Y-87668320D01*
X147103574Y-87560147D01*
X146826335Y-87505000D01*
X146543665Y-87505000D01*
X146266426Y-87560147D01*
X146005273Y-87668320D01*
X145770241Y-87825363D01*
X145570363Y-88025241D01*
X145413320Y-88260273D01*
X145305147Y-88521426D01*
X145250000Y-88798665D01*
X143004688Y-88798665D01*
X148584016Y-83219337D01*
X148588320Y-83229727D01*
X148745363Y-83464759D01*
X148945241Y-83664637D01*
X148985538Y-83691562D01*
X149016153Y-83748840D01*
X149142367Y-83902633D01*
X149180906Y-83934261D01*
X149566844Y-84320199D01*
X149441426Y-84345147D01*
X149180273Y-84453320D01*
X148945241Y-84610363D01*
X148745363Y-84810241D01*
X148588320Y-85045273D01*
X148480147Y-85306426D01*
X148425000Y-85583665D01*
X148425000Y-85866335D01*
X148480147Y-86143574D01*
X148588320Y-86404727D01*
X148745363Y-86639759D01*
X148945241Y-86839637D01*
X149180273Y-86996680D01*
X149441426Y-87104853D01*
X149718665Y-87160000D01*
X150001335Y-87160000D01*
X150278574Y-87104853D01*
X150539727Y-86996680D01*
X150774759Y-86839637D01*
X150974637Y-86639759D01*
X151131680Y-86404727D01*
X151239853Y-86143574D01*
X151264801Y-86018156D01*
X152753933Y-87507289D01*
X152541335Y-87465000D01*
X152258665Y-87465000D01*
X151981426Y-87520147D01*
X151720273Y-87628320D01*
X151485241Y-87785363D01*
X151285363Y-87985241D01*
X151130000Y-88217759D01*
X150974637Y-87985241D01*
X150774759Y-87785363D01*
X150539727Y-87628320D01*
X150278574Y-87520147D01*
X150001335Y-87465000D01*
X149718665Y-87465000D01*
X149441426Y-87520147D01*
X149180273Y-87628320D01*
X148945241Y-87785363D01*
X148745363Y-87985241D01*
X148588320Y-88220273D01*
X148480147Y-88481426D01*
X148425000Y-88758665D01*
X148425000Y-89041335D01*
X148480147Y-89318574D01*
X148588320Y-89579727D01*
X148745363Y-89814759D01*
X148945241Y-90014637D01*
X149180273Y-90171680D01*
X149441426Y-90279853D01*
X149566844Y-90304800D01*
X148074996Y-91796649D01*
X148111300Y-91651816D01*
X148125217Y-91369488D01*
X148083787Y-91089870D01*
X147988603Y-90823708D01*
X147921671Y-90698486D01*
X147677702Y-90626903D01*
X146864605Y-91440000D01*
X146878748Y-91454143D01*
X146699143Y-91633748D01*
X146685000Y-91619605D01*
X145871903Y-92432702D01*
X145943486Y-92676671D01*
X146198996Y-92797571D01*
X146473184Y-92866300D01*
X146755512Y-92880217D01*
X147032462Y-92839182D01*
X144630900Y-95240745D01*
X144592367Y-95272368D01*
X144560744Y-95310901D01*
X144560743Y-95310902D01*
X144466153Y-95426161D01*
X144372367Y-95601622D01*
X144314614Y-95792007D01*
X144295113Y-95990001D01*
X144300000Y-96039619D01*
X144299999Y-112081645D01*
X142195901Y-114185744D01*
X142157368Y-114217367D01*
X142125745Y-114255900D01*
X142125744Y-114255901D01*
X142031154Y-114371160D01*
X141937368Y-114546621D01*
X141879615Y-114737006D01*
X141860114Y-114935000D01*
X141865001Y-114984618D01*
X141865000Y-117847024D01*
X141781614Y-117891595D01*
X141647038Y-118002038D01*
X141536595Y-118136614D01*
X141482086Y-118238593D01*
X141481802Y-118238205D01*
X141267046Y-118041336D01*
X141018009Y-117890146D01*
X140744261Y-117790446D01*
X140731890Y-117788524D01*
X140502000Y-117909845D01*
X140502000Y-119253000D01*
X140522000Y-119253000D01*
X140522000Y-119507000D01*
X140502000Y-119507000D01*
X140502000Y-120850155D01*
X140731890Y-120971476D01*
X140744261Y-120969554D01*
X141018009Y-120869854D01*
X141267046Y-120718664D01*
X141481802Y-120521795D01*
X141482086Y-120521407D01*
X141536595Y-120623386D01*
X141647038Y-120757962D01*
X141781614Y-120868405D01*
X141935150Y-120950472D01*
X142101746Y-121001008D01*
X142275000Y-121018072D01*
X143475000Y-121018072D01*
X143648254Y-121001008D01*
X143814850Y-120950472D01*
X143968386Y-120868405D01*
X144102962Y-120757962D01*
X144213405Y-120623386D01*
X144295472Y-120469850D01*
X144319694Y-120390000D01*
X148953741Y-120390000D01*
X148996238Y-120432497D01*
X149218167Y-120580785D01*
X149464761Y-120682928D01*
X149726544Y-120735000D01*
X149993456Y-120735000D01*
X150255239Y-120682928D01*
X150501833Y-120580785D01*
X150723762Y-120432497D01*
X150912497Y-120243762D01*
X151060785Y-120021833D01*
X151162928Y-119775239D01*
X151215000Y-119513456D01*
X151215000Y-119246544D01*
X151162928Y-118984761D01*
X151060785Y-118738167D01*
X150912497Y-118516238D01*
X150723762Y-118327503D01*
X150501833Y-118179215D01*
X150334734Y-118110000D01*
X150501833Y-118040785D01*
X150723762Y-117892497D01*
X150738952Y-117877307D01*
X152920744Y-120059100D01*
X152952367Y-120097633D01*
X153106160Y-120223847D01*
X153281620Y-120317632D01*
X153472006Y-120375385D01*
X153620392Y-120390000D01*
X153620394Y-120390000D01*
X153669999Y-120394886D01*
X153719604Y-120390000D01*
X153920604Y-120390000D01*
X154025241Y-120494637D01*
X154260273Y-120651680D01*
X154521426Y-120759853D01*
X154798665Y-120815000D01*
X155081335Y-120815000D01*
X155358574Y-120759853D01*
X155619727Y-120651680D01*
X155854759Y-120494637D01*
X155959396Y-120390000D01*
X156160392Y-120390000D01*
X156210000Y-120394886D01*
X156407994Y-120375385D01*
X156407997Y-120375384D01*
X156598380Y-120317632D01*
X156773840Y-120223847D01*
X156927633Y-120097633D01*
X156959261Y-120059094D01*
X157779690Y-119238665D01*
X158505000Y-119238665D01*
X158505000Y-119521335D01*
X158560147Y-119798574D01*
X158668320Y-120059727D01*
X158825363Y-120294759D01*
X159025241Y-120494637D01*
X159260273Y-120651680D01*
X159521426Y-120759853D01*
X159798665Y-120815000D01*
X160081335Y-120815000D01*
X160358574Y-120759853D01*
X160619727Y-120651680D01*
X160854759Y-120494637D01*
X161054637Y-120294759D01*
X161211680Y-120059727D01*
X161319853Y-119798574D01*
X161331555Y-119739742D01*
X168748715Y-119739742D01*
X168817904Y-120022745D01*
X168940975Y-120286812D01*
X169113198Y-120521795D01*
X169327954Y-120718664D01*
X169576991Y-120869854D01*
X169850739Y-120969554D01*
X169863110Y-120971476D01*
X170093000Y-120850155D01*
X170093000Y-119507000D01*
X168892768Y-119507000D01*
X168748715Y-119739742D01*
X161331555Y-119739742D01*
X161375000Y-119521335D01*
X161375000Y-119238665D01*
X161331556Y-119020258D01*
X168748715Y-119020258D01*
X168892768Y-119253000D01*
X170093000Y-119253000D01*
X170093000Y-117909845D01*
X170347000Y-117909845D01*
X170347000Y-119253000D01*
X170367000Y-119253000D01*
X170367000Y-119507000D01*
X170347000Y-119507000D01*
X170347000Y-120850155D01*
X170576890Y-120971476D01*
X170589261Y-120969554D01*
X170863009Y-120869854D01*
X171112046Y-120718664D01*
X171326802Y-120521795D01*
X171327086Y-120521407D01*
X171381595Y-120623386D01*
X171492038Y-120757962D01*
X171626614Y-120868405D01*
X171780150Y-120950472D01*
X171946746Y-121001008D01*
X172120000Y-121018072D01*
X173320000Y-121018072D01*
X173493254Y-121001008D01*
X173659850Y-120950472D01*
X173813386Y-120868405D01*
X173947962Y-120757962D01*
X174058405Y-120623386D01*
X174140472Y-120469850D01*
X174191008Y-120303254D01*
X174208072Y-120130000D01*
X174208072Y-119739742D01*
X178273715Y-119739742D01*
X178342904Y-120022745D01*
X178465975Y-120286812D01*
X178638198Y-120521795D01*
X178852954Y-120718664D01*
X179101991Y-120869854D01*
X179375739Y-120969554D01*
X179388110Y-120971476D01*
X179618000Y-120850155D01*
X179618000Y-119507000D01*
X178417768Y-119507000D01*
X178273715Y-119739742D01*
X174208072Y-119739742D01*
X174208072Y-119320283D01*
X174508097Y-119020258D01*
X178273715Y-119020258D01*
X178417768Y-119253000D01*
X179618000Y-119253000D01*
X179618000Y-117909845D01*
X179872000Y-117909845D01*
X179872000Y-119253000D01*
X179892000Y-119253000D01*
X179892000Y-119507000D01*
X179872000Y-119507000D01*
X179872000Y-120850155D01*
X180101890Y-120971476D01*
X180114261Y-120969554D01*
X180388009Y-120869854D01*
X180637046Y-120718664D01*
X180851802Y-120521795D01*
X180852086Y-120521407D01*
X180906595Y-120623386D01*
X181017038Y-120757962D01*
X181151614Y-120868405D01*
X181305150Y-120950472D01*
X181471746Y-121001008D01*
X181645000Y-121018072D01*
X182845000Y-121018072D01*
X183018254Y-121001008D01*
X183184850Y-120950472D01*
X183338386Y-120868405D01*
X183472962Y-120757962D01*
X183583405Y-120623386D01*
X183665472Y-120469850D01*
X183716008Y-120303254D01*
X183733072Y-120130000D01*
X183733072Y-118630000D01*
X183716008Y-118456746D01*
X183665472Y-118290150D01*
X183583405Y-118136614D01*
X183472962Y-118002038D01*
X183338386Y-117891595D01*
X183255000Y-117847024D01*
X183255000Y-108889396D01*
X183359637Y-108784759D01*
X183516680Y-108549727D01*
X183624853Y-108288574D01*
X183680000Y-108011335D01*
X183680000Y-107728665D01*
X183624853Y-107451426D01*
X183516680Y-107190273D01*
X183359637Y-106955241D01*
X183159759Y-106755363D01*
X182924727Y-106598320D01*
X182663574Y-106490147D01*
X182386335Y-106435000D01*
X182103665Y-106435000D01*
X181826426Y-106490147D01*
X181565273Y-106598320D01*
X181330241Y-106755363D01*
X181130363Y-106955241D01*
X180973320Y-107190273D01*
X180865147Y-107451426D01*
X180810000Y-107728665D01*
X180810000Y-108011335D01*
X180865147Y-108288574D01*
X180973320Y-108549727D01*
X181130363Y-108784759D01*
X181235000Y-108889396D01*
X181235001Y-117847024D01*
X181151614Y-117891595D01*
X181017038Y-118002038D01*
X180906595Y-118136614D01*
X180852086Y-118238593D01*
X180851802Y-118238205D01*
X180637046Y-118041336D01*
X180388009Y-117890146D01*
X180114261Y-117790446D01*
X180101890Y-117788524D01*
X179872000Y-117909845D01*
X179618000Y-117909845D01*
X179388110Y-117788524D01*
X179375739Y-117790446D01*
X179101991Y-117890146D01*
X178852954Y-118041336D01*
X178638198Y-118238205D01*
X178465975Y-118473188D01*
X178342904Y-118737255D01*
X178273715Y-119020258D01*
X174508097Y-119020258D01*
X175304100Y-118224256D01*
X175342633Y-118192633D01*
X175468847Y-118038840D01*
X175562632Y-117863380D01*
X175585339Y-117788524D01*
X175620385Y-117672995D01*
X175639886Y-117475000D01*
X175635000Y-117425392D01*
X175635000Y-108334396D01*
X175644396Y-108325000D01*
X176780604Y-108325000D01*
X176885241Y-108429637D01*
X177120273Y-108586680D01*
X177381426Y-108694853D01*
X177658665Y-108750000D01*
X177941335Y-108750000D01*
X178218574Y-108694853D01*
X178479727Y-108586680D01*
X178714759Y-108429637D01*
X178914637Y-108229759D01*
X179071680Y-107994727D01*
X179179853Y-107733574D01*
X179235000Y-107456335D01*
X179235000Y-107173665D01*
X179179853Y-106896426D01*
X179071680Y-106635273D01*
X178914637Y-106400241D01*
X178714759Y-106200363D01*
X178479727Y-106043320D01*
X178218574Y-105935147D01*
X177941335Y-105880000D01*
X177658665Y-105880000D01*
X177381426Y-105935147D01*
X177120273Y-106043320D01*
X176885241Y-106200363D01*
X176780604Y-106305000D01*
X175644396Y-106305000D01*
X175539759Y-106200363D01*
X175304727Y-106043320D01*
X175043574Y-105935147D01*
X174766335Y-105880000D01*
X174483665Y-105880000D01*
X174206426Y-105935147D01*
X173945273Y-106043320D01*
X173710241Y-106200363D01*
X173510363Y-106400241D01*
X173353320Y-106635273D01*
X173245147Y-106896426D01*
X173190000Y-107173665D01*
X173190000Y-107456335D01*
X173245147Y-107733574D01*
X173353320Y-107994727D01*
X173510363Y-108229759D01*
X173615000Y-108334396D01*
X173615001Y-117056643D01*
X172929717Y-117741928D01*
X172120000Y-117741928D01*
X171946746Y-117758992D01*
X171780150Y-117809528D01*
X171626614Y-117891595D01*
X171492038Y-118002038D01*
X171381595Y-118136614D01*
X171327086Y-118238593D01*
X171326802Y-118238205D01*
X171112046Y-118041336D01*
X170863009Y-117890146D01*
X170589261Y-117790446D01*
X170576890Y-117788524D01*
X170347000Y-117909845D01*
X170093000Y-117909845D01*
X169863110Y-117788524D01*
X169850739Y-117790446D01*
X169576991Y-117890146D01*
X169327954Y-118041336D01*
X169113198Y-118238205D01*
X168940975Y-118473188D01*
X168817904Y-118737255D01*
X168748715Y-119020258D01*
X161331556Y-119020258D01*
X161319853Y-118961426D01*
X161211680Y-118700273D01*
X161054637Y-118465241D01*
X160854759Y-118265363D01*
X160619727Y-118108320D01*
X160358574Y-118000147D01*
X160081335Y-117945000D01*
X159798665Y-117945000D01*
X159521426Y-118000147D01*
X159260273Y-118108320D01*
X159025241Y-118265363D01*
X158825363Y-118465241D01*
X158668320Y-118700273D01*
X158560147Y-118961426D01*
X158505000Y-119238665D01*
X157779690Y-119238665D01*
X158159094Y-118859261D01*
X158197633Y-118827633D01*
X158323847Y-118673840D01*
X158417632Y-118498380D01*
X158475385Y-118307994D01*
X158490000Y-118159608D01*
X158490000Y-118159606D01*
X158494886Y-118110001D01*
X158490000Y-118060396D01*
X158490000Y-115248685D01*
X158555799Y-115182886D01*
X158707371Y-114956043D01*
X158811775Y-114703989D01*
X158865000Y-114436411D01*
X158865000Y-114163589D01*
X158811775Y-113896011D01*
X158707371Y-113643957D01*
X158555799Y-113417114D01*
X158362886Y-113224201D01*
X158136043Y-113072629D01*
X157883989Y-112968225D01*
X157616411Y-112915000D01*
X157343589Y-112915000D01*
X157076011Y-112968225D01*
X156823957Y-113072629D01*
X156597114Y-113224201D01*
X156404201Y-113417114D01*
X156252629Y-113643957D01*
X156148225Y-113896011D01*
X156095000Y-114163589D01*
X156095000Y-114436411D01*
X156148225Y-114703989D01*
X156252629Y-114956043D01*
X156404201Y-115182886D01*
X156470001Y-115248686D01*
X156470000Y-117691645D01*
X155875521Y-118286125D01*
X155854759Y-118265363D01*
X155619727Y-118108320D01*
X155358574Y-118000147D01*
X155081335Y-117945000D01*
X154798665Y-117945000D01*
X154521426Y-118000147D01*
X154260273Y-118108320D01*
X154025241Y-118265363D01*
X154004480Y-118286124D01*
X151879261Y-116160906D01*
X151847633Y-116122367D01*
X151693840Y-115996153D01*
X151518380Y-115902368D01*
X151327994Y-115844615D01*
X151179608Y-115830000D01*
X151130000Y-115825114D01*
X151080392Y-115830000D01*
X150870000Y-115830000D01*
X150870000Y-115206259D01*
X150912497Y-115163762D01*
X151060785Y-114941833D01*
X151162928Y-114695239D01*
X151215000Y-114433456D01*
X151215000Y-114166544D01*
X151162928Y-113904761D01*
X151060785Y-113658167D01*
X150912497Y-113436238D01*
X150723762Y-113247503D01*
X150501833Y-113099215D01*
X150255239Y-112997072D01*
X149993456Y-112945000D01*
X149726544Y-112945000D01*
X149464761Y-112997072D01*
X149218167Y-113099215D01*
X148996238Y-113247503D01*
X148807503Y-113436238D01*
X148659215Y-113658167D01*
X148557072Y-113904761D01*
X148505000Y-114166544D01*
X148505000Y-114433456D01*
X148557072Y-114695239D01*
X148659215Y-114941833D01*
X148807503Y-115163762D01*
X148850000Y-115206259D01*
X148850001Y-115933740D01*
X148807503Y-115976238D01*
X148659215Y-116198167D01*
X148557072Y-116444761D01*
X148505000Y-116706544D01*
X148505000Y-116973456D01*
X148557072Y-117235239D01*
X148659215Y-117481833D01*
X148807503Y-117703762D01*
X148996238Y-117892497D01*
X149218167Y-118040785D01*
X149385266Y-118110000D01*
X149218167Y-118179215D01*
X148996238Y-118327503D01*
X148953741Y-118370000D01*
X144319694Y-118370000D01*
X144295472Y-118290150D01*
X144213405Y-118136614D01*
X144102962Y-118002038D01*
X143968386Y-117891595D01*
X143885000Y-117847024D01*
X143885000Y-115353355D01*
X145989099Y-113249257D01*
X146027632Y-113217634D01*
X146153846Y-113063841D01*
X146247631Y-112888381D01*
X146263582Y-112835799D01*
X146305384Y-112697996D01*
X146324885Y-112500001D01*
X146319999Y-112450393D01*
X146319999Y-109975509D01*
X146543665Y-110020000D01*
X146691645Y-110020000D01*
X149110739Y-112439094D01*
X149142367Y-112477633D01*
X149296160Y-112603847D01*
X149471620Y-112697632D01*
X149662006Y-112755385D01*
X149810392Y-112770000D01*
X149810394Y-112770000D01*
X149859999Y-112774886D01*
X149909604Y-112770000D01*
X153991315Y-112770000D01*
X154057114Y-112835799D01*
X154283957Y-112987371D01*
X154536011Y-113091775D01*
X154803589Y-113145000D01*
X155076411Y-113145000D01*
X155343989Y-113091775D01*
X155596043Y-112987371D01*
X155822886Y-112835799D01*
X156015799Y-112642886D01*
X156167371Y-112416043D01*
X156271775Y-112163989D01*
X156325000Y-111896411D01*
X156325000Y-111803193D01*
X156418847Y-111688840D01*
X156512632Y-111513380D01*
X156555634Y-111371621D01*
X156570385Y-111322995D01*
X156589886Y-111125000D01*
X156585000Y-111075392D01*
X156585000Y-111010000D01*
X158631928Y-111010000D01*
X158631928Y-112510000D01*
X158644188Y-112634482D01*
X158680498Y-112754180D01*
X158739463Y-112864494D01*
X158818815Y-112961185D01*
X158915506Y-113040537D01*
X159025820Y-113099502D01*
X159145518Y-113135812D01*
X159270000Y-113148072D01*
X160770000Y-113148072D01*
X160894482Y-113135812D01*
X161014180Y-113099502D01*
X161124494Y-113040537D01*
X161221185Y-112961185D01*
X161300537Y-112864494D01*
X161359502Y-112754180D01*
X161395812Y-112634482D01*
X161408072Y-112510000D01*
X161408072Y-111010000D01*
X161395812Y-110885518D01*
X161359502Y-110765820D01*
X161300537Y-110655506D01*
X161221185Y-110558815D01*
X161124494Y-110479463D01*
X161014180Y-110420498D01*
X160894482Y-110384188D01*
X160770000Y-110371928D01*
X159270000Y-110371928D01*
X159145518Y-110384188D01*
X159025820Y-110420498D01*
X158915506Y-110479463D01*
X158818815Y-110558815D01*
X158739463Y-110655506D01*
X158680498Y-110765820D01*
X158644188Y-110885518D01*
X158631928Y-111010000D01*
X156585000Y-111010000D01*
X156585000Y-108334396D01*
X156689637Y-108229759D01*
X156846680Y-107994727D01*
X156954853Y-107733574D01*
X156968684Y-107664040D01*
X165613091Y-107664040D01*
X165707930Y-107928881D01*
X165852615Y-108170131D01*
X166041586Y-108378519D01*
X166267580Y-108546037D01*
X166521913Y-108666246D01*
X166655961Y-108706904D01*
X166878000Y-108584915D01*
X166878000Y-107442000D01*
X167132000Y-107442000D01*
X167132000Y-108584915D01*
X167354039Y-108706904D01*
X167488087Y-108666246D01*
X167742420Y-108546037D01*
X167968414Y-108378519D01*
X168157385Y-108170131D01*
X168302070Y-107928881D01*
X168396909Y-107664040D01*
X168275624Y-107442000D01*
X167132000Y-107442000D01*
X166878000Y-107442000D01*
X165734376Y-107442000D01*
X165613091Y-107664040D01*
X156968684Y-107664040D01*
X157010000Y-107456335D01*
X157010000Y-107173665D01*
X156968685Y-106965960D01*
X165613091Y-106965960D01*
X165734376Y-107188000D01*
X166878000Y-107188000D01*
X166878000Y-106045085D01*
X167132000Y-106045085D01*
X167132000Y-107188000D01*
X168275624Y-107188000D01*
X168283454Y-107173665D01*
X168745000Y-107173665D01*
X168745000Y-107456335D01*
X168800147Y-107733574D01*
X168908320Y-107994727D01*
X169065363Y-108229759D01*
X169265241Y-108429637D01*
X169500273Y-108586680D01*
X169761426Y-108694853D01*
X170038665Y-108750000D01*
X170321335Y-108750000D01*
X170598574Y-108694853D01*
X170859727Y-108586680D01*
X171094759Y-108429637D01*
X171294637Y-108229759D01*
X171451680Y-107994727D01*
X171559853Y-107733574D01*
X171615000Y-107456335D01*
X171615000Y-107173665D01*
X171559853Y-106896426D01*
X171451680Y-106635273D01*
X171294637Y-106400241D01*
X171094759Y-106200363D01*
X170859727Y-106043320D01*
X170598574Y-105935147D01*
X170321335Y-105880000D01*
X170038665Y-105880000D01*
X169761426Y-105935147D01*
X169500273Y-106043320D01*
X169265241Y-106200363D01*
X169065363Y-106400241D01*
X168908320Y-106635273D01*
X168800147Y-106896426D01*
X168745000Y-107173665D01*
X168283454Y-107173665D01*
X168396909Y-106965960D01*
X168302070Y-106701119D01*
X168157385Y-106459869D01*
X167968414Y-106251481D01*
X167742420Y-106083963D01*
X167488087Y-105963754D01*
X167354039Y-105923096D01*
X167132000Y-106045085D01*
X166878000Y-106045085D01*
X166655961Y-105923096D01*
X166521913Y-105963754D01*
X166267580Y-106083963D01*
X166041586Y-106251481D01*
X165852615Y-106459869D01*
X165707930Y-106701119D01*
X165613091Y-106965960D01*
X156968685Y-106965960D01*
X156954853Y-106896426D01*
X156846680Y-106635273D01*
X156689637Y-106400241D01*
X156489759Y-106200363D01*
X156254727Y-106043320D01*
X155993574Y-105935147D01*
X155716335Y-105880000D01*
X155433665Y-105880000D01*
X155156426Y-105935147D01*
X154895273Y-106043320D01*
X154660241Y-106200363D01*
X154460363Y-106400241D01*
X154303320Y-106635273D01*
X154195147Y-106896426D01*
X154140000Y-107173665D01*
X154140000Y-107456335D01*
X154195147Y-107733574D01*
X154303320Y-107994727D01*
X154460363Y-108229759D01*
X154565000Y-108334396D01*
X154565001Y-110422459D01*
X154536011Y-110428225D01*
X154283957Y-110532629D01*
X154057114Y-110684201D01*
X153991315Y-110750000D01*
X150278355Y-110750000D01*
X148120000Y-108591645D01*
X148120000Y-108443665D01*
X148064853Y-108166426D01*
X147956680Y-107905273D01*
X147799637Y-107670241D01*
X147793436Y-107664040D01*
X151008091Y-107664040D01*
X151102930Y-107928881D01*
X151247615Y-108170131D01*
X151436586Y-108378519D01*
X151662580Y-108546037D01*
X151916913Y-108666246D01*
X152050961Y-108706904D01*
X152273000Y-108584915D01*
X152273000Y-107442000D01*
X152527000Y-107442000D01*
X152527000Y-108584915D01*
X152749039Y-108706904D01*
X152883087Y-108666246D01*
X153137420Y-108546037D01*
X153363414Y-108378519D01*
X153552385Y-108170131D01*
X153697070Y-107928881D01*
X153791909Y-107664040D01*
X153670624Y-107442000D01*
X152527000Y-107442000D01*
X152273000Y-107442000D01*
X151129376Y-107442000D01*
X151008091Y-107664040D01*
X147793436Y-107664040D01*
X147599759Y-107470363D01*
X147364727Y-107313320D01*
X147103574Y-107205147D01*
X146826335Y-107150000D01*
X146543665Y-107150000D01*
X146319999Y-107194491D01*
X146319999Y-106965960D01*
X151008091Y-106965960D01*
X151129376Y-107188000D01*
X152273000Y-107188000D01*
X152273000Y-106045085D01*
X152527000Y-106045085D01*
X152527000Y-107188000D01*
X153670624Y-107188000D01*
X153791909Y-106965960D01*
X153697070Y-106701119D01*
X153552385Y-106459869D01*
X153363414Y-106251481D01*
X153137420Y-106083963D01*
X152883087Y-105963754D01*
X152749039Y-105923096D01*
X152527000Y-106045085D01*
X152273000Y-106045085D01*
X152050961Y-105923096D01*
X151916913Y-105963754D01*
X151662580Y-106083963D01*
X151436586Y-106251481D01*
X151247615Y-106459869D01*
X151102930Y-106701119D01*
X151008091Y-106965960D01*
X146319999Y-106965960D01*
X146319999Y-106800509D01*
X146543665Y-106845000D01*
X146826335Y-106845000D01*
X147103574Y-106789853D01*
X147364727Y-106681680D01*
X147599759Y-106524637D01*
X147799637Y-106324759D01*
X147956680Y-106089727D01*
X148064853Y-105828574D01*
X148108834Y-105607470D01*
X148110363Y-105609759D01*
X148310241Y-105809637D01*
X148545273Y-105966680D01*
X148806426Y-106074853D01*
X149083665Y-106130000D01*
X149366335Y-106130000D01*
X149643574Y-106074853D01*
X149904727Y-105966680D01*
X150139759Y-105809637D01*
X150244396Y-105705000D01*
X150306762Y-105705000D01*
X150356370Y-105709886D01*
X150554364Y-105690385D01*
X150744750Y-105632632D01*
X150920210Y-105538847D01*
X151074003Y-105412633D01*
X151105631Y-105374094D01*
X153292023Y-103187702D01*
X161746903Y-103187702D01*
X161818486Y-103431671D01*
X162073996Y-103552571D01*
X162348184Y-103621300D01*
X162630512Y-103635217D01*
X162910130Y-103593787D01*
X163176292Y-103498603D01*
X163301514Y-103431671D01*
X163373097Y-103187702D01*
X162560000Y-102374605D01*
X161746903Y-103187702D01*
X153292023Y-103187702D01*
X154214213Y-102265512D01*
X161119783Y-102265512D01*
X161161213Y-102545130D01*
X161256397Y-102811292D01*
X161323329Y-102936514D01*
X161567298Y-103008097D01*
X162380395Y-102195000D01*
X162739605Y-102195000D01*
X163552702Y-103008097D01*
X163796671Y-102936514D01*
X163917571Y-102681004D01*
X163986300Y-102406816D01*
X164000217Y-102124488D01*
X163958787Y-101844870D01*
X163863603Y-101578708D01*
X163796671Y-101453486D01*
X163552702Y-101381903D01*
X162739605Y-102195000D01*
X162380395Y-102195000D01*
X161567298Y-101381903D01*
X161323329Y-101453486D01*
X161202429Y-101708996D01*
X161133700Y-101983184D01*
X161119783Y-102265512D01*
X154214213Y-102265512D01*
X155363652Y-101116073D01*
X155433665Y-101130000D01*
X155716335Y-101130000D01*
X155993574Y-101074853D01*
X156254727Y-100966680D01*
X156489759Y-100809637D01*
X156689637Y-100609759D01*
X156846680Y-100374727D01*
X156954853Y-100113574D01*
X157010000Y-99836335D01*
X157010000Y-99553665D01*
X156954853Y-99276426D01*
X156846680Y-99015273D01*
X156766317Y-98895000D01*
X161121928Y-98895000D01*
X161121928Y-100495000D01*
X161134188Y-100619482D01*
X161170498Y-100739180D01*
X161229463Y-100849494D01*
X161308815Y-100946185D01*
X161405506Y-101025537D01*
X161515820Y-101084502D01*
X161635518Y-101120812D01*
X161760000Y-101133072D01*
X161767215Y-101133072D01*
X161746903Y-101202298D01*
X162560000Y-102015395D01*
X163373097Y-101202298D01*
X163352785Y-101133072D01*
X163360000Y-101133072D01*
X163484482Y-101120812D01*
X163604180Y-101084502D01*
X163714494Y-101025537D01*
X163811185Y-100946185D01*
X163890537Y-100849494D01*
X163949502Y-100739180D01*
X163959870Y-100705000D01*
X165985604Y-100705000D01*
X166090241Y-100809637D01*
X166325273Y-100966680D01*
X166586426Y-101074853D01*
X166863665Y-101130000D01*
X167146335Y-101130000D01*
X167423574Y-101074853D01*
X167684727Y-100966680D01*
X167919759Y-100809637D01*
X168024396Y-100705000D01*
X169160604Y-100705000D01*
X169265241Y-100809637D01*
X169500273Y-100966680D01*
X169761426Y-101074853D01*
X170038665Y-101130000D01*
X170321335Y-101130000D01*
X170598574Y-101074853D01*
X170859727Y-100966680D01*
X171094759Y-100809637D01*
X171294637Y-100609759D01*
X171451680Y-100374727D01*
X171559853Y-100113574D01*
X171615000Y-99836335D01*
X171615000Y-99553665D01*
X173190000Y-99553665D01*
X173190000Y-99836335D01*
X173245147Y-100113574D01*
X173353320Y-100374727D01*
X173510363Y-100609759D01*
X173710241Y-100809637D01*
X173945273Y-100966680D01*
X174206426Y-101074853D01*
X174483665Y-101130000D01*
X174766335Y-101130000D01*
X175043574Y-101074853D01*
X175304727Y-100966680D01*
X175539759Y-100809637D01*
X175739637Y-100609759D01*
X175896680Y-100374727D01*
X176004853Y-100113574D01*
X176060000Y-99836335D01*
X176060000Y-99553665D01*
X176365000Y-99553665D01*
X176365000Y-99836335D01*
X176420147Y-100113574D01*
X176528320Y-100374727D01*
X176685363Y-100609759D01*
X176790001Y-100714397D01*
X176790001Y-100915383D01*
X176785114Y-100965000D01*
X176804615Y-101162994D01*
X176862368Y-101353379D01*
X176935472Y-101490147D01*
X176956154Y-101528840D01*
X177082368Y-101682633D01*
X177120901Y-101714256D01*
X178955744Y-103549100D01*
X178987367Y-103587633D01*
X179141160Y-103713847D01*
X179316620Y-103807632D01*
X179507005Y-103865385D01*
X179705000Y-103884886D01*
X179754608Y-103880000D01*
X181225604Y-103880000D01*
X181330241Y-103984637D01*
X181565273Y-104141680D01*
X181826426Y-104249853D01*
X182103665Y-104305000D01*
X182386335Y-104305000D01*
X182663574Y-104249853D01*
X182924727Y-104141680D01*
X183159759Y-103984637D01*
X183359637Y-103784759D01*
X183516680Y-103549727D01*
X183624853Y-103288574D01*
X183680000Y-103011335D01*
X183680000Y-102728665D01*
X183624853Y-102451426D01*
X183516680Y-102190273D01*
X183359637Y-101955241D01*
X183159759Y-101755363D01*
X182924727Y-101598320D01*
X182663574Y-101490147D01*
X182386335Y-101435000D01*
X182103665Y-101435000D01*
X181826426Y-101490147D01*
X181565273Y-101598320D01*
X181330241Y-101755363D01*
X181225604Y-101860000D01*
X180123356Y-101860000D01*
X178893876Y-100630520D01*
X178914637Y-100609759D01*
X179071680Y-100374727D01*
X179179853Y-100113574D01*
X179235000Y-99836335D01*
X179235000Y-99553665D01*
X179179853Y-99276426D01*
X179071680Y-99015273D01*
X178914637Y-98780241D01*
X178714759Y-98580363D01*
X178479727Y-98423320D01*
X178218574Y-98315147D01*
X177941335Y-98260000D01*
X177658665Y-98260000D01*
X177381426Y-98315147D01*
X177120273Y-98423320D01*
X176885241Y-98580363D01*
X176685363Y-98780241D01*
X176528320Y-99015273D01*
X176420147Y-99276426D01*
X176365000Y-99553665D01*
X176060000Y-99553665D01*
X176004853Y-99276426D01*
X175896680Y-99015273D01*
X175739637Y-98780241D01*
X175539759Y-98580363D01*
X175304727Y-98423320D01*
X175043574Y-98315147D01*
X174766335Y-98260000D01*
X174483665Y-98260000D01*
X174206426Y-98315147D01*
X173945273Y-98423320D01*
X173710241Y-98580363D01*
X173510363Y-98780241D01*
X173353320Y-99015273D01*
X173245147Y-99276426D01*
X173190000Y-99553665D01*
X171615000Y-99553665D01*
X171559853Y-99276426D01*
X171451680Y-99015273D01*
X171294637Y-98780241D01*
X171190000Y-98675604D01*
X171190000Y-97539396D01*
X171294637Y-97434759D01*
X171450000Y-97202241D01*
X171605363Y-97434759D01*
X171805241Y-97634637D01*
X172040273Y-97791680D01*
X172301426Y-97899853D01*
X172578665Y-97955000D01*
X172861335Y-97955000D01*
X173138574Y-97899853D01*
X173399727Y-97791680D01*
X173634759Y-97634637D01*
X173834637Y-97434759D01*
X173990000Y-97202241D01*
X174145363Y-97434759D01*
X174345241Y-97634637D01*
X174580273Y-97791680D01*
X174841426Y-97899853D01*
X175118665Y-97955000D01*
X175401335Y-97955000D01*
X175678574Y-97899853D01*
X175939727Y-97791680D01*
X176174759Y-97634637D01*
X176374637Y-97434759D01*
X176530000Y-97202241D01*
X176685363Y-97434759D01*
X176885241Y-97634637D01*
X177120273Y-97791680D01*
X177381426Y-97899853D01*
X177658665Y-97955000D01*
X177941335Y-97955000D01*
X178218574Y-97899853D01*
X178479727Y-97791680D01*
X178714759Y-97634637D01*
X178914637Y-97434759D01*
X179071680Y-97199727D01*
X179179853Y-96938574D01*
X179235000Y-96661335D01*
X179235000Y-96378665D01*
X179227044Y-96338665D01*
X179540000Y-96338665D01*
X179540000Y-96621335D01*
X179595147Y-96898574D01*
X179703320Y-97159727D01*
X179860363Y-97394759D01*
X180060241Y-97594637D01*
X180295273Y-97751680D01*
X180556426Y-97859853D01*
X180833665Y-97915000D01*
X181116335Y-97915000D01*
X181393574Y-97859853D01*
X181654727Y-97751680D01*
X181889759Y-97594637D01*
X182089637Y-97394759D01*
X182246680Y-97159727D01*
X182354853Y-96898574D01*
X182410000Y-96621335D01*
X182410000Y-96338665D01*
X182354853Y-96061426D01*
X182246680Y-95800273D01*
X182089637Y-95565241D01*
X181889759Y-95365363D01*
X181689131Y-95231308D01*
X181716514Y-95216671D01*
X181788097Y-94972702D01*
X180975000Y-94159605D01*
X180161903Y-94972702D01*
X180233486Y-95216671D01*
X180262341Y-95230324D01*
X180060241Y-95365363D01*
X179860363Y-95565241D01*
X179703320Y-95800273D01*
X179595147Y-96061426D01*
X179540000Y-96338665D01*
X179227044Y-96338665D01*
X179179853Y-96101426D01*
X179071680Y-95840273D01*
X178914637Y-95605241D01*
X178714759Y-95405363D01*
X178479727Y-95248320D01*
X178218574Y-95140147D01*
X177941335Y-95085000D01*
X177658665Y-95085000D01*
X177381426Y-95140147D01*
X177120273Y-95248320D01*
X176885241Y-95405363D01*
X176685363Y-95605241D01*
X176530000Y-95837759D01*
X176374637Y-95605241D01*
X176174759Y-95405363D01*
X175939727Y-95248320D01*
X175678574Y-95140147D01*
X175401335Y-95085000D01*
X175118665Y-95085000D01*
X174841426Y-95140147D01*
X174580273Y-95248320D01*
X174345241Y-95405363D01*
X174145363Y-95605241D01*
X173990000Y-95837759D01*
X173834637Y-95605241D01*
X173634759Y-95405363D01*
X173399727Y-95248320D01*
X173138574Y-95140147D01*
X172861335Y-95085000D01*
X172578665Y-95085000D01*
X172301426Y-95140147D01*
X172040273Y-95248320D01*
X171805241Y-95405363D01*
X171605363Y-95605241D01*
X171450000Y-95837759D01*
X171294637Y-95605241D01*
X171094759Y-95405363D01*
X170859727Y-95248320D01*
X170598574Y-95140147D01*
X170321335Y-95085000D01*
X170038665Y-95085000D01*
X169761426Y-95140147D01*
X169500273Y-95248320D01*
X169265241Y-95405363D01*
X169065363Y-95605241D01*
X168908320Y-95840273D01*
X168800147Y-96101426D01*
X168745000Y-96378665D01*
X168745000Y-96661335D01*
X168800147Y-96938574D01*
X168908320Y-97199727D01*
X169065363Y-97434759D01*
X169170000Y-97539396D01*
X169170001Y-98675603D01*
X169160604Y-98685000D01*
X168024396Y-98685000D01*
X167919759Y-98580363D01*
X167684727Y-98423320D01*
X167423574Y-98315147D01*
X167146335Y-98260000D01*
X166863665Y-98260000D01*
X166586426Y-98315147D01*
X166325273Y-98423320D01*
X166090241Y-98580363D01*
X165985604Y-98685000D01*
X163959870Y-98685000D01*
X163949502Y-98650820D01*
X163890537Y-98540506D01*
X163811185Y-98443815D01*
X163714494Y-98364463D01*
X163604180Y-98305498D01*
X163484482Y-98269188D01*
X163360000Y-98256928D01*
X161760000Y-98256928D01*
X161635518Y-98269188D01*
X161515820Y-98305498D01*
X161405506Y-98364463D01*
X161308815Y-98443815D01*
X161229463Y-98540506D01*
X161170498Y-98650820D01*
X161134188Y-98770518D01*
X161121928Y-98895000D01*
X156766317Y-98895000D01*
X156689637Y-98780241D01*
X156489759Y-98580363D01*
X156254727Y-98423320D01*
X155993574Y-98315147D01*
X155950000Y-98306479D01*
X155950000Y-97539396D01*
X156054637Y-97434759D01*
X156210000Y-97202241D01*
X156365363Y-97434759D01*
X156565241Y-97634637D01*
X156800273Y-97791680D01*
X157061426Y-97899853D01*
X157338665Y-97955000D01*
X157621335Y-97955000D01*
X157898574Y-97899853D01*
X158159727Y-97791680D01*
X158394759Y-97634637D01*
X158594637Y-97434759D01*
X158751680Y-97199727D01*
X158859853Y-96938574D01*
X158915000Y-96661335D01*
X158915000Y-96378665D01*
X158907044Y-96338665D01*
X159220000Y-96338665D01*
X159220000Y-96621335D01*
X159275147Y-96898574D01*
X159383320Y-97159727D01*
X159540363Y-97394759D01*
X159740241Y-97594637D01*
X159975273Y-97751680D01*
X160236426Y-97859853D01*
X160513665Y-97915000D01*
X160796335Y-97915000D01*
X161073574Y-97859853D01*
X161334727Y-97751680D01*
X161569759Y-97594637D01*
X161769637Y-97394759D01*
X161926680Y-97159727D01*
X162034853Y-96898574D01*
X162090000Y-96621335D01*
X162090000Y-96338665D01*
X162034853Y-96061426D01*
X161926680Y-95800273D01*
X161769637Y-95565241D01*
X161569759Y-95365363D01*
X161369131Y-95231308D01*
X161396514Y-95216671D01*
X161468097Y-94972702D01*
X160655000Y-94159605D01*
X159841903Y-94972702D01*
X159913486Y-95216671D01*
X159942341Y-95230324D01*
X159740241Y-95365363D01*
X159540363Y-95565241D01*
X159383320Y-95800273D01*
X159275147Y-96061426D01*
X159220000Y-96338665D01*
X158907044Y-96338665D01*
X158859853Y-96101426D01*
X158751680Y-95840273D01*
X158594637Y-95605241D01*
X158394759Y-95405363D01*
X158159727Y-95248320D01*
X157898574Y-95140147D01*
X157621335Y-95085000D01*
X157338665Y-95085000D01*
X157061426Y-95140147D01*
X156800273Y-95248320D01*
X156565241Y-95405363D01*
X156365363Y-95605241D01*
X156210000Y-95837759D01*
X156054637Y-95605241D01*
X155854759Y-95405363D01*
X155619727Y-95248320D01*
X155358574Y-95140147D01*
X155081335Y-95085000D01*
X154798665Y-95085000D01*
X154521426Y-95140147D01*
X154260273Y-95248320D01*
X154025241Y-95405363D01*
X153825363Y-95605241D01*
X153670000Y-95837759D01*
X153514637Y-95605241D01*
X153314759Y-95405363D01*
X153079727Y-95248320D01*
X152818574Y-95140147D01*
X152541335Y-95085000D01*
X152393355Y-95085000D01*
X151774260Y-94465905D01*
X151742632Y-94427366D01*
X151588839Y-94301152D01*
X151413379Y-94207367D01*
X151222993Y-94149614D01*
X151074607Y-94134999D01*
X151024999Y-94130113D01*
X150975391Y-94134999D01*
X149249607Y-94134999D01*
X149199999Y-94130113D01*
X149002004Y-94149614D01*
X148811619Y-94207367D01*
X148636159Y-94301152D01*
X148482366Y-94427366D01*
X148450743Y-94465899D01*
X146319999Y-96596644D01*
X146319999Y-96408356D01*
X148677843Y-94050512D01*
X159214783Y-94050512D01*
X159256213Y-94330130D01*
X159351397Y-94596292D01*
X159418329Y-94721514D01*
X159662298Y-94793097D01*
X160475395Y-93980000D01*
X160834605Y-93980000D01*
X161647702Y-94793097D01*
X161891671Y-94721514D01*
X162012571Y-94466004D01*
X162081300Y-94191816D01*
X162088265Y-94050512D01*
X179534783Y-94050512D01*
X179576213Y-94330130D01*
X179671397Y-94596292D01*
X179738329Y-94721514D01*
X179982298Y-94793097D01*
X180795395Y-93980000D01*
X181154605Y-93980000D01*
X181967702Y-94793097D01*
X182211671Y-94721514D01*
X182332571Y-94466004D01*
X182401300Y-94191816D01*
X182415217Y-93909488D01*
X182373787Y-93629870D01*
X182278603Y-93363708D01*
X182211671Y-93238486D01*
X181967702Y-93166903D01*
X181154605Y-93980000D01*
X180795395Y-93980000D01*
X179982298Y-93166903D01*
X179738329Y-93238486D01*
X179617429Y-93493996D01*
X179548700Y-93768184D01*
X179534783Y-94050512D01*
X162088265Y-94050512D01*
X162095217Y-93909488D01*
X162053787Y-93629870D01*
X161958603Y-93363708D01*
X161891671Y-93238486D01*
X161647702Y-93166903D01*
X160834605Y-93980000D01*
X160475395Y-93980000D01*
X159662298Y-93166903D01*
X159418329Y-93238486D01*
X159297429Y-93493996D01*
X159228700Y-93768184D01*
X159214783Y-94050512D01*
X148677843Y-94050512D01*
X149741057Y-92987298D01*
X159841903Y-92987298D01*
X160655000Y-93800395D01*
X161468097Y-92987298D01*
X180161903Y-92987298D01*
X180975000Y-93800395D01*
X181788097Y-92987298D01*
X181716514Y-92743329D01*
X181461004Y-92622429D01*
X181186816Y-92553700D01*
X180904488Y-92539783D01*
X180624870Y-92581213D01*
X180358708Y-92676397D01*
X180233486Y-92743329D01*
X180161903Y-92987298D01*
X161468097Y-92987298D01*
X161396514Y-92743329D01*
X161141004Y-92622429D01*
X160866816Y-92553700D01*
X160584488Y-92539783D01*
X160304870Y-92581213D01*
X160038708Y-92676397D01*
X159913486Y-92743329D01*
X159841903Y-92987298D01*
X149741057Y-92987298D01*
X150295653Y-92432702D01*
X166191903Y-92432702D01*
X166263486Y-92676671D01*
X166518996Y-92797571D01*
X166793184Y-92866300D01*
X167075512Y-92880217D01*
X167355130Y-92838787D01*
X167621292Y-92743603D01*
X167746514Y-92676671D01*
X167818097Y-92432702D01*
X167005000Y-91619605D01*
X166191903Y-92432702D01*
X150295653Y-92432702D01*
X151217843Y-91510512D01*
X165564783Y-91510512D01*
X165606213Y-91790130D01*
X165701397Y-92056292D01*
X165768329Y-92181514D01*
X166012298Y-92253097D01*
X166825395Y-91440000D01*
X167184605Y-91440000D01*
X167997702Y-92253097D01*
X168241671Y-92181514D01*
X168362571Y-91926004D01*
X168431300Y-91651816D01*
X168445217Y-91369488D01*
X168403787Y-91089870D01*
X168308603Y-90823708D01*
X168241671Y-90698486D01*
X167997702Y-90626903D01*
X167184605Y-91440000D01*
X166825395Y-91440000D01*
X166012298Y-90626903D01*
X165768329Y-90698486D01*
X165647429Y-90953996D01*
X165578700Y-91228184D01*
X165564783Y-91510512D01*
X151217843Y-91510512D01*
X152393356Y-90335000D01*
X152541335Y-90335000D01*
X152818574Y-90279853D01*
X153079727Y-90171680D01*
X153314759Y-90014637D01*
X153514637Y-89814759D01*
X153670000Y-89582241D01*
X153825363Y-89814759D01*
X154025241Y-90014637D01*
X154260273Y-90171680D01*
X154521426Y-90279853D01*
X154798665Y-90335000D01*
X155081335Y-90335000D01*
X155358574Y-90279853D01*
X155619727Y-90171680D01*
X155854759Y-90014637D01*
X156053357Y-89816039D01*
X156054188Y-89824482D01*
X156090498Y-89944180D01*
X156149463Y-90054494D01*
X156228815Y-90151185D01*
X156325506Y-90230537D01*
X156435820Y-90289502D01*
X156555518Y-90325812D01*
X156680000Y-90338072D01*
X158280000Y-90338072D01*
X158404482Y-90325812D01*
X158524180Y-90289502D01*
X158634494Y-90230537D01*
X158731185Y-90151185D01*
X158810537Y-90054494D01*
X158869502Y-89944180D01*
X158905812Y-89824482D01*
X158918072Y-89700000D01*
X158918072Y-88890283D01*
X159009690Y-88798665D01*
X165570000Y-88798665D01*
X165570000Y-89081335D01*
X165625147Y-89358574D01*
X165733320Y-89619727D01*
X165890363Y-89854759D01*
X166090241Y-90054637D01*
X166290869Y-90188692D01*
X166263486Y-90203329D01*
X166191903Y-90447298D01*
X167005000Y-91260395D01*
X167818097Y-90447298D01*
X167746514Y-90203329D01*
X167717659Y-90189676D01*
X167919759Y-90054637D01*
X168119637Y-89854759D01*
X168276680Y-89619727D01*
X168384853Y-89358574D01*
X168440000Y-89081335D01*
X168440000Y-88798665D01*
X168432044Y-88758665D01*
X168745000Y-88758665D01*
X168745000Y-89041335D01*
X168800147Y-89318574D01*
X168908320Y-89579727D01*
X169065363Y-89814759D01*
X169265241Y-90014637D01*
X169500273Y-90171680D01*
X169761426Y-90279853D01*
X170038665Y-90335000D01*
X170321335Y-90335000D01*
X170598574Y-90279853D01*
X170859727Y-90171680D01*
X171094759Y-90014637D01*
X171294637Y-89814759D01*
X171451680Y-89579727D01*
X171456067Y-89569135D01*
X171567615Y-89755131D01*
X171756586Y-89963519D01*
X171982580Y-90131037D01*
X172236913Y-90251246D01*
X172370961Y-90291904D01*
X172593000Y-90169915D01*
X172593000Y-89027000D01*
X172573000Y-89027000D01*
X172573000Y-88773000D01*
X172593000Y-88773000D01*
X172593000Y-87630085D01*
X172847000Y-87630085D01*
X172847000Y-88773000D01*
X172867000Y-88773000D01*
X172867000Y-89027000D01*
X172847000Y-89027000D01*
X172847000Y-90169915D01*
X173069039Y-90291904D01*
X173203087Y-90251246D01*
X173457420Y-90131037D01*
X173683414Y-89963519D01*
X173872385Y-89755131D01*
X173983933Y-89569135D01*
X173988320Y-89579727D01*
X174145363Y-89814759D01*
X174345241Y-90014637D01*
X174580273Y-90171680D01*
X174841426Y-90279853D01*
X175118665Y-90335000D01*
X175401335Y-90335000D01*
X175678574Y-90279853D01*
X175939727Y-90171680D01*
X176174759Y-90014637D01*
X176279396Y-89910000D01*
X176400130Y-89910000D01*
X176410498Y-89944180D01*
X176469463Y-90054494D01*
X176548815Y-90151185D01*
X176645506Y-90230537D01*
X176755820Y-90289502D01*
X176875518Y-90325812D01*
X177000000Y-90338072D01*
X178600000Y-90338072D01*
X178724482Y-90325812D01*
X178844180Y-90289502D01*
X178954494Y-90230537D01*
X179051185Y-90151185D01*
X179130537Y-90054494D01*
X179189502Y-89944180D01*
X179205117Y-89892702D01*
X181471903Y-89892702D01*
X181543486Y-90136671D01*
X181798996Y-90257571D01*
X182073184Y-90326300D01*
X182355512Y-90340217D01*
X182635130Y-90298787D01*
X182901292Y-90203603D01*
X183026514Y-90136671D01*
X183098097Y-89892702D01*
X182285000Y-89079605D01*
X181471903Y-89892702D01*
X179205117Y-89892702D01*
X179225812Y-89824482D01*
X179238072Y-89700000D01*
X179238072Y-88970512D01*
X180844783Y-88970512D01*
X180886213Y-89250130D01*
X180981397Y-89516292D01*
X181048329Y-89641514D01*
X181292298Y-89713097D01*
X182105395Y-88900000D01*
X182464605Y-88900000D01*
X183277702Y-89713097D01*
X183346928Y-89692785D01*
X183346928Y-89700000D01*
X183359188Y-89824482D01*
X183395498Y-89944180D01*
X183454463Y-90054494D01*
X183533815Y-90151185D01*
X183630506Y-90230537D01*
X183740820Y-90289502D01*
X183860518Y-90325812D01*
X183985000Y-90338072D01*
X185585000Y-90338072D01*
X185709482Y-90325812D01*
X185829180Y-90289502D01*
X185939494Y-90230537D01*
X186036185Y-90151185D01*
X186115537Y-90054494D01*
X186174502Y-89944180D01*
X186210812Y-89824482D01*
X186223072Y-89700000D01*
X186223072Y-88100000D01*
X186210812Y-87975518D01*
X186174502Y-87855820D01*
X186115537Y-87745506D01*
X186036185Y-87648815D01*
X185939494Y-87569463D01*
X185829180Y-87510498D01*
X185709482Y-87474188D01*
X185585000Y-87461928D01*
X183985000Y-87461928D01*
X183860518Y-87474188D01*
X183740820Y-87510498D01*
X183630506Y-87569463D01*
X183533815Y-87648815D01*
X183454463Y-87745506D01*
X183395498Y-87855820D01*
X183359188Y-87975518D01*
X183346928Y-88100000D01*
X183346928Y-88107215D01*
X183277702Y-88086903D01*
X182464605Y-88900000D01*
X182105395Y-88900000D01*
X181292298Y-88086903D01*
X181048329Y-88158486D01*
X180927429Y-88413996D01*
X180858700Y-88688184D01*
X180844783Y-88970512D01*
X179238072Y-88970512D01*
X179238072Y-88100000D01*
X179225812Y-87975518D01*
X179205118Y-87907298D01*
X181471903Y-87907298D01*
X182285000Y-88720395D01*
X183098097Y-87907298D01*
X183026514Y-87663329D01*
X182771004Y-87542429D01*
X182496816Y-87473700D01*
X182214488Y-87459783D01*
X181934870Y-87501213D01*
X181668708Y-87596397D01*
X181543486Y-87663329D01*
X181471903Y-87907298D01*
X179205118Y-87907298D01*
X179189502Y-87855820D01*
X179130537Y-87745506D01*
X179051185Y-87648815D01*
X178954494Y-87569463D01*
X178844180Y-87510498D01*
X178724482Y-87474188D01*
X178600000Y-87461928D01*
X177000000Y-87461928D01*
X176875518Y-87474188D01*
X176755820Y-87510498D01*
X176645506Y-87569463D01*
X176548815Y-87648815D01*
X176469463Y-87745506D01*
X176410498Y-87855820D01*
X176400130Y-87890000D01*
X176279396Y-87890000D01*
X176174759Y-87785363D01*
X175939727Y-87628320D01*
X175678574Y-87520147D01*
X175401335Y-87465000D01*
X175118665Y-87465000D01*
X174841426Y-87520147D01*
X174580273Y-87628320D01*
X174345241Y-87785363D01*
X174145363Y-87985241D01*
X173988320Y-88220273D01*
X173983933Y-88230865D01*
X173872385Y-88044869D01*
X173683414Y-87836481D01*
X173457420Y-87668963D01*
X173203087Y-87548754D01*
X173069039Y-87508096D01*
X172847000Y-87630085D01*
X172593000Y-87630085D01*
X172370961Y-87508096D01*
X172236913Y-87548754D01*
X171982580Y-87668963D01*
X171756586Y-87836481D01*
X171567615Y-88044869D01*
X171456067Y-88230865D01*
X171451680Y-88220273D01*
X171294637Y-87985241D01*
X171094759Y-87785363D01*
X170859727Y-87628320D01*
X170598574Y-87520147D01*
X170321335Y-87465000D01*
X170038665Y-87465000D01*
X169761426Y-87520147D01*
X169500273Y-87628320D01*
X169265241Y-87785363D01*
X169065363Y-87985241D01*
X168908320Y-88220273D01*
X168800147Y-88481426D01*
X168745000Y-88758665D01*
X168432044Y-88758665D01*
X168384853Y-88521426D01*
X168276680Y-88260273D01*
X168119637Y-88025241D01*
X167919759Y-87825363D01*
X167684727Y-87668320D01*
X167423574Y-87560147D01*
X167146335Y-87505000D01*
X166863665Y-87505000D01*
X166586426Y-87560147D01*
X166325273Y-87668320D01*
X166090241Y-87825363D01*
X165890363Y-88025241D01*
X165733320Y-88260273D01*
X165625147Y-88521426D01*
X165570000Y-88798665D01*
X159009690Y-88798665D01*
X159534095Y-88274260D01*
X159572634Y-88242632D01*
X159698848Y-88088839D01*
X159792633Y-87913379D01*
X159850386Y-87722993D01*
X159865001Y-87574607D01*
X159865001Y-87574605D01*
X159869887Y-87525000D01*
X159865001Y-87475395D01*
X159865001Y-83974605D01*
X159869887Y-83925000D01*
X159865001Y-83875393D01*
X159850386Y-83727007D01*
X159792633Y-83536621D01*
X159698848Y-83361161D01*
X159572634Y-83207368D01*
X159534095Y-83175740D01*
X158915000Y-82556645D01*
X158915000Y-82408665D01*
X158859853Y-82131426D01*
X158751680Y-81870273D01*
X158594637Y-81635241D01*
X158394759Y-81435363D01*
X158159727Y-81278320D01*
X157898574Y-81170147D01*
X157621335Y-81115000D01*
X157473356Y-81115000D01*
X157320855Y-80962500D01*
X157473355Y-80810000D01*
X157621335Y-80810000D01*
X157898574Y-80754853D01*
X158159727Y-80646680D01*
X158394759Y-80489637D01*
X158594637Y-80289759D01*
X158751680Y-80054727D01*
X158859853Y-79793574D01*
X158915000Y-79516335D01*
X158915000Y-79233665D01*
X158859853Y-78956426D01*
X158751680Y-78695273D01*
X158594637Y-78460241D01*
X158394759Y-78260363D01*
X158159727Y-78103320D01*
X157898574Y-77995147D01*
X157872699Y-77990000D01*
X163611928Y-77990000D01*
X163611928Y-79490000D01*
X163628992Y-79663254D01*
X163679528Y-79829850D01*
X163761595Y-79983386D01*
X163872038Y-80117962D01*
X164006614Y-80228405D01*
X164160150Y-80310472D01*
X164326746Y-80361008D01*
X164500000Y-80378072D01*
X165700000Y-80378072D01*
X165873254Y-80361008D01*
X166039850Y-80310472D01*
X166193386Y-80228405D01*
X166327962Y-80117962D01*
X166438405Y-79983386D01*
X166492914Y-79881407D01*
X166493198Y-79881795D01*
X166707954Y-80078664D01*
X166956991Y-80229854D01*
X167230739Y-80329554D01*
X167243110Y-80331476D01*
X167473000Y-80210155D01*
X167473000Y-78867000D01*
X167727000Y-78867000D01*
X167727000Y-80210155D01*
X167956890Y-80331476D01*
X167969261Y-80329554D01*
X168243009Y-80229854D01*
X168492046Y-80078664D01*
X168706802Y-79881795D01*
X168879025Y-79646812D01*
X169002096Y-79382745D01*
X169071285Y-79099742D01*
X168927232Y-78867000D01*
X167727000Y-78867000D01*
X167473000Y-78867000D01*
X167453000Y-78867000D01*
X167453000Y-78613000D01*
X167473000Y-78613000D01*
X167473000Y-77269845D01*
X167727000Y-77269845D01*
X167727000Y-78613000D01*
X168927232Y-78613000D01*
X169071285Y-78380258D01*
X169002096Y-78097255D01*
X168879025Y-77833188D01*
X168706802Y-77598205D01*
X168492046Y-77401336D01*
X168243009Y-77250146D01*
X167969261Y-77150446D01*
X167956890Y-77148524D01*
X167727000Y-77269845D01*
X167473000Y-77269845D01*
X167243110Y-77148524D01*
X167230739Y-77150446D01*
X166956991Y-77250146D01*
X166707954Y-77401336D01*
X166493198Y-77598205D01*
X166492914Y-77598593D01*
X166438405Y-77496614D01*
X166327962Y-77362038D01*
X166193386Y-77251595D01*
X166039850Y-77169528D01*
X165873254Y-77118992D01*
X165700000Y-77101928D01*
X164500000Y-77101928D01*
X164326746Y-77118992D01*
X164160150Y-77169528D01*
X164006614Y-77251595D01*
X163872038Y-77362038D01*
X163761595Y-77496614D01*
X163679528Y-77650150D01*
X163628992Y-77816746D01*
X163611928Y-77990000D01*
X157872699Y-77990000D01*
X157621335Y-77940000D01*
X157338665Y-77940000D01*
X157061426Y-77995147D01*
X156800273Y-78103320D01*
X156565241Y-78260363D01*
X156365363Y-78460241D01*
X156208320Y-78695273D01*
X156100147Y-78956426D01*
X156045000Y-79233665D01*
X156045000Y-79381645D01*
X155690496Y-79736149D01*
X155680001Y-79735115D01*
X155630393Y-79740001D01*
X151250509Y-79740001D01*
X151295000Y-79516335D01*
X151295000Y-79233665D01*
X151239853Y-78956426D01*
X151131680Y-78695273D01*
X150974637Y-78460241D01*
X150774759Y-78260363D01*
X150539727Y-78103320D01*
X150278574Y-77995147D01*
X150001335Y-77940000D01*
X149853356Y-77940000D01*
X148704261Y-76790906D01*
X148672633Y-76752367D01*
X148518840Y-76626153D01*
X148343380Y-76532368D01*
X148152994Y-76474615D01*
X148004608Y-76460000D01*
X147955000Y-76455114D01*
X147905392Y-76460000D01*
X141654608Y-76460000D01*
X141605000Y-76455114D01*
X141407005Y-76474615D01*
X141216620Y-76532368D01*
X141041160Y-76626153D01*
X140970000Y-76684552D01*
X140898840Y-76626153D01*
X140723380Y-76532368D01*
X140532994Y-76474615D01*
X140384608Y-76460000D01*
X140335000Y-76455114D01*
X140285392Y-76460000D01*
X132129608Y-76460000D01*
X132080000Y-76455114D01*
X131882005Y-76474615D01*
X131691620Y-76532368D01*
X131516160Y-76626153D01*
X131445000Y-76684552D01*
X131373840Y-76626153D01*
X131198380Y-76532368D01*
X131007994Y-76474615D01*
X130859608Y-76460000D01*
X130810000Y-76455114D01*
X130760392Y-76460000D01*
X122604608Y-76460000D01*
X122555000Y-76455114D01*
X122357005Y-76474615D01*
X122166620Y-76532368D01*
X121991160Y-76626153D01*
X121837367Y-76752367D01*
X121805739Y-76790906D01*
X121240906Y-77355739D01*
X121202367Y-77387367D01*
X121076153Y-77541160D01*
X121008359Y-77667995D01*
X120982368Y-77716621D01*
X120950970Y-77820125D01*
X120826614Y-77886595D01*
X120692038Y-77997038D01*
X120581595Y-78131614D01*
X120499528Y-78285150D01*
X120448992Y-78451746D01*
X120431928Y-78625000D01*
X112445000Y-78625000D01*
X112445000Y-74906689D01*
X112563962Y-75084729D01*
X112875271Y-75396038D01*
X113241331Y-75640631D01*
X113648075Y-75809110D01*
X114079872Y-75895000D01*
X114520128Y-75895000D01*
X114951925Y-75809110D01*
X115358669Y-75640631D01*
X115724729Y-75396038D01*
X116036038Y-75084729D01*
X116280631Y-74718669D01*
X116449110Y-74311925D01*
X116535000Y-73880128D01*
X116535000Y-73439872D01*
X116449110Y-73008075D01*
X116280631Y-72601331D01*
X116036038Y-72235271D01*
X115724729Y-71923962D01*
X115546689Y-71805000D01*
X189253311Y-71805000D01*
X189075271Y-71923962D01*
G04 #@! TD*
M02*
