G04 #@! TF.GenerationSoftware,KiCad,Pcbnew,(5.1.6)-1*
G04 #@! TF.CreationDate,2020-10-22T15:24:49+09:00*
G04 #@! TF.ProjectId,SawVCO,53617756-434f-42e6-9b69-6361645f7063,Ver. 1.0*
G04 #@! TF.SameCoordinates,Original*
G04 #@! TF.FileFunction,Legend,Top*
G04 #@! TF.FilePolarity,Positive*
%FSLAX46Y46*%
G04 Gerber Fmt 4.6, Leading zero omitted, Abs format (unit mm)*
G04 Created by KiCad (PCBNEW (5.1.6)-1) date 2020-10-22 15:24:49*
%MOMM*%
%LPD*%
G01*
G04 APERTURE LIST*
%ADD10C,0.150000*%
%ADD11C,0.200000*%
%ADD12C,0.120000*%
%ADD13C,0.010000*%
G04 APERTURE END LIST*
D10*
X163814285Y-75001428D02*
X164576190Y-75001428D01*
X164195238Y-75382380D02*
X164195238Y-74620476D01*
X165528571Y-74382380D02*
X165052380Y-74382380D01*
X165004761Y-74858571D01*
X165052380Y-74810952D01*
X165147619Y-74763333D01*
X165385714Y-74763333D01*
X165480952Y-74810952D01*
X165528571Y-74858571D01*
X165576190Y-74953809D01*
X165576190Y-75191904D01*
X165528571Y-75287142D01*
X165480952Y-75334761D01*
X165385714Y-75382380D01*
X165147619Y-75382380D01*
X165052380Y-75334761D01*
X165004761Y-75287142D01*
X165861904Y-74382380D02*
X166195238Y-75382380D01*
X166528571Y-74382380D01*
X167901904Y-74430000D02*
X167806666Y-74382380D01*
X167663809Y-74382380D01*
X167520952Y-74430000D01*
X167425714Y-74525238D01*
X167378095Y-74620476D01*
X167330476Y-74810952D01*
X167330476Y-74953809D01*
X167378095Y-75144285D01*
X167425714Y-75239523D01*
X167520952Y-75334761D01*
X167663809Y-75382380D01*
X167759047Y-75382380D01*
X167901904Y-75334761D01*
X167949523Y-75287142D01*
X167949523Y-74953809D01*
X167759047Y-74953809D01*
X114673095Y-115387380D02*
X114673095Y-114387380D01*
X115244523Y-115387380D02*
X114815952Y-114815952D01*
X115244523Y-114387380D02*
X114673095Y-114958809D01*
X117848095Y-89987380D02*
X117848095Y-88987380D01*
X118419523Y-89987380D02*
X117990952Y-89415952D01*
X118419523Y-88987380D02*
X117848095Y-89558809D01*
X179966904Y-113800000D02*
X179871666Y-113752380D01*
X179728809Y-113752380D01*
X179585952Y-113800000D01*
X179490714Y-113895238D01*
X179443095Y-113990476D01*
X179395476Y-114180952D01*
X179395476Y-114323809D01*
X179443095Y-114514285D01*
X179490714Y-114609523D01*
X179585952Y-114704761D01*
X179728809Y-114752380D01*
X179824047Y-114752380D01*
X179966904Y-114704761D01*
X180014523Y-114657142D01*
X180014523Y-114323809D01*
X179824047Y-114323809D01*
X170441904Y-113800000D02*
X170346666Y-113752380D01*
X170203809Y-113752380D01*
X170060952Y-113800000D01*
X169965714Y-113895238D01*
X169918095Y-113990476D01*
X169870476Y-114180952D01*
X169870476Y-114323809D01*
X169918095Y-114514285D01*
X169965714Y-114609523D01*
X170060952Y-114704761D01*
X170203809Y-114752380D01*
X170299047Y-114752380D01*
X170441904Y-114704761D01*
X170489523Y-114657142D01*
X170489523Y-114323809D01*
X170299047Y-114323809D01*
X140596904Y-113800000D02*
X140501666Y-113752380D01*
X140358809Y-113752380D01*
X140215952Y-113800000D01*
X140120714Y-113895238D01*
X140073095Y-113990476D01*
X140025476Y-114180952D01*
X140025476Y-114323809D01*
X140073095Y-114514285D01*
X140120714Y-114609523D01*
X140215952Y-114704761D01*
X140358809Y-114752380D01*
X140454047Y-114752380D01*
X140596904Y-114704761D01*
X140644523Y-114657142D01*
X140644523Y-114323809D01*
X140454047Y-114323809D01*
X131071904Y-113800000D02*
X130976666Y-113752380D01*
X130833809Y-113752380D01*
X130690952Y-113800000D01*
X130595714Y-113895238D01*
X130548095Y-113990476D01*
X130500476Y-114180952D01*
X130500476Y-114323809D01*
X130548095Y-114514285D01*
X130595714Y-114609523D01*
X130690952Y-114704761D01*
X130833809Y-114752380D01*
X130929047Y-114752380D01*
X131071904Y-114704761D01*
X131119523Y-114657142D01*
X131119523Y-114323809D01*
X130929047Y-114323809D01*
X143771904Y-73160000D02*
X143676666Y-73112380D01*
X143533809Y-73112380D01*
X143390952Y-73160000D01*
X143295714Y-73255238D01*
X143248095Y-73350476D01*
X143200476Y-73540952D01*
X143200476Y-73683809D01*
X143248095Y-73874285D01*
X143295714Y-73969523D01*
X143390952Y-74064761D01*
X143533809Y-74112380D01*
X143629047Y-74112380D01*
X143771904Y-74064761D01*
X143819523Y-74017142D01*
X143819523Y-73683809D01*
X143629047Y-73683809D01*
X134246904Y-73160000D02*
X134151666Y-73112380D01*
X134008809Y-73112380D01*
X133865952Y-73160000D01*
X133770714Y-73255238D01*
X133723095Y-73350476D01*
X133675476Y-73540952D01*
X133675476Y-73683809D01*
X133723095Y-73874285D01*
X133770714Y-73969523D01*
X133865952Y-74064761D01*
X134008809Y-74112380D01*
X134104047Y-74112380D01*
X134246904Y-74064761D01*
X134294523Y-74017142D01*
X134294523Y-73683809D01*
X134104047Y-73683809D01*
X124721904Y-73160000D02*
X124626666Y-73112380D01*
X124483809Y-73112380D01*
X124340952Y-73160000D01*
X124245714Y-73255238D01*
X124198095Y-73350476D01*
X124150476Y-73540952D01*
X124150476Y-73683809D01*
X124198095Y-73874285D01*
X124245714Y-73969523D01*
X124340952Y-74064761D01*
X124483809Y-74112380D01*
X124579047Y-74112380D01*
X124721904Y-74064761D01*
X124769523Y-74017142D01*
X124769523Y-73683809D01*
X124579047Y-73683809D01*
X179141666Y-123642380D02*
X178665476Y-123642380D01*
X178665476Y-122642380D01*
X179475000Y-123642380D02*
X179475000Y-122642380D01*
X179951190Y-123642380D02*
X179951190Y-122642380D01*
X180522619Y-123642380D01*
X180522619Y-122642380D01*
X180760714Y-123737619D02*
X181522619Y-123737619D01*
X182094047Y-123118571D02*
X181760714Y-123118571D01*
X181760714Y-123642380D02*
X181760714Y-122642380D01*
X182236904Y-122642380D01*
X182617857Y-123642380D02*
X182617857Y-122642380D01*
X182951190Y-123356666D01*
X183284523Y-122642380D01*
X183284523Y-123642380D01*
X169688095Y-123642380D02*
X169688095Y-122642380D01*
X169926190Y-123737619D02*
X170688095Y-123737619D01*
X171497619Y-123642380D02*
X171164285Y-123166190D01*
X170926190Y-123642380D02*
X170926190Y-122642380D01*
X171307142Y-122642380D01*
X171402380Y-122690000D01*
X171450000Y-122737619D01*
X171497619Y-122832857D01*
X171497619Y-122975714D01*
X171450000Y-123070952D01*
X171402380Y-123118571D01*
X171307142Y-123166190D01*
X170926190Y-123166190D01*
X171926190Y-123118571D02*
X172259523Y-123118571D01*
X172402380Y-123642380D02*
X171926190Y-123642380D01*
X171926190Y-122642380D01*
X172402380Y-122642380D01*
X173164285Y-123118571D02*
X172830952Y-123118571D01*
X172830952Y-123642380D02*
X172830952Y-122642380D01*
X173307142Y-122642380D01*
X139485952Y-123642380D02*
X139485952Y-122642380D01*
X139724047Y-123737619D02*
X140485952Y-123737619D01*
X140676428Y-123594761D02*
X140819285Y-123642380D01*
X141057380Y-123642380D01*
X141152619Y-123594761D01*
X141200238Y-123547142D01*
X141247857Y-123451904D01*
X141247857Y-123356666D01*
X141200238Y-123261428D01*
X141152619Y-123213809D01*
X141057380Y-123166190D01*
X140866904Y-123118571D01*
X140771666Y-123070952D01*
X140724047Y-123023333D01*
X140676428Y-122928095D01*
X140676428Y-122832857D01*
X140724047Y-122737619D01*
X140771666Y-122690000D01*
X140866904Y-122642380D01*
X141105000Y-122642380D01*
X141247857Y-122690000D01*
X141676428Y-123642380D02*
X141676428Y-122642380D01*
X142152619Y-123642380D02*
X142152619Y-122642380D01*
X142724047Y-123642380D01*
X142724047Y-122642380D01*
X143200238Y-123642380D02*
X143200238Y-122642380D01*
X143771666Y-123642380D02*
X143343095Y-123070952D01*
X143771666Y-122642380D02*
X143200238Y-123213809D01*
X129199047Y-123594761D02*
X129341904Y-123642380D01*
X129580000Y-123642380D01*
X129675238Y-123594761D01*
X129722857Y-123547142D01*
X129770476Y-123451904D01*
X129770476Y-123356666D01*
X129722857Y-123261428D01*
X129675238Y-123213809D01*
X129580000Y-123166190D01*
X129389523Y-123118571D01*
X129294285Y-123070952D01*
X129246666Y-123023333D01*
X129199047Y-122928095D01*
X129199047Y-122832857D01*
X129246666Y-122737619D01*
X129294285Y-122690000D01*
X129389523Y-122642380D01*
X129627619Y-122642380D01*
X129770476Y-122690000D01*
X130389523Y-123166190D02*
X130389523Y-123642380D01*
X130056190Y-122642380D02*
X130389523Y-123166190D01*
X130722857Y-122642380D01*
X131056190Y-123642380D02*
X131056190Y-122642380D01*
X131627619Y-123642380D01*
X131627619Y-122642380D01*
X132675238Y-123547142D02*
X132627619Y-123594761D01*
X132484761Y-123642380D01*
X132389523Y-123642380D01*
X132246666Y-123594761D01*
X132151428Y-123499523D01*
X132103809Y-123404285D01*
X132056190Y-123213809D01*
X132056190Y-123070952D01*
X132103809Y-122880476D01*
X132151428Y-122785238D01*
X132246666Y-122690000D01*
X132389523Y-122642380D01*
X132484761Y-122642380D01*
X132627619Y-122690000D01*
X132675238Y-122737619D01*
X132865714Y-123737619D02*
X133627619Y-123737619D01*
X133865714Y-123642380D02*
X133865714Y-122642380D01*
X134341904Y-123642380D02*
X134341904Y-122642380D01*
X134913333Y-123642380D01*
X134913333Y-122642380D01*
X121158095Y-122055000D02*
X121062857Y-122007380D01*
X120920000Y-122007380D01*
X120777142Y-122055000D01*
X120681904Y-122150238D01*
X120634285Y-122245476D01*
X120586666Y-122435952D01*
X120586666Y-122578809D01*
X120634285Y-122769285D01*
X120681904Y-122864523D01*
X120777142Y-122959761D01*
X120920000Y-123007380D01*
X121015238Y-123007380D01*
X121158095Y-122959761D01*
X121205714Y-122912142D01*
X121205714Y-122578809D01*
X121015238Y-122578809D01*
X121634285Y-123007380D02*
X121634285Y-122007380D01*
X122205714Y-123007380D01*
X122205714Y-122007380D01*
X122681904Y-123007380D02*
X122681904Y-122007380D01*
X122920000Y-122007380D01*
X123062857Y-122055000D01*
X123158095Y-122150238D01*
X123205714Y-122245476D01*
X123253333Y-122435952D01*
X123253333Y-122578809D01*
X123205714Y-122769285D01*
X123158095Y-122864523D01*
X123062857Y-122959761D01*
X122920000Y-123007380D01*
X122681904Y-123007380D01*
X139144761Y-75969761D02*
X139287619Y-76017380D01*
X139525714Y-76017380D01*
X139620952Y-75969761D01*
X139668571Y-75922142D01*
X139716190Y-75826904D01*
X139716190Y-75731666D01*
X139668571Y-75636428D01*
X139620952Y-75588809D01*
X139525714Y-75541190D01*
X139335238Y-75493571D01*
X139240000Y-75445952D01*
X139192380Y-75398333D01*
X139144761Y-75303095D01*
X139144761Y-75207857D01*
X139192380Y-75112619D01*
X139240000Y-75065000D01*
X139335238Y-75017380D01*
X139573333Y-75017380D01*
X139716190Y-75065000D01*
X140097142Y-75731666D02*
X140573333Y-75731666D01*
X140001904Y-76017380D02*
X140335238Y-75017380D01*
X140668571Y-76017380D01*
X140906666Y-75017380D02*
X141144761Y-76017380D01*
X141335238Y-75303095D01*
X141525714Y-76017380D01*
X141763809Y-75017380D01*
X141906666Y-76112619D02*
X142668571Y-76112619D01*
X143097142Y-75017380D02*
X143287619Y-75017380D01*
X143382857Y-75065000D01*
X143478095Y-75160238D01*
X143525714Y-75350714D01*
X143525714Y-75684047D01*
X143478095Y-75874523D01*
X143382857Y-75969761D01*
X143287619Y-76017380D01*
X143097142Y-76017380D01*
X143001904Y-75969761D01*
X142906666Y-75874523D01*
X142859047Y-75684047D01*
X142859047Y-75350714D01*
X142906666Y-75160238D01*
X143001904Y-75065000D01*
X143097142Y-75017380D01*
X143954285Y-75017380D02*
X143954285Y-75826904D01*
X144001904Y-75922142D01*
X144049523Y-75969761D01*
X144144761Y-76017380D01*
X144335238Y-76017380D01*
X144430476Y-75969761D01*
X144478095Y-75922142D01*
X144525714Y-75826904D01*
X144525714Y-75017380D01*
X144859047Y-75017380D02*
X145430476Y-75017380D01*
X145144761Y-76017380D02*
X145144761Y-75017380D01*
X120094761Y-75969761D02*
X120237619Y-76017380D01*
X120475714Y-76017380D01*
X120570952Y-75969761D01*
X120618571Y-75922142D01*
X120666190Y-75826904D01*
X120666190Y-75731666D01*
X120618571Y-75636428D01*
X120570952Y-75588809D01*
X120475714Y-75541190D01*
X120285238Y-75493571D01*
X120190000Y-75445952D01*
X120142380Y-75398333D01*
X120094761Y-75303095D01*
X120094761Y-75207857D01*
X120142380Y-75112619D01*
X120190000Y-75065000D01*
X120285238Y-75017380D01*
X120523333Y-75017380D01*
X120666190Y-75065000D01*
X121047142Y-75731666D02*
X121523333Y-75731666D01*
X120951904Y-76017380D02*
X121285238Y-75017380D01*
X121618571Y-76017380D01*
X121856666Y-75017380D02*
X122094761Y-76017380D01*
X122285238Y-75303095D01*
X122475714Y-76017380D01*
X122713809Y-75017380D01*
X122856666Y-76112619D02*
X123618571Y-76112619D01*
X124047142Y-75017380D02*
X124237619Y-75017380D01*
X124332857Y-75065000D01*
X124428095Y-75160238D01*
X124475714Y-75350714D01*
X124475714Y-75684047D01*
X124428095Y-75874523D01*
X124332857Y-75969761D01*
X124237619Y-76017380D01*
X124047142Y-76017380D01*
X123951904Y-75969761D01*
X123856666Y-75874523D01*
X123809047Y-75684047D01*
X123809047Y-75350714D01*
X123856666Y-75160238D01*
X123951904Y-75065000D01*
X124047142Y-75017380D01*
X124904285Y-75017380D02*
X124904285Y-75826904D01*
X124951904Y-75922142D01*
X124999523Y-75969761D01*
X125094761Y-76017380D01*
X125285238Y-76017380D01*
X125380476Y-75969761D01*
X125428095Y-75922142D01*
X125475714Y-75826904D01*
X125475714Y-75017380D01*
X125809047Y-75017380D02*
X126380476Y-75017380D01*
X126094761Y-76017380D02*
X126094761Y-75017380D01*
X129619761Y-75969761D02*
X129762619Y-76017380D01*
X130000714Y-76017380D01*
X130095952Y-75969761D01*
X130143571Y-75922142D01*
X130191190Y-75826904D01*
X130191190Y-75731666D01*
X130143571Y-75636428D01*
X130095952Y-75588809D01*
X130000714Y-75541190D01*
X129810238Y-75493571D01*
X129715000Y-75445952D01*
X129667380Y-75398333D01*
X129619761Y-75303095D01*
X129619761Y-75207857D01*
X129667380Y-75112619D01*
X129715000Y-75065000D01*
X129810238Y-75017380D01*
X130048333Y-75017380D01*
X130191190Y-75065000D01*
X130572142Y-75731666D02*
X131048333Y-75731666D01*
X130476904Y-76017380D02*
X130810238Y-75017380D01*
X131143571Y-76017380D01*
X131381666Y-75017380D02*
X131619761Y-76017380D01*
X131810238Y-75303095D01*
X132000714Y-76017380D01*
X132238809Y-75017380D01*
X132381666Y-76112619D02*
X133143571Y-76112619D01*
X133572142Y-75017380D02*
X133762619Y-75017380D01*
X133857857Y-75065000D01*
X133953095Y-75160238D01*
X134000714Y-75350714D01*
X134000714Y-75684047D01*
X133953095Y-75874523D01*
X133857857Y-75969761D01*
X133762619Y-76017380D01*
X133572142Y-76017380D01*
X133476904Y-75969761D01*
X133381666Y-75874523D01*
X133334047Y-75684047D01*
X133334047Y-75350714D01*
X133381666Y-75160238D01*
X133476904Y-75065000D01*
X133572142Y-75017380D01*
X134429285Y-75017380D02*
X134429285Y-75826904D01*
X134476904Y-75922142D01*
X134524523Y-75969761D01*
X134619761Y-76017380D01*
X134810238Y-76017380D01*
X134905476Y-75969761D01*
X134953095Y-75922142D01*
X135000714Y-75826904D01*
X135000714Y-75017380D01*
X135334047Y-75017380D02*
X135905476Y-75017380D01*
X135619761Y-76017380D02*
X135619761Y-75017380D01*
X129551904Y-98470000D02*
X129456666Y-98422380D01*
X129313809Y-98422380D01*
X129170952Y-98470000D01*
X129075714Y-98565238D01*
X129028095Y-98660476D01*
X128980476Y-98850952D01*
X128980476Y-98993809D01*
X129028095Y-99184285D01*
X129075714Y-99279523D01*
X129170952Y-99374761D01*
X129313809Y-99422380D01*
X129409047Y-99422380D01*
X129551904Y-99374761D01*
X129599523Y-99327142D01*
X129599523Y-98993809D01*
X129409047Y-98993809D01*
X129222619Y-92162380D02*
X129555952Y-93162380D01*
X129889285Y-92162380D01*
X130222619Y-92781428D02*
X130984523Y-92781428D01*
X129222619Y-104862380D02*
X129555952Y-105862380D01*
X129889285Y-104862380D01*
X130222619Y-105481428D02*
X130984523Y-105481428D01*
X130603571Y-105862380D02*
X130603571Y-105100476D01*
D11*
X191309523Y-111202857D02*
X191404761Y-110917142D01*
X191404761Y-110440952D01*
X191309523Y-110250476D01*
X191214285Y-110155238D01*
X191023809Y-110060000D01*
X190833333Y-110060000D01*
X190642857Y-110155238D01*
X190547619Y-110250476D01*
X190452380Y-110440952D01*
X190357142Y-110821904D01*
X190261904Y-111012380D01*
X190166666Y-111107619D01*
X189976190Y-111202857D01*
X189785714Y-111202857D01*
X189595238Y-111107619D01*
X189500000Y-111012380D01*
X189404761Y-110821904D01*
X189404761Y-110345714D01*
X189500000Y-110060000D01*
X191404761Y-108345714D02*
X190357142Y-108345714D01*
X190166666Y-108440952D01*
X190071428Y-108631428D01*
X190071428Y-109012380D01*
X190166666Y-109202857D01*
X191309523Y-108345714D02*
X191404761Y-108536190D01*
X191404761Y-109012380D01*
X191309523Y-109202857D01*
X191119047Y-109298095D01*
X190928571Y-109298095D01*
X190738095Y-109202857D01*
X190642857Y-109012380D01*
X190642857Y-108536190D01*
X190547619Y-108345714D01*
X190071428Y-107583809D02*
X191404761Y-107202857D01*
X190452380Y-106821904D01*
X191404761Y-106440952D01*
X190071428Y-106060000D01*
X189404761Y-105583809D02*
X191404761Y-104917142D01*
X189404761Y-104250476D01*
X191214285Y-102440952D02*
X191309523Y-102536190D01*
X191404761Y-102821904D01*
X191404761Y-103012380D01*
X191309523Y-103298095D01*
X191119047Y-103488571D01*
X190928571Y-103583809D01*
X190547619Y-103679047D01*
X190261904Y-103679047D01*
X189880952Y-103583809D01*
X189690476Y-103488571D01*
X189500000Y-103298095D01*
X189404761Y-103012380D01*
X189404761Y-102821904D01*
X189500000Y-102536190D01*
X189595238Y-102440952D01*
X189404761Y-101202857D02*
X189404761Y-100821904D01*
X189500000Y-100631428D01*
X189690476Y-100440952D01*
X190071428Y-100345714D01*
X190738095Y-100345714D01*
X191119047Y-100440952D01*
X191309523Y-100631428D01*
X191404761Y-100821904D01*
X191404761Y-101202857D01*
X191309523Y-101393333D01*
X191119047Y-101583809D01*
X190738095Y-101679047D01*
X190071428Y-101679047D01*
X189690476Y-101583809D01*
X189500000Y-101393333D01*
X189404761Y-101202857D01*
X189404761Y-98250476D02*
X191404761Y-97583809D01*
X189404761Y-96917142D01*
X191309523Y-95488571D02*
X191404761Y-95679047D01*
X191404761Y-96060000D01*
X191309523Y-96250476D01*
X191119047Y-96345714D01*
X190357142Y-96345714D01*
X190166666Y-96250476D01*
X190071428Y-96060000D01*
X190071428Y-95679047D01*
X190166666Y-95488571D01*
X190357142Y-95393333D01*
X190547619Y-95393333D01*
X190738095Y-96345714D01*
X191404761Y-94536190D02*
X190071428Y-94536190D01*
X190452380Y-94536190D02*
X190261904Y-94440952D01*
X190166666Y-94345714D01*
X190071428Y-94155238D01*
X190071428Y-93964761D01*
X191214285Y-93298095D02*
X191309523Y-93202857D01*
X191404761Y-93298095D01*
X191309523Y-93393333D01*
X191214285Y-93298095D01*
X191404761Y-93298095D01*
X191404761Y-89774285D02*
X191404761Y-90917142D01*
X191404761Y-90345714D02*
X189404761Y-90345714D01*
X189690476Y-90536190D01*
X189880952Y-90726666D01*
X189976190Y-90917142D01*
X191214285Y-88917142D02*
X191309523Y-88821904D01*
X191404761Y-88917142D01*
X191309523Y-89012380D01*
X191214285Y-88917142D01*
X191404761Y-88917142D01*
X189404761Y-87583809D02*
X189404761Y-87393333D01*
X189500000Y-87202857D01*
X189595238Y-87107619D01*
X189785714Y-87012380D01*
X190166666Y-86917142D01*
X190642857Y-86917142D01*
X191023809Y-87012380D01*
X191214285Y-87107619D01*
X191309523Y-87202857D01*
X191404761Y-87393333D01*
X191404761Y-87583809D01*
X191309523Y-87774285D01*
X191214285Y-87869523D01*
X191023809Y-87964761D01*
X190642857Y-88060000D01*
X190166666Y-88060000D01*
X189785714Y-87964761D01*
X189595238Y-87869523D01*
X189500000Y-87774285D01*
X189404761Y-87583809D01*
X162037619Y-72842380D02*
X162037619Y-71842380D01*
X162466190Y-72842380D02*
X162466190Y-72318571D01*
X162418571Y-72223333D01*
X162323333Y-72175714D01*
X162180476Y-72175714D01*
X162085238Y-72223333D01*
X162037619Y-72270952D01*
X162799523Y-72175714D02*
X163180476Y-72175714D01*
X162942380Y-71842380D02*
X162942380Y-72699523D01*
X162990000Y-72794761D01*
X163085238Y-72842380D01*
X163180476Y-72842380D01*
X163370952Y-72175714D02*
X163751904Y-72175714D01*
X163513809Y-71842380D02*
X163513809Y-72699523D01*
X163561428Y-72794761D01*
X163656666Y-72842380D01*
X163751904Y-72842380D01*
X164085238Y-72175714D02*
X164085238Y-73175714D01*
X164085238Y-72223333D02*
X164180476Y-72175714D01*
X164370952Y-72175714D01*
X164466190Y-72223333D01*
X164513809Y-72270952D01*
X164561428Y-72366190D01*
X164561428Y-72651904D01*
X164513809Y-72747142D01*
X164466190Y-72794761D01*
X164370952Y-72842380D01*
X164180476Y-72842380D01*
X164085238Y-72794761D01*
X164942380Y-72794761D02*
X165037619Y-72842380D01*
X165228095Y-72842380D01*
X165323333Y-72794761D01*
X165370952Y-72699523D01*
X165370952Y-72651904D01*
X165323333Y-72556666D01*
X165228095Y-72509047D01*
X165085238Y-72509047D01*
X164990000Y-72461428D01*
X164942380Y-72366190D01*
X164942380Y-72318571D01*
X164990000Y-72223333D01*
X165085238Y-72175714D01*
X165228095Y-72175714D01*
X165323333Y-72223333D01*
X165799523Y-72747142D02*
X165847142Y-72794761D01*
X165799523Y-72842380D01*
X165751904Y-72794761D01*
X165799523Y-72747142D01*
X165799523Y-72842380D01*
X165799523Y-72223333D02*
X165847142Y-72270952D01*
X165799523Y-72318571D01*
X165751904Y-72270952D01*
X165799523Y-72223333D01*
X165799523Y-72318571D01*
X166990000Y-71794761D02*
X166132857Y-73080476D01*
X168037619Y-71794761D02*
X167180476Y-73080476D01*
X168799523Y-72842380D02*
X168799523Y-71842380D01*
X168799523Y-72794761D02*
X168704285Y-72842380D01*
X168513809Y-72842380D01*
X168418571Y-72794761D01*
X168370952Y-72747142D01*
X168323333Y-72651904D01*
X168323333Y-72366190D01*
X168370952Y-72270952D01*
X168418571Y-72223333D01*
X168513809Y-72175714D01*
X168704285Y-72175714D01*
X168799523Y-72223333D01*
X169704285Y-72842380D02*
X169704285Y-72318571D01*
X169656666Y-72223333D01*
X169561428Y-72175714D01*
X169370952Y-72175714D01*
X169275714Y-72223333D01*
X169704285Y-72794761D02*
X169609047Y-72842380D01*
X169370952Y-72842380D01*
X169275714Y-72794761D01*
X169228095Y-72699523D01*
X169228095Y-72604285D01*
X169275714Y-72509047D01*
X169370952Y-72461428D01*
X169609047Y-72461428D01*
X169704285Y-72413809D01*
X170609047Y-72842380D02*
X170609047Y-71842380D01*
X170609047Y-72794761D02*
X170513809Y-72842380D01*
X170323333Y-72842380D01*
X170228095Y-72794761D01*
X170180476Y-72747142D01*
X170132857Y-72651904D01*
X170132857Y-72366190D01*
X170180476Y-72270952D01*
X170228095Y-72223333D01*
X170323333Y-72175714D01*
X170513809Y-72175714D01*
X170609047Y-72223333D01*
X171228095Y-72270952D02*
X171132857Y-72223333D01*
X171085238Y-72175714D01*
X171037619Y-72080476D01*
X171037619Y-72032857D01*
X171085238Y-71937619D01*
X171132857Y-71890000D01*
X171228095Y-71842380D01*
X171418571Y-71842380D01*
X171513809Y-71890000D01*
X171561428Y-71937619D01*
X171609047Y-72032857D01*
X171609047Y-72080476D01*
X171561428Y-72175714D01*
X171513809Y-72223333D01*
X171418571Y-72270952D01*
X171228095Y-72270952D01*
X171132857Y-72318571D01*
X171085238Y-72366190D01*
X171037619Y-72461428D01*
X171037619Y-72651904D01*
X171085238Y-72747142D01*
X171132857Y-72794761D01*
X171228095Y-72842380D01*
X171418571Y-72842380D01*
X171513809Y-72794761D01*
X171561428Y-72747142D01*
X171609047Y-72651904D01*
X171609047Y-72461428D01*
X171561428Y-72366190D01*
X171513809Y-72318571D01*
X171418571Y-72270952D01*
X172180476Y-72270952D02*
X172085238Y-72223333D01*
X172037619Y-72175714D01*
X171990000Y-72080476D01*
X171990000Y-72032857D01*
X172037619Y-71937619D01*
X172085238Y-71890000D01*
X172180476Y-71842380D01*
X172370952Y-71842380D01*
X172466190Y-71890000D01*
X172513809Y-71937619D01*
X172561428Y-72032857D01*
X172561428Y-72080476D01*
X172513809Y-72175714D01*
X172466190Y-72223333D01*
X172370952Y-72270952D01*
X172180476Y-72270952D01*
X172085238Y-72318571D01*
X172037619Y-72366190D01*
X171990000Y-72461428D01*
X171990000Y-72651904D01*
X172037619Y-72747142D01*
X172085238Y-72794761D01*
X172180476Y-72842380D01*
X172370952Y-72842380D01*
X172466190Y-72794761D01*
X172513809Y-72747142D01*
X172561428Y-72651904D01*
X172561428Y-72461428D01*
X172513809Y-72366190D01*
X172466190Y-72318571D01*
X172370952Y-72270952D01*
X173037619Y-72842380D02*
X173228095Y-72842380D01*
X173323333Y-72794761D01*
X173370952Y-72747142D01*
X173466190Y-72604285D01*
X173513809Y-72413809D01*
X173513809Y-72032857D01*
X173466190Y-71937619D01*
X173418571Y-71890000D01*
X173323333Y-71842380D01*
X173132857Y-71842380D01*
X173037619Y-71890000D01*
X172990000Y-71937619D01*
X172942380Y-72032857D01*
X172942380Y-72270952D01*
X172990000Y-72366190D01*
X173037619Y-72413809D01*
X173132857Y-72461428D01*
X173323333Y-72461428D01*
X173418571Y-72413809D01*
X173466190Y-72366190D01*
X173513809Y-72270952D01*
X173847142Y-71842380D02*
X174466190Y-71842380D01*
X174132857Y-72223333D01*
X174275714Y-72223333D01*
X174370952Y-72270952D01*
X174418571Y-72318571D01*
X174466190Y-72413809D01*
X174466190Y-72651904D01*
X174418571Y-72747142D01*
X174370952Y-72794761D01*
X174275714Y-72842380D01*
X173990000Y-72842380D01*
X173894761Y-72794761D01*
X173847142Y-72747142D01*
X174894761Y-72747142D02*
X174942380Y-72794761D01*
X174894761Y-72842380D01*
X174847142Y-72794761D01*
X174894761Y-72747142D01*
X174894761Y-72842380D01*
X175370952Y-72842380D02*
X175370952Y-71842380D01*
X175370952Y-72223333D02*
X175466190Y-72175714D01*
X175656666Y-72175714D01*
X175751904Y-72223333D01*
X175799523Y-72270952D01*
X175847142Y-72366190D01*
X175847142Y-72651904D01*
X175799523Y-72747142D01*
X175751904Y-72794761D01*
X175656666Y-72842380D01*
X175466190Y-72842380D01*
X175370952Y-72794761D01*
X176418571Y-72842380D02*
X176323333Y-72794761D01*
X176275714Y-72699523D01*
X176275714Y-71842380D01*
X176942380Y-72842380D02*
X176847142Y-72794761D01*
X176799523Y-72747142D01*
X176751904Y-72651904D01*
X176751904Y-72366190D01*
X176799523Y-72270952D01*
X176847142Y-72223333D01*
X176942380Y-72175714D01*
X177085238Y-72175714D01*
X177180476Y-72223333D01*
X177228095Y-72270952D01*
X177275714Y-72366190D01*
X177275714Y-72651904D01*
X177228095Y-72747142D01*
X177180476Y-72794761D01*
X177085238Y-72842380D01*
X176942380Y-72842380D01*
X178132857Y-72175714D02*
X178132857Y-72985238D01*
X178085238Y-73080476D01*
X178037619Y-73128095D01*
X177942380Y-73175714D01*
X177799523Y-73175714D01*
X177704285Y-73128095D01*
X178132857Y-72794761D02*
X178037619Y-72842380D01*
X177847142Y-72842380D01*
X177751904Y-72794761D01*
X177704285Y-72747142D01*
X177656666Y-72651904D01*
X177656666Y-72366190D01*
X177704285Y-72270952D01*
X177751904Y-72223333D01*
X177847142Y-72175714D01*
X178037619Y-72175714D01*
X178132857Y-72223333D01*
X178561428Y-72794761D02*
X178656666Y-72842380D01*
X178847142Y-72842380D01*
X178942380Y-72794761D01*
X178990000Y-72699523D01*
X178990000Y-72651904D01*
X178942380Y-72556666D01*
X178847142Y-72509047D01*
X178704285Y-72509047D01*
X178609047Y-72461428D01*
X178561428Y-72366190D01*
X178561428Y-72318571D01*
X178609047Y-72223333D01*
X178704285Y-72175714D01*
X178847142Y-72175714D01*
X178942380Y-72223333D01*
X179418571Y-72175714D02*
X179418571Y-73175714D01*
X179418571Y-72223333D02*
X179513809Y-72175714D01*
X179704285Y-72175714D01*
X179799523Y-72223333D01*
X179847142Y-72270952D01*
X179894761Y-72366190D01*
X179894761Y-72651904D01*
X179847142Y-72747142D01*
X179799523Y-72794761D01*
X179704285Y-72842380D01*
X179513809Y-72842380D01*
X179418571Y-72794761D01*
X180466190Y-72842380D02*
X180370952Y-72794761D01*
X180323333Y-72747142D01*
X180275714Y-72651904D01*
X180275714Y-72366190D01*
X180323333Y-72270952D01*
X180370952Y-72223333D01*
X180466190Y-72175714D01*
X180609047Y-72175714D01*
X180704285Y-72223333D01*
X180751904Y-72270952D01*
X180799523Y-72366190D01*
X180799523Y-72651904D01*
X180751904Y-72747142D01*
X180704285Y-72794761D01*
X180609047Y-72842380D01*
X180466190Y-72842380D01*
X181085238Y-72175714D02*
X181466190Y-72175714D01*
X181228095Y-71842380D02*
X181228095Y-72699523D01*
X181275714Y-72794761D01*
X181370952Y-72842380D01*
X181466190Y-72842380D01*
X181799523Y-72747142D02*
X181847142Y-72794761D01*
X181799523Y-72842380D01*
X181751904Y-72794761D01*
X181799523Y-72747142D01*
X181799523Y-72842380D01*
X182704285Y-72794761D02*
X182609047Y-72842380D01*
X182418571Y-72842380D01*
X182323333Y-72794761D01*
X182275714Y-72747142D01*
X182228095Y-72651904D01*
X182228095Y-72366190D01*
X182275714Y-72270952D01*
X182323333Y-72223333D01*
X182418571Y-72175714D01*
X182609047Y-72175714D01*
X182704285Y-72223333D01*
X183275714Y-72842380D02*
X183180476Y-72794761D01*
X183132857Y-72747142D01*
X183085238Y-72651904D01*
X183085238Y-72366190D01*
X183132857Y-72270952D01*
X183180476Y-72223333D01*
X183275714Y-72175714D01*
X183418571Y-72175714D01*
X183513809Y-72223333D01*
X183561428Y-72270952D01*
X183609047Y-72366190D01*
X183609047Y-72651904D01*
X183561428Y-72747142D01*
X183513809Y-72794761D01*
X183418571Y-72842380D01*
X183275714Y-72842380D01*
X184037619Y-72842380D02*
X184037619Y-72175714D01*
X184037619Y-72270952D02*
X184085238Y-72223333D01*
X184180476Y-72175714D01*
X184323333Y-72175714D01*
X184418571Y-72223333D01*
X184466190Y-72318571D01*
X184466190Y-72842380D01*
X184466190Y-72318571D02*
X184513809Y-72223333D01*
X184609047Y-72175714D01*
X184751904Y-72175714D01*
X184847142Y-72223333D01*
X184894761Y-72318571D01*
X184894761Y-72842380D01*
X186085238Y-71794761D02*
X185228095Y-73080476D01*
D12*
G04 #@! TO.C,RV1*
X147330000Y-121725000D02*
X147330000Y-111955000D01*
X152400000Y-121725000D02*
X152400000Y-111955000D01*
X147330000Y-121725000D02*
X152400000Y-121725000D01*
X147330000Y-111955000D02*
X152400000Y-111955000D01*
X149795000Y-123245000D02*
X149795000Y-121726000D01*
X152225000Y-123245000D02*
X152225000Y-121726000D01*
X149795000Y-123245000D02*
X152225000Y-123245000D01*
X149795000Y-121726000D02*
X152225000Y-121726000D01*
X151010000Y-123245000D02*
X151010000Y-122486000D01*
G04 #@! TO.C,J11*
X162250000Y-75990000D02*
X162250000Y-77240000D01*
X163500000Y-75990000D02*
X162250000Y-75990000D01*
X169400000Y-81490000D02*
X166350000Y-81490000D01*
X169400000Y-78540000D02*
X169400000Y-81490000D01*
X170150000Y-78540000D02*
X169400000Y-78540000D01*
X163300000Y-81490000D02*
X166350000Y-81490000D01*
X163300000Y-78540000D02*
X163300000Y-81490000D01*
X162550000Y-78540000D02*
X163300000Y-78540000D01*
X170150000Y-76290000D02*
X168350000Y-76290000D01*
X170150000Y-77040000D02*
X170150000Y-76290000D01*
X168350000Y-77040000D02*
X170150000Y-77040000D01*
X168350000Y-76290000D02*
X168350000Y-77040000D01*
X164350000Y-76290000D02*
X162550000Y-76290000D01*
X164350000Y-77040000D02*
X164350000Y-76290000D01*
X162550000Y-77040000D02*
X164350000Y-77040000D01*
X162550000Y-76290000D02*
X162550000Y-77040000D01*
X166850000Y-76290000D02*
X165850000Y-76290000D01*
X166850000Y-77040000D02*
X166850000Y-76290000D01*
X165850000Y-77040000D02*
X166850000Y-77040000D01*
X165850000Y-76290000D02*
X165850000Y-77040000D01*
X170160000Y-76280000D02*
X162540000Y-76280000D01*
X170160000Y-82250000D02*
X170160000Y-76280000D01*
X162540000Y-82250000D02*
X170160000Y-82250000D01*
X162540000Y-76280000D02*
X162540000Y-82250000D01*
D13*
G04 #@! TO.C,G\u002A\u002A\u002A*
G36*
X184285975Y-77728379D02*
G01*
X184433990Y-77740907D01*
X184524912Y-77763099D01*
X184526458Y-77763902D01*
X184580547Y-77802716D01*
X184687813Y-77887638D01*
X184837200Y-78009621D01*
X185017649Y-78159620D01*
X185218099Y-78328589D01*
X185252595Y-78357891D01*
X185453768Y-78525759D01*
X185636208Y-78671959D01*
X185789181Y-78788375D01*
X185901956Y-78866891D01*
X185963799Y-78899390D01*
X185969003Y-78899675D01*
X186011936Y-78862344D01*
X186037590Y-78761963D01*
X186046918Y-78657199D01*
X186049923Y-78458006D01*
X186027740Y-78322472D01*
X185974040Y-78231716D01*
X185882549Y-78166888D01*
X185793323Y-78106263D01*
X185764421Y-78030469D01*
X185766746Y-77966000D01*
X185791397Y-77866839D01*
X185850516Y-77797939D01*
X185955683Y-77755182D01*
X186118478Y-77734448D01*
X186350482Y-77731618D01*
X186421086Y-77733238D01*
X186628509Y-77741760D01*
X186769491Y-77755793D01*
X186862229Y-77778583D01*
X186924918Y-77813379D01*
X186939669Y-77825811D01*
X187005850Y-77911248D01*
X187028667Y-77982892D01*
X187022713Y-78033466D01*
X186994377Y-78080248D01*
X186927948Y-78141442D01*
X186817000Y-78228172D01*
X186711167Y-78308981D01*
X186689122Y-79360574D01*
X186680281Y-79727543D01*
X186669626Y-80018711D01*
X186655307Y-80242946D01*
X186635475Y-80409113D01*
X186608283Y-80526079D01*
X186571880Y-80602711D01*
X186524419Y-80647874D01*
X186464050Y-80670435D01*
X186414539Y-80677404D01*
X186366327Y-80674652D01*
X186308215Y-80653976D01*
X186231544Y-80609027D01*
X186127655Y-80533456D01*
X185987887Y-80420913D01*
X185803583Y-80265049D01*
X185566082Y-80059514D01*
X185535347Y-80032737D01*
X185318850Y-79845072D01*
X185120251Y-79674892D01*
X184949504Y-79530569D01*
X184816562Y-79420475D01*
X184731381Y-79352981D01*
X184707566Y-79336537D01*
X184616807Y-79314975D01*
X184552767Y-79365402D01*
X184512536Y-79491761D01*
X184497431Y-79621150D01*
X184498046Y-79837040D01*
X184529951Y-80016802D01*
X184588631Y-80144384D01*
X184660661Y-80201344D01*
X184746453Y-80258557D01*
X184789364Y-80314487D01*
X184811628Y-80394086D01*
X184777553Y-80477958D01*
X184753753Y-80511695D01*
X184663325Y-80599643D01*
X184569517Y-80650356D01*
X184470324Y-80664927D01*
X184316341Y-80673829D01*
X184137274Y-80676791D01*
X183962828Y-80673542D01*
X183822708Y-80663810D01*
X183780427Y-80657568D01*
X183694850Y-80614327D01*
X183603466Y-80532466D01*
X183534684Y-80441360D01*
X183515000Y-80383133D01*
X183543830Y-80334257D01*
X183617286Y-80252962D01*
X183669933Y-80202413D01*
X183824866Y-80060476D01*
X183844712Y-79510869D01*
X183850023Y-79270983D01*
X183849577Y-79031041D01*
X183843753Y-78819835D01*
X183833733Y-78673428D01*
X183812591Y-78513606D01*
X183781207Y-78405671D01*
X183724467Y-78316984D01*
X183627259Y-78214907D01*
X183616621Y-78204543D01*
X183518660Y-78105494D01*
X183451183Y-78029926D01*
X183430334Y-77997963D01*
X183467267Y-77902432D01*
X183561017Y-77814160D01*
X183647424Y-77770786D01*
X183761591Y-77746717D01*
X183923553Y-77731489D01*
X184107089Y-77725308D01*
X184285975Y-77728379D01*
G37*
X184285975Y-77728379D02*
X184433990Y-77740907D01*
X184524912Y-77763099D01*
X184526458Y-77763902D01*
X184580547Y-77802716D01*
X184687813Y-77887638D01*
X184837200Y-78009621D01*
X185017649Y-78159620D01*
X185218099Y-78328589D01*
X185252595Y-78357891D01*
X185453768Y-78525759D01*
X185636208Y-78671959D01*
X185789181Y-78788375D01*
X185901956Y-78866891D01*
X185963799Y-78899390D01*
X185969003Y-78899675D01*
X186011936Y-78862344D01*
X186037590Y-78761963D01*
X186046918Y-78657199D01*
X186049923Y-78458006D01*
X186027740Y-78322472D01*
X185974040Y-78231716D01*
X185882549Y-78166888D01*
X185793323Y-78106263D01*
X185764421Y-78030469D01*
X185766746Y-77966000D01*
X185791397Y-77866839D01*
X185850516Y-77797939D01*
X185955683Y-77755182D01*
X186118478Y-77734448D01*
X186350482Y-77731618D01*
X186421086Y-77733238D01*
X186628509Y-77741760D01*
X186769491Y-77755793D01*
X186862229Y-77778583D01*
X186924918Y-77813379D01*
X186939669Y-77825811D01*
X187005850Y-77911248D01*
X187028667Y-77982892D01*
X187022713Y-78033466D01*
X186994377Y-78080248D01*
X186927948Y-78141442D01*
X186817000Y-78228172D01*
X186711167Y-78308981D01*
X186689122Y-79360574D01*
X186680281Y-79727543D01*
X186669626Y-80018711D01*
X186655307Y-80242946D01*
X186635475Y-80409113D01*
X186608283Y-80526079D01*
X186571880Y-80602711D01*
X186524419Y-80647874D01*
X186464050Y-80670435D01*
X186414539Y-80677404D01*
X186366327Y-80674652D01*
X186308215Y-80653976D01*
X186231544Y-80609027D01*
X186127655Y-80533456D01*
X185987887Y-80420913D01*
X185803583Y-80265049D01*
X185566082Y-80059514D01*
X185535347Y-80032737D01*
X185318850Y-79845072D01*
X185120251Y-79674892D01*
X184949504Y-79530569D01*
X184816562Y-79420475D01*
X184731381Y-79352981D01*
X184707566Y-79336537D01*
X184616807Y-79314975D01*
X184552767Y-79365402D01*
X184512536Y-79491761D01*
X184497431Y-79621150D01*
X184498046Y-79837040D01*
X184529951Y-80016802D01*
X184588631Y-80144384D01*
X184660661Y-80201344D01*
X184746453Y-80258557D01*
X184789364Y-80314487D01*
X184811628Y-80394086D01*
X184777553Y-80477958D01*
X184753753Y-80511695D01*
X184663325Y-80599643D01*
X184569517Y-80650356D01*
X184470324Y-80664927D01*
X184316341Y-80673829D01*
X184137274Y-80676791D01*
X183962828Y-80673542D01*
X183822708Y-80663810D01*
X183780427Y-80657568D01*
X183694850Y-80614327D01*
X183603466Y-80532466D01*
X183534684Y-80441360D01*
X183515000Y-80383133D01*
X183543830Y-80334257D01*
X183617286Y-80252962D01*
X183669933Y-80202413D01*
X183824866Y-80060476D01*
X183844712Y-79510869D01*
X183850023Y-79270983D01*
X183849577Y-79031041D01*
X183843753Y-78819835D01*
X183833733Y-78673428D01*
X183812591Y-78513606D01*
X183781207Y-78405671D01*
X183724467Y-78316984D01*
X183627259Y-78214907D01*
X183616621Y-78204543D01*
X183518660Y-78105494D01*
X183451183Y-78029926D01*
X183430334Y-77997963D01*
X183467267Y-77902432D01*
X183561017Y-77814160D01*
X183647424Y-77770786D01*
X183761591Y-77746717D01*
X183923553Y-77731489D01*
X184107089Y-77725308D01*
X184285975Y-77728379D01*
G36*
X182315047Y-77735914D02*
G01*
X182457389Y-77743180D01*
X182568608Y-77756503D01*
X182662066Y-77776386D01*
X182704001Y-77788244D01*
X182954226Y-77901803D01*
X183146558Y-78065179D01*
X183279623Y-78265163D01*
X183352049Y-78488541D01*
X183362461Y-78722101D01*
X183309488Y-78952632D01*
X183191754Y-79166921D01*
X183007888Y-79351758D01*
X182875437Y-79437524D01*
X182753758Y-79498422D01*
X182640242Y-79537638D01*
X182507723Y-79561185D01*
X182329036Y-79575079D01*
X182234417Y-79579452D01*
X181821667Y-79596514D01*
X181821667Y-79820961D01*
X181827843Y-79996712D01*
X181852645Y-80110930D01*
X181905479Y-80186245D01*
X181995755Y-80245286D01*
X181998708Y-80246819D01*
X182093710Y-80330997D01*
X182114481Y-80433323D01*
X182062617Y-80534267D01*
X181969834Y-80600936D01*
X181851178Y-80635751D01*
X181672551Y-80660640D01*
X181458122Y-80675091D01*
X181232062Y-80678586D01*
X181018541Y-80670612D01*
X180841728Y-80650653D01*
X180746399Y-80627013D01*
X180590819Y-80551679D01*
X180519061Y-80469733D01*
X180530341Y-80377817D01*
X180623877Y-80272573D01*
X180657500Y-80245703D01*
X180805667Y-80132691D01*
X180805667Y-78843928D01*
X181828034Y-78843928D01*
X181835666Y-78984139D01*
X181854564Y-79062421D01*
X181872965Y-79085103D01*
X182000679Y-79119567D01*
X182140870Y-79079015D01*
X182248257Y-78997256D01*
X182326703Y-78903249D01*
X182363145Y-78803614D01*
X182372000Y-78660950D01*
X182343695Y-78455297D01*
X182259603Y-78312057D01*
X182120961Y-78232750D01*
X182010048Y-78216412D01*
X181842834Y-78210833D01*
X181830632Y-78630668D01*
X181828034Y-78843928D01*
X180805667Y-78843928D01*
X180805667Y-78227680D01*
X180664714Y-78168786D01*
X180511979Y-78082318D01*
X180442019Y-77984405D01*
X180445158Y-77895463D01*
X180459780Y-77858900D01*
X180484300Y-77830267D01*
X180528710Y-77808228D01*
X180603002Y-77791449D01*
X180717169Y-77778593D01*
X180881201Y-77768325D01*
X181105092Y-77759309D01*
X181398834Y-77750209D01*
X181567667Y-77745417D01*
X181883548Y-77737536D01*
X182128221Y-77734200D01*
X182315047Y-77735914D01*
G37*
X182315047Y-77735914D02*
X182457389Y-77743180D01*
X182568608Y-77756503D01*
X182662066Y-77776386D01*
X182704001Y-77788244D01*
X182954226Y-77901803D01*
X183146558Y-78065179D01*
X183279623Y-78265163D01*
X183352049Y-78488541D01*
X183362461Y-78722101D01*
X183309488Y-78952632D01*
X183191754Y-79166921D01*
X183007888Y-79351758D01*
X182875437Y-79437524D01*
X182753758Y-79498422D01*
X182640242Y-79537638D01*
X182507723Y-79561185D01*
X182329036Y-79575079D01*
X182234417Y-79579452D01*
X181821667Y-79596514D01*
X181821667Y-79820961D01*
X181827843Y-79996712D01*
X181852645Y-80110930D01*
X181905479Y-80186245D01*
X181995755Y-80245286D01*
X181998708Y-80246819D01*
X182093710Y-80330997D01*
X182114481Y-80433323D01*
X182062617Y-80534267D01*
X181969834Y-80600936D01*
X181851178Y-80635751D01*
X181672551Y-80660640D01*
X181458122Y-80675091D01*
X181232062Y-80678586D01*
X181018541Y-80670612D01*
X180841728Y-80650653D01*
X180746399Y-80627013D01*
X180590819Y-80551679D01*
X180519061Y-80469733D01*
X180530341Y-80377817D01*
X180623877Y-80272573D01*
X180657500Y-80245703D01*
X180805667Y-80132691D01*
X180805667Y-78843928D01*
X181828034Y-78843928D01*
X181835666Y-78984139D01*
X181854564Y-79062421D01*
X181872965Y-79085103D01*
X182000679Y-79119567D01*
X182140870Y-79079015D01*
X182248257Y-78997256D01*
X182326703Y-78903249D01*
X182363145Y-78803614D01*
X182372000Y-78660950D01*
X182343695Y-78455297D01*
X182259603Y-78312057D01*
X182120961Y-78232750D01*
X182010048Y-78216412D01*
X181842834Y-78210833D01*
X181830632Y-78630668D01*
X181828034Y-78843928D01*
X180805667Y-78843928D01*
X180805667Y-78227680D01*
X180664714Y-78168786D01*
X180511979Y-78082318D01*
X180442019Y-77984405D01*
X180445158Y-77895463D01*
X180459780Y-77858900D01*
X180484300Y-77830267D01*
X180528710Y-77808228D01*
X180603002Y-77791449D01*
X180717169Y-77778593D01*
X180881201Y-77768325D01*
X181105092Y-77759309D01*
X181398834Y-77750209D01*
X181567667Y-77745417D01*
X181883548Y-77737536D01*
X182128221Y-77734200D01*
X182315047Y-77735914D01*
G36*
X177597308Y-77728379D02*
G01*
X177745323Y-77740907D01*
X177836245Y-77763099D01*
X177837792Y-77763902D01*
X177891880Y-77802716D01*
X177999147Y-77887638D01*
X178148534Y-78009621D01*
X178328982Y-78159620D01*
X178529433Y-78328589D01*
X178563929Y-78357891D01*
X178765102Y-78525759D01*
X178947541Y-78671959D01*
X179100514Y-78788375D01*
X179213289Y-78866891D01*
X179275133Y-78899390D01*
X179280337Y-78899675D01*
X179323269Y-78862344D01*
X179348924Y-78761963D01*
X179358251Y-78657199D01*
X179361257Y-78458006D01*
X179339074Y-78322472D01*
X179285373Y-78231716D01*
X179193882Y-78166888D01*
X179104657Y-78106263D01*
X179075754Y-78030469D01*
X179078079Y-77966000D01*
X179102730Y-77866839D01*
X179161849Y-77797939D01*
X179267016Y-77755182D01*
X179429811Y-77734448D01*
X179661816Y-77731618D01*
X179732419Y-77733238D01*
X179939842Y-77741760D01*
X180080824Y-77755793D01*
X180173562Y-77778583D01*
X180236251Y-77813379D01*
X180251003Y-77825811D01*
X180317184Y-77911248D01*
X180340000Y-77982892D01*
X180334046Y-78033466D01*
X180305710Y-78080248D01*
X180239282Y-78141442D01*
X180128334Y-78228172D01*
X180022500Y-78308981D01*
X180000455Y-79360574D01*
X179991614Y-79727543D01*
X179980959Y-80018711D01*
X179966640Y-80242946D01*
X179946809Y-80409113D01*
X179919616Y-80526079D01*
X179883214Y-80602711D01*
X179835752Y-80647874D01*
X179775383Y-80670435D01*
X179725872Y-80677404D01*
X179677660Y-80674652D01*
X179619549Y-80653976D01*
X179542878Y-80609027D01*
X179438988Y-80533456D01*
X179299221Y-80420913D01*
X179114916Y-80265049D01*
X178877415Y-80059514D01*
X178846680Y-80032737D01*
X178630183Y-79845072D01*
X178431584Y-79674892D01*
X178260837Y-79530569D01*
X178127896Y-79420475D01*
X178042714Y-79352981D01*
X178018899Y-79336537D01*
X177928140Y-79314975D01*
X177864100Y-79365402D01*
X177823869Y-79491761D01*
X177808765Y-79621150D01*
X177809379Y-79837040D01*
X177841285Y-80016802D01*
X177899964Y-80144384D01*
X177971994Y-80201344D01*
X178057786Y-80258557D01*
X178100697Y-80314487D01*
X178122962Y-80394086D01*
X178088887Y-80477958D01*
X178065086Y-80511695D01*
X177974658Y-80599643D01*
X177880851Y-80650356D01*
X177781657Y-80664927D01*
X177627674Y-80673829D01*
X177448607Y-80676791D01*
X177274161Y-80673542D01*
X177134041Y-80663810D01*
X177091760Y-80657568D01*
X177006184Y-80614327D01*
X176914799Y-80532466D01*
X176846017Y-80441360D01*
X176826334Y-80383133D01*
X176855164Y-80334257D01*
X176928620Y-80252962D01*
X176981266Y-80202413D01*
X177136199Y-80060476D01*
X177156045Y-79510869D01*
X177161356Y-79270983D01*
X177160911Y-79031041D01*
X177155087Y-78819835D01*
X177145067Y-78673428D01*
X177123924Y-78513606D01*
X177092540Y-78405671D01*
X177035801Y-78316984D01*
X176938593Y-78214907D01*
X176927955Y-78204543D01*
X176829993Y-78105494D01*
X176762516Y-78029926D01*
X176741667Y-77997963D01*
X176778600Y-77902432D01*
X176872350Y-77814160D01*
X176958757Y-77770786D01*
X177072925Y-77746717D01*
X177234887Y-77731489D01*
X177418422Y-77725308D01*
X177597308Y-77728379D01*
G37*
X177597308Y-77728379D02*
X177745323Y-77740907D01*
X177836245Y-77763099D01*
X177837792Y-77763902D01*
X177891880Y-77802716D01*
X177999147Y-77887638D01*
X178148534Y-78009621D01*
X178328982Y-78159620D01*
X178529433Y-78328589D01*
X178563929Y-78357891D01*
X178765102Y-78525759D01*
X178947541Y-78671959D01*
X179100514Y-78788375D01*
X179213289Y-78866891D01*
X179275133Y-78899390D01*
X179280337Y-78899675D01*
X179323269Y-78862344D01*
X179348924Y-78761963D01*
X179358251Y-78657199D01*
X179361257Y-78458006D01*
X179339074Y-78322472D01*
X179285373Y-78231716D01*
X179193882Y-78166888D01*
X179104657Y-78106263D01*
X179075754Y-78030469D01*
X179078079Y-77966000D01*
X179102730Y-77866839D01*
X179161849Y-77797939D01*
X179267016Y-77755182D01*
X179429811Y-77734448D01*
X179661816Y-77731618D01*
X179732419Y-77733238D01*
X179939842Y-77741760D01*
X180080824Y-77755793D01*
X180173562Y-77778583D01*
X180236251Y-77813379D01*
X180251003Y-77825811D01*
X180317184Y-77911248D01*
X180340000Y-77982892D01*
X180334046Y-78033466D01*
X180305710Y-78080248D01*
X180239282Y-78141442D01*
X180128334Y-78228172D01*
X180022500Y-78308981D01*
X180000455Y-79360574D01*
X179991614Y-79727543D01*
X179980959Y-80018711D01*
X179966640Y-80242946D01*
X179946809Y-80409113D01*
X179919616Y-80526079D01*
X179883214Y-80602711D01*
X179835752Y-80647874D01*
X179775383Y-80670435D01*
X179725872Y-80677404D01*
X179677660Y-80674652D01*
X179619549Y-80653976D01*
X179542878Y-80609027D01*
X179438988Y-80533456D01*
X179299221Y-80420913D01*
X179114916Y-80265049D01*
X178877415Y-80059514D01*
X178846680Y-80032737D01*
X178630183Y-79845072D01*
X178431584Y-79674892D01*
X178260837Y-79530569D01*
X178127896Y-79420475D01*
X178042714Y-79352981D01*
X178018899Y-79336537D01*
X177928140Y-79314975D01*
X177864100Y-79365402D01*
X177823869Y-79491761D01*
X177808765Y-79621150D01*
X177809379Y-79837040D01*
X177841285Y-80016802D01*
X177899964Y-80144384D01*
X177971994Y-80201344D01*
X178057786Y-80258557D01*
X178100697Y-80314487D01*
X178122962Y-80394086D01*
X178088887Y-80477958D01*
X178065086Y-80511695D01*
X177974658Y-80599643D01*
X177880851Y-80650356D01*
X177781657Y-80664927D01*
X177627674Y-80673829D01*
X177448607Y-80676791D01*
X177274161Y-80673542D01*
X177134041Y-80663810D01*
X177091760Y-80657568D01*
X177006184Y-80614327D01*
X176914799Y-80532466D01*
X176846017Y-80441360D01*
X176826334Y-80383133D01*
X176855164Y-80334257D01*
X176928620Y-80252962D01*
X176981266Y-80202413D01*
X177136199Y-80060476D01*
X177156045Y-79510869D01*
X177161356Y-79270983D01*
X177160911Y-79031041D01*
X177155087Y-78819835D01*
X177145067Y-78673428D01*
X177123924Y-78513606D01*
X177092540Y-78405671D01*
X177035801Y-78316984D01*
X176938593Y-78214907D01*
X176927955Y-78204543D01*
X176829993Y-78105494D01*
X176762516Y-78029926D01*
X176741667Y-77997963D01*
X176778600Y-77902432D01*
X176872350Y-77814160D01*
X176958757Y-77770786D01*
X177072925Y-77746717D01*
X177234887Y-77731489D01*
X177418422Y-77725308D01*
X177597308Y-77728379D01*
G36*
X175584047Y-77735914D02*
G01*
X175726389Y-77743180D01*
X175837608Y-77756503D01*
X175931066Y-77776386D01*
X175973001Y-77788244D01*
X176223226Y-77901803D01*
X176415558Y-78065179D01*
X176548623Y-78265163D01*
X176621049Y-78488541D01*
X176631461Y-78722101D01*
X176578488Y-78952632D01*
X176460754Y-79166921D01*
X176276888Y-79351758D01*
X176144437Y-79437524D01*
X176022758Y-79498422D01*
X175909242Y-79537638D01*
X175776723Y-79561185D01*
X175598036Y-79575079D01*
X175503417Y-79579452D01*
X175090667Y-79596514D01*
X175090667Y-79820961D01*
X175096843Y-79996712D01*
X175121645Y-80110930D01*
X175174479Y-80186245D01*
X175264755Y-80245286D01*
X175267708Y-80246819D01*
X175362710Y-80330997D01*
X175383481Y-80433323D01*
X175331617Y-80534267D01*
X175238834Y-80600936D01*
X175120178Y-80635751D01*
X174941551Y-80660640D01*
X174727122Y-80675091D01*
X174501062Y-80678586D01*
X174287541Y-80670612D01*
X174110728Y-80650653D01*
X174015399Y-80627013D01*
X173859819Y-80551679D01*
X173788061Y-80469733D01*
X173799341Y-80377817D01*
X173892877Y-80272573D01*
X173926500Y-80245703D01*
X174074667Y-80132691D01*
X174074667Y-78843928D01*
X175097034Y-78843928D01*
X175104666Y-78984139D01*
X175123564Y-79062421D01*
X175141965Y-79085103D01*
X175269679Y-79119567D01*
X175409870Y-79079015D01*
X175517257Y-78997256D01*
X175595703Y-78903249D01*
X175632145Y-78803614D01*
X175641000Y-78660950D01*
X175612695Y-78455297D01*
X175528603Y-78312057D01*
X175389961Y-78232750D01*
X175279048Y-78216412D01*
X175111834Y-78210833D01*
X175099632Y-78630668D01*
X175097034Y-78843928D01*
X174074667Y-78843928D01*
X174074667Y-78227680D01*
X173933714Y-78168786D01*
X173780979Y-78082318D01*
X173711019Y-77984405D01*
X173714158Y-77895463D01*
X173728780Y-77858900D01*
X173753300Y-77830267D01*
X173797710Y-77808228D01*
X173872002Y-77791449D01*
X173986169Y-77778593D01*
X174150201Y-77768325D01*
X174374092Y-77759309D01*
X174667834Y-77750209D01*
X174836667Y-77745417D01*
X175152548Y-77737536D01*
X175397221Y-77734200D01*
X175584047Y-77735914D01*
G37*
X175584047Y-77735914D02*
X175726389Y-77743180D01*
X175837608Y-77756503D01*
X175931066Y-77776386D01*
X175973001Y-77788244D01*
X176223226Y-77901803D01*
X176415558Y-78065179D01*
X176548623Y-78265163D01*
X176621049Y-78488541D01*
X176631461Y-78722101D01*
X176578488Y-78952632D01*
X176460754Y-79166921D01*
X176276888Y-79351758D01*
X176144437Y-79437524D01*
X176022758Y-79498422D01*
X175909242Y-79537638D01*
X175776723Y-79561185D01*
X175598036Y-79575079D01*
X175503417Y-79579452D01*
X175090667Y-79596514D01*
X175090667Y-79820961D01*
X175096843Y-79996712D01*
X175121645Y-80110930D01*
X175174479Y-80186245D01*
X175264755Y-80245286D01*
X175267708Y-80246819D01*
X175362710Y-80330997D01*
X175383481Y-80433323D01*
X175331617Y-80534267D01*
X175238834Y-80600936D01*
X175120178Y-80635751D01*
X174941551Y-80660640D01*
X174727122Y-80675091D01*
X174501062Y-80678586D01*
X174287541Y-80670612D01*
X174110728Y-80650653D01*
X174015399Y-80627013D01*
X173859819Y-80551679D01*
X173788061Y-80469733D01*
X173799341Y-80377817D01*
X173892877Y-80272573D01*
X173926500Y-80245703D01*
X174074667Y-80132691D01*
X174074667Y-78843928D01*
X175097034Y-78843928D01*
X175104666Y-78984139D01*
X175123564Y-79062421D01*
X175141965Y-79085103D01*
X175269679Y-79119567D01*
X175409870Y-79079015D01*
X175517257Y-78997256D01*
X175595703Y-78903249D01*
X175632145Y-78803614D01*
X175641000Y-78660950D01*
X175612695Y-78455297D01*
X175528603Y-78312057D01*
X175389961Y-78232750D01*
X175279048Y-78216412D01*
X175111834Y-78210833D01*
X175099632Y-78630668D01*
X175097034Y-78843928D01*
X174074667Y-78843928D01*
X174074667Y-78227680D01*
X173933714Y-78168786D01*
X173780979Y-78082318D01*
X173711019Y-77984405D01*
X173714158Y-77895463D01*
X173728780Y-77858900D01*
X173753300Y-77830267D01*
X173797710Y-77808228D01*
X173872002Y-77791449D01*
X173986169Y-77778593D01*
X174150201Y-77768325D01*
X174374092Y-77759309D01*
X174667834Y-77750209D01*
X174836667Y-77745417D01*
X175152548Y-77737536D01*
X175397221Y-77734200D01*
X175584047Y-77735914D01*
G36*
X185200904Y-81671134D02*
G01*
X185208334Y-81710712D01*
X185208334Y-81802758D01*
X185306312Y-81710712D01*
X185432373Y-81632022D01*
X185550399Y-81633484D01*
X185649909Y-81714636D01*
X185657863Y-81726234D01*
X185703613Y-81825186D01*
X185689655Y-81917615D01*
X185681445Y-81936733D01*
X185600550Y-82032054D01*
X185487965Y-82072504D01*
X185374741Y-82049967D01*
X185340776Y-82025758D01*
X185270167Y-81981411D01*
X185228001Y-82007886D01*
X185209856Y-82110148D01*
X185208334Y-82174566D01*
X185224572Y-82301694D01*
X185279705Y-82372803D01*
X185293000Y-82380667D01*
X185364633Y-82447568D01*
X185367960Y-82519119D01*
X185310704Y-82566637D01*
X185203430Y-82588650D01*
X185060174Y-82594777D01*
X184910103Y-82586740D01*
X184782380Y-82566263D01*
X184706173Y-82535071D01*
X184701843Y-82530652D01*
X184674323Y-82467352D01*
X184706638Y-82389538D01*
X184717826Y-82373066D01*
X184767299Y-82256422D01*
X184784118Y-82116524D01*
X184768473Y-81986316D01*
X184720558Y-81898740D01*
X184715033Y-81894339D01*
X184670369Y-81828504D01*
X184709156Y-81758945D01*
X184830350Y-81687312D01*
X184852308Y-81677847D01*
X185019340Y-81624946D01*
X185138384Y-81622971D01*
X185200904Y-81671134D01*
G37*
X185200904Y-81671134D02*
X185208334Y-81710712D01*
X185208334Y-81802758D01*
X185306312Y-81710712D01*
X185432373Y-81632022D01*
X185550399Y-81633484D01*
X185649909Y-81714636D01*
X185657863Y-81726234D01*
X185703613Y-81825186D01*
X185689655Y-81917615D01*
X185681445Y-81936733D01*
X185600550Y-82032054D01*
X185487965Y-82072504D01*
X185374741Y-82049967D01*
X185340776Y-82025758D01*
X185270167Y-81981411D01*
X185228001Y-82007886D01*
X185209856Y-82110148D01*
X185208334Y-82174566D01*
X185224572Y-82301694D01*
X185279705Y-82372803D01*
X185293000Y-82380667D01*
X185364633Y-82447568D01*
X185367960Y-82519119D01*
X185310704Y-82566637D01*
X185203430Y-82588650D01*
X185060174Y-82594777D01*
X184910103Y-82586740D01*
X184782380Y-82566263D01*
X184706173Y-82535071D01*
X184701843Y-82530652D01*
X184674323Y-82467352D01*
X184706638Y-82389538D01*
X184717826Y-82373066D01*
X184767299Y-82256422D01*
X184784118Y-82116524D01*
X184768473Y-81986316D01*
X184720558Y-81898740D01*
X184715033Y-81894339D01*
X184670369Y-81828504D01*
X184709156Y-81758945D01*
X184830350Y-81687312D01*
X184852308Y-81677847D01*
X185019340Y-81624946D01*
X185138384Y-81622971D01*
X185200904Y-81671134D01*
G36*
X184215109Y-81633637D02*
G01*
X184389811Y-81705570D01*
X184523342Y-81829352D01*
X184601400Y-81997227D01*
X184615667Y-82118855D01*
X184577180Y-82276921D01*
X184473704Y-82410439D01*
X184323210Y-82511756D01*
X184143674Y-82573218D01*
X183953069Y-82587173D01*
X183769368Y-82545966D01*
X183697619Y-82509774D01*
X183553917Y-82389557D01*
X183486660Y-82243472D01*
X183485490Y-82074945D01*
X183522460Y-81957986D01*
X183939383Y-81957986D01*
X183940714Y-82077349D01*
X183963955Y-82197999D01*
X184004730Y-82287289D01*
X184072587Y-82353900D01*
X184121803Y-82340251D01*
X184147446Y-82249631D01*
X184150000Y-82190424D01*
X184134153Y-82032497D01*
X184092270Y-81908245D01*
X184032839Y-81838444D01*
X184002881Y-81830333D01*
X183960069Y-81866714D01*
X183939383Y-81957986D01*
X183522460Y-81957986D01*
X183545088Y-81886402D01*
X183670271Y-81747745D01*
X183799390Y-81676324D01*
X184013535Y-81621304D01*
X184215109Y-81633637D01*
G37*
X184215109Y-81633637D02*
X184389811Y-81705570D01*
X184523342Y-81829352D01*
X184601400Y-81997227D01*
X184615667Y-82118855D01*
X184577180Y-82276921D01*
X184473704Y-82410439D01*
X184323210Y-82511756D01*
X184143674Y-82573218D01*
X183953069Y-82587173D01*
X183769368Y-82545966D01*
X183697619Y-82509774D01*
X183553917Y-82389557D01*
X183486660Y-82243472D01*
X183485490Y-82074945D01*
X183522460Y-81957986D01*
X183939383Y-81957986D01*
X183940714Y-82077349D01*
X183963955Y-82197999D01*
X184004730Y-82287289D01*
X184072587Y-82353900D01*
X184121803Y-82340251D01*
X184147446Y-82249631D01*
X184150000Y-82190424D01*
X184134153Y-82032497D01*
X184092270Y-81908245D01*
X184032839Y-81838444D01*
X184002881Y-81830333D01*
X183960069Y-81866714D01*
X183939383Y-81957986D01*
X183522460Y-81957986D01*
X183545088Y-81886402D01*
X183670271Y-81747745D01*
X183799390Y-81676324D01*
X184013535Y-81621304D01*
X184215109Y-81633637D01*
G36*
X183111129Y-81431649D02*
G01*
X183134000Y-81510151D01*
X183149111Y-81584147D01*
X183210793Y-81617858D01*
X183271584Y-81626568D01*
X183371232Y-81649803D01*
X183407598Y-81702408D01*
X183409167Y-81724500D01*
X183387417Y-81787533D01*
X183308693Y-81817690D01*
X183269555Y-81822583D01*
X183129944Y-81836000D01*
X183142555Y-82076583D01*
X183151999Y-82212482D01*
X183169701Y-82284238D01*
X183207205Y-82312312D01*
X183276054Y-82317166D01*
X183278288Y-82317167D01*
X183384024Y-82335488D01*
X183414145Y-82384196D01*
X183367779Y-82453902D01*
X183295856Y-82506242D01*
X183112638Y-82580958D01*
X182940266Y-82581343D01*
X182793323Y-82507895D01*
X182772243Y-82488424D01*
X182714053Y-82417824D01*
X182682468Y-82335522D01*
X182669901Y-82213703D01*
X182668334Y-82107424D01*
X182665730Y-81957879D01*
X182654122Y-81874285D01*
X182627809Y-81837990D01*
X182583667Y-81830333D01*
X182507888Y-81809938D01*
X182499140Y-81755603D01*
X182552247Y-81677607D01*
X182662037Y-81586227D01*
X182727866Y-81543890D01*
X182911155Y-81446730D01*
X183037881Y-81409402D01*
X183111129Y-81431649D01*
G37*
X183111129Y-81431649D02*
X183134000Y-81510151D01*
X183149111Y-81584147D01*
X183210793Y-81617858D01*
X183271584Y-81626568D01*
X183371232Y-81649803D01*
X183407598Y-81702408D01*
X183409167Y-81724500D01*
X183387417Y-81787533D01*
X183308693Y-81817690D01*
X183269555Y-81822583D01*
X183129944Y-81836000D01*
X183142555Y-82076583D01*
X183151999Y-82212482D01*
X183169701Y-82284238D01*
X183207205Y-82312312D01*
X183276054Y-82317166D01*
X183278288Y-82317167D01*
X183384024Y-82335488D01*
X183414145Y-82384196D01*
X183367779Y-82453902D01*
X183295856Y-82506242D01*
X183112638Y-82580958D01*
X182940266Y-82581343D01*
X182793323Y-82507895D01*
X182772243Y-82488424D01*
X182714053Y-82417824D01*
X182682468Y-82335522D01*
X182669901Y-82213703D01*
X182668334Y-82107424D01*
X182665730Y-81957879D01*
X182654122Y-81874285D01*
X182627809Y-81837990D01*
X182583667Y-81830333D01*
X182507888Y-81809938D01*
X182499140Y-81755603D01*
X182552247Y-81677607D01*
X182662037Y-81586227D01*
X182727866Y-81543890D01*
X182911155Y-81446730D01*
X183037881Y-81409402D01*
X183111129Y-81431649D01*
G36*
X182169745Y-81634475D02*
G01*
X182332069Y-81682766D01*
X182443619Y-81766862D01*
X182477179Y-81828270D01*
X182482123Y-81943510D01*
X182431786Y-82029956D01*
X182348605Y-82077382D01*
X182255015Y-82075567D01*
X182173453Y-82014286D01*
X182151748Y-81976562D01*
X182084460Y-81892650D01*
X182015072Y-81881312D01*
X181939680Y-81927207D01*
X181913247Y-82021054D01*
X181939155Y-82139454D01*
X181969633Y-82195802D01*
X182024992Y-82261726D01*
X182095966Y-82289469D01*
X182214236Y-82290056D01*
X182236303Y-82288604D01*
X182380329Y-82295470D01*
X182450343Y-82335839D01*
X182443154Y-82401595D01*
X182355569Y-82484621D01*
X182321969Y-82506375D01*
X182140327Y-82574497D01*
X181936889Y-82585303D01*
X181749742Y-82537532D01*
X181726949Y-82526065D01*
X181582179Y-82405150D01*
X181503419Y-82247047D01*
X181493405Y-82070825D01*
X181554874Y-81895554D01*
X181623209Y-81803095D01*
X181730629Y-81702839D01*
X181840117Y-81651541D01*
X181976032Y-81629671D01*
X182169745Y-81634475D01*
G37*
X182169745Y-81634475D02*
X182332069Y-81682766D01*
X182443619Y-81766862D01*
X182477179Y-81828270D01*
X182482123Y-81943510D01*
X182431786Y-82029956D01*
X182348605Y-82077382D01*
X182255015Y-82075567D01*
X182173453Y-82014286D01*
X182151748Y-81976562D01*
X182084460Y-81892650D01*
X182015072Y-81881312D01*
X181939680Y-81927207D01*
X181913247Y-82021054D01*
X181939155Y-82139454D01*
X181969633Y-82195802D01*
X182024992Y-82261726D01*
X182095966Y-82289469D01*
X182214236Y-82290056D01*
X182236303Y-82288604D01*
X182380329Y-82295470D01*
X182450343Y-82335839D01*
X182443154Y-82401595D01*
X182355569Y-82484621D01*
X182321969Y-82506375D01*
X182140327Y-82574497D01*
X181936889Y-82585303D01*
X181749742Y-82537532D01*
X181726949Y-82526065D01*
X181582179Y-82405150D01*
X181503419Y-82247047D01*
X181493405Y-82070825D01*
X181554874Y-81895554D01*
X181623209Y-81803095D01*
X181730629Y-81702839D01*
X181840117Y-81651541D01*
X181976032Y-81629671D01*
X182169745Y-81634475D01*
G36*
X181093532Y-81657260D02*
G01*
X181217227Y-81716783D01*
X181286639Y-81830010D01*
X181312663Y-82008281D01*
X181313667Y-82065753D01*
X181321996Y-82214702D01*
X181350761Y-82300955D01*
X181387750Y-82336109D01*
X181429908Y-82370625D01*
X181420114Y-82410569D01*
X181351587Y-82478747D01*
X181343056Y-82486379D01*
X181210847Y-82569596D01*
X181083893Y-82589019D01*
X180984615Y-82542681D01*
X180924341Y-82514218D01*
X180832811Y-82539613D01*
X180825990Y-82542681D01*
X180646296Y-82589372D01*
X180490472Y-82554855D01*
X180401576Y-82488424D01*
X180321741Y-82395837D01*
X180306510Y-82322023D01*
X180322370Y-82293873D01*
X180729863Y-82293873D01*
X180773042Y-82362141D01*
X180825505Y-82380667D01*
X180877952Y-82344008D01*
X180890334Y-82274833D01*
X180864429Y-82193263D01*
X180806105Y-82166972D01*
X180744444Y-82207925D01*
X180740914Y-82213360D01*
X180729863Y-82293873D01*
X180322370Y-82293873D01*
X180355126Y-82235736D01*
X180394314Y-82188363D01*
X180500177Y-82102995D01*
X180648162Y-82059142D01*
X180690647Y-82053496D01*
X180812582Y-82034619D01*
X180871671Y-82005169D01*
X180889684Y-81951612D01*
X180890334Y-81929332D01*
X180865281Y-81832731D01*
X180797947Y-81802968D01*
X180700065Y-81841682D01*
X180636334Y-81893833D01*
X180529514Y-81969761D01*
X180443738Y-81983630D01*
X180394117Y-81937351D01*
X180389948Y-81862669D01*
X180444694Y-81764195D01*
X180569877Y-81691235D01*
X180753772Y-81648860D01*
X180904657Y-81640101D01*
X181093532Y-81657260D01*
G37*
X181093532Y-81657260D02*
X181217227Y-81716783D01*
X181286639Y-81830010D01*
X181312663Y-82008281D01*
X181313667Y-82065753D01*
X181321996Y-82214702D01*
X181350761Y-82300955D01*
X181387750Y-82336109D01*
X181429908Y-82370625D01*
X181420114Y-82410569D01*
X181351587Y-82478747D01*
X181343056Y-82486379D01*
X181210847Y-82569596D01*
X181083893Y-82589019D01*
X180984615Y-82542681D01*
X180924341Y-82514218D01*
X180832811Y-82539613D01*
X180825990Y-82542681D01*
X180646296Y-82589372D01*
X180490472Y-82554855D01*
X180401576Y-82488424D01*
X180321741Y-82395837D01*
X180306510Y-82322023D01*
X180322370Y-82293873D01*
X180729863Y-82293873D01*
X180773042Y-82362141D01*
X180825505Y-82380667D01*
X180877952Y-82344008D01*
X180890334Y-82274833D01*
X180864429Y-82193263D01*
X180806105Y-82166972D01*
X180744444Y-82207925D01*
X180740914Y-82213360D01*
X180729863Y-82293873D01*
X180322370Y-82293873D01*
X180355126Y-82235736D01*
X180394314Y-82188363D01*
X180500177Y-82102995D01*
X180648162Y-82059142D01*
X180690647Y-82053496D01*
X180812582Y-82034619D01*
X180871671Y-82005169D01*
X180889684Y-81951612D01*
X180890334Y-81929332D01*
X180865281Y-81832731D01*
X180797947Y-81802968D01*
X180700065Y-81841682D01*
X180636334Y-81893833D01*
X180529514Y-81969761D01*
X180443738Y-81983630D01*
X180394117Y-81937351D01*
X180389948Y-81862669D01*
X180444694Y-81764195D01*
X180569877Y-81691235D01*
X180753772Y-81648860D01*
X180904657Y-81640101D01*
X181093532Y-81657260D01*
G36*
X180013449Y-81335609D02*
G01*
X180152005Y-81380284D01*
X180233230Y-81459150D01*
X180247344Y-81547259D01*
X180201801Y-81627129D01*
X180108760Y-81653114D01*
X179988424Y-81622171D01*
X179938163Y-81593823D01*
X179838032Y-81548691D01*
X179784232Y-81564835D01*
X179783524Y-81614116D01*
X179840420Y-81677978D01*
X179933630Y-81740262D01*
X180041870Y-81784810D01*
X180086555Y-81794325D01*
X180172712Y-81833419D01*
X180210079Y-81900923D01*
X180194129Y-81968288D01*
X180120336Y-82006966D01*
X180120265Y-82006976D01*
X180052145Y-82031983D01*
X180028684Y-82097879D01*
X180028776Y-82158726D01*
X180073302Y-82308167D01*
X180134609Y-82380948D01*
X180200597Y-82442378D01*
X180204859Y-82481437D01*
X180151992Y-82528805D01*
X180053847Y-82567864D01*
X179905259Y-82588746D01*
X179738545Y-82591161D01*
X179586018Y-82574815D01*
X179479994Y-82539417D01*
X179473346Y-82534930D01*
X179401305Y-82499559D01*
X179323193Y-82516174D01*
X179285338Y-82534669D01*
X179158475Y-82578791D01*
X179028150Y-82590802D01*
X178922825Y-82571211D01*
X178873059Y-82527314D01*
X178846824Y-82485885D01*
X178800214Y-82495773D01*
X178748877Y-82527314D01*
X178601341Y-82583997D01*
X178447112Y-82580381D01*
X178318959Y-82517927D01*
X178308000Y-82507667D01*
X178255899Y-82432476D01*
X178229896Y-82324128D01*
X178223334Y-82172024D01*
X178211592Y-81989492D01*
X178174842Y-81877745D01*
X178155722Y-81853436D01*
X178109350Y-81771355D01*
X178140193Y-81702679D01*
X178241277Y-81651843D01*
X178405626Y-81623280D01*
X178524959Y-81618667D01*
X178646667Y-81618667D01*
X178646667Y-81952150D01*
X178656533Y-82165995D01*
X178685557Y-82303098D01*
X178732876Y-82361454D01*
X178797629Y-82339056D01*
X178808541Y-82328859D01*
X178844788Y-82245846D01*
X178857413Y-82117185D01*
X178847461Y-81978219D01*
X178815976Y-81864295D01*
X178793766Y-81829153D01*
X178751410Y-81768247D01*
X178773135Y-81722421D01*
X178795170Y-81703054D01*
X178874836Y-81666841D01*
X179001908Y-81637244D01*
X179071405Y-81628098D01*
X179281667Y-81607894D01*
X179281667Y-81967930D01*
X179289077Y-82185375D01*
X179313688Y-82326337D01*
X179359071Y-82397893D01*
X179428797Y-82407123D01*
X179490627Y-82382115D01*
X179551899Y-82314957D01*
X179582297Y-82214578D01*
X179581619Y-82109566D01*
X179549664Y-82028509D01*
X179493334Y-81999667D01*
X179422581Y-81969732D01*
X179408667Y-81915000D01*
X179426602Y-81846213D01*
X179451500Y-81830333D01*
X179474840Y-81792791D01*
X179471963Y-81692242D01*
X179468857Y-81671009D01*
X179473127Y-81524123D01*
X179543387Y-81420686D01*
X179684242Y-81356386D01*
X179830883Y-81332007D01*
X180013449Y-81335609D01*
G37*
X180013449Y-81335609D02*
X180152005Y-81380284D01*
X180233230Y-81459150D01*
X180247344Y-81547259D01*
X180201801Y-81627129D01*
X180108760Y-81653114D01*
X179988424Y-81622171D01*
X179938163Y-81593823D01*
X179838032Y-81548691D01*
X179784232Y-81564835D01*
X179783524Y-81614116D01*
X179840420Y-81677978D01*
X179933630Y-81740262D01*
X180041870Y-81784810D01*
X180086555Y-81794325D01*
X180172712Y-81833419D01*
X180210079Y-81900923D01*
X180194129Y-81968288D01*
X180120336Y-82006966D01*
X180120265Y-82006976D01*
X180052145Y-82031983D01*
X180028684Y-82097879D01*
X180028776Y-82158726D01*
X180073302Y-82308167D01*
X180134609Y-82380948D01*
X180200597Y-82442378D01*
X180204859Y-82481437D01*
X180151992Y-82528805D01*
X180053847Y-82567864D01*
X179905259Y-82588746D01*
X179738545Y-82591161D01*
X179586018Y-82574815D01*
X179479994Y-82539417D01*
X179473346Y-82534930D01*
X179401305Y-82499559D01*
X179323193Y-82516174D01*
X179285338Y-82534669D01*
X179158475Y-82578791D01*
X179028150Y-82590802D01*
X178922825Y-82571211D01*
X178873059Y-82527314D01*
X178846824Y-82485885D01*
X178800214Y-82495773D01*
X178748877Y-82527314D01*
X178601341Y-82583997D01*
X178447112Y-82580381D01*
X178318959Y-82517927D01*
X178308000Y-82507667D01*
X178255899Y-82432476D01*
X178229896Y-82324128D01*
X178223334Y-82172024D01*
X178211592Y-81989492D01*
X178174842Y-81877745D01*
X178155722Y-81853436D01*
X178109350Y-81771355D01*
X178140193Y-81702679D01*
X178241277Y-81651843D01*
X178405626Y-81623280D01*
X178524959Y-81618667D01*
X178646667Y-81618667D01*
X178646667Y-81952150D01*
X178656533Y-82165995D01*
X178685557Y-82303098D01*
X178732876Y-82361454D01*
X178797629Y-82339056D01*
X178808541Y-82328859D01*
X178844788Y-82245846D01*
X178857413Y-82117185D01*
X178847461Y-81978219D01*
X178815976Y-81864295D01*
X178793766Y-81829153D01*
X178751410Y-81768247D01*
X178773135Y-81722421D01*
X178795170Y-81703054D01*
X178874836Y-81666841D01*
X179001908Y-81637244D01*
X179071405Y-81628098D01*
X179281667Y-81607894D01*
X179281667Y-81967930D01*
X179289077Y-82185375D01*
X179313688Y-82326337D01*
X179359071Y-82397893D01*
X179428797Y-82407123D01*
X179490627Y-82382115D01*
X179551899Y-82314957D01*
X179582297Y-82214578D01*
X179581619Y-82109566D01*
X179549664Y-82028509D01*
X179493334Y-81999667D01*
X179422581Y-81969732D01*
X179408667Y-81915000D01*
X179426602Y-81846213D01*
X179451500Y-81830333D01*
X179474840Y-81792791D01*
X179471963Y-81692242D01*
X179468857Y-81671009D01*
X179473127Y-81524123D01*
X179543387Y-81420686D01*
X179684242Y-81356386D01*
X179830883Y-81332007D01*
X180013449Y-81335609D01*
G36*
X177758030Y-81656050D02*
G01*
X177862708Y-81761426D01*
X177919229Y-81924635D01*
X177927000Y-82027902D01*
X177941845Y-82184612D01*
X177978517Y-82334994D01*
X177988226Y-82360587D01*
X178024467Y-82459135D01*
X178021171Y-82511218D01*
X177975434Y-82546705D01*
X177969843Y-82549727D01*
X177869113Y-82578257D01*
X177729259Y-82590159D01*
X177587960Y-82585057D01*
X177482898Y-82562577D01*
X177467546Y-82554735D01*
X177432224Y-82506441D01*
X177456963Y-82431167D01*
X177491512Y-82319008D01*
X177502973Y-82177812D01*
X177492296Y-82040337D01*
X177460432Y-81939341D01*
X177442021Y-81916539D01*
X177368005Y-81880771D01*
X177320235Y-81920166D01*
X177297621Y-82036908D01*
X177297667Y-82205462D01*
X177299553Y-82357363D01*
X177291894Y-82478521D01*
X177277584Y-82539417D01*
X177216990Y-82571104D01*
X177104642Y-82588086D01*
X176972287Y-82589640D01*
X176851674Y-82575044D01*
X176784000Y-82550643D01*
X176743303Y-82505876D01*
X176764104Y-82440376D01*
X176773417Y-82424866D01*
X176810640Y-82318463D01*
X176825709Y-82177115D01*
X176819265Y-82032779D01*
X176791953Y-81917406D01*
X176762311Y-81872233D01*
X176724603Y-81806989D01*
X176769372Y-81744928D01*
X176894435Y-81688187D01*
X176973360Y-81665703D01*
X177120026Y-81631555D01*
X177203143Y-81623560D01*
X177240431Y-81644131D01*
X177249612Y-81695682D01*
X177249667Y-81703333D01*
X177264671Y-81772164D01*
X177285439Y-81788000D01*
X177337694Y-81759693D01*
X177397834Y-81703333D01*
X177510644Y-81634646D01*
X177612989Y-81618667D01*
X177758030Y-81656050D01*
G37*
X177758030Y-81656050D02*
X177862708Y-81761426D01*
X177919229Y-81924635D01*
X177927000Y-82027902D01*
X177941845Y-82184612D01*
X177978517Y-82334994D01*
X177988226Y-82360587D01*
X178024467Y-82459135D01*
X178021171Y-82511218D01*
X177975434Y-82546705D01*
X177969843Y-82549727D01*
X177869113Y-82578257D01*
X177729259Y-82590159D01*
X177587960Y-82585057D01*
X177482898Y-82562577D01*
X177467546Y-82554735D01*
X177432224Y-82506441D01*
X177456963Y-82431167D01*
X177491512Y-82319008D01*
X177502973Y-82177812D01*
X177492296Y-82040337D01*
X177460432Y-81939341D01*
X177442021Y-81916539D01*
X177368005Y-81880771D01*
X177320235Y-81920166D01*
X177297621Y-82036908D01*
X177297667Y-82205462D01*
X177299553Y-82357363D01*
X177291894Y-82478521D01*
X177277584Y-82539417D01*
X177216990Y-82571104D01*
X177104642Y-82588086D01*
X176972287Y-82589640D01*
X176851674Y-82575044D01*
X176784000Y-82550643D01*
X176743303Y-82505876D01*
X176764104Y-82440376D01*
X176773417Y-82424866D01*
X176810640Y-82318463D01*
X176825709Y-82177115D01*
X176819265Y-82032779D01*
X176791953Y-81917406D01*
X176762311Y-81872233D01*
X176724603Y-81806989D01*
X176769372Y-81744928D01*
X176894435Y-81688187D01*
X176973360Y-81665703D01*
X177120026Y-81631555D01*
X177203143Y-81623560D01*
X177240431Y-81644131D01*
X177249612Y-81695682D01*
X177249667Y-81703333D01*
X177264671Y-81772164D01*
X177285439Y-81788000D01*
X177337694Y-81759693D01*
X177397834Y-81703333D01*
X177510644Y-81634646D01*
X177612989Y-81618667D01*
X177758030Y-81656050D01*
G36*
X176352199Y-81657260D02*
G01*
X176475894Y-81716783D01*
X176545306Y-81830010D01*
X176571330Y-82008281D01*
X176572334Y-82065753D01*
X176580663Y-82214702D01*
X176609427Y-82300955D01*
X176646417Y-82336109D01*
X176688574Y-82370625D01*
X176678781Y-82410569D01*
X176610254Y-82478747D01*
X176601723Y-82486379D01*
X176469513Y-82569596D01*
X176342560Y-82589019D01*
X176243282Y-82542681D01*
X176183008Y-82514218D01*
X176091478Y-82539613D01*
X176084657Y-82542681D01*
X175904963Y-82589372D01*
X175749139Y-82554855D01*
X175660243Y-82488424D01*
X175580408Y-82395837D01*
X175565176Y-82322023D01*
X175581036Y-82293873D01*
X175988530Y-82293873D01*
X176031708Y-82362141D01*
X176084172Y-82380667D01*
X176136619Y-82344008D01*
X176149000Y-82274833D01*
X176123096Y-82193263D01*
X176064772Y-82166972D01*
X176003110Y-82207925D01*
X175999581Y-82213360D01*
X175988530Y-82293873D01*
X175581036Y-82293873D01*
X175613792Y-82235736D01*
X175652980Y-82188363D01*
X175758844Y-82102995D01*
X175906829Y-82059142D01*
X175949314Y-82053496D01*
X176071248Y-82034619D01*
X176130338Y-82005169D01*
X176148351Y-81951612D01*
X176149000Y-81929332D01*
X176123948Y-81832731D01*
X176056614Y-81802968D01*
X175958731Y-81841682D01*
X175895000Y-81893833D01*
X175788180Y-81969761D01*
X175702405Y-81983630D01*
X175652783Y-81937351D01*
X175648614Y-81862669D01*
X175703361Y-81764195D01*
X175828544Y-81691235D01*
X176012439Y-81648860D01*
X176163324Y-81640101D01*
X176352199Y-81657260D01*
G37*
X176352199Y-81657260D02*
X176475894Y-81716783D01*
X176545306Y-81830010D01*
X176571330Y-82008281D01*
X176572334Y-82065753D01*
X176580663Y-82214702D01*
X176609427Y-82300955D01*
X176646417Y-82336109D01*
X176688574Y-82370625D01*
X176678781Y-82410569D01*
X176610254Y-82478747D01*
X176601723Y-82486379D01*
X176469513Y-82569596D01*
X176342560Y-82589019D01*
X176243282Y-82542681D01*
X176183008Y-82514218D01*
X176091478Y-82539613D01*
X176084657Y-82542681D01*
X175904963Y-82589372D01*
X175749139Y-82554855D01*
X175660243Y-82488424D01*
X175580408Y-82395837D01*
X175565176Y-82322023D01*
X175581036Y-82293873D01*
X175988530Y-82293873D01*
X176031708Y-82362141D01*
X176084172Y-82380667D01*
X176136619Y-82344008D01*
X176149000Y-82274833D01*
X176123096Y-82193263D01*
X176064772Y-82166972D01*
X176003110Y-82207925D01*
X175999581Y-82213360D01*
X175988530Y-82293873D01*
X175581036Y-82293873D01*
X175613792Y-82235736D01*
X175652980Y-82188363D01*
X175758844Y-82102995D01*
X175906829Y-82059142D01*
X175949314Y-82053496D01*
X176071248Y-82034619D01*
X176130338Y-82005169D01*
X176148351Y-81951612D01*
X176149000Y-81929332D01*
X176123948Y-81832731D01*
X176056614Y-81802968D01*
X175958731Y-81841682D01*
X175895000Y-81893833D01*
X175788180Y-81969761D01*
X175702405Y-81983630D01*
X175652783Y-81937351D01*
X175648614Y-81862669D01*
X175703361Y-81764195D01*
X175828544Y-81691235D01*
X176012439Y-81648860D01*
X176163324Y-81640101D01*
X176352199Y-81657260D01*
G36*
X175341874Y-81286472D02*
G01*
X175437035Y-81302379D01*
X175447038Y-81305696D01*
X175504381Y-81364973D01*
X175505182Y-81454644D01*
X175461084Y-81527682D01*
X175430438Y-81603082D01*
X175413471Y-81737330D01*
X175409336Y-81905861D01*
X175417189Y-82084110D01*
X175436184Y-82247512D01*
X175465475Y-82371503D01*
X175491862Y-82421927D01*
X175538676Y-82483754D01*
X175521337Y-82521106D01*
X175477962Y-82546631D01*
X175379057Y-82575996D01*
X175241153Y-82589984D01*
X175094070Y-82588967D01*
X174967627Y-82573315D01*
X174891644Y-82543397D01*
X174887684Y-82539296D01*
X174870128Y-82468592D01*
X174903667Y-82404205D01*
X174942783Y-82318692D01*
X174961883Y-82214303D01*
X174960416Y-82118478D01*
X174937828Y-82058660D01*
X174910750Y-82052339D01*
X174865771Y-82097276D01*
X174801694Y-82196813D01*
X174742146Y-82309867D01*
X174675609Y-82434736D01*
X174617145Y-82521572D01*
X174583001Y-82550000D01*
X174544383Y-82514724D01*
X174483054Y-82421742D01*
X174411561Y-82290327D01*
X174403852Y-82274833D01*
X174333430Y-82140642D01*
X174273921Y-82042684D01*
X174237102Y-82000140D01*
X174234914Y-81999667D01*
X174207684Y-82035776D01*
X174198291Y-82124035D01*
X174204505Y-82234339D01*
X174224092Y-82336585D01*
X174254821Y-82400667D01*
X174265167Y-82407691D01*
X174322466Y-82461664D01*
X174312190Y-82529262D01*
X174261704Y-82566637D01*
X174148889Y-82590759D01*
X174020452Y-82592283D01*
X173907495Y-82573893D01*
X173841119Y-82538274D01*
X173836393Y-82529921D01*
X173844112Y-82453490D01*
X173880055Y-82399897D01*
X173917844Y-82317674D01*
X173942000Y-82176946D01*
X173952571Y-82002761D01*
X173949605Y-81820169D01*
X173933149Y-81654217D01*
X173903250Y-81529955D01*
X173878324Y-81485211D01*
X173832841Y-81399093D01*
X173863779Y-81334114D01*
X173964412Y-81295454D01*
X174128012Y-81288294D01*
X174133606Y-81288607D01*
X174248015Y-81298172D01*
X174323992Y-81321496D01*
X174384812Y-81375346D01*
X174453749Y-81476487D01*
X174500088Y-81552601D01*
X174581938Y-81680424D01*
X174651693Y-81775711D01*
X174694503Y-81818210D01*
X174694999Y-81818388D01*
X174736214Y-81792220D01*
X174791262Y-81709498D01*
X174817562Y-81656428D01*
X174910902Y-81472040D01*
X174998906Y-81356722D01*
X175095723Y-81297151D01*
X175215501Y-81280002D01*
X175217277Y-81280000D01*
X175341874Y-81286472D01*
G37*
X175341874Y-81286472D02*
X175437035Y-81302379D01*
X175447038Y-81305696D01*
X175504381Y-81364973D01*
X175505182Y-81454644D01*
X175461084Y-81527682D01*
X175430438Y-81603082D01*
X175413471Y-81737330D01*
X175409336Y-81905861D01*
X175417189Y-82084110D01*
X175436184Y-82247512D01*
X175465475Y-82371503D01*
X175491862Y-82421927D01*
X175538676Y-82483754D01*
X175521337Y-82521106D01*
X175477962Y-82546631D01*
X175379057Y-82575996D01*
X175241153Y-82589984D01*
X175094070Y-82588967D01*
X174967627Y-82573315D01*
X174891644Y-82543397D01*
X174887684Y-82539296D01*
X174870128Y-82468592D01*
X174903667Y-82404205D01*
X174942783Y-82318692D01*
X174961883Y-82214303D01*
X174960416Y-82118478D01*
X174937828Y-82058660D01*
X174910750Y-82052339D01*
X174865771Y-82097276D01*
X174801694Y-82196813D01*
X174742146Y-82309867D01*
X174675609Y-82434736D01*
X174617145Y-82521572D01*
X174583001Y-82550000D01*
X174544383Y-82514724D01*
X174483054Y-82421742D01*
X174411561Y-82290327D01*
X174403852Y-82274833D01*
X174333430Y-82140642D01*
X174273921Y-82042684D01*
X174237102Y-82000140D01*
X174234914Y-81999667D01*
X174207684Y-82035776D01*
X174198291Y-82124035D01*
X174204505Y-82234339D01*
X174224092Y-82336585D01*
X174254821Y-82400667D01*
X174265167Y-82407691D01*
X174322466Y-82461664D01*
X174312190Y-82529262D01*
X174261704Y-82566637D01*
X174148889Y-82590759D01*
X174020452Y-82592283D01*
X173907495Y-82573893D01*
X173841119Y-82538274D01*
X173836393Y-82529921D01*
X173844112Y-82453490D01*
X173880055Y-82399897D01*
X173917844Y-82317674D01*
X173942000Y-82176946D01*
X173952571Y-82002761D01*
X173949605Y-81820169D01*
X173933149Y-81654217D01*
X173903250Y-81529955D01*
X173878324Y-81485211D01*
X173832841Y-81399093D01*
X173863779Y-81334114D01*
X173964412Y-81295454D01*
X174128012Y-81288294D01*
X174133606Y-81288607D01*
X174248015Y-81298172D01*
X174323992Y-81321496D01*
X174384812Y-81375346D01*
X174453749Y-81476487D01*
X174500088Y-81552601D01*
X174581938Y-81680424D01*
X174651693Y-81775711D01*
X174694503Y-81818210D01*
X174694999Y-81818388D01*
X174736214Y-81792220D01*
X174791262Y-81709498D01*
X174817562Y-81656428D01*
X174910902Y-81472040D01*
X174998906Y-81356722D01*
X175095723Y-81297151D01*
X175215501Y-81280002D01*
X175217277Y-81280000D01*
X175341874Y-81286472D01*
G36*
X186895999Y-81637306D02*
G01*
X186946377Y-81689400D01*
X186918237Y-81769210D01*
X186862965Y-81827690D01*
X186773409Y-81939915D01*
X186681009Y-82112738D01*
X186623903Y-82251076D01*
X186503103Y-82513724D01*
X186363185Y-82707910D01*
X186209227Y-82829461D01*
X186046308Y-82874205D01*
X185899018Y-82846511D01*
X185804147Y-82779362D01*
X185760464Y-82722691D01*
X185738957Y-82645081D01*
X185779625Y-82572358D01*
X185800030Y-82550970D01*
X185890378Y-82479110D01*
X185959702Y-82481677D01*
X186030706Y-82560601D01*
X186037726Y-82571167D01*
X186108278Y-82655099D01*
X186160072Y-82672194D01*
X186181886Y-82619242D01*
X186182000Y-82612443D01*
X186161823Y-82535548D01*
X186108954Y-82408913D01*
X186034886Y-82255022D01*
X185951110Y-82096356D01*
X185869121Y-81955399D01*
X185800411Y-81854635D01*
X185785874Y-81837505D01*
X185726344Y-81766937D01*
X185723090Y-81725568D01*
X185774366Y-81680932D01*
X185777341Y-81678755D01*
X185871030Y-81643484D01*
X186011911Y-81623750D01*
X186164364Y-81620958D01*
X186292767Y-81636511D01*
X186345280Y-81656363D01*
X186382527Y-81723596D01*
X186376832Y-81774352D01*
X186376541Y-81862279D01*
X186415390Y-81942168D01*
X186474259Y-81986156D01*
X186518047Y-81980119D01*
X186551573Y-81911180D01*
X186544639Y-81809230D01*
X186540588Y-81703618D01*
X186586908Y-81644493D01*
X186696703Y-81620758D01*
X186769663Y-81618667D01*
X186895999Y-81637306D01*
G37*
X186895999Y-81637306D02*
X186946377Y-81689400D01*
X186918237Y-81769210D01*
X186862965Y-81827690D01*
X186773409Y-81939915D01*
X186681009Y-82112738D01*
X186623903Y-82251076D01*
X186503103Y-82513724D01*
X186363185Y-82707910D01*
X186209227Y-82829461D01*
X186046308Y-82874205D01*
X185899018Y-82846511D01*
X185804147Y-82779362D01*
X185760464Y-82722691D01*
X185738957Y-82645081D01*
X185779625Y-82572358D01*
X185800030Y-82550970D01*
X185890378Y-82479110D01*
X185959702Y-82481677D01*
X186030706Y-82560601D01*
X186037726Y-82571167D01*
X186108278Y-82655099D01*
X186160072Y-82672194D01*
X186181886Y-82619242D01*
X186182000Y-82612443D01*
X186161823Y-82535548D01*
X186108954Y-82408913D01*
X186034886Y-82255022D01*
X185951110Y-82096356D01*
X185869121Y-81955399D01*
X185800411Y-81854635D01*
X185785874Y-81837505D01*
X185726344Y-81766937D01*
X185723090Y-81725568D01*
X185774366Y-81680932D01*
X185777341Y-81678755D01*
X185871030Y-81643484D01*
X186011911Y-81623750D01*
X186164364Y-81620958D01*
X186292767Y-81636511D01*
X186345280Y-81656363D01*
X186382527Y-81723596D01*
X186376832Y-81774352D01*
X186376541Y-81862279D01*
X186415390Y-81942168D01*
X186474259Y-81986156D01*
X186518047Y-81980119D01*
X186551573Y-81911180D01*
X186544639Y-81809230D01*
X186540588Y-81703618D01*
X186586908Y-81644493D01*
X186696703Y-81620758D01*
X186769663Y-81618667D01*
X186895999Y-81637306D01*
D12*
G04 #@! TO.C,C1*
X165180000Y-100945000D02*
G75*
G03*
X165180000Y-100945000I-2620000J0D01*
G01*
X165140000Y-100945000D02*
X159980000Y-100945000D01*
X165140000Y-100985000D02*
X159980000Y-100985000D01*
X165139000Y-101025000D02*
X159981000Y-101025000D01*
X165138000Y-101065000D02*
X159982000Y-101065000D01*
X165136000Y-101105000D02*
X159984000Y-101105000D01*
X165133000Y-101145000D02*
X159987000Y-101145000D01*
X165129000Y-101185000D02*
X163600000Y-101185000D01*
X161520000Y-101185000D02*
X159991000Y-101185000D01*
X165125000Y-101225000D02*
X163600000Y-101225000D01*
X161520000Y-101225000D02*
X159995000Y-101225000D01*
X165121000Y-101265000D02*
X163600000Y-101265000D01*
X161520000Y-101265000D02*
X159999000Y-101265000D01*
X165116000Y-101305000D02*
X163600000Y-101305000D01*
X161520000Y-101305000D02*
X160004000Y-101305000D01*
X165110000Y-101345000D02*
X163600000Y-101345000D01*
X161520000Y-101345000D02*
X160010000Y-101345000D01*
X165103000Y-101385000D02*
X163600000Y-101385000D01*
X161520000Y-101385000D02*
X160017000Y-101385000D01*
X165096000Y-101425000D02*
X163600000Y-101425000D01*
X161520000Y-101425000D02*
X160024000Y-101425000D01*
X165088000Y-101465000D02*
X163600000Y-101465000D01*
X161520000Y-101465000D02*
X160032000Y-101465000D01*
X165080000Y-101505000D02*
X163600000Y-101505000D01*
X161520000Y-101505000D02*
X160040000Y-101505000D01*
X165071000Y-101545000D02*
X163600000Y-101545000D01*
X161520000Y-101545000D02*
X160049000Y-101545000D01*
X165061000Y-101585000D02*
X163600000Y-101585000D01*
X161520000Y-101585000D02*
X160059000Y-101585000D01*
X165051000Y-101625000D02*
X163600000Y-101625000D01*
X161520000Y-101625000D02*
X160069000Y-101625000D01*
X165040000Y-101666000D02*
X163600000Y-101666000D01*
X161520000Y-101666000D02*
X160080000Y-101666000D01*
X165028000Y-101706000D02*
X163600000Y-101706000D01*
X161520000Y-101706000D02*
X160092000Y-101706000D01*
X165015000Y-101746000D02*
X163600000Y-101746000D01*
X161520000Y-101746000D02*
X160105000Y-101746000D01*
X165002000Y-101786000D02*
X163600000Y-101786000D01*
X161520000Y-101786000D02*
X160118000Y-101786000D01*
X164988000Y-101826000D02*
X163600000Y-101826000D01*
X161520000Y-101826000D02*
X160132000Y-101826000D01*
X164974000Y-101866000D02*
X163600000Y-101866000D01*
X161520000Y-101866000D02*
X160146000Y-101866000D01*
X164958000Y-101906000D02*
X163600000Y-101906000D01*
X161520000Y-101906000D02*
X160162000Y-101906000D01*
X164942000Y-101946000D02*
X163600000Y-101946000D01*
X161520000Y-101946000D02*
X160178000Y-101946000D01*
X164925000Y-101986000D02*
X163600000Y-101986000D01*
X161520000Y-101986000D02*
X160195000Y-101986000D01*
X164908000Y-102026000D02*
X163600000Y-102026000D01*
X161520000Y-102026000D02*
X160212000Y-102026000D01*
X164889000Y-102066000D02*
X163600000Y-102066000D01*
X161520000Y-102066000D02*
X160231000Y-102066000D01*
X164870000Y-102106000D02*
X163600000Y-102106000D01*
X161520000Y-102106000D02*
X160250000Y-102106000D01*
X164850000Y-102146000D02*
X163600000Y-102146000D01*
X161520000Y-102146000D02*
X160270000Y-102146000D01*
X164828000Y-102186000D02*
X163600000Y-102186000D01*
X161520000Y-102186000D02*
X160292000Y-102186000D01*
X164807000Y-102226000D02*
X163600000Y-102226000D01*
X161520000Y-102226000D02*
X160313000Y-102226000D01*
X164784000Y-102266000D02*
X163600000Y-102266000D01*
X161520000Y-102266000D02*
X160336000Y-102266000D01*
X164760000Y-102306000D02*
X163600000Y-102306000D01*
X161520000Y-102306000D02*
X160360000Y-102306000D01*
X164735000Y-102346000D02*
X163600000Y-102346000D01*
X161520000Y-102346000D02*
X160385000Y-102346000D01*
X164709000Y-102386000D02*
X163600000Y-102386000D01*
X161520000Y-102386000D02*
X160411000Y-102386000D01*
X164682000Y-102426000D02*
X163600000Y-102426000D01*
X161520000Y-102426000D02*
X160438000Y-102426000D01*
X164655000Y-102466000D02*
X163600000Y-102466000D01*
X161520000Y-102466000D02*
X160465000Y-102466000D01*
X164625000Y-102506000D02*
X163600000Y-102506000D01*
X161520000Y-102506000D02*
X160495000Y-102506000D01*
X164595000Y-102546000D02*
X163600000Y-102546000D01*
X161520000Y-102546000D02*
X160525000Y-102546000D01*
X164564000Y-102586000D02*
X163600000Y-102586000D01*
X161520000Y-102586000D02*
X160556000Y-102586000D01*
X164531000Y-102626000D02*
X163600000Y-102626000D01*
X161520000Y-102626000D02*
X160589000Y-102626000D01*
X164497000Y-102666000D02*
X163600000Y-102666000D01*
X161520000Y-102666000D02*
X160623000Y-102666000D01*
X164461000Y-102706000D02*
X163600000Y-102706000D01*
X161520000Y-102706000D02*
X160659000Y-102706000D01*
X164424000Y-102746000D02*
X163600000Y-102746000D01*
X161520000Y-102746000D02*
X160696000Y-102746000D01*
X164386000Y-102786000D02*
X163600000Y-102786000D01*
X161520000Y-102786000D02*
X160734000Y-102786000D01*
X164345000Y-102826000D02*
X163600000Y-102826000D01*
X161520000Y-102826000D02*
X160775000Y-102826000D01*
X164303000Y-102866000D02*
X163600000Y-102866000D01*
X161520000Y-102866000D02*
X160817000Y-102866000D01*
X164259000Y-102906000D02*
X163600000Y-102906000D01*
X161520000Y-102906000D02*
X160861000Y-102906000D01*
X164213000Y-102946000D02*
X163600000Y-102946000D01*
X161520000Y-102946000D02*
X160907000Y-102946000D01*
X164165000Y-102986000D02*
X163600000Y-102986000D01*
X161520000Y-102986000D02*
X160955000Y-102986000D01*
X164114000Y-103026000D02*
X163600000Y-103026000D01*
X161520000Y-103026000D02*
X161006000Y-103026000D01*
X164060000Y-103066000D02*
X163600000Y-103066000D01*
X161520000Y-103066000D02*
X161060000Y-103066000D01*
X164003000Y-103106000D02*
X163600000Y-103106000D01*
X161520000Y-103106000D02*
X161117000Y-103106000D01*
X163943000Y-103146000D02*
X163600000Y-103146000D01*
X161520000Y-103146000D02*
X161177000Y-103146000D01*
X163879000Y-103186000D02*
X163600000Y-103186000D01*
X161520000Y-103186000D02*
X161241000Y-103186000D01*
X163811000Y-103226000D02*
X163600000Y-103226000D01*
X161520000Y-103226000D02*
X161309000Y-103226000D01*
X163738000Y-103266000D02*
X161382000Y-103266000D01*
X163658000Y-103306000D02*
X161462000Y-103306000D01*
X163571000Y-103346000D02*
X161549000Y-103346000D01*
X163475000Y-103386000D02*
X161645000Y-103386000D01*
X163365000Y-103426000D02*
X161755000Y-103426000D01*
X163237000Y-103466000D02*
X161883000Y-103466000D01*
X163078000Y-103506000D02*
X162042000Y-103506000D01*
X162844000Y-103546000D02*
X162276000Y-103546000D01*
X164035000Y-98140225D02*
X164035000Y-98640225D01*
X164285000Y-98390225D02*
X163785000Y-98390225D01*
G04 #@! TO.C,R11*
X153440000Y-100235000D02*
X153770000Y-100235000D01*
X153770000Y-100235000D02*
X153770000Y-106775000D01*
X153770000Y-106775000D02*
X153440000Y-106775000D01*
X151360000Y-100235000D02*
X151030000Y-100235000D01*
X151030000Y-100235000D02*
X151030000Y-106775000D01*
X151030000Y-106775000D02*
X151360000Y-106775000D01*
G04 #@! TO.C,R2*
X168045000Y-100235000D02*
X168375000Y-100235000D01*
X168375000Y-100235000D02*
X168375000Y-106775000D01*
X168375000Y-106775000D02*
X168045000Y-106775000D01*
X165965000Y-100235000D02*
X165635000Y-100235000D01*
X165635000Y-100235000D02*
X165635000Y-106775000D01*
X165635000Y-106775000D02*
X165965000Y-106775000D01*
G04 #@! TO.C,R1*
X169140000Y-106775000D02*
X168810000Y-106775000D01*
X168810000Y-106775000D02*
X168810000Y-100235000D01*
X168810000Y-100235000D02*
X169140000Y-100235000D01*
X171220000Y-106775000D02*
X171550000Y-106775000D01*
X171550000Y-106775000D02*
X171550000Y-100235000D01*
X171550000Y-100235000D02*
X171220000Y-100235000D01*
G04 #@! TO.C,U1*
X179130000Y-91710000D02*
X179130000Y-90060000D01*
X179130000Y-90060000D02*
X168850000Y-90060000D01*
X168850000Y-90060000D02*
X168850000Y-95360000D01*
X168850000Y-95360000D02*
X179130000Y-95360000D01*
X179130000Y-95360000D02*
X179130000Y-93710000D01*
X179190000Y-87570000D02*
X168790000Y-87570000D01*
X168790000Y-87570000D02*
X168790000Y-97850000D01*
X168790000Y-97850000D02*
X179190000Y-97850000D01*
X179190000Y-97850000D02*
X179190000Y-87570000D01*
X179130000Y-93710000D02*
G75*
G02*
X179130000Y-91710000I0J1000000D01*
G01*
G04 #@! TO.C,C11*
X150295000Y-99925000D02*
X150295000Y-104465000D01*
X148155000Y-99925000D02*
X148155000Y-104465000D01*
X150295000Y-99925000D02*
X150280000Y-99925000D01*
X148170000Y-99925000D02*
X148155000Y-99925000D01*
X150295000Y-104465000D02*
X150280000Y-104465000D01*
X148170000Y-104465000D02*
X148155000Y-104465000D01*
G04 #@! TO.C,C10*
X145765000Y-90819000D02*
X145765000Y-89561000D01*
X147605000Y-90819000D02*
X147605000Y-89561000D01*
G04 #@! TO.C,R6*
X175665000Y-100235000D02*
X175995000Y-100235000D01*
X175995000Y-100235000D02*
X175995000Y-106775000D01*
X175995000Y-106775000D02*
X175665000Y-106775000D01*
X173585000Y-100235000D02*
X173255000Y-100235000D01*
X173255000Y-100235000D02*
X173255000Y-106775000D01*
X173255000Y-106775000D02*
X173585000Y-106775000D01*
G04 #@! TO.C,U2*
X158810000Y-91710000D02*
X158810000Y-90060000D01*
X158810000Y-90060000D02*
X148530000Y-90060000D01*
X148530000Y-90060000D02*
X148530000Y-95360000D01*
X148530000Y-95360000D02*
X158810000Y-95360000D01*
X158810000Y-95360000D02*
X158810000Y-93710000D01*
X158870000Y-87570000D02*
X148470000Y-87570000D01*
X148470000Y-87570000D02*
X148470000Y-97850000D01*
X148470000Y-97850000D02*
X158870000Y-97850000D01*
X158870000Y-97850000D02*
X158870000Y-87570000D01*
X158810000Y-93710000D02*
G75*
G02*
X158810000Y-91710000I0J1000000D01*
G01*
G04 #@! TO.C,R15*
X156940000Y-80415000D02*
X156940000Y-80745000D01*
X156940000Y-80745000D02*
X150400000Y-80745000D01*
X150400000Y-80745000D02*
X150400000Y-80415000D01*
X156940000Y-78335000D02*
X156940000Y-78005000D01*
X156940000Y-78005000D02*
X150400000Y-78005000D01*
X150400000Y-78005000D02*
X150400000Y-78335000D01*
G04 #@! TO.C,R14*
X146145000Y-103275000D02*
X146145000Y-103605000D01*
X146145000Y-103605000D02*
X139605000Y-103605000D01*
X139605000Y-103605000D02*
X139605000Y-103275000D01*
X146145000Y-101195000D02*
X146145000Y-100865000D01*
X146145000Y-100865000D02*
X139605000Y-100865000D01*
X139605000Y-100865000D02*
X139605000Y-101195000D01*
G04 #@! TO.C,R13*
X139605000Y-104370000D02*
X139605000Y-104040000D01*
X139605000Y-104040000D02*
X146145000Y-104040000D01*
X146145000Y-104040000D02*
X146145000Y-104370000D01*
X139605000Y-106450000D02*
X139605000Y-106780000D01*
X139605000Y-106780000D02*
X146145000Y-106780000D01*
X146145000Y-106780000D02*
X146145000Y-106450000D01*
G04 #@! TO.C,R12*
X139605000Y-98020000D02*
X139605000Y-97690000D01*
X139605000Y-97690000D02*
X146145000Y-97690000D01*
X146145000Y-97690000D02*
X146145000Y-98020000D01*
X139605000Y-100100000D02*
X139605000Y-100430000D01*
X139605000Y-100430000D02*
X146145000Y-100430000D01*
X146145000Y-100430000D02*
X146145000Y-100100000D01*
G04 #@! TO.C,R10*
X150400000Y-81510000D02*
X150400000Y-81180000D01*
X150400000Y-81180000D02*
X156940000Y-81180000D01*
X156940000Y-81180000D02*
X156940000Y-81510000D01*
X150400000Y-83590000D02*
X150400000Y-83920000D01*
X150400000Y-83920000D02*
X156940000Y-83920000D01*
X156940000Y-83920000D02*
X156940000Y-83590000D01*
G04 #@! TO.C,R9*
X156615000Y-100235000D02*
X156945000Y-100235000D01*
X156945000Y-100235000D02*
X156945000Y-106775000D01*
X156945000Y-106775000D02*
X156615000Y-106775000D01*
X154535000Y-100235000D02*
X154205000Y-100235000D01*
X154205000Y-100235000D02*
X154205000Y-106775000D01*
X154205000Y-106775000D02*
X154535000Y-106775000D01*
G04 #@! TO.C,R8*
X156940000Y-86765000D02*
X156940000Y-87095000D01*
X156940000Y-87095000D02*
X150400000Y-87095000D01*
X150400000Y-87095000D02*
X150400000Y-86765000D01*
X156940000Y-84685000D02*
X156940000Y-84355000D01*
X156940000Y-84355000D02*
X150400000Y-84355000D01*
X150400000Y-84355000D02*
X150400000Y-84685000D01*
G04 #@! TO.C,R7*
X139605000Y-107545000D02*
X139605000Y-107215000D01*
X139605000Y-107215000D02*
X146145000Y-107215000D01*
X146145000Y-107215000D02*
X146145000Y-107545000D01*
X139605000Y-109625000D02*
X139605000Y-109955000D01*
X139605000Y-109955000D02*
X146145000Y-109955000D01*
X146145000Y-109955000D02*
X146145000Y-109625000D01*
G04 #@! TO.C,R5*
X176760000Y-106775000D02*
X176430000Y-106775000D01*
X176430000Y-106775000D02*
X176430000Y-100235000D01*
X176430000Y-100235000D02*
X176760000Y-100235000D01*
X178840000Y-106775000D02*
X179170000Y-106775000D01*
X179170000Y-106775000D02*
X179170000Y-100235000D01*
X179170000Y-100235000D02*
X178840000Y-100235000D01*
G04 #@! TO.C,R4*
X120555000Y-85320000D02*
X120555000Y-84990000D01*
X120555000Y-84990000D02*
X127095000Y-84990000D01*
X127095000Y-84990000D02*
X127095000Y-85320000D01*
X120555000Y-87400000D02*
X120555000Y-87730000D01*
X120555000Y-87730000D02*
X127095000Y-87730000D01*
X127095000Y-87730000D02*
X127095000Y-87400000D01*
G04 #@! TO.C,R3*
X127095000Y-112800000D02*
X127095000Y-113130000D01*
X127095000Y-113130000D02*
X120555000Y-113130000D01*
X120555000Y-113130000D02*
X120555000Y-112800000D01*
X127095000Y-110720000D02*
X127095000Y-110390000D01*
X127095000Y-110390000D02*
X120555000Y-110390000D01*
X120555000Y-110390000D02*
X120555000Y-110720000D01*
G04 #@! TO.C,Q1*
X159280000Y-109910000D02*
X155680000Y-109910000D01*
X155155816Y-110637205D02*
G75*
G02*
X155680000Y-109910000I2324184J-1122795D01*
G01*
X155124543Y-112858371D02*
G75*
G03*
X156370000Y-114110000I2355457J1098371D01*
G01*
X159847199Y-112863842D02*
G75*
G02*
X158620000Y-114110000I-2367199J1103842D01*
G01*
X159804184Y-110637205D02*
G75*
G03*
X159280000Y-109910000I-2324184J-1122795D01*
G01*
G04 #@! TO.C,J10*
X119360000Y-76915000D02*
X119360000Y-82885000D01*
X119360000Y-82885000D02*
X126980000Y-82885000D01*
X126980000Y-82885000D02*
X126980000Y-76915000D01*
X126980000Y-76915000D02*
X119360000Y-76915000D01*
X122670000Y-76925000D02*
X122670000Y-77675000D01*
X122670000Y-77675000D02*
X123670000Y-77675000D01*
X123670000Y-77675000D02*
X123670000Y-76925000D01*
X123670000Y-76925000D02*
X122670000Y-76925000D01*
X119370000Y-76925000D02*
X119370000Y-77675000D01*
X119370000Y-77675000D02*
X121170000Y-77675000D01*
X121170000Y-77675000D02*
X121170000Y-76925000D01*
X121170000Y-76925000D02*
X119370000Y-76925000D01*
X125170000Y-76925000D02*
X125170000Y-77675000D01*
X125170000Y-77675000D02*
X126970000Y-77675000D01*
X126970000Y-77675000D02*
X126970000Y-76925000D01*
X126970000Y-76925000D02*
X125170000Y-76925000D01*
X119370000Y-79175000D02*
X120120000Y-79175000D01*
X120120000Y-79175000D02*
X120120000Y-82125000D01*
X120120000Y-82125000D02*
X123170000Y-82125000D01*
X126970000Y-79175000D02*
X126220000Y-79175000D01*
X126220000Y-79175000D02*
X126220000Y-82125000D01*
X126220000Y-82125000D02*
X123170000Y-82125000D01*
X120320000Y-76625000D02*
X119070000Y-76625000D01*
X119070000Y-76625000D02*
X119070000Y-77875000D01*
G04 #@! TO.C,J9*
X128885000Y-76915000D02*
X128885000Y-82885000D01*
X128885000Y-82885000D02*
X136505000Y-82885000D01*
X136505000Y-82885000D02*
X136505000Y-76915000D01*
X136505000Y-76915000D02*
X128885000Y-76915000D01*
X132195000Y-76925000D02*
X132195000Y-77675000D01*
X132195000Y-77675000D02*
X133195000Y-77675000D01*
X133195000Y-77675000D02*
X133195000Y-76925000D01*
X133195000Y-76925000D02*
X132195000Y-76925000D01*
X128895000Y-76925000D02*
X128895000Y-77675000D01*
X128895000Y-77675000D02*
X130695000Y-77675000D01*
X130695000Y-77675000D02*
X130695000Y-76925000D01*
X130695000Y-76925000D02*
X128895000Y-76925000D01*
X134695000Y-76925000D02*
X134695000Y-77675000D01*
X134695000Y-77675000D02*
X136495000Y-77675000D01*
X136495000Y-77675000D02*
X136495000Y-76925000D01*
X136495000Y-76925000D02*
X134695000Y-76925000D01*
X128895000Y-79175000D02*
X129645000Y-79175000D01*
X129645000Y-79175000D02*
X129645000Y-82125000D01*
X129645000Y-82125000D02*
X132695000Y-82125000D01*
X136495000Y-79175000D02*
X135745000Y-79175000D01*
X135745000Y-79175000D02*
X135745000Y-82125000D01*
X135745000Y-82125000D02*
X132695000Y-82125000D01*
X129845000Y-76625000D02*
X128595000Y-76625000D01*
X128595000Y-76625000D02*
X128595000Y-77875000D01*
G04 #@! TO.C,J8*
X138410000Y-76915000D02*
X138410000Y-82885000D01*
X138410000Y-82885000D02*
X146030000Y-82885000D01*
X146030000Y-82885000D02*
X146030000Y-76915000D01*
X146030000Y-76915000D02*
X138410000Y-76915000D01*
X141720000Y-76925000D02*
X141720000Y-77675000D01*
X141720000Y-77675000D02*
X142720000Y-77675000D01*
X142720000Y-77675000D02*
X142720000Y-76925000D01*
X142720000Y-76925000D02*
X141720000Y-76925000D01*
X138420000Y-76925000D02*
X138420000Y-77675000D01*
X138420000Y-77675000D02*
X140220000Y-77675000D01*
X140220000Y-77675000D02*
X140220000Y-76925000D01*
X140220000Y-76925000D02*
X138420000Y-76925000D01*
X144220000Y-76925000D02*
X144220000Y-77675000D01*
X144220000Y-77675000D02*
X146020000Y-77675000D01*
X146020000Y-77675000D02*
X146020000Y-76925000D01*
X146020000Y-76925000D02*
X144220000Y-76925000D01*
X138420000Y-79175000D02*
X139170000Y-79175000D01*
X139170000Y-79175000D02*
X139170000Y-82125000D01*
X139170000Y-82125000D02*
X142220000Y-82125000D01*
X146020000Y-79175000D02*
X145270000Y-79175000D01*
X145270000Y-79175000D02*
X145270000Y-82125000D01*
X145270000Y-82125000D02*
X142220000Y-82125000D01*
X139370000Y-76625000D02*
X138120000Y-76625000D01*
X138120000Y-76625000D02*
X138120000Y-77875000D01*
G04 #@! TO.C,J7*
X135910000Y-121840000D02*
X135910000Y-115870000D01*
X135910000Y-115870000D02*
X128290000Y-115870000D01*
X128290000Y-115870000D02*
X128290000Y-121840000D01*
X128290000Y-121840000D02*
X135910000Y-121840000D01*
X132600000Y-121830000D02*
X132600000Y-121080000D01*
X132600000Y-121080000D02*
X131600000Y-121080000D01*
X131600000Y-121080000D02*
X131600000Y-121830000D01*
X131600000Y-121830000D02*
X132600000Y-121830000D01*
X135900000Y-121830000D02*
X135900000Y-121080000D01*
X135900000Y-121080000D02*
X134100000Y-121080000D01*
X134100000Y-121080000D02*
X134100000Y-121830000D01*
X134100000Y-121830000D02*
X135900000Y-121830000D01*
X130100000Y-121830000D02*
X130100000Y-121080000D01*
X130100000Y-121080000D02*
X128300000Y-121080000D01*
X128300000Y-121080000D02*
X128300000Y-121830000D01*
X128300000Y-121830000D02*
X130100000Y-121830000D01*
X135900000Y-119580000D02*
X135150000Y-119580000D01*
X135150000Y-119580000D02*
X135150000Y-116630000D01*
X135150000Y-116630000D02*
X132100000Y-116630000D01*
X128300000Y-119580000D02*
X129050000Y-119580000D01*
X129050000Y-119580000D02*
X129050000Y-116630000D01*
X129050000Y-116630000D02*
X132100000Y-116630000D01*
X134950000Y-122130000D02*
X136200000Y-122130000D01*
X136200000Y-122130000D02*
X136200000Y-120880000D01*
G04 #@! TO.C,J6*
X119320000Y-117415000D02*
X119320000Y-120075000D01*
X121920000Y-117415000D02*
X119320000Y-117415000D01*
X121920000Y-120075000D02*
X119320000Y-120075000D01*
X121920000Y-117415000D02*
X121920000Y-120075000D01*
X123190000Y-117415000D02*
X124520000Y-117415000D01*
X124520000Y-117415000D02*
X124520000Y-118745000D01*
G04 #@! TO.C,J5*
X145435000Y-121840000D02*
X145435000Y-115870000D01*
X145435000Y-115870000D02*
X137815000Y-115870000D01*
X137815000Y-115870000D02*
X137815000Y-121840000D01*
X137815000Y-121840000D02*
X145435000Y-121840000D01*
X142125000Y-121830000D02*
X142125000Y-121080000D01*
X142125000Y-121080000D02*
X141125000Y-121080000D01*
X141125000Y-121080000D02*
X141125000Y-121830000D01*
X141125000Y-121830000D02*
X142125000Y-121830000D01*
X145425000Y-121830000D02*
X145425000Y-121080000D01*
X145425000Y-121080000D02*
X143625000Y-121080000D01*
X143625000Y-121080000D02*
X143625000Y-121830000D01*
X143625000Y-121830000D02*
X145425000Y-121830000D01*
X139625000Y-121830000D02*
X139625000Y-121080000D01*
X139625000Y-121080000D02*
X137825000Y-121080000D01*
X137825000Y-121080000D02*
X137825000Y-121830000D01*
X137825000Y-121830000D02*
X139625000Y-121830000D01*
X145425000Y-119580000D02*
X144675000Y-119580000D01*
X144675000Y-119580000D02*
X144675000Y-116630000D01*
X144675000Y-116630000D02*
X141625000Y-116630000D01*
X137825000Y-119580000D02*
X138575000Y-119580000D01*
X138575000Y-119580000D02*
X138575000Y-116630000D01*
X138575000Y-116630000D02*
X141625000Y-116630000D01*
X144475000Y-122130000D02*
X145725000Y-122130000D01*
X145725000Y-122130000D02*
X145725000Y-120880000D01*
G04 #@! TO.C,J4*
X175280000Y-121840000D02*
X175280000Y-115870000D01*
X175280000Y-115870000D02*
X167660000Y-115870000D01*
X167660000Y-115870000D02*
X167660000Y-121840000D01*
X167660000Y-121840000D02*
X175280000Y-121840000D01*
X171970000Y-121830000D02*
X171970000Y-121080000D01*
X171970000Y-121080000D02*
X170970000Y-121080000D01*
X170970000Y-121080000D02*
X170970000Y-121830000D01*
X170970000Y-121830000D02*
X171970000Y-121830000D01*
X175270000Y-121830000D02*
X175270000Y-121080000D01*
X175270000Y-121080000D02*
X173470000Y-121080000D01*
X173470000Y-121080000D02*
X173470000Y-121830000D01*
X173470000Y-121830000D02*
X175270000Y-121830000D01*
X169470000Y-121830000D02*
X169470000Y-121080000D01*
X169470000Y-121080000D02*
X167670000Y-121080000D01*
X167670000Y-121080000D02*
X167670000Y-121830000D01*
X167670000Y-121830000D02*
X169470000Y-121830000D01*
X175270000Y-119580000D02*
X174520000Y-119580000D01*
X174520000Y-119580000D02*
X174520000Y-116630000D01*
X174520000Y-116630000D02*
X171470000Y-116630000D01*
X167670000Y-119580000D02*
X168420000Y-119580000D01*
X168420000Y-119580000D02*
X168420000Y-116630000D01*
X168420000Y-116630000D02*
X171470000Y-116630000D01*
X174320000Y-122130000D02*
X175570000Y-122130000D01*
X175570000Y-122130000D02*
X175570000Y-120880000D01*
G04 #@! TO.C,J3*
X130255000Y-104160000D02*
X136225000Y-104160000D01*
X136225000Y-104160000D02*
X136225000Y-94040000D01*
X136225000Y-94040000D02*
X130255000Y-94040000D01*
X130255000Y-94040000D02*
X130255000Y-104160000D01*
X130265000Y-100850000D02*
X131015000Y-100850000D01*
X131015000Y-100850000D02*
X131015000Y-97350000D01*
X131015000Y-97350000D02*
X130265000Y-97350000D01*
X130265000Y-97350000D02*
X130265000Y-100850000D01*
X130265000Y-104150000D02*
X131015000Y-104150000D01*
X131015000Y-104150000D02*
X131015000Y-102350000D01*
X131015000Y-102350000D02*
X130265000Y-102350000D01*
X130265000Y-102350000D02*
X130265000Y-104150000D01*
X130265000Y-95850000D02*
X131015000Y-95850000D01*
X131015000Y-95850000D02*
X131015000Y-94050000D01*
X131015000Y-94050000D02*
X130265000Y-94050000D01*
X130265000Y-94050000D02*
X130265000Y-95850000D01*
X132515000Y-104150000D02*
X132515000Y-103400000D01*
X132515000Y-103400000D02*
X135465000Y-103400000D01*
X135465000Y-103400000D02*
X135465000Y-99100000D01*
X132515000Y-94050000D02*
X132515000Y-94800000D01*
X132515000Y-94800000D02*
X135465000Y-94800000D01*
X135465000Y-94800000D02*
X135465000Y-99100000D01*
X129965000Y-103200000D02*
X129965000Y-104450000D01*
X129965000Y-104450000D02*
X131215000Y-104450000D01*
G04 #@! TO.C,J2*
X184805000Y-121840000D02*
X184805000Y-115870000D01*
X184805000Y-115870000D02*
X177185000Y-115870000D01*
X177185000Y-115870000D02*
X177185000Y-121840000D01*
X177185000Y-121840000D02*
X184805000Y-121840000D01*
X181495000Y-121830000D02*
X181495000Y-121080000D01*
X181495000Y-121080000D02*
X180495000Y-121080000D01*
X180495000Y-121080000D02*
X180495000Y-121830000D01*
X180495000Y-121830000D02*
X181495000Y-121830000D01*
X184795000Y-121830000D02*
X184795000Y-121080000D01*
X184795000Y-121080000D02*
X182995000Y-121080000D01*
X182995000Y-121080000D02*
X182995000Y-121830000D01*
X182995000Y-121830000D02*
X184795000Y-121830000D01*
X178995000Y-121830000D02*
X178995000Y-121080000D01*
X178995000Y-121080000D02*
X177195000Y-121080000D01*
X177195000Y-121080000D02*
X177195000Y-121830000D01*
X177195000Y-121830000D02*
X178995000Y-121830000D01*
X184795000Y-119580000D02*
X184045000Y-119580000D01*
X184045000Y-119580000D02*
X184045000Y-116630000D01*
X184045000Y-116630000D02*
X180995000Y-116630000D01*
X177195000Y-119580000D02*
X177945000Y-119580000D01*
X177945000Y-119580000D02*
X177945000Y-116630000D01*
X177945000Y-116630000D02*
X180995000Y-116630000D01*
X183845000Y-122130000D02*
X185095000Y-122130000D01*
X185095000Y-122130000D02*
X185095000Y-120880000D01*
G04 #@! TO.C,J1*
X119265000Y-88770000D02*
X128385000Y-88770000D01*
X128385000Y-88770000D02*
X128385000Y-109350000D01*
X128385000Y-109350000D02*
X119265000Y-109350000D01*
X119265000Y-109350000D02*
X119265000Y-88770000D01*
X119265000Y-97010000D02*
X120575000Y-97010000D01*
X120575000Y-97010000D02*
X120575000Y-90070000D01*
X120575000Y-90070000D02*
X127075000Y-90070000D01*
X127075000Y-90070000D02*
X127075000Y-108050000D01*
X127075000Y-108050000D02*
X120575000Y-108050000D01*
X120575000Y-108050000D02*
X120575000Y-101110000D01*
X120575000Y-101110000D02*
X120575000Y-101110000D01*
X120575000Y-101110000D02*
X119265000Y-101110000D01*
X118875000Y-93980000D02*
X117875000Y-93480000D01*
X117875000Y-93480000D02*
X117875000Y-94480000D01*
X117875000Y-94480000D02*
X118875000Y-93980000D01*
G04 #@! TO.C,D2*
X117765000Y-87596000D02*
X117765000Y-87440000D01*
X117765000Y-85280000D02*
X117765000Y-85124000D01*
X115163870Y-85280163D02*
G75*
G02*
X117245961Y-85280000I1041130J-1079837D01*
G01*
X115163870Y-87439837D02*
G75*
G03*
X117245961Y-87440000I1041130J1079837D01*
G01*
X114532665Y-85281392D02*
G75*
G02*
X117765000Y-85124484I1672335J-1078608D01*
G01*
X114532665Y-87438608D02*
G75*
G03*
X117765000Y-87595516I1672335J1078608D01*
G01*
G04 #@! TO.C,D1*
X114645000Y-110524000D02*
X114645000Y-110680000D01*
X114645000Y-112840000D02*
X114645000Y-112996000D01*
X117246130Y-112839837D02*
G75*
G02*
X115164039Y-112840000I-1041130J1079837D01*
G01*
X117246130Y-110680163D02*
G75*
G03*
X115164039Y-110680000I-1041130J-1079837D01*
G01*
X117877335Y-112838608D02*
G75*
G02*
X114645000Y-112995516I-1672335J1078608D01*
G01*
X117877335Y-110681392D02*
G75*
G03*
X114645000Y-110524484I-1672335J-1078608D01*
G01*
G04 #@! TO.C,C9*
X161575000Y-94601000D02*
X161575000Y-95859000D01*
X159735000Y-94601000D02*
X159735000Y-95859000D01*
G04 #@! TO.C,C8*
X153720000Y-117510000D02*
X161160000Y-117510000D01*
X153720000Y-121250000D02*
X161160000Y-121250000D01*
X153720000Y-117510000D02*
X153720000Y-121250000D01*
X161160000Y-117510000D02*
X161160000Y-121250000D01*
G04 #@! TO.C,C7*
X186805000Y-88900000D02*
G75*
G03*
X186805000Y-88900000I-3270000J0D01*
G01*
X183535000Y-92130000D02*
X183535000Y-85670000D01*
X183495000Y-92130000D02*
X183495000Y-85670000D01*
X183455000Y-92130000D02*
X183455000Y-85670000D01*
X183415000Y-92128000D02*
X183415000Y-85672000D01*
X183375000Y-92127000D02*
X183375000Y-85673000D01*
X183335000Y-92124000D02*
X183335000Y-85676000D01*
X183295000Y-92122000D02*
X183295000Y-89940000D01*
X183295000Y-87860000D02*
X183295000Y-85678000D01*
X183255000Y-92118000D02*
X183255000Y-89940000D01*
X183255000Y-87860000D02*
X183255000Y-85682000D01*
X183215000Y-92115000D02*
X183215000Y-89940000D01*
X183215000Y-87860000D02*
X183215000Y-85685000D01*
X183175000Y-92111000D02*
X183175000Y-89940000D01*
X183175000Y-87860000D02*
X183175000Y-85689000D01*
X183135000Y-92106000D02*
X183135000Y-89940000D01*
X183135000Y-87860000D02*
X183135000Y-85694000D01*
X183095000Y-92101000D02*
X183095000Y-89940000D01*
X183095000Y-87860000D02*
X183095000Y-85699000D01*
X183055000Y-92095000D02*
X183055000Y-89940000D01*
X183055000Y-87860000D02*
X183055000Y-85705000D01*
X183015000Y-92089000D02*
X183015000Y-89940000D01*
X183015000Y-87860000D02*
X183015000Y-85711000D01*
X182975000Y-92082000D02*
X182975000Y-89940000D01*
X182975000Y-87860000D02*
X182975000Y-85718000D01*
X182935000Y-92075000D02*
X182935000Y-89940000D01*
X182935000Y-87860000D02*
X182935000Y-85725000D01*
X182895000Y-92067000D02*
X182895000Y-89940000D01*
X182895000Y-87860000D02*
X182895000Y-85733000D01*
X182855000Y-92059000D02*
X182855000Y-89940000D01*
X182855000Y-87860000D02*
X182855000Y-85741000D01*
X182814000Y-92050000D02*
X182814000Y-89940000D01*
X182814000Y-87860000D02*
X182814000Y-85750000D01*
X182774000Y-92041000D02*
X182774000Y-89940000D01*
X182774000Y-87860000D02*
X182774000Y-85759000D01*
X182734000Y-92031000D02*
X182734000Y-89940000D01*
X182734000Y-87860000D02*
X182734000Y-85769000D01*
X182694000Y-92021000D02*
X182694000Y-89940000D01*
X182694000Y-87860000D02*
X182694000Y-85779000D01*
X182654000Y-92010000D02*
X182654000Y-89940000D01*
X182654000Y-87860000D02*
X182654000Y-85790000D01*
X182614000Y-91998000D02*
X182614000Y-89940000D01*
X182614000Y-87860000D02*
X182614000Y-85802000D01*
X182574000Y-91986000D02*
X182574000Y-89940000D01*
X182574000Y-87860000D02*
X182574000Y-85814000D01*
X182534000Y-91974000D02*
X182534000Y-89940000D01*
X182534000Y-87860000D02*
X182534000Y-85826000D01*
X182494000Y-91961000D02*
X182494000Y-89940000D01*
X182494000Y-87860000D02*
X182494000Y-85839000D01*
X182454000Y-91947000D02*
X182454000Y-89940000D01*
X182454000Y-87860000D02*
X182454000Y-85853000D01*
X182414000Y-91933000D02*
X182414000Y-89940000D01*
X182414000Y-87860000D02*
X182414000Y-85867000D01*
X182374000Y-91918000D02*
X182374000Y-89940000D01*
X182374000Y-87860000D02*
X182374000Y-85882000D01*
X182334000Y-91902000D02*
X182334000Y-89940000D01*
X182334000Y-87860000D02*
X182334000Y-85898000D01*
X182294000Y-91886000D02*
X182294000Y-89940000D01*
X182294000Y-87860000D02*
X182294000Y-85914000D01*
X182254000Y-91870000D02*
X182254000Y-89940000D01*
X182254000Y-87860000D02*
X182254000Y-85930000D01*
X182214000Y-91852000D02*
X182214000Y-89940000D01*
X182214000Y-87860000D02*
X182214000Y-85948000D01*
X182174000Y-91834000D02*
X182174000Y-89940000D01*
X182174000Y-87860000D02*
X182174000Y-85966000D01*
X182134000Y-91816000D02*
X182134000Y-89940000D01*
X182134000Y-87860000D02*
X182134000Y-85984000D01*
X182094000Y-91796000D02*
X182094000Y-89940000D01*
X182094000Y-87860000D02*
X182094000Y-86004000D01*
X182054000Y-91776000D02*
X182054000Y-89940000D01*
X182054000Y-87860000D02*
X182054000Y-86024000D01*
X182014000Y-91756000D02*
X182014000Y-89940000D01*
X182014000Y-87860000D02*
X182014000Y-86044000D01*
X181974000Y-91734000D02*
X181974000Y-89940000D01*
X181974000Y-87860000D02*
X181974000Y-86066000D01*
X181934000Y-91712000D02*
X181934000Y-89940000D01*
X181934000Y-87860000D02*
X181934000Y-86088000D01*
X181894000Y-91690000D02*
X181894000Y-89940000D01*
X181894000Y-87860000D02*
X181894000Y-86110000D01*
X181854000Y-91666000D02*
X181854000Y-89940000D01*
X181854000Y-87860000D02*
X181854000Y-86134000D01*
X181814000Y-91642000D02*
X181814000Y-89940000D01*
X181814000Y-87860000D02*
X181814000Y-86158000D01*
X181774000Y-91616000D02*
X181774000Y-89940000D01*
X181774000Y-87860000D02*
X181774000Y-86184000D01*
X181734000Y-91590000D02*
X181734000Y-89940000D01*
X181734000Y-87860000D02*
X181734000Y-86210000D01*
X181694000Y-91564000D02*
X181694000Y-89940000D01*
X181694000Y-87860000D02*
X181694000Y-86236000D01*
X181654000Y-91536000D02*
X181654000Y-89940000D01*
X181654000Y-87860000D02*
X181654000Y-86264000D01*
X181614000Y-91507000D02*
X181614000Y-89940000D01*
X181614000Y-87860000D02*
X181614000Y-86293000D01*
X181574000Y-91478000D02*
X181574000Y-89940000D01*
X181574000Y-87860000D02*
X181574000Y-86322000D01*
X181534000Y-91448000D02*
X181534000Y-89940000D01*
X181534000Y-87860000D02*
X181534000Y-86352000D01*
X181494000Y-91416000D02*
X181494000Y-89940000D01*
X181494000Y-87860000D02*
X181494000Y-86384000D01*
X181454000Y-91384000D02*
X181454000Y-89940000D01*
X181454000Y-87860000D02*
X181454000Y-86416000D01*
X181414000Y-91350000D02*
X181414000Y-89940000D01*
X181414000Y-87860000D02*
X181414000Y-86450000D01*
X181374000Y-91316000D02*
X181374000Y-89940000D01*
X181374000Y-87860000D02*
X181374000Y-86484000D01*
X181334000Y-91280000D02*
X181334000Y-89940000D01*
X181334000Y-87860000D02*
X181334000Y-86520000D01*
X181294000Y-91243000D02*
X181294000Y-89940000D01*
X181294000Y-87860000D02*
X181294000Y-86557000D01*
X181254000Y-91205000D02*
X181254000Y-89940000D01*
X181254000Y-87860000D02*
X181254000Y-86595000D01*
X181214000Y-91165000D02*
X181214000Y-86635000D01*
X181174000Y-91124000D02*
X181174000Y-86676000D01*
X181134000Y-91082000D02*
X181134000Y-86718000D01*
X181094000Y-91037000D02*
X181094000Y-86763000D01*
X181054000Y-90992000D02*
X181054000Y-86808000D01*
X181014000Y-90944000D02*
X181014000Y-86856000D01*
X180974000Y-90895000D02*
X180974000Y-86905000D01*
X180934000Y-90844000D02*
X180934000Y-86956000D01*
X180894000Y-90790000D02*
X180894000Y-87010000D01*
X180854000Y-90734000D02*
X180854000Y-87066000D01*
X180814000Y-90676000D02*
X180814000Y-87124000D01*
X180774000Y-90614000D02*
X180774000Y-87186000D01*
X180734000Y-90550000D02*
X180734000Y-87250000D01*
X180694000Y-90481000D02*
X180694000Y-87319000D01*
X180654000Y-90409000D02*
X180654000Y-87391000D01*
X180614000Y-90332000D02*
X180614000Y-87468000D01*
X180574000Y-90250000D02*
X180574000Y-87550000D01*
X180534000Y-90162000D02*
X180534000Y-87638000D01*
X180494000Y-90065000D02*
X180494000Y-87735000D01*
X180454000Y-89959000D02*
X180454000Y-87841000D01*
X180414000Y-89840000D02*
X180414000Y-87960000D01*
X180374000Y-89702000D02*
X180374000Y-88098000D01*
X180334000Y-89533000D02*
X180334000Y-88267000D01*
X180294000Y-89302000D02*
X180294000Y-88498000D01*
X187035241Y-90739000D02*
X186405241Y-90739000D01*
X186720241Y-91054000D02*
X186720241Y-90424000D01*
G04 #@! TO.C,C6*
X184615000Y-101650000D02*
X184615000Y-109090000D01*
X179875000Y-101650000D02*
X179875000Y-109090000D01*
X184615000Y-101650000D02*
X179875000Y-101650000D01*
X184615000Y-109090000D02*
X179875000Y-109090000D01*
G04 #@! TO.C,C5*
X166085000Y-90819000D02*
X166085000Y-89561000D01*
X167925000Y-90819000D02*
X167925000Y-89561000D01*
G04 #@! TO.C,C4*
X181895000Y-94601000D02*
X181895000Y-95859000D01*
X180055000Y-94601000D02*
X180055000Y-95859000D01*
G04 #@! TO.C,C3*
X135985000Y-88880000D02*
G75*
G03*
X135985000Y-88880000I-3270000J0D01*
G01*
X135945000Y-88880000D02*
X129485000Y-88880000D01*
X135945000Y-88920000D02*
X129485000Y-88920000D01*
X135945000Y-88960000D02*
X129485000Y-88960000D01*
X135943000Y-89000000D02*
X129487000Y-89000000D01*
X135942000Y-89040000D02*
X129488000Y-89040000D01*
X135939000Y-89080000D02*
X129491000Y-89080000D01*
X135937000Y-89120000D02*
X133755000Y-89120000D01*
X131675000Y-89120000D02*
X129493000Y-89120000D01*
X135933000Y-89160000D02*
X133755000Y-89160000D01*
X131675000Y-89160000D02*
X129497000Y-89160000D01*
X135930000Y-89200000D02*
X133755000Y-89200000D01*
X131675000Y-89200000D02*
X129500000Y-89200000D01*
X135926000Y-89240000D02*
X133755000Y-89240000D01*
X131675000Y-89240000D02*
X129504000Y-89240000D01*
X135921000Y-89280000D02*
X133755000Y-89280000D01*
X131675000Y-89280000D02*
X129509000Y-89280000D01*
X135916000Y-89320000D02*
X133755000Y-89320000D01*
X131675000Y-89320000D02*
X129514000Y-89320000D01*
X135910000Y-89360000D02*
X133755000Y-89360000D01*
X131675000Y-89360000D02*
X129520000Y-89360000D01*
X135904000Y-89400000D02*
X133755000Y-89400000D01*
X131675000Y-89400000D02*
X129526000Y-89400000D01*
X135897000Y-89440000D02*
X133755000Y-89440000D01*
X131675000Y-89440000D02*
X129533000Y-89440000D01*
X135890000Y-89480000D02*
X133755000Y-89480000D01*
X131675000Y-89480000D02*
X129540000Y-89480000D01*
X135882000Y-89520000D02*
X133755000Y-89520000D01*
X131675000Y-89520000D02*
X129548000Y-89520000D01*
X135874000Y-89560000D02*
X133755000Y-89560000D01*
X131675000Y-89560000D02*
X129556000Y-89560000D01*
X135865000Y-89601000D02*
X133755000Y-89601000D01*
X131675000Y-89601000D02*
X129565000Y-89601000D01*
X135856000Y-89641000D02*
X133755000Y-89641000D01*
X131675000Y-89641000D02*
X129574000Y-89641000D01*
X135846000Y-89681000D02*
X133755000Y-89681000D01*
X131675000Y-89681000D02*
X129584000Y-89681000D01*
X135836000Y-89721000D02*
X133755000Y-89721000D01*
X131675000Y-89721000D02*
X129594000Y-89721000D01*
X135825000Y-89761000D02*
X133755000Y-89761000D01*
X131675000Y-89761000D02*
X129605000Y-89761000D01*
X135813000Y-89801000D02*
X133755000Y-89801000D01*
X131675000Y-89801000D02*
X129617000Y-89801000D01*
X135801000Y-89841000D02*
X133755000Y-89841000D01*
X131675000Y-89841000D02*
X129629000Y-89841000D01*
X135789000Y-89881000D02*
X133755000Y-89881000D01*
X131675000Y-89881000D02*
X129641000Y-89881000D01*
X135776000Y-89921000D02*
X133755000Y-89921000D01*
X131675000Y-89921000D02*
X129654000Y-89921000D01*
X135762000Y-89961000D02*
X133755000Y-89961000D01*
X131675000Y-89961000D02*
X129668000Y-89961000D01*
X135748000Y-90001000D02*
X133755000Y-90001000D01*
X131675000Y-90001000D02*
X129682000Y-90001000D01*
X135733000Y-90041000D02*
X133755000Y-90041000D01*
X131675000Y-90041000D02*
X129697000Y-90041000D01*
X135717000Y-90081000D02*
X133755000Y-90081000D01*
X131675000Y-90081000D02*
X129713000Y-90081000D01*
X135701000Y-90121000D02*
X133755000Y-90121000D01*
X131675000Y-90121000D02*
X129729000Y-90121000D01*
X135685000Y-90161000D02*
X133755000Y-90161000D01*
X131675000Y-90161000D02*
X129745000Y-90161000D01*
X135667000Y-90201000D02*
X133755000Y-90201000D01*
X131675000Y-90201000D02*
X129763000Y-90201000D01*
X135649000Y-90241000D02*
X133755000Y-90241000D01*
X131675000Y-90241000D02*
X129781000Y-90241000D01*
X135631000Y-90281000D02*
X133755000Y-90281000D01*
X131675000Y-90281000D02*
X129799000Y-90281000D01*
X135611000Y-90321000D02*
X133755000Y-90321000D01*
X131675000Y-90321000D02*
X129819000Y-90321000D01*
X135591000Y-90361000D02*
X133755000Y-90361000D01*
X131675000Y-90361000D02*
X129839000Y-90361000D01*
X135571000Y-90401000D02*
X133755000Y-90401000D01*
X131675000Y-90401000D02*
X129859000Y-90401000D01*
X135549000Y-90441000D02*
X133755000Y-90441000D01*
X131675000Y-90441000D02*
X129881000Y-90441000D01*
X135527000Y-90481000D02*
X133755000Y-90481000D01*
X131675000Y-90481000D02*
X129903000Y-90481000D01*
X135505000Y-90521000D02*
X133755000Y-90521000D01*
X131675000Y-90521000D02*
X129925000Y-90521000D01*
X135481000Y-90561000D02*
X133755000Y-90561000D01*
X131675000Y-90561000D02*
X129949000Y-90561000D01*
X135457000Y-90601000D02*
X133755000Y-90601000D01*
X131675000Y-90601000D02*
X129973000Y-90601000D01*
X135431000Y-90641000D02*
X133755000Y-90641000D01*
X131675000Y-90641000D02*
X129999000Y-90641000D01*
X135405000Y-90681000D02*
X133755000Y-90681000D01*
X131675000Y-90681000D02*
X130025000Y-90681000D01*
X135379000Y-90721000D02*
X133755000Y-90721000D01*
X131675000Y-90721000D02*
X130051000Y-90721000D01*
X135351000Y-90761000D02*
X133755000Y-90761000D01*
X131675000Y-90761000D02*
X130079000Y-90761000D01*
X135322000Y-90801000D02*
X133755000Y-90801000D01*
X131675000Y-90801000D02*
X130108000Y-90801000D01*
X135293000Y-90841000D02*
X133755000Y-90841000D01*
X131675000Y-90841000D02*
X130137000Y-90841000D01*
X135263000Y-90881000D02*
X133755000Y-90881000D01*
X131675000Y-90881000D02*
X130167000Y-90881000D01*
X135231000Y-90921000D02*
X133755000Y-90921000D01*
X131675000Y-90921000D02*
X130199000Y-90921000D01*
X135199000Y-90961000D02*
X133755000Y-90961000D01*
X131675000Y-90961000D02*
X130231000Y-90961000D01*
X135165000Y-91001000D02*
X133755000Y-91001000D01*
X131675000Y-91001000D02*
X130265000Y-91001000D01*
X135131000Y-91041000D02*
X133755000Y-91041000D01*
X131675000Y-91041000D02*
X130299000Y-91041000D01*
X135095000Y-91081000D02*
X133755000Y-91081000D01*
X131675000Y-91081000D02*
X130335000Y-91081000D01*
X135058000Y-91121000D02*
X133755000Y-91121000D01*
X131675000Y-91121000D02*
X130372000Y-91121000D01*
X135020000Y-91161000D02*
X133755000Y-91161000D01*
X131675000Y-91161000D02*
X130410000Y-91161000D01*
X134980000Y-91201000D02*
X130450000Y-91201000D01*
X134939000Y-91241000D02*
X130491000Y-91241000D01*
X134897000Y-91281000D02*
X130533000Y-91281000D01*
X134852000Y-91321000D02*
X130578000Y-91321000D01*
X134807000Y-91361000D02*
X130623000Y-91361000D01*
X134759000Y-91401000D02*
X130671000Y-91401000D01*
X134710000Y-91441000D02*
X130720000Y-91441000D01*
X134659000Y-91481000D02*
X130771000Y-91481000D01*
X134605000Y-91521000D02*
X130825000Y-91521000D01*
X134549000Y-91561000D02*
X130881000Y-91561000D01*
X134491000Y-91601000D02*
X130939000Y-91601000D01*
X134429000Y-91641000D02*
X131001000Y-91641000D01*
X134365000Y-91681000D02*
X131065000Y-91681000D01*
X134296000Y-91721000D02*
X131134000Y-91721000D01*
X134224000Y-91761000D02*
X131206000Y-91761000D01*
X134147000Y-91801000D02*
X131283000Y-91801000D01*
X134065000Y-91841000D02*
X131365000Y-91841000D01*
X133977000Y-91881000D02*
X131453000Y-91881000D01*
X133880000Y-91921000D02*
X131550000Y-91921000D01*
X133774000Y-91961000D02*
X131656000Y-91961000D01*
X133655000Y-92001000D02*
X131775000Y-92001000D01*
X133517000Y-92041000D02*
X131913000Y-92041000D01*
X133348000Y-92081000D02*
X132082000Y-92081000D01*
X133117000Y-92121000D02*
X132313000Y-92121000D01*
X134554000Y-85379759D02*
X134554000Y-86009759D01*
X134869000Y-85694759D02*
X134239000Y-85694759D01*
G04 #@! TO.C,C2*
X135985000Y-109200000D02*
G75*
G03*
X135985000Y-109200000I-3270000J0D01*
G01*
X135945000Y-109200000D02*
X129485000Y-109200000D01*
X135945000Y-109240000D02*
X129485000Y-109240000D01*
X135945000Y-109280000D02*
X129485000Y-109280000D01*
X135943000Y-109320000D02*
X129487000Y-109320000D01*
X135942000Y-109360000D02*
X129488000Y-109360000D01*
X135939000Y-109400000D02*
X129491000Y-109400000D01*
X135937000Y-109440000D02*
X133755000Y-109440000D01*
X131675000Y-109440000D02*
X129493000Y-109440000D01*
X135933000Y-109480000D02*
X133755000Y-109480000D01*
X131675000Y-109480000D02*
X129497000Y-109480000D01*
X135930000Y-109520000D02*
X133755000Y-109520000D01*
X131675000Y-109520000D02*
X129500000Y-109520000D01*
X135926000Y-109560000D02*
X133755000Y-109560000D01*
X131675000Y-109560000D02*
X129504000Y-109560000D01*
X135921000Y-109600000D02*
X133755000Y-109600000D01*
X131675000Y-109600000D02*
X129509000Y-109600000D01*
X135916000Y-109640000D02*
X133755000Y-109640000D01*
X131675000Y-109640000D02*
X129514000Y-109640000D01*
X135910000Y-109680000D02*
X133755000Y-109680000D01*
X131675000Y-109680000D02*
X129520000Y-109680000D01*
X135904000Y-109720000D02*
X133755000Y-109720000D01*
X131675000Y-109720000D02*
X129526000Y-109720000D01*
X135897000Y-109760000D02*
X133755000Y-109760000D01*
X131675000Y-109760000D02*
X129533000Y-109760000D01*
X135890000Y-109800000D02*
X133755000Y-109800000D01*
X131675000Y-109800000D02*
X129540000Y-109800000D01*
X135882000Y-109840000D02*
X133755000Y-109840000D01*
X131675000Y-109840000D02*
X129548000Y-109840000D01*
X135874000Y-109880000D02*
X133755000Y-109880000D01*
X131675000Y-109880000D02*
X129556000Y-109880000D01*
X135865000Y-109921000D02*
X133755000Y-109921000D01*
X131675000Y-109921000D02*
X129565000Y-109921000D01*
X135856000Y-109961000D02*
X133755000Y-109961000D01*
X131675000Y-109961000D02*
X129574000Y-109961000D01*
X135846000Y-110001000D02*
X133755000Y-110001000D01*
X131675000Y-110001000D02*
X129584000Y-110001000D01*
X135836000Y-110041000D02*
X133755000Y-110041000D01*
X131675000Y-110041000D02*
X129594000Y-110041000D01*
X135825000Y-110081000D02*
X133755000Y-110081000D01*
X131675000Y-110081000D02*
X129605000Y-110081000D01*
X135813000Y-110121000D02*
X133755000Y-110121000D01*
X131675000Y-110121000D02*
X129617000Y-110121000D01*
X135801000Y-110161000D02*
X133755000Y-110161000D01*
X131675000Y-110161000D02*
X129629000Y-110161000D01*
X135789000Y-110201000D02*
X133755000Y-110201000D01*
X131675000Y-110201000D02*
X129641000Y-110201000D01*
X135776000Y-110241000D02*
X133755000Y-110241000D01*
X131675000Y-110241000D02*
X129654000Y-110241000D01*
X135762000Y-110281000D02*
X133755000Y-110281000D01*
X131675000Y-110281000D02*
X129668000Y-110281000D01*
X135748000Y-110321000D02*
X133755000Y-110321000D01*
X131675000Y-110321000D02*
X129682000Y-110321000D01*
X135733000Y-110361000D02*
X133755000Y-110361000D01*
X131675000Y-110361000D02*
X129697000Y-110361000D01*
X135717000Y-110401000D02*
X133755000Y-110401000D01*
X131675000Y-110401000D02*
X129713000Y-110401000D01*
X135701000Y-110441000D02*
X133755000Y-110441000D01*
X131675000Y-110441000D02*
X129729000Y-110441000D01*
X135685000Y-110481000D02*
X133755000Y-110481000D01*
X131675000Y-110481000D02*
X129745000Y-110481000D01*
X135667000Y-110521000D02*
X133755000Y-110521000D01*
X131675000Y-110521000D02*
X129763000Y-110521000D01*
X135649000Y-110561000D02*
X133755000Y-110561000D01*
X131675000Y-110561000D02*
X129781000Y-110561000D01*
X135631000Y-110601000D02*
X133755000Y-110601000D01*
X131675000Y-110601000D02*
X129799000Y-110601000D01*
X135611000Y-110641000D02*
X133755000Y-110641000D01*
X131675000Y-110641000D02*
X129819000Y-110641000D01*
X135591000Y-110681000D02*
X133755000Y-110681000D01*
X131675000Y-110681000D02*
X129839000Y-110681000D01*
X135571000Y-110721000D02*
X133755000Y-110721000D01*
X131675000Y-110721000D02*
X129859000Y-110721000D01*
X135549000Y-110761000D02*
X133755000Y-110761000D01*
X131675000Y-110761000D02*
X129881000Y-110761000D01*
X135527000Y-110801000D02*
X133755000Y-110801000D01*
X131675000Y-110801000D02*
X129903000Y-110801000D01*
X135505000Y-110841000D02*
X133755000Y-110841000D01*
X131675000Y-110841000D02*
X129925000Y-110841000D01*
X135481000Y-110881000D02*
X133755000Y-110881000D01*
X131675000Y-110881000D02*
X129949000Y-110881000D01*
X135457000Y-110921000D02*
X133755000Y-110921000D01*
X131675000Y-110921000D02*
X129973000Y-110921000D01*
X135431000Y-110961000D02*
X133755000Y-110961000D01*
X131675000Y-110961000D02*
X129999000Y-110961000D01*
X135405000Y-111001000D02*
X133755000Y-111001000D01*
X131675000Y-111001000D02*
X130025000Y-111001000D01*
X135379000Y-111041000D02*
X133755000Y-111041000D01*
X131675000Y-111041000D02*
X130051000Y-111041000D01*
X135351000Y-111081000D02*
X133755000Y-111081000D01*
X131675000Y-111081000D02*
X130079000Y-111081000D01*
X135322000Y-111121000D02*
X133755000Y-111121000D01*
X131675000Y-111121000D02*
X130108000Y-111121000D01*
X135293000Y-111161000D02*
X133755000Y-111161000D01*
X131675000Y-111161000D02*
X130137000Y-111161000D01*
X135263000Y-111201000D02*
X133755000Y-111201000D01*
X131675000Y-111201000D02*
X130167000Y-111201000D01*
X135231000Y-111241000D02*
X133755000Y-111241000D01*
X131675000Y-111241000D02*
X130199000Y-111241000D01*
X135199000Y-111281000D02*
X133755000Y-111281000D01*
X131675000Y-111281000D02*
X130231000Y-111281000D01*
X135165000Y-111321000D02*
X133755000Y-111321000D01*
X131675000Y-111321000D02*
X130265000Y-111321000D01*
X135131000Y-111361000D02*
X133755000Y-111361000D01*
X131675000Y-111361000D02*
X130299000Y-111361000D01*
X135095000Y-111401000D02*
X133755000Y-111401000D01*
X131675000Y-111401000D02*
X130335000Y-111401000D01*
X135058000Y-111441000D02*
X133755000Y-111441000D01*
X131675000Y-111441000D02*
X130372000Y-111441000D01*
X135020000Y-111481000D02*
X133755000Y-111481000D01*
X131675000Y-111481000D02*
X130410000Y-111481000D01*
X134980000Y-111521000D02*
X130450000Y-111521000D01*
X134939000Y-111561000D02*
X130491000Y-111561000D01*
X134897000Y-111601000D02*
X130533000Y-111601000D01*
X134852000Y-111641000D02*
X130578000Y-111641000D01*
X134807000Y-111681000D02*
X130623000Y-111681000D01*
X134759000Y-111721000D02*
X130671000Y-111721000D01*
X134710000Y-111761000D02*
X130720000Y-111761000D01*
X134659000Y-111801000D02*
X130771000Y-111801000D01*
X134605000Y-111841000D02*
X130825000Y-111841000D01*
X134549000Y-111881000D02*
X130881000Y-111881000D01*
X134491000Y-111921000D02*
X130939000Y-111921000D01*
X134429000Y-111961000D02*
X131001000Y-111961000D01*
X134365000Y-112001000D02*
X131065000Y-112001000D01*
X134296000Y-112041000D02*
X131134000Y-112041000D01*
X134224000Y-112081000D02*
X131206000Y-112081000D01*
X134147000Y-112121000D02*
X131283000Y-112121000D01*
X134065000Y-112161000D02*
X131365000Y-112161000D01*
X133977000Y-112201000D02*
X131453000Y-112201000D01*
X133880000Y-112241000D02*
X131550000Y-112241000D01*
X133774000Y-112281000D02*
X131656000Y-112281000D01*
X133655000Y-112321000D02*
X131775000Y-112321000D01*
X133517000Y-112361000D02*
X131913000Y-112361000D01*
X133348000Y-112401000D02*
X132082000Y-112401000D01*
X133117000Y-112441000D02*
X132313000Y-112441000D01*
X134554000Y-105699759D02*
X134554000Y-106329759D01*
X134869000Y-106014759D02*
X134239000Y-106014759D01*
G04 #@! TO.C,RV1*
D10*
X146652380Y-118195238D02*
X146176190Y-118528571D01*
X146652380Y-118766666D02*
X145652380Y-118766666D01*
X145652380Y-118385714D01*
X145700000Y-118290476D01*
X145747619Y-118242857D01*
X145842857Y-118195238D01*
X145985714Y-118195238D01*
X146080952Y-118242857D01*
X146128571Y-118290476D01*
X146176190Y-118385714D01*
X146176190Y-118766666D01*
X145652380Y-117909523D02*
X146652380Y-117576190D01*
X145652380Y-117242857D01*
X146652380Y-116385714D02*
X146652380Y-116957142D01*
X146652380Y-116671428D02*
X145652380Y-116671428D01*
X145795238Y-116766666D01*
X145890476Y-116861904D01*
X145938095Y-116957142D01*
G04 #@! TO.C,J11*
X165560476Y-83272380D02*
X165560476Y-83986666D01*
X165512857Y-84129523D01*
X165417619Y-84224761D01*
X165274761Y-84272380D01*
X165179523Y-84272380D01*
X166560476Y-84272380D02*
X165989047Y-84272380D01*
X166274761Y-84272380D02*
X166274761Y-83272380D01*
X166179523Y-83415238D01*
X166084285Y-83510476D01*
X165989047Y-83558095D01*
X167512857Y-84272380D02*
X166941428Y-84272380D01*
X167227142Y-84272380D02*
X167227142Y-83272380D01*
X167131904Y-83415238D01*
X167036666Y-83510476D01*
X166941428Y-83558095D01*
G04 #@! TO.C,C1*
X166667142Y-101111666D02*
X166714761Y-101159285D01*
X166762380Y-101302142D01*
X166762380Y-101397380D01*
X166714761Y-101540238D01*
X166619523Y-101635476D01*
X166524285Y-101683095D01*
X166333809Y-101730714D01*
X166190952Y-101730714D01*
X166000476Y-101683095D01*
X165905238Y-101635476D01*
X165810000Y-101540238D01*
X165762380Y-101397380D01*
X165762380Y-101302142D01*
X165810000Y-101159285D01*
X165857619Y-101111666D01*
X166762380Y-100159285D02*
X166762380Y-100730714D01*
X166762380Y-100445000D02*
X165762380Y-100445000D01*
X165905238Y-100540238D01*
X166000476Y-100635476D01*
X166048095Y-100730714D01*
G04 #@! TO.C,R11*
X152852380Y-110497857D02*
X152376190Y-110831190D01*
X152852380Y-111069285D02*
X151852380Y-111069285D01*
X151852380Y-110688333D01*
X151900000Y-110593095D01*
X151947619Y-110545476D01*
X152042857Y-110497857D01*
X152185714Y-110497857D01*
X152280952Y-110545476D01*
X152328571Y-110593095D01*
X152376190Y-110688333D01*
X152376190Y-111069285D01*
X152852380Y-109545476D02*
X152852380Y-110116904D01*
X152852380Y-109831190D02*
X151852380Y-109831190D01*
X151995238Y-109926428D01*
X152090476Y-110021666D01*
X152138095Y-110116904D01*
X152852380Y-108593095D02*
X152852380Y-109164523D01*
X152852380Y-108878809D02*
X151852380Y-108878809D01*
X151995238Y-108974047D01*
X152090476Y-109069285D01*
X152138095Y-109164523D01*
G04 #@! TO.C,R2*
X167457380Y-110021666D02*
X166981190Y-110355000D01*
X167457380Y-110593095D02*
X166457380Y-110593095D01*
X166457380Y-110212142D01*
X166505000Y-110116904D01*
X166552619Y-110069285D01*
X166647857Y-110021666D01*
X166790714Y-110021666D01*
X166885952Y-110069285D01*
X166933571Y-110116904D01*
X166981190Y-110212142D01*
X166981190Y-110593095D01*
X166552619Y-109640714D02*
X166505000Y-109593095D01*
X166457380Y-109497857D01*
X166457380Y-109259761D01*
X166505000Y-109164523D01*
X166552619Y-109116904D01*
X166647857Y-109069285D01*
X166743095Y-109069285D01*
X166885952Y-109116904D01*
X167457380Y-109688333D01*
X167457380Y-109069285D01*
G04 #@! TO.C,R1*
X170632380Y-110021666D02*
X170156190Y-110355000D01*
X170632380Y-110593095D02*
X169632380Y-110593095D01*
X169632380Y-110212142D01*
X169680000Y-110116904D01*
X169727619Y-110069285D01*
X169822857Y-110021666D01*
X169965714Y-110021666D01*
X170060952Y-110069285D01*
X170108571Y-110116904D01*
X170156190Y-110212142D01*
X170156190Y-110593095D01*
X170632380Y-109069285D02*
X170632380Y-109640714D01*
X170632380Y-109355000D02*
X169632380Y-109355000D01*
X169775238Y-109450238D01*
X169870476Y-109545476D01*
X169918095Y-109640714D01*
G04 #@! TO.C,U1*
X167092380Y-97281904D02*
X167901904Y-97281904D01*
X167997142Y-97234285D01*
X168044761Y-97186666D01*
X168092380Y-97091428D01*
X168092380Y-96900952D01*
X168044761Y-96805714D01*
X167997142Y-96758095D01*
X167901904Y-96710476D01*
X167092380Y-96710476D01*
X168092380Y-95710476D02*
X168092380Y-96281904D01*
X168092380Y-95996190D02*
X167092380Y-95996190D01*
X167235238Y-96091428D01*
X167330476Y-96186666D01*
X167378095Y-96281904D01*
G04 #@! TO.C,C11*
X149582142Y-107957857D02*
X149629761Y-108005476D01*
X149677380Y-108148333D01*
X149677380Y-108243571D01*
X149629761Y-108386428D01*
X149534523Y-108481666D01*
X149439285Y-108529285D01*
X149248809Y-108576904D01*
X149105952Y-108576904D01*
X148915476Y-108529285D01*
X148820238Y-108481666D01*
X148725000Y-108386428D01*
X148677380Y-108243571D01*
X148677380Y-108148333D01*
X148725000Y-108005476D01*
X148772619Y-107957857D01*
X149677380Y-107005476D02*
X149677380Y-107576904D01*
X149677380Y-107291190D02*
X148677380Y-107291190D01*
X148820238Y-107386428D01*
X148915476Y-107481666D01*
X148963095Y-107576904D01*
X149677380Y-106053095D02*
X149677380Y-106624523D01*
X149677380Y-106338809D02*
X148677380Y-106338809D01*
X148820238Y-106434047D01*
X148915476Y-106529285D01*
X148963095Y-106624523D01*
G04 #@! TO.C,C10*
X144992142Y-90832857D02*
X145039761Y-90880476D01*
X145087380Y-91023333D01*
X145087380Y-91118571D01*
X145039761Y-91261428D01*
X144944523Y-91356666D01*
X144849285Y-91404285D01*
X144658809Y-91451904D01*
X144515952Y-91451904D01*
X144325476Y-91404285D01*
X144230238Y-91356666D01*
X144135000Y-91261428D01*
X144087380Y-91118571D01*
X144087380Y-91023333D01*
X144135000Y-90880476D01*
X144182619Y-90832857D01*
X145087380Y-89880476D02*
X145087380Y-90451904D01*
X145087380Y-90166190D02*
X144087380Y-90166190D01*
X144230238Y-90261428D01*
X144325476Y-90356666D01*
X144373095Y-90451904D01*
X144087380Y-89261428D02*
X144087380Y-89166190D01*
X144135000Y-89070952D01*
X144182619Y-89023333D01*
X144277857Y-88975714D01*
X144468333Y-88928095D01*
X144706428Y-88928095D01*
X144896904Y-88975714D01*
X144992142Y-89023333D01*
X145039761Y-89070952D01*
X145087380Y-89166190D01*
X145087380Y-89261428D01*
X145039761Y-89356666D01*
X144992142Y-89404285D01*
X144896904Y-89451904D01*
X144706428Y-89499523D01*
X144468333Y-89499523D01*
X144277857Y-89451904D01*
X144182619Y-89404285D01*
X144135000Y-89356666D01*
X144087380Y-89261428D01*
G04 #@! TO.C,R6*
X175077380Y-110021666D02*
X174601190Y-110355000D01*
X175077380Y-110593095D02*
X174077380Y-110593095D01*
X174077380Y-110212142D01*
X174125000Y-110116904D01*
X174172619Y-110069285D01*
X174267857Y-110021666D01*
X174410714Y-110021666D01*
X174505952Y-110069285D01*
X174553571Y-110116904D01*
X174601190Y-110212142D01*
X174601190Y-110593095D01*
X174077380Y-109164523D02*
X174077380Y-109355000D01*
X174125000Y-109450238D01*
X174172619Y-109497857D01*
X174315476Y-109593095D01*
X174505952Y-109640714D01*
X174886904Y-109640714D01*
X174982142Y-109593095D01*
X175029761Y-109545476D01*
X175077380Y-109450238D01*
X175077380Y-109259761D01*
X175029761Y-109164523D01*
X174982142Y-109116904D01*
X174886904Y-109069285D01*
X174648809Y-109069285D01*
X174553571Y-109116904D01*
X174505952Y-109164523D01*
X174458333Y-109259761D01*
X174458333Y-109450238D01*
X174505952Y-109545476D01*
X174553571Y-109593095D01*
X174648809Y-109640714D01*
G04 #@! TO.C,U2*
X146772380Y-96646904D02*
X147581904Y-96646904D01*
X147677142Y-96599285D01*
X147724761Y-96551666D01*
X147772380Y-96456428D01*
X147772380Y-96265952D01*
X147724761Y-96170714D01*
X147677142Y-96123095D01*
X147581904Y-96075476D01*
X146772380Y-96075476D01*
X146867619Y-95646904D02*
X146820000Y-95599285D01*
X146772380Y-95504047D01*
X146772380Y-95265952D01*
X146820000Y-95170714D01*
X146867619Y-95123095D01*
X146962857Y-95075476D01*
X147058095Y-95075476D01*
X147200952Y-95123095D01*
X147772380Y-95694523D01*
X147772380Y-95075476D01*
G04 #@! TO.C,R15*
X159377142Y-79827380D02*
X159043809Y-79351190D01*
X158805714Y-79827380D02*
X158805714Y-78827380D01*
X159186666Y-78827380D01*
X159281904Y-78875000D01*
X159329523Y-78922619D01*
X159377142Y-79017857D01*
X159377142Y-79160714D01*
X159329523Y-79255952D01*
X159281904Y-79303571D01*
X159186666Y-79351190D01*
X158805714Y-79351190D01*
X160329523Y-79827380D02*
X159758095Y-79827380D01*
X160043809Y-79827380D02*
X160043809Y-78827380D01*
X159948571Y-78970238D01*
X159853333Y-79065476D01*
X159758095Y-79113095D01*
X161234285Y-78827380D02*
X160758095Y-78827380D01*
X160710476Y-79303571D01*
X160758095Y-79255952D01*
X160853333Y-79208333D01*
X161091428Y-79208333D01*
X161186666Y-79255952D01*
X161234285Y-79303571D01*
X161281904Y-79398809D01*
X161281904Y-79636904D01*
X161234285Y-79732142D01*
X161186666Y-79779761D01*
X161091428Y-79827380D01*
X160853333Y-79827380D01*
X160758095Y-79779761D01*
X160710476Y-79732142D01*
G04 #@! TO.C,R14*
X135882142Y-102687380D02*
X135548809Y-102211190D01*
X135310714Y-102687380D02*
X135310714Y-101687380D01*
X135691666Y-101687380D01*
X135786904Y-101735000D01*
X135834523Y-101782619D01*
X135882142Y-101877857D01*
X135882142Y-102020714D01*
X135834523Y-102115952D01*
X135786904Y-102163571D01*
X135691666Y-102211190D01*
X135310714Y-102211190D01*
X136834523Y-102687380D02*
X136263095Y-102687380D01*
X136548809Y-102687380D02*
X136548809Y-101687380D01*
X136453571Y-101830238D01*
X136358333Y-101925476D01*
X136263095Y-101973095D01*
X137691666Y-102020714D02*
X137691666Y-102687380D01*
X137453571Y-101639761D02*
X137215476Y-102354047D01*
X137834523Y-102354047D01*
G04 #@! TO.C,R13*
X135882142Y-105862380D02*
X135548809Y-105386190D01*
X135310714Y-105862380D02*
X135310714Y-104862380D01*
X135691666Y-104862380D01*
X135786904Y-104910000D01*
X135834523Y-104957619D01*
X135882142Y-105052857D01*
X135882142Y-105195714D01*
X135834523Y-105290952D01*
X135786904Y-105338571D01*
X135691666Y-105386190D01*
X135310714Y-105386190D01*
X136834523Y-105862380D02*
X136263095Y-105862380D01*
X136548809Y-105862380D02*
X136548809Y-104862380D01*
X136453571Y-105005238D01*
X136358333Y-105100476D01*
X136263095Y-105148095D01*
X137167857Y-104862380D02*
X137786904Y-104862380D01*
X137453571Y-105243333D01*
X137596428Y-105243333D01*
X137691666Y-105290952D01*
X137739285Y-105338571D01*
X137786904Y-105433809D01*
X137786904Y-105671904D01*
X137739285Y-105767142D01*
X137691666Y-105814761D01*
X137596428Y-105862380D01*
X137310714Y-105862380D01*
X137215476Y-105814761D01*
X137167857Y-105767142D01*
G04 #@! TO.C,R12*
X142232142Y-97142380D02*
X141898809Y-96666190D01*
X141660714Y-97142380D02*
X141660714Y-96142380D01*
X142041666Y-96142380D01*
X142136904Y-96190000D01*
X142184523Y-96237619D01*
X142232142Y-96332857D01*
X142232142Y-96475714D01*
X142184523Y-96570952D01*
X142136904Y-96618571D01*
X142041666Y-96666190D01*
X141660714Y-96666190D01*
X143184523Y-97142380D02*
X142613095Y-97142380D01*
X142898809Y-97142380D02*
X142898809Y-96142380D01*
X142803571Y-96285238D01*
X142708333Y-96380476D01*
X142613095Y-96428095D01*
X143565476Y-96237619D02*
X143613095Y-96190000D01*
X143708333Y-96142380D01*
X143946428Y-96142380D01*
X144041666Y-96190000D01*
X144089285Y-96237619D01*
X144136904Y-96332857D01*
X144136904Y-96428095D01*
X144089285Y-96570952D01*
X143517857Y-97142380D01*
X144136904Y-97142380D01*
G04 #@! TO.C,R10*
X159377142Y-83002380D02*
X159043809Y-82526190D01*
X158805714Y-83002380D02*
X158805714Y-82002380D01*
X159186666Y-82002380D01*
X159281904Y-82050000D01*
X159329523Y-82097619D01*
X159377142Y-82192857D01*
X159377142Y-82335714D01*
X159329523Y-82430952D01*
X159281904Y-82478571D01*
X159186666Y-82526190D01*
X158805714Y-82526190D01*
X160329523Y-83002380D02*
X159758095Y-83002380D01*
X160043809Y-83002380D02*
X160043809Y-82002380D01*
X159948571Y-82145238D01*
X159853333Y-82240476D01*
X159758095Y-82288095D01*
X160948571Y-82002380D02*
X161043809Y-82002380D01*
X161139047Y-82050000D01*
X161186666Y-82097619D01*
X161234285Y-82192857D01*
X161281904Y-82383333D01*
X161281904Y-82621428D01*
X161234285Y-82811904D01*
X161186666Y-82907142D01*
X161139047Y-82954761D01*
X161043809Y-83002380D01*
X160948571Y-83002380D01*
X160853333Y-82954761D01*
X160805714Y-82907142D01*
X160758095Y-82811904D01*
X160710476Y-82621428D01*
X160710476Y-82383333D01*
X160758095Y-82192857D01*
X160805714Y-82097619D01*
X160853333Y-82050000D01*
X160948571Y-82002380D01*
G04 #@! TO.C,R9*
X158567380Y-107481666D02*
X158091190Y-107815000D01*
X158567380Y-108053095D02*
X157567380Y-108053095D01*
X157567380Y-107672142D01*
X157615000Y-107576904D01*
X157662619Y-107529285D01*
X157757857Y-107481666D01*
X157900714Y-107481666D01*
X157995952Y-107529285D01*
X158043571Y-107576904D01*
X158091190Y-107672142D01*
X158091190Y-108053095D01*
X158567380Y-107005476D02*
X158567380Y-106815000D01*
X158519761Y-106719761D01*
X158472142Y-106672142D01*
X158329285Y-106576904D01*
X158138809Y-106529285D01*
X157757857Y-106529285D01*
X157662619Y-106576904D01*
X157615000Y-106624523D01*
X157567380Y-106719761D01*
X157567380Y-106910238D01*
X157615000Y-107005476D01*
X157662619Y-107053095D01*
X157757857Y-107100714D01*
X157995952Y-107100714D01*
X158091190Y-107053095D01*
X158138809Y-107005476D01*
X158186428Y-106910238D01*
X158186428Y-106719761D01*
X158138809Y-106624523D01*
X158091190Y-106576904D01*
X157995952Y-106529285D01*
G04 #@! TO.C,R8*
X159218333Y-86177380D02*
X158885000Y-85701190D01*
X158646904Y-86177380D02*
X158646904Y-85177380D01*
X159027857Y-85177380D01*
X159123095Y-85225000D01*
X159170714Y-85272619D01*
X159218333Y-85367857D01*
X159218333Y-85510714D01*
X159170714Y-85605952D01*
X159123095Y-85653571D01*
X159027857Y-85701190D01*
X158646904Y-85701190D01*
X159789761Y-85605952D02*
X159694523Y-85558333D01*
X159646904Y-85510714D01*
X159599285Y-85415476D01*
X159599285Y-85367857D01*
X159646904Y-85272619D01*
X159694523Y-85225000D01*
X159789761Y-85177380D01*
X159980238Y-85177380D01*
X160075476Y-85225000D01*
X160123095Y-85272619D01*
X160170714Y-85367857D01*
X160170714Y-85415476D01*
X160123095Y-85510714D01*
X160075476Y-85558333D01*
X159980238Y-85605952D01*
X159789761Y-85605952D01*
X159694523Y-85653571D01*
X159646904Y-85701190D01*
X159599285Y-85796428D01*
X159599285Y-85986904D01*
X159646904Y-86082142D01*
X159694523Y-86129761D01*
X159789761Y-86177380D01*
X159980238Y-86177380D01*
X160075476Y-86129761D01*
X160123095Y-86082142D01*
X160170714Y-85986904D01*
X160170714Y-85796428D01*
X160123095Y-85701190D01*
X160075476Y-85653571D01*
X159980238Y-85605952D01*
G04 #@! TO.C,R7*
X138898333Y-111577380D02*
X138565000Y-111101190D01*
X138326904Y-111577380D02*
X138326904Y-110577380D01*
X138707857Y-110577380D01*
X138803095Y-110625000D01*
X138850714Y-110672619D01*
X138898333Y-110767857D01*
X138898333Y-110910714D01*
X138850714Y-111005952D01*
X138803095Y-111053571D01*
X138707857Y-111101190D01*
X138326904Y-111101190D01*
X139231666Y-110577380D02*
X139898333Y-110577380D01*
X139469761Y-111577380D01*
G04 #@! TO.C,R5*
X178252380Y-110021666D02*
X177776190Y-110355000D01*
X178252380Y-110593095D02*
X177252380Y-110593095D01*
X177252380Y-110212142D01*
X177300000Y-110116904D01*
X177347619Y-110069285D01*
X177442857Y-110021666D01*
X177585714Y-110021666D01*
X177680952Y-110069285D01*
X177728571Y-110116904D01*
X177776190Y-110212142D01*
X177776190Y-110593095D01*
X177252380Y-109116904D02*
X177252380Y-109593095D01*
X177728571Y-109640714D01*
X177680952Y-109593095D01*
X177633333Y-109497857D01*
X177633333Y-109259761D01*
X177680952Y-109164523D01*
X177728571Y-109116904D01*
X177823809Y-109069285D01*
X178061904Y-109069285D01*
X178157142Y-109116904D01*
X178204761Y-109164523D01*
X178252380Y-109259761D01*
X178252380Y-109497857D01*
X178204761Y-109593095D01*
X178157142Y-109640714D01*
G04 #@! TO.C,R4*
X123603333Y-89122380D02*
X123270000Y-88646190D01*
X123031904Y-89122380D02*
X123031904Y-88122380D01*
X123412857Y-88122380D01*
X123508095Y-88170000D01*
X123555714Y-88217619D01*
X123603333Y-88312857D01*
X123603333Y-88455714D01*
X123555714Y-88550952D01*
X123508095Y-88598571D01*
X123412857Y-88646190D01*
X123031904Y-88646190D01*
X124460476Y-88455714D02*
X124460476Y-89122380D01*
X124222380Y-88074761D02*
X123984285Y-88789047D01*
X124603333Y-88789047D01*
G04 #@! TO.C,R3*
X123658333Y-114582380D02*
X123325000Y-114106190D01*
X123086904Y-114582380D02*
X123086904Y-113582380D01*
X123467857Y-113582380D01*
X123563095Y-113630000D01*
X123610714Y-113677619D01*
X123658333Y-113772857D01*
X123658333Y-113915714D01*
X123610714Y-114010952D01*
X123563095Y-114058571D01*
X123467857Y-114106190D01*
X123086904Y-114106190D01*
X123991666Y-113582380D02*
X124610714Y-113582380D01*
X124277380Y-113963333D01*
X124420238Y-113963333D01*
X124515476Y-114010952D01*
X124563095Y-114058571D01*
X124610714Y-114153809D01*
X124610714Y-114391904D01*
X124563095Y-114487142D01*
X124515476Y-114534761D01*
X124420238Y-114582380D01*
X124134523Y-114582380D01*
X124039285Y-114534761D01*
X123991666Y-114487142D01*
G04 #@! TO.C,Q1*
X157374761Y-116497619D02*
X157279523Y-116450000D01*
X157184285Y-116354761D01*
X157041428Y-116211904D01*
X156946190Y-116164285D01*
X156850952Y-116164285D01*
X156898571Y-116402380D02*
X156803333Y-116354761D01*
X156708095Y-116259523D01*
X156660476Y-116069047D01*
X156660476Y-115735714D01*
X156708095Y-115545238D01*
X156803333Y-115450000D01*
X156898571Y-115402380D01*
X157089047Y-115402380D01*
X157184285Y-115450000D01*
X157279523Y-115545238D01*
X157327142Y-115735714D01*
X157327142Y-116069047D01*
X157279523Y-116259523D01*
X157184285Y-116354761D01*
X157089047Y-116402380D01*
X156898571Y-116402380D01*
X158279523Y-116402380D02*
X157708095Y-116402380D01*
X157993809Y-116402380D02*
X157993809Y-115402380D01*
X157898571Y-115545238D01*
X157803333Y-115640476D01*
X157708095Y-115688095D01*
G04 #@! TO.C,J10*
X122580476Y-83282380D02*
X122580476Y-83996666D01*
X122532857Y-84139523D01*
X122437619Y-84234761D01*
X122294761Y-84282380D01*
X122199523Y-84282380D01*
X123580476Y-84282380D02*
X123009047Y-84282380D01*
X123294761Y-84282380D02*
X123294761Y-83282380D01*
X123199523Y-83425238D01*
X123104285Y-83520476D01*
X123009047Y-83568095D01*
X124199523Y-83282380D02*
X124294761Y-83282380D01*
X124390000Y-83330000D01*
X124437619Y-83377619D01*
X124485238Y-83472857D01*
X124532857Y-83663333D01*
X124532857Y-83901428D01*
X124485238Y-84091904D01*
X124437619Y-84187142D01*
X124390000Y-84234761D01*
X124294761Y-84282380D01*
X124199523Y-84282380D01*
X124104285Y-84234761D01*
X124056666Y-84187142D01*
X124009047Y-84091904D01*
X123961428Y-83901428D01*
X123961428Y-83663333D01*
X124009047Y-83472857D01*
X124056666Y-83377619D01*
X124104285Y-83330000D01*
X124199523Y-83282380D01*
G04 #@! TO.C,J9*
X132361666Y-83272380D02*
X132361666Y-83986666D01*
X132314047Y-84129523D01*
X132218809Y-84224761D01*
X132075952Y-84272380D01*
X131980714Y-84272380D01*
X132885476Y-84272380D02*
X133075952Y-84272380D01*
X133171190Y-84224761D01*
X133218809Y-84177142D01*
X133314047Y-84034285D01*
X133361666Y-83843809D01*
X133361666Y-83462857D01*
X133314047Y-83367619D01*
X133266428Y-83320000D01*
X133171190Y-83272380D01*
X132980714Y-83272380D01*
X132885476Y-83320000D01*
X132837857Y-83367619D01*
X132790238Y-83462857D01*
X132790238Y-83700952D01*
X132837857Y-83796190D01*
X132885476Y-83843809D01*
X132980714Y-83891428D01*
X133171190Y-83891428D01*
X133266428Y-83843809D01*
X133314047Y-83796190D01*
X133361666Y-83700952D01*
G04 #@! TO.C,J8*
X141886666Y-83272380D02*
X141886666Y-83986666D01*
X141839047Y-84129523D01*
X141743809Y-84224761D01*
X141600952Y-84272380D01*
X141505714Y-84272380D01*
X142505714Y-83700952D02*
X142410476Y-83653333D01*
X142362857Y-83605714D01*
X142315238Y-83510476D01*
X142315238Y-83462857D01*
X142362857Y-83367619D01*
X142410476Y-83320000D01*
X142505714Y-83272380D01*
X142696190Y-83272380D01*
X142791428Y-83320000D01*
X142839047Y-83367619D01*
X142886666Y-83462857D01*
X142886666Y-83510476D01*
X142839047Y-83605714D01*
X142791428Y-83653333D01*
X142696190Y-83700952D01*
X142505714Y-83700952D01*
X142410476Y-83748571D01*
X142362857Y-83796190D01*
X142315238Y-83891428D01*
X142315238Y-84081904D01*
X142362857Y-84177142D01*
X142410476Y-84224761D01*
X142505714Y-84272380D01*
X142696190Y-84272380D01*
X142791428Y-84224761D01*
X142839047Y-84177142D01*
X142886666Y-84081904D01*
X142886666Y-83891428D01*
X142839047Y-83796190D01*
X142791428Y-83748571D01*
X142696190Y-83700952D01*
G04 #@! TO.C,J7*
X128571666Y-113752380D02*
X128571666Y-114466666D01*
X128524047Y-114609523D01*
X128428809Y-114704761D01*
X128285952Y-114752380D01*
X128190714Y-114752380D01*
X128952619Y-113752380D02*
X129619285Y-113752380D01*
X129190714Y-114752380D01*
G04 #@! TO.C,J6*
X124972380Y-119078333D02*
X125686666Y-119078333D01*
X125829523Y-119125952D01*
X125924761Y-119221190D01*
X125972380Y-119364047D01*
X125972380Y-119459285D01*
X124972380Y-118173571D02*
X124972380Y-118364047D01*
X125020000Y-118459285D01*
X125067619Y-118506904D01*
X125210476Y-118602142D01*
X125400952Y-118649761D01*
X125781904Y-118649761D01*
X125877142Y-118602142D01*
X125924761Y-118554523D01*
X125972380Y-118459285D01*
X125972380Y-118268809D01*
X125924761Y-118173571D01*
X125877142Y-118125952D01*
X125781904Y-118078333D01*
X125543809Y-118078333D01*
X125448571Y-118125952D01*
X125400952Y-118173571D01*
X125353333Y-118268809D01*
X125353333Y-118459285D01*
X125400952Y-118554523D01*
X125448571Y-118602142D01*
X125543809Y-118649761D01*
G04 #@! TO.C,J5*
X138096666Y-113752380D02*
X138096666Y-114466666D01*
X138049047Y-114609523D01*
X137953809Y-114704761D01*
X137810952Y-114752380D01*
X137715714Y-114752380D01*
X139049047Y-113752380D02*
X138572857Y-113752380D01*
X138525238Y-114228571D01*
X138572857Y-114180952D01*
X138668095Y-114133333D01*
X138906190Y-114133333D01*
X139001428Y-114180952D01*
X139049047Y-114228571D01*
X139096666Y-114323809D01*
X139096666Y-114561904D01*
X139049047Y-114657142D01*
X139001428Y-114704761D01*
X138906190Y-114752380D01*
X138668095Y-114752380D01*
X138572857Y-114704761D01*
X138525238Y-114657142D01*
G04 #@! TO.C,J4*
X167941666Y-113752380D02*
X167941666Y-114466666D01*
X167894047Y-114609523D01*
X167798809Y-114704761D01*
X167655952Y-114752380D01*
X167560714Y-114752380D01*
X168846428Y-114085714D02*
X168846428Y-114752380D01*
X168608333Y-113704761D02*
X168370238Y-114419047D01*
X168989285Y-114419047D01*
G04 #@! TO.C,J3*
X135556666Y-92162380D02*
X135556666Y-92876666D01*
X135509047Y-93019523D01*
X135413809Y-93114761D01*
X135270952Y-93162380D01*
X135175714Y-93162380D01*
X135937619Y-92162380D02*
X136556666Y-92162380D01*
X136223333Y-92543333D01*
X136366190Y-92543333D01*
X136461428Y-92590952D01*
X136509047Y-92638571D01*
X136556666Y-92733809D01*
X136556666Y-92971904D01*
X136509047Y-93067142D01*
X136461428Y-93114761D01*
X136366190Y-93162380D01*
X136080476Y-93162380D01*
X135985238Y-93114761D01*
X135937619Y-93067142D01*
G04 #@! TO.C,J2*
X177466666Y-113752380D02*
X177466666Y-114466666D01*
X177419047Y-114609523D01*
X177323809Y-114704761D01*
X177180952Y-114752380D01*
X177085714Y-114752380D01*
X177895238Y-113847619D02*
X177942857Y-113800000D01*
X178038095Y-113752380D01*
X178276190Y-113752380D01*
X178371428Y-113800000D01*
X178419047Y-113847619D01*
X178466666Y-113942857D01*
X178466666Y-114038095D01*
X178419047Y-114180952D01*
X177847619Y-114752380D01*
X178466666Y-114752380D01*
G04 #@! TO.C,J1*
X117562380Y-99393333D02*
X118276666Y-99393333D01*
X118419523Y-99440952D01*
X118514761Y-99536190D01*
X118562380Y-99679047D01*
X118562380Y-99774285D01*
X118562380Y-98393333D02*
X118562380Y-98964761D01*
X118562380Y-98679047D02*
X117562380Y-98679047D01*
X117705238Y-98774285D01*
X117800476Y-98869523D01*
X117848095Y-98964761D01*
G04 #@! TO.C,D2*
X115466904Y-89772380D02*
X115466904Y-88772380D01*
X115705000Y-88772380D01*
X115847857Y-88820000D01*
X115943095Y-88915238D01*
X115990714Y-89010476D01*
X116038333Y-89200952D01*
X116038333Y-89343809D01*
X115990714Y-89534285D01*
X115943095Y-89629523D01*
X115847857Y-89724761D01*
X115705000Y-89772380D01*
X115466904Y-89772380D01*
X116419285Y-88867619D02*
X116466904Y-88820000D01*
X116562142Y-88772380D01*
X116800238Y-88772380D01*
X116895476Y-88820000D01*
X116943095Y-88867619D01*
X116990714Y-88962857D01*
X116990714Y-89058095D01*
X116943095Y-89200952D01*
X116371666Y-89772380D01*
X116990714Y-89772380D01*
G04 #@! TO.C,D1*
X115466904Y-109252380D02*
X115466904Y-108252380D01*
X115705000Y-108252380D01*
X115847857Y-108300000D01*
X115943095Y-108395238D01*
X115990714Y-108490476D01*
X116038333Y-108680952D01*
X116038333Y-108823809D01*
X115990714Y-109014285D01*
X115943095Y-109109523D01*
X115847857Y-109204761D01*
X115705000Y-109252380D01*
X115466904Y-109252380D01*
X116990714Y-109252380D02*
X116419285Y-109252380D01*
X116705000Y-109252380D02*
X116705000Y-108252380D01*
X116609761Y-108395238D01*
X116514523Y-108490476D01*
X116419285Y-108538095D01*
G04 #@! TO.C,C9*
X162917142Y-95416666D02*
X162964761Y-95464285D01*
X163012380Y-95607142D01*
X163012380Y-95702380D01*
X162964761Y-95845238D01*
X162869523Y-95940476D01*
X162774285Y-95988095D01*
X162583809Y-96035714D01*
X162440952Y-96035714D01*
X162250476Y-95988095D01*
X162155238Y-95940476D01*
X162060000Y-95845238D01*
X162012380Y-95702380D01*
X162012380Y-95607142D01*
X162060000Y-95464285D01*
X162107619Y-95416666D01*
X163012380Y-94940476D02*
X163012380Y-94750000D01*
X162964761Y-94654761D01*
X162917142Y-94607142D01*
X162774285Y-94511904D01*
X162583809Y-94464285D01*
X162202857Y-94464285D01*
X162107619Y-94511904D01*
X162060000Y-94559523D01*
X162012380Y-94654761D01*
X162012380Y-94845238D01*
X162060000Y-94940476D01*
X162107619Y-94988095D01*
X162202857Y-95035714D01*
X162440952Y-95035714D01*
X162536190Y-94988095D01*
X162583809Y-94940476D01*
X162631428Y-94845238D01*
X162631428Y-94654761D01*
X162583809Y-94559523D01*
X162536190Y-94511904D01*
X162440952Y-94464285D01*
G04 #@! TO.C,C8*
X154773333Y-122912142D02*
X154725714Y-122959761D01*
X154582857Y-123007380D01*
X154487619Y-123007380D01*
X154344761Y-122959761D01*
X154249523Y-122864523D01*
X154201904Y-122769285D01*
X154154285Y-122578809D01*
X154154285Y-122435952D01*
X154201904Y-122245476D01*
X154249523Y-122150238D01*
X154344761Y-122055000D01*
X154487619Y-122007380D01*
X154582857Y-122007380D01*
X154725714Y-122055000D01*
X154773333Y-122102619D01*
X155344761Y-122435952D02*
X155249523Y-122388333D01*
X155201904Y-122340714D01*
X155154285Y-122245476D01*
X155154285Y-122197857D01*
X155201904Y-122102619D01*
X155249523Y-122055000D01*
X155344761Y-122007380D01*
X155535238Y-122007380D01*
X155630476Y-122055000D01*
X155678095Y-122102619D01*
X155725714Y-122197857D01*
X155725714Y-122245476D01*
X155678095Y-122340714D01*
X155630476Y-122388333D01*
X155535238Y-122435952D01*
X155344761Y-122435952D01*
X155249523Y-122483571D01*
X155201904Y-122531190D01*
X155154285Y-122626428D01*
X155154285Y-122816904D01*
X155201904Y-122912142D01*
X155249523Y-122959761D01*
X155344761Y-123007380D01*
X155535238Y-123007380D01*
X155630476Y-122959761D01*
X155678095Y-122912142D01*
X155725714Y-122816904D01*
X155725714Y-122626428D01*
X155678095Y-122531190D01*
X155630476Y-122483571D01*
X155535238Y-122435952D01*
G04 #@! TO.C,C7*
X183368333Y-93657142D02*
X183320714Y-93704761D01*
X183177857Y-93752380D01*
X183082619Y-93752380D01*
X182939761Y-93704761D01*
X182844523Y-93609523D01*
X182796904Y-93514285D01*
X182749285Y-93323809D01*
X182749285Y-93180952D01*
X182796904Y-92990476D01*
X182844523Y-92895238D01*
X182939761Y-92800000D01*
X183082619Y-92752380D01*
X183177857Y-92752380D01*
X183320714Y-92800000D01*
X183368333Y-92847619D01*
X183701666Y-92752380D02*
X184368333Y-92752380D01*
X183939761Y-93752380D01*
G04 #@! TO.C,C6*
X186102142Y-105536666D02*
X186149761Y-105584285D01*
X186197380Y-105727142D01*
X186197380Y-105822380D01*
X186149761Y-105965238D01*
X186054523Y-106060476D01*
X185959285Y-106108095D01*
X185768809Y-106155714D01*
X185625952Y-106155714D01*
X185435476Y-106108095D01*
X185340238Y-106060476D01*
X185245000Y-105965238D01*
X185197380Y-105822380D01*
X185197380Y-105727142D01*
X185245000Y-105584285D01*
X185292619Y-105536666D01*
X185197380Y-104679523D02*
X185197380Y-104870000D01*
X185245000Y-104965238D01*
X185292619Y-105012857D01*
X185435476Y-105108095D01*
X185625952Y-105155714D01*
X186006904Y-105155714D01*
X186102142Y-105108095D01*
X186149761Y-105060476D01*
X186197380Y-104965238D01*
X186197380Y-104774761D01*
X186149761Y-104679523D01*
X186102142Y-104631904D01*
X186006904Y-104584285D01*
X185768809Y-104584285D01*
X185673571Y-104631904D01*
X185625952Y-104679523D01*
X185578333Y-104774761D01*
X185578333Y-104965238D01*
X185625952Y-105060476D01*
X185673571Y-105108095D01*
X185768809Y-105155714D01*
G04 #@! TO.C,C5*
X165312142Y-90356666D02*
X165359761Y-90404285D01*
X165407380Y-90547142D01*
X165407380Y-90642380D01*
X165359761Y-90785238D01*
X165264523Y-90880476D01*
X165169285Y-90928095D01*
X164978809Y-90975714D01*
X164835952Y-90975714D01*
X164645476Y-90928095D01*
X164550238Y-90880476D01*
X164455000Y-90785238D01*
X164407380Y-90642380D01*
X164407380Y-90547142D01*
X164455000Y-90404285D01*
X164502619Y-90356666D01*
X164407380Y-89451904D02*
X164407380Y-89928095D01*
X164883571Y-89975714D01*
X164835952Y-89928095D01*
X164788333Y-89832857D01*
X164788333Y-89594761D01*
X164835952Y-89499523D01*
X164883571Y-89451904D01*
X164978809Y-89404285D01*
X165216904Y-89404285D01*
X165312142Y-89451904D01*
X165359761Y-89499523D01*
X165407380Y-89594761D01*
X165407380Y-89832857D01*
X165359761Y-89928095D01*
X165312142Y-89975714D01*
G04 #@! TO.C,C4*
X183382142Y-95396666D02*
X183429761Y-95444285D01*
X183477380Y-95587142D01*
X183477380Y-95682380D01*
X183429761Y-95825238D01*
X183334523Y-95920476D01*
X183239285Y-95968095D01*
X183048809Y-96015714D01*
X182905952Y-96015714D01*
X182715476Y-95968095D01*
X182620238Y-95920476D01*
X182525000Y-95825238D01*
X182477380Y-95682380D01*
X182477380Y-95587142D01*
X182525000Y-95444285D01*
X182572619Y-95396666D01*
X182810714Y-94539523D02*
X183477380Y-94539523D01*
X182429761Y-94777619D02*
X183144047Y-95015714D01*
X183144047Y-94396666D01*
G04 #@! TO.C,C3*
X137472142Y-89046666D02*
X137519761Y-89094285D01*
X137567380Y-89237142D01*
X137567380Y-89332380D01*
X137519761Y-89475238D01*
X137424523Y-89570476D01*
X137329285Y-89618095D01*
X137138809Y-89665714D01*
X136995952Y-89665714D01*
X136805476Y-89618095D01*
X136710238Y-89570476D01*
X136615000Y-89475238D01*
X136567380Y-89332380D01*
X136567380Y-89237142D01*
X136615000Y-89094285D01*
X136662619Y-89046666D01*
X136567380Y-88713333D02*
X136567380Y-88094285D01*
X136948333Y-88427619D01*
X136948333Y-88284761D01*
X136995952Y-88189523D01*
X137043571Y-88141904D01*
X137138809Y-88094285D01*
X137376904Y-88094285D01*
X137472142Y-88141904D01*
X137519761Y-88189523D01*
X137567380Y-88284761D01*
X137567380Y-88570476D01*
X137519761Y-88665714D01*
X137472142Y-88713333D01*
G04 #@! TO.C,C2*
X137472142Y-109366666D02*
X137519761Y-109414285D01*
X137567380Y-109557142D01*
X137567380Y-109652380D01*
X137519761Y-109795238D01*
X137424523Y-109890476D01*
X137329285Y-109938095D01*
X137138809Y-109985714D01*
X136995952Y-109985714D01*
X136805476Y-109938095D01*
X136710238Y-109890476D01*
X136615000Y-109795238D01*
X136567380Y-109652380D01*
X136567380Y-109557142D01*
X136615000Y-109414285D01*
X136662619Y-109366666D01*
X136662619Y-108985714D02*
X136615000Y-108938095D01*
X136567380Y-108842857D01*
X136567380Y-108604761D01*
X136615000Y-108509523D01*
X136662619Y-108461904D01*
X136757857Y-108414285D01*
X136853095Y-108414285D01*
X136995952Y-108461904D01*
X137567380Y-109033333D01*
X137567380Y-108414285D01*
G04 #@! TD*
M02*
